<svg width="34" height="20" fill="none" xmlns="http://www.w3.org/2000/svg"><mask id="a" style="mask-type:luminance" maskUnits="userSpaceOnUse" x="0" y="0" width="34" height="20"><path d="M33.56 0H0v19.58h33.56V0z" fill="#fff"/></mask><g mask="url(#a)"><path d="M33.55 0H-.01v19.58h33.56V0z" fill="#3C9242"/><path d="M5.17 9.79l11.6 7.41 11.61-7.41-11.61-7.41-11.6 7.41z" fill="#EDC226"/><mask id="b" style="mask-type:luminance" maskUnits="userSpaceOnUse" x="0" y="0" width="34" height="20"><path d="M33.56 0H0v19.58h33.56V0z" fill="#fff"/></mask><g mask="url(#b)"><path d="M21.67 9.78a4.89 4.89 0 11-9.78 0 4.89 4.89 0 019.78 0z" fill="#2D146E"/><path d="M13.98 7.69c-.562 0-1.124.04-1.68.12-.106.24-.193.487-.26.74.64-.11 1.29-.163 1.94-.16a11.14 11.14 0 017.47 2.86c.083-.254.14-.515.17-.78a11.8 11.8 0 00-7.64-2.78z" fill="#fff"/><path fill-rule="evenodd" clip-rule="evenodd" d="M12.6 8.31a.21.21 0 00.18-.25.221.221 0 00-.145-.197.22.22 0 00-.085-.013.22.22 0 00-.18.26.21.21 0 00.23.2zm0-.08a.15.15 0 00.11-.16.13.13 0 10-.25 0 .14.14 0 00.14.13m.38.11h.09v-.18h.19a.16.16 0 00.13-.16.15.15 0 00-.16-.13h-.27l.02.47zm.07-.26h.18a.08.08 0 00.05-.07h-.24l.01.07z" fill="#3C9242"/><path d="M13.38 8.31c0-.06 0-.21-.12-.2h-.12c.14 0 .15.13.16.2" fill="#3C9242"/><path fill-rule="evenodd" clip-rule="evenodd" d="M13.58 8.31h.21a.19.19 0 00.2-.2v-.07a.21.21 0 00-.21-.2h-.21l.01.47zm.08-.09h.12a.12.12 0 00.13-.12v-.05a.13.13 0 00-.13-.12h-.13l.01.29z" fill="#3C9242"/><path d="M14.16 8.27l.42.02V8.2l-.33-.01v-.12l.27.01V8l-.27-.01V7.9l.32.01v-.09l-.39-.01-.02.46zm.59.03h.08l.03-.31.06.32.08.01.12-.31-.03.32.08.01.04-.47-.11-.01-.13.31-.06-.33-.12-.01-.04.47zm.97.11l.35.05v-.07l-.26-.05.02-.1.22.03.01-.08-.21-.03.01-.07.25.04.01-.08-.33-.06-.07.42z" fill="#3C9242"/><path fill-rule="evenodd" clip-rule="evenodd" d="M16.61 8.58h.08l.05-.17h.17a.15.15 0 00.19-.164.15.15 0 00-.11-.126l-.26-.06-.12.52zm.15-.23h.17a.06.06 0 00.07 0v-.07l-.17-.05-.07.12zm.42.38h.08l.06-.16.17.06a.16.16 0 00.19-.1.141.141 0 00-.048-.155.14.14 0 00-.052-.025l-.26-.08-.14.46zm.16-.22l.17.05a.06.06 0 00.08 0 .06.06 0 000-.07l-.17-.06-.08.08z" fill="#3C9242"/><path d="M17.56 8.85c0-.07.06-.2 0-.23h-.12c.13 0 .09.18.07.24" fill="#3C9242"/><path fill-rule="evenodd" clip-rule="evenodd" d="M17.94 8.99a.24.24 0 00.28-.15.212.212 0 00-.054-.231.214.214 0 00-.346.081.24.24 0 00.12.3zm0-.09a.13.13 0 00.17-.09.13.13 0 00-.07-.18.15.15 0 00-.17.09.14.14 0 00.07.18zm.55.31a.25.25 0 00.29-.13.24.24 0 00-.11-.3.21.21 0 00-.28.13.218.218 0 00.03.247.22.22 0 00.07.053zm0-.08a.15.15 0 00.12-.27.13.13 0 00-.17.08.15.15 0 000 .19" fill="#3C9242"/><path d="M18.61 9.01l.16.07-.03.06-.16-.07.03-.06z" fill="#3C9242"/><path d="M18.71 9.05l.06.03-.09.21-.06-.02.09-.22z" fill="#3C9242"/><path fill-rule="evenodd" clip-rule="evenodd" d="M18.84 9.36h.08l.07-.15.17.08a.14.14 0 00.19-.06.14.14 0 00-.06-.2l-.24-.12-.21.45zm.19-.19l.16.08a.06.06 0 00.08 0 .06.06 0 000-.08l-.17-.08-.07.08z" fill="#3C9242"/><path d="M19.19 9.54c0-.06.09-.19 0-.23l-.12-.06c.14.06.07.19 0 .25m.29.14l.37.2.04-.07-.3-.17.06-.11.23.14.04-.08-.23-.12.05-.09.27.16.05-.07-.35-.2-.23.41zm.69.22s0 .08.05.12c.05.04.1 0 .11 0 .01 0-.24-.2-.15-.34s.21 0 .26 0a.15.15 0 01.07.21l-.09-.06v-.1c0-.02-.08-.05-.11 0s.25.18.16.32-.18.06-.25 0-.17-.14-.11-.24l.06.09zm.5.33v.12c0 .04.1 0 .12 0 .02 0-.24-.21-.14-.35.1-.14.22 0 .26 0 .04 0 .13.13.06.22l-.08-.06s0-.08-.05-.12c-.05-.04-.07 0-.1 0s.23.2.14.33-.19.05-.25 0-.16-.15-.09-.24l.13.1z" fill="#3C9242"/><path fill-rule="evenodd" clip-rule="evenodd" d="M21.02 10.73a.23.23 0 00.31 0 .23.23 0 000-.32.23.23 0 00-.31 0 .23.23 0 000 .32zm.05-.07a.131.131 0 00.147.03.131.131 0 00.043-.03.14.14 0 000-.19.13.13 0 00-.18 0 .131.131 0 00-.03.147.13.13 0 00.03.043" fill="#3C9242"/><path d="M12.78 8.7l-.07.2.1.03-.03-.23z" fill="#fff"/><path d="M12.78 8.7l.06.2-.1.03.04-.23z" fill="#fff"/><path d="M12.98 8.85h-.21v.1l.21-.1z" fill="#fff"/><path d="M12.98 8.85l-.17.12-.07-.09.24-.03z" fill="#fff"/><path d="M12.58 8.85l.17.12.06-.09-.23-.03z" fill="#fff"/><path d="M12.58 8.85h.21v.1l-.21-.1z" fill="#fff"/><path d="M12.9 9.08l-.07-.2-.09.03.16.17z" fill="#fff"/><path d="M12.9 9.08l-.17-.13.06-.08.11.21z" fill="#fff"/><path d="M12.65 9.08l.17-.13-.06-.08-.11.21z" fill="#fff"/><path d="M12.65 9.08l.07-.2.1.03-.17.17zm.56 1.68l-.06.2.1.03-.04-.23z" fill="#fff"/><path d="M13.21 10.76l.06.2-.09.03.03-.23z" fill="#fff"/><path d="M13.41 10.9h-.21v.11l.21-.11z" fill="#fff"/><path d="M13.41 10.9l-.17.13-.06-.09.23-.04z" fill="#fff"/><path d="M13.01 10.9l.17.13.07-.09-.24-.04z" fill="#fff"/><path d="M13.01 10.9h.21v.11l-.21-.11z" fill="#fff"/><path d="M13.33 11.14l-.06-.2-.1.03.16.17z" fill="#fff"/><path d="M13.33 11.14l-.16-.13.06-.08.1.21z" fill="#fff"/><path d="M13.08 11.14l.18-.13-.07-.08-.11.21z" fill="#fff"/><path d="M13.08 11.14l.07-.2.1.03-.17.17zm-.47.13l-.04.13.07.02-.03-.15z" fill="#fff"/><path d="M12.61 11.27l.04.13-.06.02.02-.15z" fill="#fff"/><path d="M12.74 11.36h-.14v.07l.14-.07z" fill="#fff"/><path d="M12.74 11.36l-.11.09-.04-.06.15-.03z" fill="#fff"/><path d="M12.48 11.36l.11.09.04-.06-.15-.03z" fill="#fff"/><path d="M12.48 11.36h.14v.07l-.14-.07z" fill="#fff"/><path d="M12.69 11.52l-.04-.13-.07.02.11.11z" fill="#fff"/><path d="M12.69 11.52l-.11-.08.04-.06.07.14z" fill="#fff"/><path d="M12.53 11.52l.11-.08-.04-.06-.07.14z" fill="#fff"/><path d="M12.53 11.52l.04-.13.07.02-.11.11zm1.16-.95l-.03.09.04.02-.01-.11z" fill="#fff"/><path d="M13.69 10.57l.03.09-.05.02.02-.11z" fill="#fff"/><path d="M13.78 10.64h-.09v.05l.09-.05z" fill="#fff"/><path d="M13.78 10.64l-.08.06-.02-.05.1-.01z" fill="#fff"/><path d="M13.59 10.64l.09.06.02-.05-.11-.01z" fill="#fff"/><path d="M13.59 10.64h.1v.05l-.1-.05z" fill="#fff"/><path d="M13.75 10.75l-.03-.1-.05.02.08.08z" fill="#fff"/><path d="M13.75 10.75l-.08-.06.03-.04.05.1z" fill="#fff"/><path d="M13.63 10.75l.08-.06-.03-.04-.05.1z" fill="#fff"/><path d="M13.63 10.75l.03-.1.05.02-.08.08zm.6.53l-.05.16.07.03-.02-.19z" fill="#fff"/><path d="M14.23 11.28l.05.16-.08.03.03-.19z" fill="#fff"/><path d="M14.39 11.4h-.17v.08l.17-.08z" fill="#fff"/><path d="M14.39 11.4l-.14.1-.05-.07.19-.03z" fill="#fff"/><path d="M14.06 11.4l.14.1.05-.07-.19-.03z" fill="#fff"/><path d="M14.06 11.4h.18v.08l-.18-.08z" fill="#fff"/><path d="M14.33 11.59l-.05-.16-.09.03.14.13z" fill="#fff"/><path d="M14.33 11.59l-.14-.1.05-.07.09.17z" fill="#fff"/><path d="M14.13 11.59l.14-.1-.05-.07-.09.17z" fill="#fff"/><path d="M14.13 11.59l.05-.16.08.03-.13.13zm-.05.17l-.05.17.08.03-.03-.2z" fill="#fff"/><path d="M14.08 11.76l.06.17-.09.03.03-.2z" fill="#fff"/><path d="M14.25 11.89h-.18v.08l.18-.08z" fill="#fff"/><path d="M14.25 11.89l-.14.1-.05-.07.19-.03z" fill="#fff"/><path d="M13.92 11.89l.14.1.05-.07-.19-.03z" fill="#fff"/><path d="M13.92 11.89h.17v.08l-.17-.08z" fill="#fff"/><path d="M14.19 12.08l-.06-.17-.08.03.14.14z" fill="#fff"/><path d="M14.19 12.08l-.15-.1.06-.07.09.17z" fill="#fff"/><path d="M13.98 12.08l.14-.1-.05-.07-.09.17z" fill="#fff"/><path d="M13.98 12.08l.05-.17.09.03-.14.14zm4.31-4.02l-.06.2.1.03-.04-.23z" fill="#fff"/><path d="M18.29 8.06l.07.2-.11.03.04-.23z" fill="#fff"/><path d="M18.49 8.2h-.21v.11l.21-.11z" fill="#fff"/><path d="M18.49 8.2l-.17.13-.06-.09.23-.04z" fill="#fff"/><path d="M18.09 8.2l.17.13.06-.09-.23-.04z" fill="#fff"/><path d="M18.09 8.2h.21v.11l-.21-.11z" fill="#fff"/><path d="M18.42 8.44l-.07-.2-.1.03.17.17z" fill="#fff"/><path d="M18.42 8.44l-.18-.12.07-.09.11.21z" fill="#fff"/><path d="M18.17 8.44l.17-.12-.06-.09-.11.21z" fill="#fff"/><path d="M18.17 8.44l.06-.2.1.03-.16.17zm2.03 2.86l-.06.2.1.03-.04-.23z" fill="#fff"/><path d="M20.2 11.3l.07.2-.1.03.03-.23z" fill="#fff"/><path d="M20.4 11.44h-.21v.1l.21-.1z" fill="#fff"/><path d="M20.4 11.44l-.17.12-.06-.08.23-.04z" fill="#fff"/><path d="M20 11.44l.17.12.06-.08-.23-.04z" fill="#fff"/><path d="M20 11.44h.21v.1l-.21-.1z" fill="#fff"/><path d="M20.33 11.68l-.07-.2-.1.03.17.17z" fill="#fff"/><path d="M20.33 11.68l-.17-.13.06-.08.11.21z" fill="#fff"/><path d="M20.08 11.68l.17-.13-.06-.08-.11.21z" fill="#fff"/><path d="M20.08 11.68l.06-.2.11.03-.17.17zm.8-.27l-.04.13.07.03-.03-.16z" fill="#fff"/><path d="M20.88 11.41l.05.13-.07.03.02-.16z" fill="#fff"/><path d="M21.01 11.51h-.13v.07l.13-.07z" fill="#fff"/><path d="M21.01 11.51l-.11.08-.04-.06.15-.02z" fill="#fff"/><path d="M20.75 11.51l.11.08.04-.06-.15-.02z" fill="#fff"/><path d="M20.75 11.51h.14v.07l-.14-.07z" fill="#fff"/><path d="M20.96 11.66l-.04-.13-.06.02.1.11z" fill="#fff"/><path d="M20.96 11.66l-.11-.08.04-.05.07.13z" fill="#fff"/><path d="M20.8 11.66l.11-.08-.04-.05-.07.13z" fill="#fff"/><path d="M20.8 11.66l.04-.13.07.02-.11.11zm-.4.1l-.05.17.08.03-.03-.2z" fill="#fff"/><path d="M20.4 11.76l.05.17-.07.03.02-.2z" fill="#fff"/><path d="M20.57 11.89h-.18v.08l.18-.08z" fill="#fff"/><path d="M20.57 11.89l-.14.1-.05-.07.19-.03z" fill="#fff"/><path d="M20.24 11.89l.14.1.05-.07-.19-.03z" fill="#fff"/><path d="M20.24 11.89h.17v.08l-.17-.08z" fill="#fff"/><path d="M20.5 12.08l-.05-.17-.08.03.13.14z" fill="#fff"/><path d="M20.5 12.08l-.14-.1.06-.07.08.17z" fill="#fff"/><path d="M20.3 12.08l.14-.1-.05-.07-.09.17z" fill="#fff"/><path d="M20.3 12.08l.05-.17.09.03-.14.14zm-1.08.71l-.05.16.08.03-.03-.19z" fill="#fff"/><path d="M19.22 12.79l.06.16-.09.03.03-.19z" fill="#fff"/><path d="M19.39 12.91h-.17V13l.17-.09z" fill="#fff"/><path d="M19.39 12.91l-.14.1-.05-.07.19-.03z" fill="#fff"/><path d="M19.06 12.91l.14.1.05-.07-.19-.03z" fill="#fff"/><path d="M19.06 12.91h.17V13l-.17-.09z" fill="#fff"/><path d="M19.32 13.11l-.05-.17-.08.03.13.14z" fill="#fff"/><path d="M19.32 13.11l-.14-.11.05-.07.09.18z" fill="#fff"/><path d="M19.12 13.11l.14-.11-.05-.07-.09.18z" fill="#fff"/><path d="M19.12 13.11l.06-.17.08.03-.14.14zm.1.21l-.04.13.06.02-.02-.15z" fill="#fff"/><path d="M19.22 13.32l.04.13-.07.02.03-.15z" fill="#fff"/><path d="M19.35 13.41h-.14v.07l.14-.07z" fill="#fff"/><path d="M19.35 13.41l-.12.08-.04-.05.16-.03z" fill="#fff"/><path d="M19.08 13.41l.12.08.04-.05-.16-.03z" fill="#fff"/><path d="M19.08 13.41h.14v.07l-.14-.07z" fill="#fff"/><path d="M19.3 13.57l-.05-.13-.06.02.11.11z" fill="#fff"/><path d="M19.3 13.57l-.12-.08.05-.06.07.14z" fill="#fff"/><path d="M19.14 13.57l.11-.08-.05-.06-.06.14z" fill="#fff"/><path d="M19.14 13.57l.04-.13.06.02-.1.11zm.57-1.13l-.04.13.06.02-.02-.15z" fill="#fff"/><path d="M19.71 12.44l.04.13-.06.02.02-.15z" fill="#fff"/><path d="M19.84 12.53h-.14v.08l.14-.08z" fill="#fff"/><path d="M19.84 12.53l-.11.09-.04-.06.15-.03z" fill="#fff"/><path d="M19.58 12.53l.11.09.04-.06-.15-.03z" fill="#fff"/><path d="M19.58 12.53h.14v.08l-.14-.08z" fill="#fff"/><path d="M19.79 12.69l-.04-.13-.07.02.11.11z" fill="#fff"/><path d="M19.79 12.69l-.11-.08.04-.06.07.14z" fill="#fff"/><path d="M19.63 12.69l.11-.08-.04-.06-.07.14z" fill="#fff"/><path d="M19.63 12.69l.04-.13.07.02-.11.11zm.47-.53l-.05.16.08.03-.03-.19z" fill="#fff"/><path d="M20.1 12.16l.06.16-.09.03.03-.19z" fill="#fff"/><path d="M20.27 12.28h-.18v.08l.18-.08z" fill="#fff"/><path d="M20.27 12.28l-.14.1-.05-.07.19-.03z" fill="#fff"/><path d="M19.94 12.28l.14.1.05-.07-.19-.03z" fill="#fff"/><path d="M19.94 12.28h.17v.08l-.17-.08z" fill="#fff"/><path d="M20.2 12.47l-.05-.16-.08.02.13.14z" fill="#fff"/><path d="M20.2 12.47l-.14-.1.05-.07.09.17z" fill="#fff"/><path d="M20 12.47l.14-.1-.05-.07-.09.17z" fill="#fff"/><path d="M20 12.47l.06-.16.08.02-.14.14zm-.8-.12l-.04.13.07.02-.03-.15z" fill="#fff"/><path d="M19.2 12.35l.05.13-.07.02.02-.15z" fill="#fff"/><path d="M19.34 12.44h-.14v.07l.14-.07z" fill="#fff"/><path d="M19.34 12.44l-.12.08-.04-.05.16-.03z" fill="#fff"/><path d="M19.07 12.44l.11.08.04-.05-.15-.03z" fill="#fff"/><path d="M19.07 12.44h.14v.07l-.14-.07z" fill="#fff"/><path d="M19.29 12.6l-.05-.14-.06.02.11.12z" fill="#fff"/><path d="M19.29 12.6l-.12-.08.04-.06.08.14z" fill="#fff"/><path d="M19.12 12.6l.11-.08-.04-.06-.07.14z" fill="#fff"/><path d="M19.12 12.6l.05-.14.06.02-.11.12zm-4.21-2.79l-.05.17.08.03-.03-.2z" fill="#fff"/><path d="M14.91 9.81l.05.17-.08.03.03-.2z" fill="#fff"/><path d="M15.07 9.93h-.17v.09l.17-.09z" fill="#fff"/><path d="M15.07 9.93l-.13.11-.06-.07.19-.04z" fill="#fff"/><path d="M14.74 9.93l.14.11.06-.07-.2-.04z" fill="#fff"/><path d="M14.74 9.93h.18v.09l-.18-.09z" fill="#fff"/><path d="M15.01 10.13l-.05-.17-.08.03.13.14z" fill="#fff"/><path d="M15.01 10.13l-.14-.1.05-.07.09.17z" fill="#fff"/><path d="M14.8 10.13l.15-.1-.05-.07-.1.17z" fill="#fff"/><path d="M14.8 10.13l.06-.17.08.03-.14.14zm3.3-.73l-.04.13.07.02-.03-.15z" fill="#fff"/><path d="M18.1 9.4l.05.13-.07.02.02-.15z" fill="#fff"/><path d="M18.24 9.5h-.14v.07l.14-.07z" fill="#fff"/><path d="M18.24 9.5l-.12.08-.04-.06.16-.02z" fill="#fff"/><path d="M17.97 9.5l.11.08.04-.06-.15-.02z" fill="#fff"/><path d="M17.97 9.5h.14v.07l-.14-.07z" fill="#fff"/><path d="M18.19 9.65l-.05-.13-.06.02.11.11z" fill="#fff"/><path d="M18.19 9.65l-.12-.08.04-.05.08.13z" fill="#fff"/><path d="M18.02 9.65l.12-.08-.04-.05-.08.13z" fill="#fff"/><path d="M18.02 9.65l.05-.13.06.02-.11.11zm-1.25 2.13l-.06.19.1.04-.04-.23z" fill="#fff"/><path d="M16.77 11.78l.07.19-.1.04.03-.23z" fill="#fff"/><path d="M16.97 11.92h-.21v.11l.21-.11z" fill="#fff"/><path d="M16.97 11.92l-.17.12-.06-.08.23-.04z" fill="#fff"/><path d="M16.57 11.92l.18.12.05-.08-.23-.04z" fill="#fff"/><path d="M16.57 11.92h.21v.11l-.21-.11z" fill="#fff"/><path d="M16.9 12.15l-.07-.19-.1.03.17.16z" fill="#fff"/><path d="M16.9 12.15l-.17-.12.06-.08.11.2z" fill="#fff"/><path d="M16.65 12.15l.17-.12-.06-.08-.11.2z" fill="#fff"/><path d="M16.65 12.15l.06-.19.11.03-.17.16zm.69-1.31l-.05.17.08.02-.03-.19z" fill="#fff"/><path d="M17.34 10.84l.06.17-.09.02.03-.19z" fill="#fff"/><path d="M17.5 10.96h-.17v.08l.17-.08z" fill="#fff"/><path d="M17.5 10.96l-.14.1-.05-.07.19-.03z" fill="#fff"/><path d="M17.18 10.96l.14.1.05-.07-.19-.03z" fill="#fff"/><path d="M17.18 10.96h.17v.08l-.17-.08z" fill="#fff"/><path d="M17.44 11.15l-.05-.16-.08.03.13.13z" fill="#fff"/><path d="M17.44 11.15l-.14-.1.05-.07.09.17z" fill="#fff"/><path d="M17.24 11.15l.14-.1-.05-.07-.09.17z" fill="#fff"/><path d="M17.24 11.15l.05-.16.08.03-.13.13zm-.47-.75l-.05.16.08.03-.03-.19z" fill="#fff"/><path d="M16.77 10.4l.05.16-.07.03.02-.19z" fill="#fff"/><path d="M16.94 10.52h-.18v.09l.18-.09z" fill="#fff"/><path d="M16.94 10.52l-.14.1-.05-.07.19-.03z" fill="#fff"/><path d="M16.61 10.52l.14.1.05-.07-.19-.03z" fill="#fff"/><path d="M16.61 10.52h.17v.09l-.17-.09z" fill="#fff"/><path d="M16.88 10.71l-.06-.16-.08.02.14.14z" fill="#fff"/><path d="M16.88 10.71l-.14-.1.05-.07.09.17z" fill="#fff"/><path d="M16.67 10.71l.14-.1-.05-.07-.09.17z" fill="#fff"/><path d="M16.67 10.71l.05-.16.09.02-.14.14zm-.39.16l-.04.14.06.02-.02-.16z" fill="#fff"/><path d="M16.28 10.87l.04.14-.06.02.02-.16z" fill="#fff"/><path d="M16.41 10.97h-.14v.07l.14-.07z" fill="#fff"/><path d="M16.41 10.97l-.11.08-.04-.06.15-.02z" fill="#fff"/><path d="M16.15 10.97l.11.08.04-.06-.15-.02z" fill="#fff"/><path d="M16.15 10.97h.14v.07l-.14-.07z" fill="#fff"/><path d="M16.36 11.13l-.04-.14-.07.03.11.11z" fill="#fff"/><path d="M16.36 11.13l-.11-.09.04-.05.07.14z" fill="#fff"/><path d="M16.2 11.13l.11-.09-.04-.05-.07.14z" fill="#fff"/><path d="M16.2 11.13l.04-.14.07.03-.11.11zm.33.12l-.03.1.04.01-.01-.11z" fill="#fff"/><path d="M16.53 11.25l.03.1-.05.01.02-.11z" fill="#fff"/><path d="M16.62 11.32h-.1v.05l.1-.05z" fill="#fff"/><path d="M16.62 11.32l-.08.06-.03-.04.11-.02z" fill="#fff"/><path d="M16.43 11.32l.08.06.03-.04-.11-.02z" fill="#fff"/><path d="M16.43 11.32h.1v.05l-.1-.05z" fill="#fff"/><path d="M16.58 11.44l-.03-.1-.04.01.07.09z" fill="#fff"/><path d="M16.58 11.44l-.08-.06.04-.05.04.11z" fill="#fff"/><path d="M16.47 11.44l.08-.06-.03-.05-.05.11z" fill="#fff"/><path d="M16.47 11.44l.03-.1.05.01-.08.09zm1.77 1.47l-.05.16.08.03-.03-.19z" fill="#fff"/><path d="M18.24 12.91l.05.16-.08.03.03-.19z" fill="#fff"/><path d="M18.4 13.03h-.17v.09l.17-.09z" fill="#fff"/><path d="M18.4 13.03l-.14.1-.05-.07.19-.03z" fill="#fff"/><path d="M18.07 13.03l.14.1.06-.07-.2-.03z" fill="#fff"/><path d="M18.07 13.03h.18v.09l-.18-.09z" fill="#fff"/><path d="M18.34 13.23l-.05-.17-.09.03.14.14z" fill="#fff"/><path d="M18.34 13.23l-.14-.11.05-.07.09.18z" fill="#fff"/><path d="M18.14 13.23l.14-.11-.05-.07-.09.18z" fill="#fff"/><path d="M18.14 13.23l.05-.17.08.03-.13.14zm.52-.72l-.05.13.07.03-.02-.16z" fill="#fff"/><path d="M18.66 12.51l.04.13-.07.03.03-.16z" fill="#fff"/><path d="M18.79 12.61h-.14v.07l.14-.07z" fill="#fff"/><path d="M18.79 12.61l-.11.08-.04-.06.15-.02z" fill="#fff"/><path d="M18.52 12.61l.12.08.04-.06-.16-.02z" fill="#fff"/><path d="M18.52 12.61h.15v.07l-.15-.07z" fill="#fff"/><path d="M18.74 12.76l-.04-.13-.07.02.11.11z" fill="#fff"/><path d="M18.74 12.76l-.11-.08.04-.05.07.13z" fill="#fff"/><path d="M18.58 12.76l.11-.08-.04-.05-.07.13z" fill="#fff"/><path d="M18.58 12.76l.04-.13.07.02-.11.11zm-.73-.37l-.04.13.06.03-.02-.16z" fill="#fff"/><path d="M17.85 12.39l.05.13-.07.03.02-.16z" fill="#fff"/><path d="M17.98 12.49h-.13v.07l.13-.07z" fill="#fff"/><path d="M17.98 12.49l-.11.08-.04-.06.15-.02z" fill="#fff"/><path d="M17.72 12.49l.11.08.04-.06-.15-.02z" fill="#fff"/><path d="M17.72 12.49h.14v.07l-.14-.07z" fill="#fff"/><path d="M17.94 12.64l-.05-.13-.07.02.12.11z" fill="#fff"/><path d="M17.94 12.64l-.12-.08.04-.05.08.13z" fill="#fff"/><path d="M17.77 12.64l.11-.08-.04-.05-.07.13z" fill="#fff"/><path d="M17.77 12.64l.04-.13.07.02-.11.11zm-2.96-.46l-.06.19.09.04-.03-.23z" fill="#fff"/><path d="M14.81 12.18l.06.19-.1.04.04-.23z" fill="#fff"/><path d="M15.01 12.32h-.21v.11l.21-.11z" fill="#fff"/><path d="M15.01 12.32l-.17.12-.06-.08.23-.04z" fill="#fff"/><path d="M14.61 12.32l.17.12.06-.08-.23-.04z" fill="#fff"/><path d="M14.61 12.32h.21v.11l-.21-.11z" fill="#fff"/><path d="M14.93 12.55l-.06-.19-.1.03.16.16z" fill="#fff"/><path d="M14.93 12.55l-.17-.12.06-.08.11.2z" fill="#fff"/><path d="M14.69 12.55l.17-.12-.07-.08-.1.2z" fill="#fff"/><path d="M14.69 12.55l.06-.19.1.03-.16.16zm2.08 1l-.02.06.03.01-.01-.07z" fill="#fff"/><path d="M16.77 13.55l.02.06-.03.01.01-.07z" fill="#fff"/><path d="M16.84 13.6h-.07v.03l.07-.03z" fill="#fff"/><path d="M16.84 13.6l-.06.04-.02-.03.08-.01z" fill="#fff"/><path d="M16.71 13.6l.05.04.02-.03-.07-.01z" fill="#fff"/><path d="M16.71 13.6h.06v.03l-.06-.03z" fill="#fff"/><path d="M16.81 13.67l-.02-.06-.03.01.05.05z" fill="#fff"/><path d="M16.81 13.67l-.05-.04.01-.02.04.06z" fill="#fff"/><path d="M16.73 13.67l.06-.04-.02-.02-.04.06z" fill="#fff"/><path d="M16.73 13.67l.02-.06.04.01-.06.05z" fill="#fff"/></g></g></svg>