<svg width="25" height="16" fill="none" xmlns="http://www.w3.org/2000/svg"><mask id="a" style="mask-type:luminance" maskUnits="userSpaceOnUse" x="0" y="0" width="25" height="16"><path d="M25 .707H0v14.586h25V.707z" fill="#fff"/></mask><g mask="url(#a)"><path d="M24.992 14.175h-25V15.3h25v-1.125z" fill="#CB001C"/><path d="M24.992 13.05h-25v1.125h25v-1.124z" fill="#fff"/><path d="M24.992 11.933h-25v1.118h25v-1.118z" fill="#CB001C"/><path d="M24.992 10.808h-25v1.125h25v-1.125z" fill="#fff"/><path d="M24.992 9.691h-25v1.125h25V9.69z" fill="#CB001C"/><path d="M24.992 8.566h-25v1.118h25V8.566z" fill="#fff"/><path d="M24.992 7.441h-25v1.125h25V7.441z" fill="#CB001C"/><path d="M24.992 6.324h-25V7.44h25V6.324z" fill="#fff"/><path d="M24.992 5.199h-25v1.125h25V5.199z" fill="#CB001C"/><path d="M24.992 4.082h-25v1.124h25V4.082z" fill="#fff"/><path d="M24.992 2.957h-25v1.125h25V2.957z" fill="#CB001C"/><path d="M24.992 1.832h-25v1.125h25V1.832z" fill="#fff"/><path d="M24.992.715h-25v1.124h25V.715z" fill="#CB001C"/><path d="M11.412.715H-.008v7.851h11.42V.715z" fill="#2A3560"/><path d="M1.028 1.579l.097.298h.313l-.254.186.097.29-.253-.178-.253.178.096-.29-.253-.186h.313l.097-.298zm0 1.311l.097.298h.313l-.254.179.097.297-.253-.178-.253.178.096-.297-.253-.18h.313l.097-.297zm0 1.31l.097.299h.313l-.254.179.097.298-.253-.18-.253.18.096-.298-.253-.18h.313l.097-.297zm0 1.312l.097.298h.313l-.254.186.097.29-.253-.178-.253.179.096-.29-.253-.187h.313l.097-.298zm0 1.311l.097.298h.313l-.254.179.097.298-.253-.18-.253.18L.87 7.3l-.252-.18h.313l.097-.298zm.916-4.552l.09.298h.312l-.253.18.097.297-.246-.186-.253.186.089-.298-.246-.179h.313l.097-.298zm0 1.312l.09.29h.312l-.253.186.097.298-.246-.186-.253.186.089-.298-.246-.186h.313l.097-.29zm0 1.311l.09.298h.312l-.253.178.097.298-.246-.186-.253.186.089-.298-.246-.178h.313l.097-.298zm0 1.311l.09.298h.312l-.253.178.097.298-.246-.186-.253.186.089-.298-.246-.178h.313l.097-.298zm.916-4.626l.105.298h.305l-.253.186.104.29-.26-.178-.247.178.097-.29-.253-.186h.313l.09-.298zm0 1.311l.105.298h.305l-.253.179.104.297-.26-.178-.247.178.097-.297-.253-.18h.313l.09-.297zm0 1.31l.105.299h.305l-.253.179.104.298-.26-.18-.247.18.097-.298-.253-.18h.313l.09-.297zm0 1.312l.105.298h.305l-.253.186.104.29-.26-.178-.247.179.097-.29-.253-.187h.313l.09-.298zm0 1.311l.105.298h.305l-.253.179.104.298-.26-.18-.247.18.097-.298-.253-.179h.313l.09-.298zm.917-4.552l.097.298h.313l-.254.18.097.297-.253-.186-.253.186.096-.298-.253-.179h.313l.097-.298zm0 1.312l.097.29h.313l-.254.186.097.298-.253-.186-.253.186.096-.298-.253-.186h.313l.097-.29zm0 1.311l.097.298h.313l-.254.178.097.298-.253-.186-.253.186.096-.298-.253-.178h.313l.097-.298zm0 1.311l.097.298h.313l-.254.178.097.298-.253-.186-.253.186.096-.298-.253-.178h.313l.097-.298zM4.7 1.579l.097.298h.313l-.253.186.096.29-.253-.178-.253.178.097-.29-.246-.186h.305l.097-.298zm0 1.311l.097.298h.313l-.253.179.096.297-.253-.178-.253.178.097-.297-.246-.18h.305L4.7 2.89zm0 1.31l.097.299h.313l-.253.179.096.298-.253-.18-.253.18.097-.298-.246-.18h.305l.097-.297zm0 1.312l.097.298h.313l-.253.186.096.29-.253-.178-.253.179.097-.29-.246-.187h.305l.097-.298zm0 1.311l.097.298h.313l-.253.179.096.298-.253-.18-.253.18.097-.298-.246-.179h.305l.097-.298zm.917-4.552l.097.298h.312l-.253.18.097.297-.253-.186-.254.186.097-.298-.253-.179h.313l.097-.298zm0 1.312l.097.29h.312l-.253.186.097.298-.253-.186-.254.186.097-.298-.253-.186h.313l.097-.29zm0 1.311l.097.298h.312l-.253.178.097.298-.253-.186-.254.186.097-.298-.253-.178h.313l.097-.298zm0 1.311l.097.298h.312l-.253.178.097.298-.253-.186-.254.186.097-.298-.253-.178h.313l.097-.298zm.923-4.626l.097.298h.313l-.253.186.097.29-.253-.178-.254.178.097-.29-.253-.186h.313l.097-.298zm0 1.311l.097.298h.313l-.253.179.097.297-.253-.178-.254.178.097-.297-.253-.18h.313l.097-.297zm0 1.31l.097.299h.313l-.253.179.097.298-.253-.18-.254.18.097-.298-.253-.18h.313l.097-.297zm0 1.312l.097.298h.313l-.253.186.097.29-.253-.178-.254.179.097-.29-.253-.187h.313l.097-.298zm0 1.311l.097.298h.313l-.253.179.097.298-.253-.18-.254.18.097-.298-.253-.179h.313l.097-.298zm.91-4.552l.096.298h.313l-.246.18.09.297-.254-.186-.246.186.097-.298-.253-.179h.313l.09-.298zm0 1.312l.096.29h.313l-.246.186.09.298-.254-.186-.246.186.097-.298-.253-.186h.313l.09-.29zm0 1.311l.096.298h.313l-.246.178.09.298-.254-.186-.246.186.097-.298-.253-.178h.313l.09-.298zm0 1.311l.096.298h.313l-.246.178.09.298-.254-.186-.246.186.097-.298-.253-.178h.313l.09-.298zm.93-4.626l.097.298h.306l-.246.186.09.29-.247-.178-.253.178.097-.29-.253-.186h.313l.096-.298zm0 1.311l.097.298h.306l-.246.179.09.297-.247-.178-.253.178.097-.297-.253-.18h.313l.096-.297zm0 1.31l.097.299h.306l-.246.179.09.298-.247-.18-.253.18.097-.298-.253-.18h.313l.096-.297zm0 1.312l.097.298h.306l-.246.186.09.29-.247-.178-.253.179.097-.29-.253-.187h.313l.096-.298zm0 1.311l.097.298h.306l-.246.179.09.298-.247-.18-.253.18.097-.298-.253-.179h.313l.096-.298zm.909-4.552l.097.298h.313l-.254.18.097.297-.253-.186-.253.186.097-.298-.246-.179h.305l.097-.298zm0 1.312l.097.29h.313l-.254.186.097.298-.253-.186-.253.186.097-.298-.246-.186h.305l.097-.29zm0 1.311l.097.298h.313l-.254.178.097.298-.253-.186-.253.186.097-.298-.246-.178h.305l.097-.298zm0 1.311l.097.298h.313l-.254.178.097.298-.253-.186-.253.186.097-.298-.246-.178h.305l.097-.298zm.923-4.626l.097.298h.313l-.253.186.097.29-.254-.178-.245.178.089-.29-.253-.186h.313l.096-.298zm0 1.311l.097.298h.313l-.253.179.097.297-.254-.178-.245.178.089-.297-.253-.18h.313l.096-.297zm0 1.31l.097.299h.313l-.253.179.097.298-.254-.18-.245.18.089-.298-.253-.18h.313l.096-.297zm0 1.312l.097.298h.313l-.253.186.097.29-.254-.178-.245.179.089-.29-.253-.187h.313l.096-.298zm0 1.311l.097.298h.313l-.253.179.097.298-.254-.18-.245.18.089-.298-.253-.179h.313l.096-.298z" fill="#fff"/></g></svg>