<svg width="15" height="12" fill="none" xmlns="http://www.w3.org/2000/svg"><g fill="#231F20"><path d="M11.71 6.495h-.2a2.583 2.583 0 00-2.573 2.573 2.202 2.202 0 00-.001.428c.051.324.169.633.345.91a2.573 2.573 0 102.392-3.902l.036-.009zm-.2 4.42a1.819 1.819 0 01-1.82-1.428 1.673 1.673 0 01-.054-.427 1.819 1.819 0 011.819-1.819h.2a1.849 1.849 0 11-.2 3.692l.054-.018z"/><path d="M12.81 8.767v.51h-1.037v1.036h-.518V9.276h-1.037v-.509h1.037V7.73h.518v1.037h1.037zM10.2 1.265h-.81V.356h-.51v.91H7.536v-.91h-.518v.91H5.68v-.91h-.518v.91H3.825v-.91h-.518v.91h-.81a1.519 1.519 0 00-1.51 1.509v6.12a1.51 1.51 0 001.51 1.5H8.49a3.373 3.373 0 01-.255-.91H2.497a.6.6 0 01-.6-.59V4.792H10.8V5.83c.234-.047.471-.072.71-.073h.2V2.775a1.51 1.51 0 00-1.51-1.51zm.6 2.62H1.896v-1.11a.61.61 0 01.6-.6h.81v.563h-.319v.51h1.155v-.51h-.318v-.563h1.337v.563h-.319v.51h1.155v-.51H5.68v-.563h1.337v.563h-.319v.51h1.155v-.51h-.318v-.563H8.88v.563h-.319v.51h1.146v-.51H9.39v-.563h.81a.61.61 0 01.6.6v1.11z"/><path d="M4.634 6.637a.81.81 0 00-.336-.29 1.182 1.182 0 00-.491-.1H2.97v1.682h.837c.169.002.336-.032.49-.1a.81.81 0 00.337-.291.827.827 0 00.118-.455.818.818 0 00-.118-.446zm-.564.746a.39.39 0 01-.29.1h-.237v-.791h.237a.39.39 0 01.29.1.4.4 0 01.11.29.409.409 0 01-.11.301zm1.983-1.137h-.564l-.737 1.682h.582l.11-.29h.645l.11.29h.59l-.736-1.682zm-.455.982l.164-.427.163.427h-.327zm2.265-.982l-.355.582-.337-.582h-.6L7.2 7.31v.618h.573V7.32l.636-1.073h-.545z"/></g></svg>