<svg width="13" height="16" fill="none" xmlns="http://www.w3.org/2000/svg"><g fill="#231F20"><path d="M10.492 3.83l-.564 4.699h-.306c-1.18 0-2.311.449-3.145 1.247a4.171 4.171 0 00-1.303 3.013c0 .352.046.702.134 1.044H2.2a1.047 1.047 0 01-.67-.167.973.973 0 01-.401-.538L.009 3.829c0-.165.163-.311.402-.311h9.66c.258-.019.44.128.421.311zm-.422-2.154H7.93V.861a.843.843 0 00-.264-.609A.92.92 0 007.03 0H3.453a.92.92 0 00-.636.252.843.843 0 00-.263.61v.814H.41a.43.43 0 00-.291.122.394.394 0 00-.12.282v.55c0 .105.043.206.12.281a.43.43 0 00.291.121h9.66a.43.43 0 00.291-.12.394.394 0 00.12-.283v-.55a.394.394 0 00-.12-.281.43.43 0 00-.291-.122zm-3.356 0H3.778v-.503h2.936v.503z"/><path d="M9.803 9.537H9.62c-.894 0-1.75.34-2.384.944a3.167 3.167 0 00-.992 2.28c.001.356.063.708.182 1.045.197.556.548 1.05 1.017 1.43a3.455 3.455 0 001.64.722 3.513 3.513 0 001.795-.19 3.364 3.364 0 001.436-1.05c.37-.467.6-1.023.665-1.607a3.113 3.113 0 00-.294-1.707 3.276 3.276 0 00-1.171-1.317 3.476 3.476 0 00-1.712-.55zM9.62 14.96a2.373 2.373 0 01-1.18-.309 2.244 2.244 0 01-.847-.845 2.113 2.113 0 01-.102-1.888c.116-.268.286-.51.5-.715.214-.204.468-.366.748-.476.28-.11.579-.165.881-.164h.058c.608.007 1.19.246 1.614.663.425.418.66.98.652 1.563a2.155 2.155 0 01-.692 1.546 2.35 2.35 0 01-1.632.625z"/><path d="M10.568 13.494l-.497-.668.555-.733.306-.412h-.861l-.402.595-.172-.201-.287-.404h-.956l.325.44.536.733-.47.632-.229.312-.19.256h.955l.106-.165.306-.467.315.467.106.165h.956l-.402-.55z"/></g></svg>