<svg width="19" height="20" fill="none" xmlns="http://www.w3.org/2000/svg"><path d="M9.42.447a9.42 9.42 0 109.42 9.42A9.428 9.428 0 009.42.447zm0 17.617a8.197 8.197 0 118.156-8.197 8.204 8.204 0 01-8.156 8.197z" fill="#000"/><path d="M14.191 14.304c0 .4-.685.742-1.484.742-.8 0-1.484-.342-1.484-.742 0-.22.204-.424.53-.563.612.218 1.28.218 1.892 0 .343.139.546.343.546.563zm0-1.346c0 .22-.204.424-.53.563l-.147.057-.18.057a2.931 2.931 0 01-1.223 0l-.18-.057-.146-.057c-.326-.139-.53-.343-.53-.563a.579.579 0 01.326-.457 4 4 0 00.816.09c.18-.001.36-.015.538-.04.248-.015.493-.067.726-.155.326.13.53.342.53.562zm-3.327 1.346c0 .4-.686.742-1.485.742s-1.492-.342-1.492-.742c0-.22.204-.424.53-.563a2.846 2.846 0 001.9 0c.343.139.547.343.547.563zm0-1.346c0 .22-.204.424-.53.563l-.147.057-.18.057a2.931 2.931 0 01-1.223 0l-.18-.057-.154-.057c-.327-.139-.53-.343-.53-.563 0-.22.203-.424.53-.563a2.846 2.846 0 001.9 0c.31.131.514.343.514.563zm-.359-.873a.82.82 0 01-.171.09.556.556 0 01-.163.057l-.172.057a2.932 2.932 0 01-1.223 0l-.18-.057a.556.556 0 01-.163-.057c-.326-.139-.53-.343-.53-.563 0-.22.204-.424.53-.555.309.114.635.169.963.164h.09c.281.35.627.643 1.019.864zM8.727 9.802c.115.439.314.852.587 1.215a3.128 3.128 0 01-.563-.074l-.187-.057a.61.61 0 01-.147-.057c-.326-.138-.53-.342-.53-.563 0-.22.204-.424.53-.554.1.04.204.07.31.09zm-.139-1.004c0 .26.024.52.074.775H8.58l-.163-.065c-.326-.13-.53-.334-.53-.555 0-.22.204-.424.53-.562l.18.065c0 .098-.009.22-.009.342zM8.425 7.02c.175.07.36.117.547.14-.174.33-.287.689-.335 1.06h-.073l-.139-.05c-.326-.138-.53-.342-.53-.562 0-.22.204-.424.53-.563V7.02zm.954-1.524a2.5 2.5 0 01.889.155c-.497.34-.91.79-1.207 1.313l-.294-.049-.187-.057-.155-.057c-.327-.139-.53-.343-.53-.563-.009-.4.677-.742 1.484-.742zm-1.851 8.808c0 .4-.677.742-1.485.742-.807 0-1.484-.342-1.484-.742 0-.22.204-.424.53-.563.612.218 1.28.218 1.892 0 .31.139.547.343.547.563zm0-1.346c0 .22-.204.424-.53.563l-.147.057-.18.057a2.865 2.865 0 01-1.223 0l-.18-.057-.146-.057c-.326-.139-.53-.343-.53-.563 0-.22.204-.424.53-.563.612.218 1.28.218 1.892 0 .277.131.514.343.514.563zm0-1.346c0 .229-.204.432-.53.563a.505.505 0 01-.155.057l-.18.057a2.872 2.872 0 01-1.223 0l-.172-.057a.556.556 0 01-.163-.057c-.326-.139-.53-.335-.53-.563 0-.228.204-.416.522-.555a2.87 2.87 0 001.909 0c.285.131.522.335.522.555zm0-1.345c0 .22-.204.432-.522.562l-.139.057-.188.057a2.503 2.503 0 01-.628.074 2.605 2.605 0 01-.628-.074l-.179-.049-.147-.065c-.318-.138-.522-.342-.522-.563 0-.22.204-.416.522-.554a2.87 2.87 0 001.909 0c.285.13.522.367.522.555zm0-1.338c0 .22-.204.424-.522.554a.473.473 0 01-.147.066l-.171.049a2.56 2.56 0 01-.628.073 2.601 2.601 0 01-.628-.073l-.172-.05-.155-.065c-.318-.138-.522-.334-.522-.554 0-.22.204-.424.53-.563.613.218 1.28.218 1.893 0 .285.13.522.335.522.563zm0-1.346c0 .22-.204.424-.53.563a.359.359 0 01-.13.049l-.189.065a2.871 2.871 0 01-1.223 0l-.187-.057-.131-.057c-.326-.139-.53-.343-.53-.563 0-.22.204-.424.53-.563.612.218 1.28.218 1.892 0 .261.14.498.343.498.563zm0-1.345c0 .22-.204.424-.53.563l-.147.057-.188.057a2.871 2.871 0 01-1.223 0l-.188-.057-.147-.057c-.326-.139-.53-.343-.53-.563 0-.4.685-.742 1.485-.742.799 0 1.468.343 1.468.742zm5.179-.318a2.879 2.879 0 100 5.757 2.879 2.879 0 000-5.757zm0 4.836a1.957 1.957 0 110-3.914 1.957 1.957 0 010 3.914z" fill="#000"/><path d="M13.629 9.182a.496.496 0 010 .114.62.62 0 01-.18.318.905.905 0 01-.514.253v.334h-.424v-.326a1.777 1.777 0 01-.432-.065 1.354 1.354 0 01-.343-.139l.123-.285.106-.237c.104.061.217.108.334.139.116.038.237.057.359.057.07.017.142.017.212 0a.09.09 0 00.065-.082c0-.049 0-.081-.09-.097a1.158 1.158 0 00-.269-.074 2.83 2.83 0 01-.407-.114.644.644 0 01-.278-.188.522.522 0 01-.122-.367v-.04a.7.7 0 01.188-.408.97.97 0 01.554-.237v-.326h.424v.318c.214.017.423.078.612.18l-.082.195-.138.318a1.264 1.264 0 00-.588-.155c-.179 0-.269.041-.269.13 0 .09 0 .074.082.09.086.036.177.06.27.074.134.023.268.056.399.098.112.04.213.107.293.196a.506.506 0 01.115.326z" fill="#000"/></svg>