<svg width="19" height="20" fill="none" xmlns="http://www.w3.org/2000/svg"><path d="M9.42 1.549a8.156 8.156 0 108.157 8.156A8.205 8.205 0 009.421 1.55z" fill="#fff"/><path d="M9.42.325a9.42 9.42 0 109.421 9.421 9.429 9.429 0 00-9.42-9.42zm0 17.618a8.197 8.197 0 118.157-8.197 8.206 8.206 0 01-8.156 8.197z" fill="#231F20"/><path d="M14.69 8.882v2.283a.613.613 0 01-.62.612h-.343a2.96 2.96 0 01-2.365 2.57.604.604 0 01-.603.57h-.816a.612.612 0 01-.612-.611V14.2a.603.603 0 01.612-.612h.816a.611.611 0 01.554.359 2.552 2.552 0 001.999-2.17h-.31a.612.612 0 01-.612-.612V8.882a.62.62 0 01.612-.612h.285a3.866 3.866 0 00-7.65 0h.285a.62.62 0 01.612.612v2.283a.612.612 0 01-.612.612H4.845a.612.612 0 01-.612-.612V8.882a.62.62 0 01.612-.612h.375a4.282 4.282 0 018.483 0h.367a.62.62 0 01.62.612z" fill="#231F20"/><path d="M8.165 9.868a1.305 1.305 0 01-.93-.383l.432-.432a.701.701 0 00.995 0l.433.432a1.272 1.272 0 01-.93.383zm2.495 0a1.273 1.273 0 01-.929-.383l.432-.432a.702.702 0 00.995 0l.433.432a1.305 1.305 0 01-.93.383zm-1.24 2.137a2.17 2.17 0 01-1.533-.628l.44-.44a1.533 1.533 0 002.187 0l.432.44a2.138 2.138 0 01-1.525.628z" fill="#231F20"/></svg>