<svg width="19" height="20" fill="none" xmlns="http://www.w3.org/2000/svg"><path fill-rule="evenodd" clip-rule="evenodd" d="M17.27 10.001a7.85 7.85 0 11-15.7 0 7.85 7.85 0 0115.7 0zM9.7 7.946c-.763.318-2.29.975-4.578 1.972-.371.148-.566.293-.584.434-.03.239.27.333.677.461l.171.054c.401.13.94.283 1.22.29.255.005.539-.1.852-.315 2.138-1.443 3.242-2.173 3.311-2.189.05-.01.117-.025.163.016.046.04.041.118.036.139-.03.126-1.204 1.218-1.811 1.783-.19.176-.324.301-.352.33a6.778 6.778 0 01-.184.182c-.373.359-.652.628.015 1.068.32.211.577.386.833.56.28.19.558.38.92.617.09.06.179.122.264.183.325.232.618.44.979.407.21-.019.426-.216.536-.805.26-1.39.771-4.402.89-5.643a1.384 1.384 0 00-.014-.31.331.331 0 00-.111-.212.517.517 0 00-.305-.091c-.295.005-.748.163-2.928 1.07z" fill="#000"/></svg>