<svg width="19" height="20" fill="none" xmlns="http://www.w3.org/2000/svg"><path d="M9.42.388a9.42 9.42 0 109.421 9.42 9.429 9.429 0 00-9.42-9.42zm0 17.618a8.197 8.197 0 118.157-8.197 8.205 8.205 0 01-8.156 8.197z" fill="#231F20"/><path d="M13.743 4.752H5.098a1.631 1.631 0 00-1.632 1.63v6.869a1.631 1.631 0 001.632 1.63h8.645a1.631 1.631 0 001.632-1.63V6.383a1.631 1.631 0 00-1.632-1.631zm.734 8.49a.734.734 0 01-.734.743H5.098a.742.742 0 01-.743-.742v-6.86a.742.742 0 01.743-.742h8.645a.734.734 0 01.734.742v6.86z" fill="#231F20"/><path d="M12.863 6.456H5.97a.922.922 0 000 1.835h6.893a.922.922 0 000-1.835zm0 1.224H5.97a.31.31 0 010-.612h6.893a.31.31 0 010 .612zm0 3.646H5.97a.922.922 0 000 1.835h6.893a.921.921 0 000-1.835zm0 1.223H5.97a.31.31 0 010-.612h6.893a.31.31 0 010 .612zM8.197 8.936H5.97a.922.922 0 000 1.835h2.227a.922.922 0 000-1.835zm0 1.223H5.97a.31.31 0 010-.611h2.227a.31.31 0 010 .611zm4.666-1.264h-2.284a.922.922 0 000 1.835h2.268a.922.922 0 000-1.835h.016zm0 1.224h-2.284a.302.302 0 01-.302-.31.294.294 0 01.302-.302h2.268a.294.294 0 01.302.302.302.302 0 01-.286.31z" fill="#231F20"/></svg>