<svg width="49" height="86" fill="none" xmlns="http://www.w3.org/2000/svg"><path d="M36.571 78.84v6.597h-1.618v-5.043h-.428V78.84h2.046zm6.264 1.548l-.003.004v-.008l.003.004z" fill="#000"/><path d="M43.736 78.84v1.554l-3.654 3.512h3.654v1.552h-5.894v-1.552h.005l4.162-3.512h-4.167V78.84h5.895zm-10.284 2.058a3.232 3.232 0 00-.651-1.035 2.743 2.743 0 00-.925-.635 2.506 2.506 0 00-2.127.095c-.331.172-.63.415-.876.716v-3.397h-2.084v1.551h.457v7.25h1.619V84.26c.5.606 1.195.965 1.931.998.737.033 1.455-.262 1.997-.822.276-.294.497-.646.651-1.035.152-.395.23-.82.23-1.25 0-.43-.078-.856-.23-1.251l.008-.002zm-1.674 2.398a1.595 1.595 0 01-.481.423 1.4 1.4 0 01-1.197.096 1.524 1.524 0 01-.53-.343 1.773 1.773 0 01-.393-.598 1.951 1.951 0 010-1.45c.092-.229.226-.433.393-.599a1.469 1.469 0 011.084-.44c.399.014.777.197 1.06.512.281.316.445.74.457 1.185a1.88 1.88 0 01-.393 1.214zm3.802-5.183c.575 0 1.04-.521 1.04-1.164 0-.642-.465-1.163-1.04-1.163-.573 0-1.039.52-1.039 1.163s.466 1.164 1.04 1.164zm-10.565 7.373c.51 0 .925-.464.925-1.036 0-.572-.414-1.035-.925-1.035-.511 0-.925.463-.925 1.035 0 .572.414 1.035.925 1.035zm-.925-6.663l-1.76 6.633h-1.803l-1.076-4.052-1.075 4.052h-1.803l-1.357-5.115h-.737v-1.518h1.78l1.275 4.8 1.275-4.8h1.403l1.276 4.8 1.273-4.8h1.33zm-10.132 0l-1.762 6.633h-1.802l-1.075-4.052-1.076 4.052H6.44L5.083 80.34h-.737v-1.518h1.78l1.276 4.8 1.274-4.8h1.402l1.277 4.8 1.274-4.8h1.329zm34.124-5.91H0v-55h4.011v50.511h40.06V17.912h4.01v55z" fill="#000"/><path d="M28.447 34.004h-3.015v-3.367h3.015v3.367zm-15.076-3.367h3.016v3.375H13.37v-3.375zm0 10.124v-3.382h3.016v3.374l-3.016.008zM34.482 57.63h-15.08v-3.38h15.075l.005 3.38z" fill="#000"/><path d="M40.509 64.372H7.342v-33.74h3.015v30.365h3.014v-16.87h3.016v16.87h21.106V30.631h3.016v33.74zm-12.062-40.49h-3.015v3.374h3.015v-3.374z" fill="#000"/><path d="M40.509 23.882v3.375h-6.031v23.618H19.403V27.257H7.342v-3.375h15.075v23.619h3.015V37.379h3.016V47.5h3.015V23.882h9.046zm.001-11.942h-3.016v3.374h3.015V11.94zm0-11.94h-3.016v3.374h3.015V0zm-6.032 17.912h-3.015v3.374h3.015v-3.374zm-6.031-5.972h-3.015v3.374h3.015V11.94zm-6.029 5.972h-3.016v3.374h3.015v-3.374zm0-5.972h-3.016v3.374h3.015V11.94zm0-5.97h-3.016v3.374h3.015V5.97zm0-5.97h-3.016v3.374h3.015V0zm12.06 5.97h-3.015v3.374h3.015V5.97zm0-5.97h-3.015v3.374h3.015V0zM16.386 5.97h-3.015v3.374h3.015V5.97zm-6.029 11.942H7.342v3.374h3.015v-3.374zm0-5.972H7.342v3.374h3.015V11.94zm0-11.94H7.342v3.374h3.015V0z" fill="#000"/></svg>