<svg width="34" height="20" viewBox="0 0 34 20" fill="none" xmlns="http://www.w3.org/2000/svg">
<g id="ARGENTINA">
<g id="Clip path group">
<mask id="mask0_233_14010" style="mask-type:luminance" maskUnits="userSpaceOnUse" x="0" y="0" width="34" height="20">
<g id="b7505f57-2a2c-4d44-8459-5dddf6bf092d">
<path id="Vector" d="M33.8 0H0.23999V19.58H33.8V0Z" fill="white"/>
</g>
</mask>
<g mask="url(#mask0_233_14010)">
<g id="Group">
<path id="Vector_2" d="M33.8 6.53H0.23999V13.06H33.8V6.53Z" fill="white"/>
<path id="Vector_3" d="M33.8 0H0.23999V6.53H33.8V0Z" fill="#80A7D8"/>
<path id="Vector_4" d="M33.8 13.05H0.23999V19.57H33.8V13.05Z" fill="#80A7D8"/>
<g id="Clip path group_2">
<mask id="mask1_233_14010" style="mask-type:luminance" maskUnits="userSpaceOnUse" x="0" y="0" width="34" height="20">
<g id="b7505f57-2a2c-4d44-8459-5dddf6bf092d_2">
<path id="Vector_5" d="M33.8 0H0.23999V19.58H33.8V0Z" fill="white"/>
</g>
</mask>
<g mask="url(#mask1_233_14010)">
<g id="Group_2">
<path id="Vector_6" d="M16.89 9.78003L16.99 12.45L17.09 9.78003H16.89Z" fill="#F1BD51"/>
<path id="Vector_7" d="M17.03 12.51C17.03 12.51 17.03 12.51 17.03 12.45L17.13 9.78003L17.05 12.45V12.51H17.03Z" fill="#7A361D"/>
<path id="Vector_8" d="M16.95 9.79001L17.02 11.62L17.09 9.79001H16.95Z" fill="#7A361D"/>
<path id="Vector_9" d="M16.77 10.65C16.62 10.98 16.77 11.26 16.6 11.55C16.5084 11.7609 16.484 11.9948 16.53 12.22C16.53 12.35 16.41 12.39 16.44 12.42C16.47 12.45 16.58 12.42 16.62 12.21C16.66 12 16.56 11.93 16.74 11.57C16.92 11.21 16.74 11.05 16.97 10.73L16.77 10.65Z" fill="#F1BD51"/>
<path id="Vector_10" d="M16.49 12.44C16.49 12.44 16.49 12.44 16.49 12.38C16.5112 12.3611 16.5284 12.338 16.5404 12.3122C16.5524 12.2864 16.5591 12.2585 16.56 12.23C16.5646 12.1868 16.5646 12.1432 16.56 12.1C16.5314 11.9161 16.5593 11.7278 16.64 11.56C16.703 11.4221 16.7337 11.2716 16.73 11.12C16.7238 10.9585 16.7546 10.7978 16.82 10.65C16.7593 10.7957 16.7286 10.9522 16.73 11.11C16.7369 11.2609 16.7095 11.4113 16.65 11.55C16.5646 11.7163 16.5366 11.9061 16.57 12.09C16.57 12.14 16.57 12.18 16.57 12.22C16.5623 12.2809 16.5341 12.3373 16.49 12.38C16.5373 12.3666 16.5797 12.3395 16.6117 12.3022C16.6437 12.2648 16.664 12.2189 16.67 12.17C16.6748 12.1135 16.6748 12.0566 16.67 12C16.6553 11.8356 16.6939 11.6709 16.78 11.53C16.8484 11.3967 16.886 11.2498 16.89 11.1C16.8934 10.9534 16.9311 10.8095 17 10.68C16.9362 10.8106 16.9052 10.9548 16.91 11.1C16.906 11.2498 16.8684 11.3967 16.8 11.53C16.7177 11.6728 16.6762 11.8353 16.68 12C16.6948 12.0591 16.6948 12.1209 16.68 12.18C16.6742 12.2273 16.6565 12.2723 16.6285 12.3108C16.6005 12.3493 16.5632 12.38 16.52 12.4L16.49 12.44Z" fill="#7A361D"/>
<path id="Vector_11" d="M16.82 10.73C16.7 11.07 16.82 11.29 16.66 11.57C16.84 11.37 16.72 11.11 16.87 10.76L16.82 10.73Z" fill="#7A361D"/>
<path id="Vector_12" d="M17.16 9.78001L17.06 7.11002L16.96 9.78001H17.16Z" fill="#F1BD51"/>
<path id="Vector_13" d="M17.15 9.78001L17.05 7.12001V7.07001L16.95 9.74001L17.03 7.07001V7.02002C17.03 7.02002 17.03 7.02001 17.03 7.07001L17.13 9.74001L17.15 9.78001Z" fill="#7A361D"/>
<path id="Vector_14" d="M17.09 9.79002L17.02 7.96002L16.95 9.79002H17.09Z" fill="#7A361D"/>
<path id="Vector_15" d="M17.28 8.92001C17.43 8.59001 17.28 8.31001 17.45 8.02001C17.5394 7.79382 17.5534 7.54481 17.49 7.31001C17.49 7.18001 17.61 7.14001 17.58 7.11001C17.55 7.08001 17.44 7.11001 17.39 7.31001C17.34 7.51001 17.46 7.6 17.27 7.96C17.08 8.32 17.27 8.48001 17.05 8.80001L17.28 8.92001Z" fill="#F1BD51"/>
<path id="Vector_16" d="M17.28 8.92001C17.3418 8.77114 17.3724 8.61118 17.37 8.45001C17.361 8.298 17.392 8.14627 17.46 8.01001C17.531 7.84297 17.5552 7.65976 17.53 7.48001C17.53 7.48001 17.53 7.38001 17.53 7.35001C17.5377 7.28913 17.5659 7.23271 17.61 7.19002C17.61 7.19002 17.47 7.26001 17.43 7.40001C17.4253 7.45324 17.4253 7.50678 17.43 7.56001C17.4454 7.72765 17.4069 7.89582 17.32 8.04001C17.2516 8.17329 17.214 8.32025 17.21 8.47002C17.2077 8.61367 17.1699 8.75453 17.1 8.88002C17.1638 8.75303 17.1948 8.61206 17.19 8.47002C17.1925 8.31686 17.2301 8.16632 17.3 8.03001C17.3912 7.89134 17.4302 7.72477 17.41 7.56001C17.4006 7.50373 17.4006 7.4463 17.41 7.39001C17.4148 7.34246 17.4322 7.29704 17.4603 7.25839C17.4884 7.21974 17.5263 7.18924 17.57 7.17001C17.57 7.17001 17.57 7.17001 17.57 7.23001C17.5289 7.26959 17.5039 7.32307 17.5 7.38002V7.51001C17.5373 7.69279 17.5126 7.88278 17.43 8.05002C17.3685 8.18491 17.3377 8.33178 17.34 8.48001C17.3484 8.64165 17.3176 8.80294 17.25 8.95001L17.28 8.92001Z" fill="#7A361D"/>
<path id="Vector_17" d="M17.23 8.84003C17.36 8.50003 17.23 8.28003 17.39 8.00003C17.21 8.20003 17.33 8.46003 17.17 8.81003L17.23 8.84003Z" fill="#7A361D"/>
<path id="Vector_18" d="M17.03 9.65002L14.36 9.75003L17.03 9.85002V9.65002Z" fill="#F1BD51"/>
<path id="Vector_19" d="M17.03 9.91003L14.36 9.82002H14.3C14.3 9.82002 14.3 9.82002 14.36 9.82002L17.03 9.92003V9.91003Z" fill="#7A361D"/>
<path id="Vector_20" d="M17.02 9.72L15.19 9.79L17.02 9.85V9.72Z" fill="#7A361D"/>
<path id="Vector_21" d="M16.16 9.53001C15.83 9.38001 15.55 9.53001 15.26 9.36001C15.049 9.2691 14.8152 9.24467 14.59 9.29C14.45 9.29 14.42 9.17001 14.38 9.20001C14.34 9.23001 14.38 9.34001 14.6 9.38001C14.82 9.42001 14.88 9.32 15.24 9.51C15.6 9.7 15.76 9.51 16.08 9.73L16.16 9.53001Z" fill="#F1BD51"/>
<path id="Vector_22" d="M16.09 9.72002C15.9549 9.66865 15.8137 9.63503 15.67 9.62001C15.5158 9.62599 15.3632 9.58783 15.23 9.51001C15.0906 9.42951 14.9308 9.39129 14.77 9.40001C14.7143 9.41486 14.6557 9.41486 14.6 9.40001C14.5512 9.39494 14.5046 9.3776 14.4644 9.34962C14.4241 9.32165 14.3917 9.28393 14.37 9.24001C14.37 9.24001 14.37 9.24001 14.43 9.24001C14.4489 9.26123 14.472 9.27839 14.4978 9.29042C14.5236 9.30245 14.5516 9.30912 14.58 9.31001H14.71C14.8972 9.28417 15.0879 9.31191 15.26 9.39001C15.3948 9.45086 15.5423 9.4783 15.69 9.47002C15.8506 9.47359 16.0094 9.50401 16.16 9.56001C16.0143 9.49929 15.8578 9.46868 15.7 9.47002C15.5479 9.48102 15.3956 9.44988 15.26 9.38002C15.0928 9.29737 14.9027 9.27274 14.72 9.31001H14.59C14.5291 9.3023 14.4727 9.27408 14.43 9.23001C14.43 9.30001 14.5 9.37002 14.64 9.41002H14.81C14.9743 9.39675 15.1386 9.43522 15.28 9.52002C15.4133 9.58843 15.5602 9.62603 15.71 9.63002C15.8566 9.63341 16.0005 9.67107 16.13 9.74001L16.09 9.72002Z" fill="#7A361D"/>
<path id="Vector_23" d="M16.08 9.57001C15.74 9.46001 15.52 9.57001 15.24 9.42001C15.44 9.60001 15.7 9.48001 16.05 9.64001L16.08 9.57001Z" fill="#7A361D"/>
<path id="Vector_24" d="M17.03 9.92003L19.7 9.82002L17.03 9.72003V9.92003Z" fill="#F1BD51"/>
<path id="Vector_25" d="M17.03 9.93001L19.7 9.83002L17.03 9.73001L19.7 9.81001L17.03 9.92001V9.93001Z" fill="#7A361D"/>
<path id="Vector_26" d="M17.02 9.85L18.85 9.79L17.02 9.72V9.85Z" fill="#7A361D"/>
<path id="Vector_27" d="M17.89 10.04C18.22 10.19 18.5 10.04 18.79 10.21C19.0008 10.3016 19.2347 10.326 19.46 10.28C19.59 10.28 19.63 10.4 19.66 10.37C19.69 10.34 19.66 10.23 19.45 10.18C19.24 10.13 19.17 10.25 18.81 10.06C18.45 9.87003 18.29 10.06 17.97 9.84003L17.89 10.04Z" fill="#F1BD51"/>
<path id="Vector_28" d="M19.65 10.38C19.6308 10.3564 19.6063 10.3377 19.5785 10.3256C19.5507 10.3134 19.5203 10.3081 19.49 10.31C19.4472 10.3005 19.4028 10.3005 19.36 10.31C19.176 10.3386 18.9878 10.3107 18.82 10.23C18.6821 10.1671 18.5316 10.1363 18.38 10.14C18.2184 10.1485 18.057 10.1176 17.91 10.05C18.0568 10.1068 18.2126 10.1373 18.37 10.14C18.5242 10.1316 18.6782 10.159 18.82 10.22C18.9843 10.3005 19.1693 10.3285 19.35 10.3H19.49C19.5509 10.3077 19.6073 10.336 19.65 10.38C19.65 10.31 19.58 10.24 19.44 10.2H19.28C19.1123 10.2154 18.9442 10.1769 18.8 10.09C18.6667 10.0216 18.5198 9.98402 18.37 9.98003C18.2263 9.97778 18.0854 9.93998 17.96 9.87003C18.0898 9.92537 18.2289 9.95589 18.37 9.96002C18.5239 9.9656 18.6745 10.0067 18.81 10.08C18.9509 10.1655 19.1165 10.2007 19.28 10.18C19.3363 10.1714 19.3937 10.1714 19.45 10.18C19.4976 10.1848 19.543 10.2022 19.5816 10.2303C19.6203 10.2584 19.6508 10.2963 19.67 10.34L19.65 10.38Z" fill="#7A361D"/>
<path id="Vector_29" d="M17.97 9.99002C18.31 10.11 18.53 9.99002 18.81 10.15C18.61 9.97002 18.35 10.09 18 9.93002L17.97 9.99002Z" fill="#7A361D"/>
<path id="Vector_30" d="M16.93 9.69003L15.11 11.69C15.1035 11.6987 15.1 11.7092 15.1 11.72C15.1 11.7309 15.1035 11.7414 15.11 11.75H15.17L17.17 9.94003L16.93 9.69003Z" fill="#F1BD51"/>
<path id="Vector_31" d="M15.12 11.72V11.64L16.93 9.64001L15.11 11.64L17.11 9.82001L15.17 11.65L15.12 11.72Z" fill="#7A361D"/>
<path id="Vector_32" d="M16.97 9.74002L15.73 11.08L17.07 9.83002L16.97 9.74002Z" fill="#7A361D"/>
<path id="Vector_33" d="M16.24 10.22C15.89 10.34 15.79 10.63 15.48 10.73C15.17 10.83 15.06 11.07 14.95 11.16C14.84 11.25 14.75 11.16 14.74 11.23C14.73 11.3 14.87 11.31 15.03 11.23C15.19 11.15 15.18 10.98 15.56 10.86C15.94 10.74 15.96 10.52 16.32 10.42L16.24 10.22Z" fill="#F1BD51"/>
<path id="Vector_34" d="M14.83 11.31H14.76C14.8178 11.3049 14.8731 11.2842 14.92 11.25C14.9514 11.2208 14.9784 11.1871 15 11.15C15.1105 10.9986 15.2637 10.8837 15.44 10.82C15.5797 10.7686 15.7061 10.6866 15.81 10.58C15.9194 10.4635 16.0524 10.3714 16.2 10.31C16.0543 10.3749 15.922 10.4665 15.81 10.58C15.7071 10.6902 15.5806 10.7757 15.44 10.83C15.2647 10.8905 15.1115 11.0019 15 11.15C14.9784 11.1871 14.9514 11.2208 14.92 11.25C14.8719 11.2889 14.8119 11.3101 14.75 11.31C14.81 11.36 14.9 11.36 15.02 11.31C15.0677 11.2789 15.1113 11.2419 15.15 11.2C15.2588 11.0758 15.4012 10.9855 15.56 10.94C15.7014 10.8958 15.8312 10.8206 15.94 10.72C16.044 10.6131 16.1755 10.537 16.32 10.5C16.1841 10.5543 16.0588 10.6321 15.95 10.73C15.8422 10.8342 15.7123 10.9128 15.57 10.96C15.4107 10.9988 15.2674 11.0862 15.16 11.21C15.1213 11.2519 15.0777 11.2889 15.03 11.32C14.9716 11.3624 14.9021 11.3867 14.83 11.39V11.31Z" fill="#7A361D"/>
<path id="Vector_35" d="M16.2 10.31C15.88 10.46 15.82 10.7 15.51 10.79C15.77 10.79 15.87 10.5 16.23 10.37L16.2 10.31Z" fill="#7A361D"/>
<path id="Vector_36" d="M17.12 9.88002L18.94 7.88002L18.89 7.83002L16.89 9.65001L17.12 9.88002Z" fill="#F1BD51"/>
<path id="Vector_37" d="M17.12 9.88003L18.94 7.88003C18.94 7.88003 18.94 7.88002 18.94 7.83002C18.94 7.78002 18.89 7.83002 18.89 7.83002L16.89 9.64002L18.84 7.82001C18.84 7.82001 18.89 7.82001 18.91 7.82001C18.93 7.82001 18.91 7.88001 18.91 7.90001L17.09 9.85001L17.12 9.88003Z" fill="#7A361D"/>
<path id="Vector_38" d="M17.07 9.83002L18.32 8.49002L16.97 9.74002L17.07 9.83002Z" fill="#7A361D"/>
<path id="Vector_39" d="M17.81 9.31002C18.16 9.18002 18.26 8.90002 18.58 8.80002C18.7912 8.70986 18.9718 8.56052 19.1 8.37001C19.2 8.28001 19.3 8.37001 19.3 8.29001C19.3 8.21001 19.19 8.21001 19.03 8.29001C18.87 8.37001 18.87 8.53002 18.49 8.66002C18.11 8.79002 18.09 9.00001 17.73 9.10001L17.81 9.31002Z" fill="#F1BD51"/>
<path id="Vector_40" d="M17.81 9.36003C17.9557 9.29512 18.088 9.20354 18.2 9.09003C18.3043 8.97684 18.4348 8.89099 18.58 8.84003C18.7501 8.78004 18.897 8.6681 19 8.52003L19.09 8.41003C19.1386 8.37317 19.1991 8.35538 19.26 8.36003C19.26 8.36003 19.11 8.36003 18.99 8.36003C18.9434 8.38872 18.9026 8.42606 18.87 8.47003C18.7539 8.59046 18.6096 8.67984 18.45 8.73003C18.3061 8.77531 18.1732 8.85025 18.06 8.95003C17.9579 9.05214 17.83 9.12471 17.69 9.16003C17.8253 9.11525 17.9484 9.03998 18.05 8.94003C18.1646 8.83466 18.3013 8.75608 18.45 8.71002C18.6068 8.67188 18.747 8.58421 18.85 8.46002C18.8884 8.41497 18.932 8.37468 18.98 8.34003C19.0213 8.31727 19.0678 8.30533 19.115 8.30533C19.1622 8.30533 19.2086 8.31727 19.25 8.34003C19.25 8.34003 19.25 8.34003 19.2 8.34003C19.1723 8.33963 19.1448 8.34473 19.119 8.35503C19.0933 8.36532 19.0698 8.38062 19.05 8.40002C19.0128 8.42611 18.982 8.46031 18.96 8.50003C18.8513 8.65099 18.6971 8.76314 18.52 8.82002C18.3794 8.8744 18.2529 8.95987 18.15 9.07002C18.0387 9.18904 17.902 9.28135 17.75 9.34003L17.81 9.36003Z" fill="#7A361D"/>
<path id="Vector_41" d="M17.84 9.31001C18.17 9.16001 18.23 8.91002 18.55 8.83002C18.28 8.83002 18.17 9.11002 17.82 9.25002L17.84 9.31001Z" fill="#7A361D"/>
<path id="Vector_42" d="M17.12 9.69L15.12 7.87C15.12 7.87 15.12 7.87 15.06 7.87C15.0535 7.87865 15.05 7.88918 15.05 7.89999C15.05 7.91081 15.0535 7.92134 15.06 7.92999L16.88 9.92999L17.12 9.69Z" fill="#F1BD51"/>
<path id="Vector_43" d="M16.94 9.88003L15.11 7.93002C15.11 7.93002 15.11 7.88002 15.11 7.86002C15.11 7.84002 15.11 7.86002 15.18 7.86002L17 9.86002L16.94 9.88003Z" fill="#7A361D"/>
<path id="Vector_44" d="M17.07 9.74002L15.73 8.49002L16.97 9.83002L17.07 9.74002Z" fill="#7A361D"/>
<path id="Vector_45" d="M16.5899 9.00002C16.4699 8.65002 16.18 8.55001 16.08 8.23001C15.9898 8.01882 15.8404 7.83822 15.6499 7.71001C15.5699 7.61001 15.65 7.51002 15.57 7.50002C15.49 7.49002 15.5 7.63002 15.57 7.78002C15.64 7.93002 15.81 7.94001 15.94 8.32001C16.07 8.70001 16.28 8.72002 16.38 9.08002L16.5899 9.00002Z" fill="#F1BD51"/>
<path id="Vector_46" d="M16.4 9.07001C16.3503 8.93705 16.2757 8.81484 16.18 8.71001C16.0758 8.60218 15.9972 8.47232 15.95 8.33002C15.9139 8.16964 15.826 8.02559 15.7 7.92001C15.6525 7.88432 15.6118 7.84026 15.58 7.79001C15.5603 7.74772 15.5501 7.70165 15.5501 7.65501C15.5501 7.60837 15.5603 7.56231 15.58 7.52002C15.58 7.52002 15.58 7.52002 15.58 7.58002C15.5851 7.6378 15.6059 7.6931 15.64 7.74001L15.74 7.82001C15.8914 7.93049 16.0063 8.08372 16.07 8.26001C16.1215 8.39967 16.2035 8.52608 16.31 8.63002C16.1968 8.52573 16.111 8.39524 16.06 8.25002C16 8.07992 15.8881 7.933 15.74 7.83002L15.64 7.74001C15.6025 7.69115 15.5814 7.63161 15.58 7.57001C15.58 7.57001 15.58 7.72001 15.58 7.84001C15.6087 7.88665 15.646 7.92738 15.69 7.96001C15.8137 8.07336 15.9037 8.21873 15.95 8.38002C15.9888 8.52377 16.0646 8.6548 16.17 8.76001C16.2679 8.86524 16.3399 8.99197 16.38 9.13002L16.4 9.07001Z" fill="#7A361D"/>
<path id="Vector_47" d="M16.49 8.97002C16.33 8.64002 16.08 8.58001 16 8.26001C16 8.53001 16.29 8.64001 16.42 8.99001L16.49 8.97002Z" fill="#7A361D"/>
<path id="Vector_48" d="M16.93 9.88004L18.93 11.69C18.93 11.69 18.93 11.69 18.99 11.69C18.9965 11.6814 19 11.6709 19 11.66C19 11.6492 18.9965 11.6387 18.99 11.63L17.17 9.63004L16.93 9.88004Z" fill="#F1BD51"/>
<path id="Vector_49" d="M18.93 11.71H18.88L16.88 9.90002L18.88 11.72C18.88 11.72 18.88 11.72 18.93 11.72L17.11 9.72003L18.94 11.72V11.79L18.93 11.71Z" fill="#7A361D"/>
<path id="Vector_50" d="M16.97 9.83002L18.32 11.08L17.07 9.74002L16.97 9.83002Z" fill="#7A361D"/>
<path id="Vector_51" d="M17.49 10.57C17.63 10.92 17.91 11.02 18.01 11.34C18.11 11.66 18.35 11.75 18.43 11.85C18.51 11.95 18.43 12.06 18.51 12.07C18.59 12.08 18.59 11.94 18.51 11.78C18.43 11.62 18.27 11.63 18.14 11.25C18.01 10.87 17.8 10.85 17.7 10.49L17.49 10.57Z" fill="#F1BD51"/>
<path id="Vector_52" d="M18.49 12.07C18.4849 12.0122 18.4641 11.9569 18.43 11.91C18.4007 11.8786 18.3671 11.8517 18.33 11.83C18.1758 11.7224 18.0602 11.5682 18 11.39C17.9539 11.2477 17.8712 11.1201 17.76 11.02C17.6434 10.9106 17.5514 10.7777 17.49 10.63C17.5549 10.7757 17.6465 10.908 17.76 11.02C17.8702 11.1229 17.9556 11.2494 18.01 11.39C18.0675 11.5641 18.1798 11.7149 18.33 11.82C18.3653 11.8477 18.3987 11.8778 18.43 11.91C18.4704 11.9573 18.4918 12.0179 18.49 12.08C18.49 12.02 18.55 11.93 18.49 11.81C18.4588 11.7623 18.4219 11.7186 18.38 11.68C18.2561 11.5726 18.1688 11.4293 18.13 11.27C18.0818 11.1252 18.0033 10.9923 17.9 10.88C17.7979 10.7779 17.7253 10.65 17.69 10.51C17.7307 10.6471 17.8065 10.7713 17.91 10.87C18.0133 10.9823 18.0918 11.1152 18.14 11.26C18.1827 11.4176 18.2694 11.5599 18.39 11.67C18.4374 11.7059 18.4781 11.7499 18.51 11.8C18.5328 11.8414 18.5447 11.8878 18.5447 11.935C18.5447 11.9822 18.5328 12.0287 18.51 12.07H18.49Z" fill="#7A361D"/>
<path id="Vector_53" d="M17.55 10.6C17.7 10.92 17.95 10.99 18.03 11.3C18.03 11.03 17.75 10.93 17.61 10.58L17.55 10.6Z" fill="#7A361D"/>
<path id="Vector_54" d="M16.9 9.73001L15.97 12.24C15.97 12.24 15.97 12.24 15.97 12.3L17.09 9.88002L16.9 9.73001Z" fill="#F1BD51"/>
<path id="Vector_55" d="M16.01 12.31C15.95 12.31 16.01 12.26 16.01 12.24L16.93 9.74002L16 12.24L17.11 9.81003L16.01 12.25V12.31Z" fill="#7A361D"/>
<path id="Vector_56" d="M16.96 9.76001L16.32 11.48L17.08 9.81001L16.96 9.76001Z" fill="#7A361D"/>
<path id="Vector_57" d="M16.49 10.48C16.22 10.74 16.24 11.04 15.98 11.25C15.8228 11.4147 15.7123 11.6184 15.66 11.84C15.6 11.96 15.49 11.96 15.5 12C15.51 12.04 15.65 12 15.76 11.87C15.87 11.74 15.76 11.59 16.12 11.33C16.48 11.07 16.35 10.86 16.64 10.64L16.49 10.48Z" fill="#F1BD51"/>
<path id="Vector_58" d="M15.49 12.02C15.49 12.02 15.49 12.02 15.49 11.97C15.5416 11.9485 15.584 11.9096 15.61 11.86C15.6157 11.8202 15.6157 11.7798 15.61 11.74C15.6468 11.5559 15.7456 11.39 15.89 11.27C15.9945 11.1624 16.0792 11.0372 16.14 10.9C16.1951 10.751 16.2802 10.6148 16.39 10.5C16.2777 10.611 16.1892 10.7437 16.13 10.89C16.0794 11.0354 15.9935 11.166 15.88 11.27C15.7441 11.3913 15.6496 11.5522 15.61 11.73C15.61 11.78 15.61 11.82 15.56 11.86C15.5327 11.9145 15.4865 11.9572 15.43 11.98C15.43 11.98 15.58 11.98 15.67 11.86C15.7013 11.8142 15.725 11.7635 15.74 11.71C15.7932 11.55 15.8945 11.4104 16.03 11.31C16.1427 11.2128 16.2346 11.0938 16.3 10.96C16.3502 10.823 16.4409 10.7044 16.56 10.62C16.4534 10.7143 16.3682 10.8302 16.31 10.96C16.2457 11.1002 16.1539 11.2261 16.04 11.33C15.9114 11.4265 15.8141 11.5586 15.76 11.71C15.7436 11.7679 15.7164 11.8222 15.68 11.87C15.6573 11.9072 15.6267 11.939 15.5905 11.9632C15.5542 11.9874 15.513 12.0033 15.47 12.01L15.49 12.02Z" fill="#7A361D"/>
<path id="Vector_59" d="M16.49 10.58C16.25 10.84 16.28 11.1 16.03 11.3C16.27 11.18 16.26 10.89 16.53 10.63L16.49 10.58Z" fill="#7A361D"/>
<path id="Vector_60" d="M17.15 9.84001L18.08 7.33002V7.27002L16.96 9.69002L17.15 9.84001Z" fill="#F1BD51"/>
<path id="Vector_61" d="M17.16 9.84003L18.09 7.34003C18.09 7.34003 18.09 7.34002 18.09 7.29002L16.97 9.72003L18.07 7.28003H18.12C18.1262 7.29613 18.1262 7.31393 18.12 7.33003L17.19 9.84003H17.16Z" fill="#7A361D"/>
<path id="Vector_62" d="M17.08 9.81001L17.72 8.10001L16.96 9.76001L17.08 9.81001Z" fill="#7A361D"/>
<path id="Vector_63" d="M17.59 9.08C17.86 8.83 17.84 8.52999 18.1 8.31999C18.2582 8.15347 18.3657 7.94537 18.41 7.72C18.48 7.6 18.59 7.60999 18.58 7.56999C18.57 7.52999 18.44 7.57 18.33 7.69C18.22 7.81 18.28 7.97999 17.97 8.23999C17.66 8.49999 17.73 8.70999 17.44 8.92999L17.59 9.08Z" fill="#F1BD51"/>
<path id="Vector_64" d="M17.59 9.09001C17.7059 8.97816 17.7948 8.84137 17.85 8.69001C17.9044 8.54941 17.9898 8.42292 18.1 8.32C18.2418 8.20205 18.3404 8.0402 18.38 7.86001C18.3729 7.81697 18.3729 7.77305 18.38 7.73001C18.4098 7.67744 18.4552 7.6355 18.51 7.61001C18.4619 7.60731 18.414 7.61803 18.3716 7.64099C18.3292 7.66394 18.294 7.69822 18.27 7.74C18.2387 7.78586 18.215 7.83653 18.2 7.89001C18.1383 8.0455 18.0386 8.18303 17.91 8.29001C17.795 8.38507 17.7028 8.50466 17.64 8.64001C17.5874 8.77299 17.5012 8.89011 17.39 8.98001C17.491 8.87924 17.5724 8.76056 17.63 8.63002C17.6947 8.49299 17.7865 8.37051 17.9 8.27002C18.0315 8.17221 18.1294 8.03592 18.18 7.88002C18.1987 7.82617 18.2257 7.77556 18.26 7.73001C18.34 7.62001 18.43 7.57001 18.49 7.59001C18.49 7.59001 18.49 7.59001 18.49 7.64001C18.4613 7.64697 18.4346 7.66053 18.412 7.67962C18.3894 7.69872 18.3716 7.72283 18.36 7.75001C18.3529 7.7897 18.3529 7.83032 18.36 7.87001C18.321 8.05325 18.2226 8.21848 18.08 8.34001C17.9723 8.44495 17.8872 8.57088 17.83 8.71C17.7725 8.86018 17.6839 8.99651 17.57 9.11001L17.59 9.09001Z" fill="#7A361D"/>
<path id="Vector_65" d="M17.58 8.99001C17.82 8.73001 17.79 8.47002 18.05 8.27002C17.8 8.39002 17.81 8.68002 17.53 8.94002L17.58 8.99001Z" fill="#7A361D"/>
<path id="Vector_66" d="M17.07 9.66002L14.57 8.73001C14.57 8.73001 14.57 8.73001 14.51 8.73001L16.93 9.85001L17.07 9.66002Z" fill="#F1BD51"/>
<path id="Vector_67" d="M16.98 9.90002L14.54 8.80003C14.54 8.80003 14.54 8.80002 14.54 8.74002C14.54 8.68002 14.6 8.74002 14.61 8.74002L17.12 9.67002L14.62 8.74002C14.62 8.74002 14.62 8.74002 14.57 8.74002L17 9.85002L16.98 9.90002Z" fill="#7A361D"/>
<path id="Vector_68" d="M17.04 9.73002L15.33 9.08002L16.99 9.85002L17.04 9.73002Z" fill="#7A361D"/>
<path id="Vector_69" d="M16.32 9.22001C16.07 8.95001 15.77 8.97 15.56 8.71C15.3987 8.54461 15.1882 8.43586 14.96 8.40001C14.85 8.33001 14.85 8.22001 14.81 8.23001C14.77 8.24001 14.81 8.37001 14.94 8.48001C15.07 8.59001 15.22 8.54001 15.48 8.84001C15.74 9.14001 15.95 9.08001 16.18 9.37001L16.32 9.22001Z" fill="#F1BD51"/>
<path id="Vector_70" d="M16.18 9.37001C16.0828 9.26228 15.9634 9.17697 15.83 9.12001C15.693 9.05529 15.5705 8.96343 15.47 8.85001C15.3753 8.71537 15.2379 8.6167 15.08 8.57001C15.0262 8.55128 14.9755 8.52428 14.93 8.49001C14.8899 8.46468 14.8558 8.43105 14.83 8.39136C14.8041 8.35167 14.787 8.30687 14.78 8.26001C14.7882 8.28816 14.8023 8.31428 14.8212 8.33667C14.8402 8.35906 14.8636 8.37723 14.89 8.39001H15.01C15.1933 8.429 15.3585 8.52744 15.48 8.67001C15.5839 8.77655 15.7103 8.85855 15.85 8.91002C16.0018 8.969 16.1385 9.06125 16.25 9.18001C16.14 9.06657 16.007 8.97793 15.86 8.92001C15.7158 8.86698 15.5858 8.78143 15.48 8.67001C15.3585 8.52744 15.1933 8.429 15.01 8.39001C14.9703 8.39713 14.9297 8.39713 14.89 8.39001C14.8375 8.36024 14.7955 8.31478 14.77 8.26001C14.77 8.26001 14.77 8.42002 14.9 8.50002L15.05 8.57001C15.2088 8.62547 15.3479 8.72631 15.45 8.86002C15.5424 8.97531 15.6629 9.06485 15.8 9.12001C15.9353 9.17825 16.0526 9.27144 16.14 9.39001L16.18 9.37001Z" fill="#7A361D"/>
<path id="Vector_71" d="M16.23 9.23001C15.97 8.99001 15.71 9.02002 15.51 8.77002C15.63 9.01002 15.92 9.00002 16.18 9.27002L16.23 9.23001Z" fill="#7A361D"/>
<path id="Vector_72" d="M16.97 9.91002L19.48 10.84H19.54L17.11 9.73001L16.97 9.91002Z" fill="#F1BD51"/>
<path id="Vector_73" d="M19.49 10.85L16.99 9.93002L19.49 10.86L17.06 9.75003L19.5 10.85C19.5 10.85 19.55 10.85 19.5 10.91L19.49 10.85Z" fill="#7A361D"/>
<path id="Vector_74" d="M16.99 9.85001L18.71 10.49L17.04 9.73001L16.99 9.85001Z" fill="#7A361D"/>
<path id="Vector_75" d="M17.72 10.31C17.98 10.58 18.28 10.56 18.49 10.81C18.6489 10.975 18.855 11.0868 19.08 11.13C19.21 11.19 19.2 11.31 19.24 11.3C19.28 11.29 19.24 11.15 19.11 11.04C18.98 10.93 18.83 10.99 18.57 10.69C18.31 10.39 18.1 10.45 17.88 10.16L17.72 10.31Z" fill="#F1BD51"/>
<path id="Vector_76" d="M19.23 11.31C19.2084 11.2584 19.1695 11.216 19.12 11.19H19C18.8168 11.151 18.6515 11.0526 18.53 10.91C18.425 10.8023 18.2991 10.7172 18.16 10.66C18.3006 10.7144 18.4271 10.7999 18.53 10.91C18.6513 11.046 18.8122 11.1404 18.99 11.18L19.12 11.23C19.1719 11.2561 19.2139 11.2982 19.24 11.35C19.2416 11.3021 19.2304 11.2546 19.2076 11.2124C19.1847 11.1702 19.151 11.1349 19.11 11.11C19.0665 11.0747 19.015 11.0506 18.96 11.04C18.8045 10.9783 18.667 10.8786 18.56 10.75C18.4636 10.6322 18.3401 10.5396 18.2 10.48C18.0675 10.4266 17.953 10.3364 17.87 10.22C17.9671 10.3278 18.0866 10.4131 18.22 10.47C18.3589 10.5315 18.4821 10.6238 18.58 10.74C18.6778 10.8716 18.8141 10.9694 18.97 11.02C19.0238 11.0388 19.0744 11.0657 19.12 11.1C19.1614 11.1228 19.1961 11.156 19.2207 11.1963C19.2453 11.2367 19.2588 11.2828 19.26 11.33L19.23 11.31Z" fill="#7A361D"/>
<path id="Vector_77" d="M17.82 10.31C18.08 10.55 18.34 10.52 18.54 10.78C18.42 10.53 18.13 10.54 17.87 10.27L17.82 10.31Z" fill="#7A361D"/>
<path id="Vector_78" d="M16.97 9.66003L14.55 10.77H14.61L17.11 9.84003L16.97 9.66003Z" fill="#F1BD51"/>
<path id="Vector_79" d="M14.54 10.85V10.79L16.97 9.67001L14.54 10.78H14.59L17.09 9.85001L14.59 10.79L14.54 10.85Z" fill="#7A361D"/>
<path id="Vector_80" d="M16.99 9.73001L15.33 10.49L17.04 9.85001L16.99 9.73001Z" fill="#7A361D"/>
<path id="Vector_81" d="M16.13 9.88004C15.76 9.88004 15.56 10.09 15.23 10.06C15.0022 10.0656 14.7804 10.1349 14.59 10.26C14.46 10.26 14.38 10.26 14.36 10.26C14.34 10.26 14.45 10.38 14.63 10.35C14.81 10.32 14.87 10.19 15.27 10.22C15.67 10.25 15.76 10.05 16.13 10.1V9.88004Z" fill="#F1BD51"/>
<path id="Vector_82" d="M14.56 10.36C14.5236 10.3637 14.4868 10.3594 14.4522 10.3473C14.4176 10.3352 14.3862 10.3156 14.36 10.29C14.36 10.29 14.36 10.29 14.43 10.29C14.4552 10.301 14.4825 10.3067 14.51 10.3067C14.5375 10.3067 14.5647 10.301 14.59 10.29L14.71 10.23C14.8699 10.1352 15.0544 10.09 15.24 10.1C15.3882 10.1023 15.5351 10.0715 15.67 10.01C15.8191 9.94778 15.9785 9.91387 16.14 9.91003C15.9825 9.91192 15.8266 9.94241 15.68 10C15.5447 10.0709 15.3922 10.1021 15.24 10.09C15.0559 10.0776 14.8729 10.1269 14.72 10.23L14.6 10.29C14.5411 10.3067 14.4788 10.3067 14.42 10.29C14.4481 10.3306 14.489 10.3605 14.5361 10.375C14.5833 10.3895 14.634 10.3878 14.68 10.37C14.7333 10.3658 14.7848 10.3486 14.83 10.32C14.9812 10.2434 15.1523 10.2154 15.32 10.24C15.4693 10.2533 15.6197 10.2327 15.76 10.18C15.8929 10.1255 16.0381 10.1082 16.18 10.13C16.0376 10.1251 15.8954 10.1455 15.76 10.19C15.62 10.2443 15.47 10.2681 15.32 10.26C15.1556 10.2355 14.9876 10.2635 14.84 10.34H14.68L14.56 10.36Z" fill="#7A361D"/>
<path id="Vector_83" d="M16.07 9.95001C15.71 9.95001 15.56 10.17 15.23 10.13C15.49 10.22 15.69 10.01 16.07 10.02V9.95001Z" fill="#7A361D"/>
<path id="Vector_84" d="M17.07 9.91002L19.5 8.79001H19.44L16.93 9.72002L17.07 9.91002Z" fill="#F1BD51"/>
<path id="Vector_85" d="M17.08 9.92003L19.51 8.81003L17.01 9.74002L19.5 8.74002C19.5 8.74002 19.56 8.74002 19.57 8.74002C19.58 8.74002 19.57 8.74003 19.57 8.80003L17.14 9.92003H17.08Z" fill="#7A361D"/>
<path id="Vector_86" d="M17.04 9.85002L18.71 9.08002L16.99 9.73002L17.04 9.85002Z" fill="#7A361D"/>
<path id="Vector_87" d="M17.92 9.69002C18.28 9.69002 18.49 9.47002 18.82 9.50002C19.0576 9.50746 19.2917 9.44108 19.49 9.31002C19.62 9.31002 19.7 9.31002 19.72 9.31002C19.74 9.31002 19.64 9.19001 19.45 9.21001C19.26 9.23001 19.22 9.38001 18.81 9.35001C18.4 9.32001 18.31 9.51001 17.95 9.46001L17.92 9.69002Z" fill="#F1BD51"/>
<path id="Vector_88" d="M17.95 9.69001C18.1082 9.68495 18.264 9.65106 18.41 9.59001C18.5479 9.52795 18.699 9.50049 18.85 9.51001C19.0341 9.52243 19.217 9.47317 19.37 9.37001L19.49 9.31001C19.5488 9.29333 19.6111 9.29333 19.67 9.31001C19.6383 9.27397 19.5972 9.24741 19.5513 9.23329C19.5054 9.21917 19.4565 9.21803 19.41 9.23001C19.3559 9.23767 19.3045 9.25824 19.26 9.29001C19.1071 9.36085 18.9367 9.3852 18.77 9.36001C18.6201 9.35309 18.4704 9.3769 18.33 9.43C18.1926 9.4679 18.0474 9.4679 17.91 9.43C18.0534 9.43709 18.1967 9.41323 18.33 9.36001C18.4695 9.30398 18.6206 9.28337 18.77 9.30001C18.9345 9.32452 19.1024 9.29652 19.25 9.22001C19.2995 9.19301 19.3539 9.17602 19.41 9.17001C19.4561 9.15359 19.5059 9.15052 19.5536 9.16113C19.6014 9.17174 19.6452 9.19562 19.68 9.23001C19.68 9.23001 19.68 9.23001 19.61 9.23001C19.5854 9.21688 19.5579 9.21 19.53 9.21C19.5021 9.21 19.4746 9.21688 19.45 9.23001L19.33 9.28001C19.1734 9.38324 18.9872 9.43241 18.8 9.42001C18.6518 9.41777 18.5049 9.4485 18.37 9.51001C18.2304 9.56766 18.081 9.5982 17.93 9.6L17.95 9.69001Z" fill="#7A361D"/>
<path id="Vector_89" d="M17.98 9.61003C18.34 9.61003 18.49 9.40002 18.81 9.43002C18.56 9.35002 18.36 9.56003 17.98 9.55003V9.61003Z" fill="#7A361D"/>
<path id="Vector_90" d="M17.15 9.73L16.03 7.31C16.03 7.36 16.03 7.37 16.03 7.37L16.96 9.88001L17.15 9.73Z" fill="#F1BD51"/>
<path id="Vector_91" d="M16.91 9.83003L15.97 7.33003C15.9656 7.32243 15.9633 7.3138 15.9633 7.30502C15.9633 7.29625 15.9656 7.28763 15.97 7.28003L17.08 9.71002L16.01 7.31003L16.94 9.81003L16.91 9.83003Z" fill="#7A361D"/>
<path id="Vector_92" d="M17.08 9.76001L16.32 8.10001L16.96 9.81001L17.08 9.76001Z" fill="#7A361D"/>
<path id="Vector_93" d="M16.93 8.89001C16.93 8.52001 16.72 8.32001 16.74 7.99001C16.7393 7.75975 16.6734 7.53441 16.55 7.34001C16.55 7.22001 16.6 7.14001 16.55 7.12001C16.5 7.10001 16.43 7.20001 16.46 7.39001C16.49 7.58001 16.62 7.62001 16.59 8.03001C16.56 8.44001 16.75 8.52001 16.71 8.89001H16.93Z" fill="#F1BD51"/>
<path id="Vector_94" d="M16.94 8.89003C16.94 8.73131 16.9058 8.57444 16.84 8.43002C16.777 8.29208 16.7463 8.14161 16.75 7.99002C16.7704 7.80671 16.7242 7.6222 16.62 7.47003C16.596 7.43217 16.5759 7.39196 16.56 7.35002C16.5433 7.29118 16.5433 7.22887 16.56 7.17003C16.49 7.17003 16.45 7.29003 16.47 7.42003C16.4821 7.47599 16.5023 7.52989 16.53 7.58003C16.6001 7.73324 16.6277 7.90247 16.61 8.07002C16.5968 8.21933 16.6173 8.36971 16.67 8.51003C16.7255 8.64261 16.7429 8.7881 16.72 8.93002C16.7271 8.78662 16.7032 8.64338 16.65 8.51003C16.5957 8.36661 16.5752 8.21264 16.59 8.06003C16.6137 7.89884 16.5857 7.73428 16.51 7.59003C16.5043 7.53685 16.5043 7.4832 16.51 7.43002C16.4984 7.38345 16.4978 7.33482 16.5082 7.28796C16.5186 7.24111 16.5398 7.19732 16.57 7.16003C16.57 7.16003 16.57 7.16003 16.57 7.23003C16.5569 7.25465 16.55 7.28212 16.55 7.31003C16.55 7.33793 16.5569 7.36541 16.57 7.39003C16.5676 7.42999 16.5676 7.47006 16.57 7.51003C16.6733 7.66669 16.7224 7.85282 16.71 8.04002C16.704 8.18859 16.7349 8.33633 16.8 8.47003C16.8612 8.61946 16.895 8.77865 16.9 8.94003L16.94 8.89003Z" fill="#7A361D"/>
<path id="Vector_95" d="M16.86 8.83C16.86 8.47 16.64 8.31999 16.68 7.98999C16.59 8.24999 16.8 8.45 16.79 8.83H16.86Z" fill="#7A361D"/>
<path id="Vector_96" d="M16.9 9.84003L18.02 12.26V12.2L17.09 9.69003L16.9 9.84003Z" fill="#F1BD51"/>
<path id="Vector_97" d="M18.07 12.31C18.02 12.31 18.01 12.31 18.01 12.31L17.08 9.81003L18.08 12.3C18.08 12.3 18.08 12.36 18.08 12.37L18.07 12.31Z" fill="#7A361D"/>
<path id="Vector_98" d="M16.96 9.81001L17.72 11.48L17.08 9.76001L16.96 9.81001Z" fill="#7A361D"/>
<path id="Vector_99" d="M17.12 10.68C17.12 11.05 17.34 11.25 17.31 11.58C17.3104 11.8072 17.3764 12.0294 17.5 12.22C17.5 12.35 17.5 12.43 17.5 12.45C17.5 12.47 17.62 12.36 17.6 12.18C17.58 12 17.43 11.94 17.46 11.54C17.49 11.14 17.3 11.05 17.35 10.68H17.12Z" fill="#F1BD51"/>
<path id="Vector_100" d="M17.49 12.46C17.49 12.46 17.49 12.46 17.49 12.39C17.5031 12.3654 17.51 12.3379 17.51 12.31C17.51 12.2821 17.5031 12.2546 17.49 12.23C17.4782 12.1864 17.4578 12.1456 17.43 12.11C17.3349 11.9498 17.2864 11.7663 17.29 11.58C17.3013 11.4322 17.2737 11.2839 17.21 11.15C17.1442 11.002 17.1101 10.8419 17.11 10.68C17.11 10.8387 17.1441 10.9956 17.21 11.14C17.2728 11.2777 17.3003 11.429 17.29 11.58C17.2776 11.7641 17.3268 11.947 17.43 12.1C17.43 12.15 17.43 12.19 17.49 12.22C17.5067 12.2789 17.5067 12.3412 17.49 12.4C17.526 12.3683 17.5526 12.3272 17.5667 12.2813C17.5808 12.2354 17.582 12.1865 17.57 12.14C17.5607 12.0833 17.5403 12.0289 17.51 11.98C17.4382 11.8309 17.4138 11.6634 17.44 11.5C17.4481 11.35 17.4242 11.2001 17.37 11.06C17.3321 10.9226 17.3321 10.7775 17.37 10.64C17.3629 10.7834 17.3868 10.9267 17.44 11.06C17.4903 11.2009 17.5107 11.3508 17.5 11.5C17.479 11.6634 17.5032 11.8294 17.57 11.98C17.6003 12.0289 17.6207 12.0833 17.63 12.14C17.6408 12.1866 17.6411 12.2351 17.6307 12.2818C17.6203 12.3286 17.5996 12.3724 17.57 12.41L17.49 12.46Z" fill="#7A361D"/>
<path id="Vector_101" d="M17.19 10.74C17.19 11.09 17.41 11.25 17.37 11.57C17.46 11.32 17.25 11.12 17.26 10.74H17.19Z" fill="#7A361D"/>
<path id="Vector_102" d="M17.03 8.70003C17.246 8.70004 17.4571 8.76423 17.6366 8.88445C17.816 9.00466 17.9558 9.17549 18.0379 9.37524C18.1201 9.575 18.1411 9.79467 18.0983 10.0064C18.0554 10.2181 17.9505 10.4123 17.7971 10.5643C17.6437 10.7163 17.4485 10.8194 17.2364 10.8603C17.0243 10.9012 16.8049 10.8782 16.6059 10.7942C16.4069 10.7101 16.2374 10.5689 16.1188 10.3883C16.0003 10.2077 15.938 9.99603 15.94 9.78003C15.94 9.63736 15.9682 9.4961 16.0231 9.36441C16.078 9.23272 16.1585 9.11322 16.2598 9.0128C16.3612 8.91238 16.4814 8.83303 16.6136 8.77934C16.7458 8.72566 16.8873 8.69871 17.03 8.70003Z" fill="#F1BD51"/>
<path id="Vector_103" d="M17.03 10.88C16.812 10.882 16.5983 10.8192 16.4161 10.6995C16.2339 10.5799 16.0914 10.4088 16.0066 10.2079C15.9218 10.0071 15.8986 9.78564 15.9399 9.57161C15.9812 9.35758 16.0852 9.16064 16.2386 9.0058C16.3921 8.85096 16.588 8.7452 16.8017 8.70193C17.0153 8.65867 17.237 8.67986 17.4386 8.76282C17.6402 8.84577 17.8126 8.98676 17.9339 9.16786C18.0552 9.34897 18.12 9.56203 18.12 9.78001C18.12 10.07 18.0054 10.3483 17.8013 10.5543C17.5972 10.7603 17.32 10.8774 17.03 10.88ZM17.03 8.70001C16.7435 8.70001 16.4688 8.8138 16.2663 9.01634C16.0637 9.21888 15.95 9.49358 15.95 9.78001C15.95 10.0664 16.0637 10.3411 16.2663 10.5437C16.4688 10.7462 16.7435 10.86 17.03 10.86C17.3164 10.86 17.5911 10.7462 17.7936 10.5437C17.9962 10.3411 18.11 10.0664 18.11 9.78001C18.11 9.49358 17.9962 9.21888 17.7936 9.01634C17.5911 8.8138 17.3164 8.70001 17.03 8.70001Z" fill="#7A361D"/>
<path id="Vector_104" d="M17.71 9.55002C17.6391 9.47203 17.5426 9.42205 17.438 9.4092C17.3334 9.39636 17.2277 9.42149 17.14 9.48002C17.0871 9.54306 17.0581 9.62273 17.0581 9.70502C17.0581 9.78732 17.0871 9.86698 17.14 9.93001C17.106 9.85635 17.0883 9.77617 17.0883 9.69501C17.0883 9.61386 17.106 9.53368 17.14 9.46001C17.1832 9.41827 17.2352 9.38679 17.2922 9.3679C17.3492 9.349 17.4097 9.34317 17.4692 9.35085C17.5288 9.35854 17.5858 9.37954 17.6362 9.41228C17.6865 9.44503 17.7289 9.48868 17.76 9.54002L17.71 9.55002Z" fill="#7A361D"/>
<path id="Vector_105" d="M17.41 9.50003C17.3764 9.49454 17.3421 9.49814 17.3104 9.51045C17.2788 9.52276 17.251 9.54333 17.23 9.57002C17.23 9.57002 17.15 9.57002 17.14 9.57002C17.176 9.55489 17.2097 9.53469 17.24 9.51003C17.2635 9.49924 17.2891 9.49365 17.315 9.49365C17.3409 9.49365 17.3665 9.49924 17.39 9.51003C17.54 9.51003 17.62 9.64004 17.64 9.63004C17.66 9.62004 17.56 9.49002 17.39 9.49002L17.41 9.50003Z" fill="#7A361D"/>
<path id="Vector_106" d="M17.6 9.64003C17.5766 9.61083 17.5469 9.58727 17.5131 9.57108C17.4794 9.55488 17.4424 9.54648 17.405 9.54648C17.3675 9.54648 17.3306 9.55488 17.2969 9.57108C17.2631 9.58727 17.2334 9.61083 17.21 9.64003C17.3 9.51003 17.5 9.56003 17.51 9.64003H17.6Z" fill="#7A361D"/>
<path id="Vector_107" d="M17.39 9.56003C17.4096 9.55988 17.4286 9.56692 17.4433 9.57982C17.458 9.59272 17.4675 9.6106 17.47 9.63004C17.4678 9.65051 17.4587 9.66962 17.4442 9.68418C17.4296 9.69873 17.4105 9.70785 17.39 9.71002C17.3706 9.70758 17.3527 9.69808 17.3398 9.68334C17.3269 9.66859 17.3199 9.64963 17.32 9.63004C17.32 9.61147 17.3274 9.59367 17.3405 9.58054C17.3536 9.56741 17.3715 9.56003 17.39 9.56003Z" fill="#7A361D"/>
<path id="Vector_108" d="M17.21 9.65002C17.2676 9.68872 17.3355 9.70938 17.405 9.70938C17.4744 9.70938 17.5423 9.68872 17.6 9.65002H17.54C17.4993 9.68798 17.4457 9.70909 17.39 9.70909C17.3343 9.70909 17.2807 9.68798 17.24 9.65002H17.21Z" fill="#7A361D"/>
<path id="Vector_109" d="M17.61 9.68002C17.5554 9.717 17.4909 9.73676 17.425 9.73676C17.359 9.73676 17.2946 9.717 17.24 9.68002C17.16 9.68002 17.16 9.62003 17.18 9.62003H17.28C17.332 9.64289 17.3882 9.65469 17.445 9.65469C17.5018 9.65469 17.558 9.64289 17.61 9.62003V9.68002Z" fill="#7A361D"/>
<path id="Vector_110" d="M17.2 9.94003C17.2 9.94003 17.2 9.94003 17.2 10C17.2 10.06 17.2 10 17.14 10C17.1339 9.98393 17.1339 9.96613 17.14 9.95003C17.1311 9.96957 17.1171 9.98638 17.0995 9.99869C17.082 10.011 17.0614 10.0184 17.04 10.02C17.069 10.0308 17.101 10.0308 17.13 10.02C17.1449 10.0341 17.1645 10.0419 17.185 10.0419C17.2055 10.0419 17.2251 10.0341 17.24 10.02C17.2541 10.0052 17.2619 9.98549 17.2619 9.96503C17.2619 9.94457 17.2541 9.92489 17.24 9.91003L17.2 9.94003Z" fill="#7A361D"/>
<path id="Vector_111" d="M17.3 10.31C17.23 10.26 17.19 10.19 17.11 10.19H17.03C17.03 10.19 17.11 10.19 17.17 10.19C17.23 10.19 17.26 10.26 17.3 10.27V10.31Z" fill="#7A361D"/>
<path id="Vector_112" d="M17.28 10.31C17.1988 10.2833 17.1112 10.2833 17.03 10.31C17.1121 10.2897 17.1979 10.2897 17.28 10.31Z" fill="#7A361D"/>
<path id="Vector_113" d="M17.3 10.31C17.12 10.31 17.18 10.41 17.03 10.41C17.21 10.41 17.12 10.31 17.3 10.29V10.31Z" fill="#7A361D"/>
<path id="Vector_114" d="M17.18 10.55C17.18 10.5103 17.1642 10.4721 17.136 10.444C17.1079 10.4158 17.0698 10.4 17.03 10.4C16.9892 10.3999 16.95 10.4154 16.9202 10.4433C16.8905 10.4712 16.8725 10.5094 16.87 10.55C16.8817 10.5109 16.9079 10.4778 16.9432 10.4573C16.9785 10.4369 17.0203 10.4307 17.06 10.44C17.0876 10.4469 17.1131 10.4605 17.134 10.4797C17.155 10.499 17.1708 10.5231 17.18 10.55Z" fill="#7A361D"/>
<path id="Vector_115" d="M16.34 9.55002C16.4108 9.47203 16.5074 9.42205 16.612 9.4092C16.7166 9.39636 16.8223 9.42149 16.91 9.48002C16.9611 9.54387 16.989 9.62323 16.989 9.70502C16.989 9.78682 16.9611 9.86616 16.91 9.93001C16.944 9.85635 16.9617 9.77617 16.9617 9.69501C16.9617 9.61386 16.944 9.53368 16.91 9.46001C16.8668 9.41827 16.8148 9.38679 16.7578 9.3679C16.7008 9.349 16.6403 9.34317 16.5807 9.35085C16.5212 9.35854 16.4642 9.37954 16.4138 9.41228C16.3635 9.44503 16.3211 9.48868 16.29 9.54002L16.34 9.55002Z" fill="#7A361D"/>
<path id="Vector_116" d="M16.64 9.50003C16.6736 9.49454 16.7079 9.49814 16.7396 9.51045C16.7712 9.52276 16.799 9.54333 16.82 9.57002C16.82 9.57002 16.9 9.57002 16.91 9.57002L16.81 9.51003C16.7865 9.49924 16.7609 9.49365 16.735 9.49365C16.7091 9.49365 16.6835 9.49924 16.66 9.51003C16.51 9.51003 16.43 9.64004 16.41 9.63004C16.39 9.62004 16.49 9.49002 16.66 9.49002L16.64 9.50003Z" fill="#7A361D"/>
<path id="Vector_117" d="M16.49 9.64003C16.5134 9.61083 16.5431 9.58727 16.5768 9.57108C16.6106 9.55488 16.6476 9.54648 16.685 9.54648C16.7224 9.54648 16.7594 9.55488 16.7932 9.57108C16.8269 9.58727 16.8566 9.61083 16.88 9.64003C16.79 9.51003 16.59 9.56003 16.58 9.64003H16.49Z" fill="#7A361D"/>
<path id="Vector_118" d="M16.66 9.56002C16.65 9.55857 16.6398 9.5593 16.6301 9.56217C16.6204 9.56503 16.6115 9.56997 16.6039 9.57662C16.5963 9.58327 16.5902 9.59148 16.5861 9.6007C16.582 9.60991 16.5799 9.61993 16.58 9.63002C16.58 9.65124 16.5884 9.67158 16.6034 9.68659C16.6184 9.70159 16.6388 9.71001 16.66 9.71001C16.6794 9.70756 16.6973 9.69807 16.7102 9.68332C16.7231 9.66858 16.7301 9.64962 16.73 9.63002C16.73 9.61146 16.7226 9.59365 16.7095 9.58052C16.6963 9.5674 16.6785 9.56002 16.66 9.56002Z" fill="#7A361D"/>
<path id="Vector_119" d="M16.84 9.65002C16.7823 9.68872 16.7145 9.70938 16.645 9.70938C16.5756 9.70938 16.5077 9.68872 16.45 9.65002H16.49C16.5307 9.68798 16.5843 9.70909 16.64 9.70909C16.6957 9.70909 16.7493 9.68798 16.79 9.65002H16.84Z" fill="#7A361D"/>
<path id="Vector_120" d="M16.49 9.68002C16.5446 9.717 16.609 9.73676 16.675 9.73676C16.7409 9.73676 16.8054 9.717 16.86 9.68002C16.94 9.68002 16.94 9.62003 16.92 9.62003H16.82C16.768 9.64289 16.7118 9.65469 16.655 9.65469C16.5982 9.65469 16.542 9.64289 16.49 9.62003V9.68002Z" fill="#7A361D"/>
<path id="Vector_121" d="M16.85 9.94003C16.85 9.94003 16.85 9.94003 16.85 10C16.85 10.06 16.85 10 16.91 10C16.97 10 16.91 10 16.91 9.95003C16.9184 9.9719 16.9337 9.99049 16.9535 10.0031C16.9733 10.0157 16.9966 10.0216 17.02 10.02C16.9843 10.0315 16.9457 10.0315 16.91 10.02C16.9035 10.0267 16.8957 10.032 16.8871 10.0356C16.8785 10.0392 16.8693 10.041 16.86 10.041C16.8507 10.041 16.8415 10.0392 16.8329 10.0356C16.8243 10.032 16.8165 10.0267 16.81 10.02C16.81 10.02 16.81 9.95003 16.81 9.91003H16.86L16.85 9.94003Z" fill="#7A361D"/>
<path id="Vector_122" d="M16.75 10.31C16.82 10.26 16.86 10.19 16.94 10.19H17.03C17.03 10.19 16.94 10.19 16.88 10.19C16.82 10.19 16.79 10.26 16.75 10.27V10.31Z" fill="#7A361D"/>
<path id="Vector_123" d="M16.77 10.31C16.8548 10.2845 16.9452 10.2845 17.03 10.31C16.96 10.31 16.92 10.26 16.77 10.31Z" fill="#7A361D"/>
<path id="Vector_124" d="M16.75 10.31C16.93 10.31 16.87 10.41 17.03 10.41C16.84 10.41 16.92 10.31 16.75 10.29V10.31Z" fill="#7A361D"/>
<path id="Vector_125" d="M16.87 10.55C16.8725 10.5094 16.8905 10.4712 16.9202 10.4433C16.95 10.4154 16.9892 10.3999 17.03 10.4C17.0698 10.4 17.1079 10.4158 17.136 10.444C17.1642 10.4721 17.18 10.5103 17.18 10.55C17.1683 10.5109 17.1421 10.4778 17.1068 10.4573C17.0715 10.4369 17.0297 10.4307 16.99 10.44C16.9624 10.4469 16.9369 10.4605 16.916 10.4797C16.895 10.499 16.8792 10.5231 16.87 10.55Z" fill="#7A361D"/>
</g>
</g>
</g>
</g>
</g>
</g>
</g>
</svg>
