<svg width="34" height="20" viewBox="0 0 34 20" fill="none" xmlns="http://www.w3.org/2000/svg">
<g id="BRAZIL">
<g id="Clip path group">
<mask id="mask0_233_14150" style="mask-type:luminance" maskUnits="userSpaceOnUse" x="0" y="0" width="34" height="20">
<g id="b3a46ebf-238c-4d1d-9a5f-e938b19666d0">
<path id="Vector" d="M33.56 0H0V19.58H33.56V0Z" fill="white"/>
</g>
</mask>
<g mask="url(#mask0_233_14150)">
<g id="Group">
<path id="Vector_2" d="M33.55 0H-0.0100098V19.58H33.55V0Z" fill="#3C9242"/>
<path id="Vector_3" d="M5.17004 9.79L16.77 17.2L28.38 9.79L16.77 2.38L5.17004 9.79Z" fill="#EDC226"/>
<g id="Clip path group_2">
<mask id="mask1_233_14150" style="mask-type:luminance" maskUnits="userSpaceOnUse" x="0" y="0" width="34" height="20">
<g id="b3a46ebf-238c-4d1d-9a5f-e938b19666d0_2">
<path id="Vector_4" d="M33.56 0H0V19.58H33.56V0Z" fill="white"/>
</g>
</mask>
<g mask="url(#mask1_233_14150)">
<g id="Group_2">
<path id="Vector_5" d="M21.67 9.78001C21.67 10.7472 21.3832 11.6926 20.8459 12.4967C20.3086 13.3009 19.5449 13.9277 18.6513 14.2978C17.7578 14.6679 16.7746 14.7647 15.826 14.576C14.8775 14.3874 14.0061 13.9216 13.3223 13.2378C12.6384 12.5539 12.1727 11.6826 11.984 10.734C11.7953 9.78544 11.8921 8.80222 12.2622 7.90869C12.6324 7.01516 13.2591 6.25145 14.0633 5.71413C14.8675 5.17681 15.8129 4.89001 16.78 4.89001C18.0769 4.89001 19.3207 5.40521 20.2378 6.32227C21.1548 7.23932 21.67 8.48311 21.67 9.78001Z" fill="#2D146E"/>
<path id="Vector_6" d="M13.98 7.69002C13.4179 7.68946 12.8564 7.72956 12.3 7.81001C12.1941 8.04949 12.1072 8.29692 12.04 8.55002C12.6809 8.44093 13.33 8.38739 13.98 8.39001C16.7382 8.38571 19.4 9.40479 21.45 11.25C21.5326 10.9963 21.5895 10.735 21.6201 10.47C19.4831 8.66759 16.7756 7.68241 13.98 7.69002Z" fill="white"/>
<path id="Vector_7" fill-rule="evenodd" clip-rule="evenodd" d="M12.6001 8.31001C12.6288 8.30645 12.6564 8.297 12.6813 8.28225C12.7062 8.2675 12.7277 8.24778 12.7446 8.22431C12.7615 8.20084 12.7734 8.17412 12.7795 8.14585C12.7856 8.11758 12.7858 8.08835 12.7801 8.06001C12.7788 8.03111 12.7718 8.00274 12.7596 7.97654C12.7473 7.95034 12.73 7.9268 12.7086 7.9073C12.6873 7.88779 12.6623 7.87269 12.6351 7.86286C12.6078 7.85303 12.579 7.84866 12.5501 7.85C12.521 7.8548 12.4931 7.86541 12.4682 7.88119C12.4433 7.89697 12.4217 7.9176 12.405 7.94186C12.3882 7.96611 12.3764 7.99349 12.3704 8.02238C12.3644 8.05127 12.3643 8.08107 12.3701 8.11001C12.3713 8.1385 12.3783 8.16644 12.3907 8.19213C12.4031 8.21782 12.4205 8.24074 12.4421 8.25945C12.4636 8.27817 12.4887 8.2923 12.5159 8.30099C12.543 8.30968 12.5717 8.31275 12.6001 8.31001ZM12.6001 8.23C12.6344 8.2207 12.6643 8.19951 12.6844 8.1702C12.7046 8.1409 12.7137 8.10538 12.7101 8.07C12.7156 8.05065 12.7166 8.03029 12.7129 8.01051C12.7092 7.99073 12.701 7.97208 12.6889 7.95602C12.6767 7.93995 12.6611 7.92692 12.643 7.91795C12.625 7.90897 12.6052 7.90431 12.5851 7.90431C12.5649 7.90431 12.5451 7.90897 12.5271 7.91795C12.5091 7.92692 12.4934 7.93995 12.4813 7.95602C12.4692 7.97208 12.4609 7.99073 12.4573 8.01051C12.4536 8.03029 12.4545 8.05065 12.4601 8.07C12.4626 8.10537 12.4785 8.13846 12.5044 8.16259C12.5304 8.18672 12.5646 8.2001 12.6001 8.20001" fill="#3C9242"/>
<path id="Vector_8" fill-rule="evenodd" clip-rule="evenodd" d="M12.98 8.31003H13.07V8.13003H13.26C13.2971 8.12297 13.3304 8.10303 13.3542 8.07376C13.378 8.04448 13.3907 8.00774 13.39 7.97003C13.385 7.93202 13.3657 7.89736 13.3359 7.87318C13.3062 7.84901 13.2682 7.83714 13.23 7.84002H12.96L12.98 8.31003ZM13.05 8.05003H13.23C13.2441 8.04434 13.2564 8.03472 13.2652 8.02232C13.2741 8.00992 13.2792 7.99524 13.28 7.98002H13.22H13.04L13.05 8.05003Z" fill="#3C9242"/>
<path id="Vector_9" d="M13.38 8.31003C13.38 8.25003 13.38 8.10003 13.26 8.11003H13.14C13.28 8.11003 13.29 8.24003 13.3 8.31003" fill="#3C9242"/>
<path id="Vector_10" fill-rule="evenodd" clip-rule="evenodd" d="M13.58 8.31003H13.79C13.8167 8.31147 13.8433 8.30729 13.8682 8.29774C13.8931 8.2882 13.9158 8.27352 13.9347 8.25465C13.9535 8.23579 13.9682 8.21315 13.9778 8.18823C13.9873 8.16331 13.9915 8.13668 13.99 8.11003V8.04002C13.9874 7.98608 13.9642 7.93521 13.9251 7.89796C13.886 7.86072 13.834 7.83997 13.78 7.84003H13.57L13.58 8.31003ZM13.66 8.22003H13.78C13.7966 8.22142 13.8133 8.21933 13.829 8.21393C13.8447 8.20852 13.8592 8.19991 13.8714 8.18863C13.8837 8.17734 13.8934 8.16363 13.9 8.14838C13.9067 8.13313 13.9101 8.11666 13.91 8.10002V8.05003C13.9075 8.01732 13.8927 7.98677 13.8686 7.96451C13.8445 7.94225 13.8128 7.92993 13.78 7.93002H13.65L13.66 8.22003Z" fill="#3C9242"/>
<path id="Vector_11" d="M14.16 8.27L14.58 8.29V8.2L14.25 8.19V8.07L14.52 8.08V8L14.25 7.99V7.9L14.57 7.91V7.82L14.18 7.81L14.16 8.27Z" fill="#3C9242"/>
<path id="Vector_12" d="M14.75 8.30002H14.83L14.86 7.99002L14.92 8.31002L15 8.32002L15.12 8.01002L15.09 8.33002L15.17 8.34002L15.21 7.87002L15.1 7.86002L14.97 8.17002L14.91 7.84002L14.79 7.83002L14.75 8.30002Z" fill="#3C9242"/>
<path id="Vector_13" d="M15.72 8.41002L16.07 8.46002V8.39002L15.81 8.34002L15.83 8.24002L16.05 8.27002L16.06 8.19002L15.85 8.16002L15.86 8.09002L16.11 8.13002L16.12 8.05002L15.79 7.99002L15.72 8.41002Z" fill="#3C9242"/>
<path id="Vector_14" fill-rule="evenodd" clip-rule="evenodd" d="M16.61 8.58003H16.69L16.74 8.41003H16.91C16.929 8.41529 16.9489 8.41673 16.9685 8.41429C16.9881 8.41186 17.0071 8.40559 17.0242 8.39584C17.0414 8.38609 17.0565 8.37305 17.0686 8.35747C17.0808 8.34189 17.0897 8.32406 17.095 8.30502C17.1003 8.28598 17.1017 8.26609 17.0993 8.24649C17.0968 8.22689 17.0906 8.20796 17.0808 8.19078C17.0711 8.1736 17.058 8.15852 17.0424 8.14638C17.0268 8.13424 17.009 8.12528 16.99 8.12003L16.73 8.06003L16.61 8.58003ZM16.76 8.35002H16.93C16.9402 8.35735 16.9524 8.3613 16.965 8.3613C16.9776 8.3613 16.9898 8.35735 17 8.35002V8.28003L16.83 8.23003L16.76 8.35002Z" fill="#3C9242"/>
<path id="Vector_15" fill-rule="evenodd" clip-rule="evenodd" d="M17.1801 8.73001H17.26L17.32 8.57001L17.4901 8.63002C17.5285 8.63988 17.5692 8.63509 17.6043 8.61661C17.6394 8.59813 17.6664 8.56727 17.6801 8.53001C17.6861 8.51164 17.6883 8.49221 17.6865 8.47295C17.6847 8.45368 17.6789 8.435 17.6695 8.41809C17.6601 8.40118 17.6473 8.3864 17.6319 8.37468C17.6165 8.36296 17.5989 8.35456 17.58 8.35001L17.32 8.27002L17.1801 8.73001ZM17.3401 8.51001L17.51 8.56001C17.521 8.56985 17.5353 8.57529 17.55 8.57529C17.5648 8.57529 17.5791 8.56985 17.5901 8.56001C17.5974 8.54981 17.6013 8.53757 17.6013 8.52501C17.6013 8.51245 17.5974 8.50021 17.5901 8.49001L17.42 8.43001L17.3401 8.51001Z" fill="#3C9242"/>
<path id="Vector_16" d="M17.5601 8.85002C17.5601 8.78002 17.6201 8.65003 17.5601 8.62003H17.4401C17.5701 8.62003 17.53 8.80003 17.51 8.86003" fill="#3C9242"/>
<path id="Vector_17" fill-rule="evenodd" clip-rule="evenodd" d="M17.94 8.99002C17.997 9.00343 18.0569 8.99559 18.1084 8.96797C18.16 8.94035 18.1997 8.89486 18.22 8.84003C18.2299 8.81376 18.2345 8.78582 18.2335 8.75778C18.2326 8.72975 18.2261 8.70217 18.2145 8.67664C18.2029 8.6511 18.1864 8.6281 18.1659 8.60895C18.1454 8.5898 18.1213 8.57488 18.095 8.56503C18.0688 8.55518 18.0408 8.55059 18.0128 8.55154C17.9848 8.5525 17.9572 8.55897 17.9317 8.57057C17.9061 8.58218 17.8831 8.59871 17.864 8.6192C17.8448 8.6397 17.8299 8.66377 17.82 8.69003C17.7991 8.746 17.7998 8.80777 17.822 8.86325C17.8442 8.91873 17.8863 8.96393 17.94 8.99002ZM17.94 8.90003C17.9571 8.90617 17.9752 8.90869 17.9933 8.90741C18.0113 8.90613 18.0289 8.9011 18.0449 8.89262C18.0609 8.88415 18.075 8.87242 18.0862 8.8582C18.0974 8.84398 18.1055 8.82757 18.11 8.81003C18.1182 8.79377 18.1229 8.77597 18.1238 8.75778C18.1246 8.7396 18.1217 8.72142 18.1151 8.70445C18.1085 8.68748 18.0984 8.67209 18.0855 8.65927C18.0725 8.64645 18.057 8.63649 18.04 8.63004C18.0056 8.62274 17.9698 8.62775 17.9387 8.6442C17.9076 8.66065 17.8833 8.68749 17.87 8.72003C17.8564 8.75328 17.856 8.79053 17.869 8.82404C17.8821 8.85755 17.9075 8.88475 17.94 8.90003Z" fill="#3C9242"/>
<path id="Vector_18" fill-rule="evenodd" clip-rule="evenodd" d="M18.49 9.21001C18.5459 9.22533 18.6054 9.22074 18.6583 9.19703C18.7112 9.17331 18.7542 9.13195 18.78 9.08002C18.8017 9.02523 18.8024 8.96437 18.7822 8.90905C18.7619 8.85372 18.7219 8.8078 18.67 8.78002C18.6432 8.76896 18.6143 8.76358 18.5853 8.76421C18.5564 8.76484 18.5278 8.77148 18.5015 8.7837C18.4752 8.79591 18.4517 8.81344 18.4325 8.83518C18.4133 8.85692 18.3988 8.88241 18.39 8.91002C18.3763 8.93619 18.3681 8.96483 18.3658 8.99424C18.3635 9.02365 18.3671 9.05322 18.3764 9.08121C18.3857 9.1092 18.4006 9.13503 18.4201 9.15715C18.4396 9.17928 18.4634 9.19725 18.49 9.21001ZM18.49 9.13002C18.5242 9.13855 18.5604 9.13473 18.5921 9.11925C18.6238 9.10377 18.649 9.07762 18.6633 9.04538C18.6776 9.01315 18.6802 8.9769 18.6704 8.943C18.6606 8.9091 18.6392 8.87971 18.61 8.86002C18.5936 8.85371 18.5761 8.85078 18.5586 8.85141C18.541 8.85205 18.5238 8.85622 18.5079 8.8637C18.492 8.87117 18.4778 8.88178 18.4661 8.8949C18.4544 8.90802 18.4456 8.92337 18.44 8.94002C18.4181 8.96682 18.4061 9.00039 18.4061 9.03502C18.4061 9.06966 18.4181 9.10322 18.44 9.13002" fill="#3C9242"/>
<path id="Vector_19" d="M18.61 9.01001L18.77 9.08001L18.74 9.14001L18.58 9.07001L18.61 9.01001Z" fill="#3C9242"/>
<path id="Vector_20" d="M18.71 9.05002L18.77 9.08002L18.68 9.29002L18.62 9.27002L18.71 9.05002Z" fill="#3C9242"/>
<path id="Vector_21" fill-rule="evenodd" clip-rule="evenodd" d="M18.84 9.36003H18.92L18.99 9.21002L19.16 9.29002C19.1764 9.29868 19.1944 9.304 19.2128 9.30566C19.2313 9.30733 19.2499 9.30531 19.2675 9.29973C19.2852 9.29415 19.3016 9.28511 19.3158 9.27315C19.3299 9.26118 19.3416 9.24653 19.35 9.23003C19.3603 9.21322 19.367 9.19444 19.3695 9.1749C19.372 9.15535 19.3704 9.13549 19.3648 9.11661C19.3591 9.09773 19.3495 9.08026 19.3366 9.06534C19.3238 9.05042 19.3079 9.03838 19.29 9.03003L19.05 8.91003L18.84 9.36003ZM19.03 9.17003L19.19 9.25003C19.201 9.25987 19.2153 9.2653 19.23 9.2653C19.2448 9.2653 19.259 9.25987 19.27 9.25003C19.2799 9.23903 19.2853 9.22478 19.2853 9.21002C19.2853 9.19526 19.2799 9.18103 19.27 9.17003L19.1 9.09003L19.03 9.17003Z" fill="#3C9242"/>
<path id="Vector_22" d="M19.19 9.54002C19.19 9.48002 19.28 9.35003 19.19 9.31003L19.07 9.25003C19.21 9.31003 19.14 9.44003 19.07 9.50003" fill="#3C9242"/>
<path id="Vector_23" d="M19.36 9.64001L19.73 9.84001L19.77 9.77001L19.47 9.60001L19.53 9.49001L19.76 9.63001L19.8 9.55001L19.57 9.43001L19.62 9.34001L19.89 9.50001L19.94 9.43001L19.59 9.23001L19.36 9.64001Z" fill="#3C9242"/>
<path id="Vector_24" d="M20.05 9.86001C20.05 9.86001 20.05 9.94001 20.1 9.98001C20.15 10.02 20.2 9.98001 20.21 9.98001C20.22 9.98001 19.97 9.78001 20.06 9.64001C20.15 9.50001 20.27 9.64001 20.32 9.64001C20.339 9.64849 20.3561 9.66083 20.3701 9.67625C20.3841 9.69167 20.3947 9.70984 20.4013 9.7296C20.4079 9.74935 20.4103 9.77025 20.4083 9.79098C20.4064 9.81171 20.4001 9.83181 20.39 9.85L20.3 9.79001C20.3 9.79001 20.3 9.71001 20.3 9.69001C20.3 9.67001 20.22 9.64001 20.19 9.69001C20.16 9.74001 20.44 9.87001 20.35 10.01C20.26 10.15 20.17 10.07 20.1 10.01C20.03 9.95001 19.93 9.87002 19.99 9.77002L20.05 9.86001Z" fill="#3C9242"/>
<path id="Vector_25" d="M20.5501 10.19C20.5501 10.19 20.5501 10.27 20.5501 10.31C20.5501 10.35 20.65 10.31 20.67 10.31C20.69 10.31 20.4301 10.1 20.5301 9.96002C20.6301 9.82002 20.75 9.96002 20.79 9.96002C20.83 9.96002 20.92 10.09 20.85 10.18L20.7701 10.12C20.7701 10.12 20.7701 10.04 20.7201 10C20.6701 9.96003 20.6501 10 20.6201 10C20.5901 10 20.85 10.2 20.76 10.33C20.67 10.46 20.57 10.38 20.51 10.33C20.45 10.28 20.35 10.18 20.42 10.09L20.5501 10.19Z" fill="#3C9242"/>
<path id="Vector_26" fill-rule="evenodd" clip-rule="evenodd" d="M21.02 10.73C21.0624 10.7687 21.1177 10.7901 21.175 10.7901C21.2324 10.7901 21.2876 10.7687 21.33 10.73C21.3716 10.6871 21.3948 10.6297 21.3948 10.57C21.3948 10.5103 21.3716 10.4529 21.33 10.41C21.2876 10.3714 21.2324 10.3499 21.175 10.3499C21.1177 10.3499 21.0624 10.3714 21.02 10.41C20.9785 10.4529 20.9553 10.5103 20.9553 10.57C20.9553 10.6297 20.9785 10.6871 21.02 10.73ZM21.07 10.66C21.0822 10.673 21.0969 10.6834 21.1132 10.6905C21.1296 10.6976 21.1472 10.7013 21.165 10.7013C21.1828 10.7013 21.2005 10.6976 21.2168 10.6905C21.2331 10.6834 21.2478 10.673 21.26 10.66C21.2839 10.6342 21.2972 10.6002 21.2972 10.565C21.2972 10.5298 21.2839 10.4959 21.26 10.47C21.2358 10.4468 21.2036 10.4338 21.17 10.4338C21.1365 10.4338 21.1042 10.4468 21.08 10.47C21.067 10.4822 21.0566 10.4969 21.0495 10.5132C21.0424 10.5296 21.0388 10.5472 21.0388 10.565C21.0388 10.5828 21.0424 10.6005 21.0495 10.6168C21.0566 10.6331 21.067 10.6479 21.08 10.66" fill="#3C9242"/>
<path id="Vector_27" d="M12.78 8.70001L12.71 8.90001L12.81 8.93001L12.78 8.70001Z" fill="white"/>
<path id="Vector_28" d="M12.78 8.70001L12.84 8.90001L12.74 8.93001L12.78 8.70001Z" fill="white"/>
<path id="Vector_29" d="M12.98 8.85001H12.77V8.95001L12.98 8.85001Z" fill="white"/>
<path id="Vector_30" d="M12.98 8.85001L12.81 8.97001L12.74 8.88001L12.98 8.85001Z" fill="white"/>
<path id="Vector_31" d="M12.58 8.85001L12.75 8.97001L12.81 8.88001L12.58 8.85001Z" fill="white"/>
<path id="Vector_32" d="M12.58 8.85001H12.79V8.95001L12.58 8.85001Z" fill="white"/>
<path id="Vector_33" d="M12.9 9.08L12.83 8.88L12.74 8.91L12.9 9.08Z" fill="white"/>
<path id="Vector_34" d="M12.9 9.08003L12.73 8.95003L12.79 8.87003L12.9 9.08003Z" fill="white"/>
<path id="Vector_35" d="M12.65 9.08003L12.82 8.95003L12.76 8.87003L12.65 9.08003Z" fill="white"/>
<path id="Vector_36" d="M12.65 9.08L12.72 8.88L12.82 8.91L12.65 9.08Z" fill="white"/>
<path id="Vector_37" d="M13.21 10.76L13.15 10.96L13.25 10.99L13.21 10.76Z" fill="white"/>
<path id="Vector_38" d="M13.2101 10.76L13.2701 10.96L13.1801 10.99L13.2101 10.76Z" fill="white"/>
<path id="Vector_39" d="M13.4101 10.9H13.2001V11.01L13.4101 10.9Z" fill="white"/>
<path id="Vector_40" d="M13.4101 10.9L13.2401 11.03L13.1801 10.94L13.4101 10.9Z" fill="white"/>
<path id="Vector_41" d="M13.01 10.9L13.18 11.03L13.25 10.94L13.01 10.9Z" fill="white"/>
<path id="Vector_42" d="M13.01 10.9H13.22V11.01L13.01 10.9Z" fill="white"/>
<path id="Vector_43" d="M13.33 11.14L13.27 10.94L13.17 10.97L13.33 11.14Z" fill="white"/>
<path id="Vector_44" d="M13.33 11.14L13.17 11.01L13.23 10.93L13.33 11.14Z" fill="white"/>
<path id="Vector_45" d="M13.08 11.14L13.26 11.01L13.19 10.93L13.08 11.14Z" fill="white"/>
<path id="Vector_46" d="M13.08 11.14L13.15 10.94L13.25 10.97L13.08 11.14Z" fill="white"/>
<path id="Vector_47" d="M12.61 11.27L12.5701 11.4L12.6401 11.42L12.61 11.27Z" fill="white"/>
<path id="Vector_48" d="M12.61 11.27L12.65 11.4L12.59 11.42L12.61 11.27Z" fill="white"/>
<path id="Vector_49" d="M12.74 11.36H12.6V11.43L12.74 11.36Z" fill="white"/>
<path id="Vector_50" d="M12.74 11.36L12.63 11.45L12.59 11.39L12.74 11.36Z" fill="white"/>
<path id="Vector_51" d="M12.48 11.36L12.59 11.45L12.63 11.39L12.48 11.36Z" fill="white"/>
<path id="Vector_52" d="M12.48 11.36H12.62V11.43L12.48 11.36Z" fill="white"/>
<path id="Vector_53" d="M12.69 11.52L12.65 11.39L12.58 11.41L12.69 11.52Z" fill="white"/>
<path id="Vector_54" d="M12.69 11.52L12.58 11.44L12.62 11.38L12.69 11.52Z" fill="white"/>
<path id="Vector_55" d="M12.53 11.52L12.64 11.44L12.6 11.38L12.53 11.52Z" fill="white"/>
<path id="Vector_56" d="M12.53 11.52L12.57 11.39L12.64 11.41L12.53 11.52Z" fill="white"/>
<path id="Vector_57" d="M13.69 10.57L13.66 10.66L13.7 10.68L13.69 10.57Z" fill="white"/>
<path id="Vector_58" d="M13.69 10.57L13.72 10.66L13.67 10.68L13.69 10.57Z" fill="white"/>
<path id="Vector_59" d="M13.7801 10.64H13.6901V10.69L13.7801 10.64Z" fill="white"/>
<path id="Vector_60" d="M13.7801 10.64L13.7001 10.7L13.6801 10.65L13.7801 10.64Z" fill="white"/>
<path id="Vector_61" d="M13.59 10.64L13.68 10.7L13.7 10.65L13.59 10.64Z" fill="white"/>
<path id="Vector_62" d="M13.59 10.64H13.69V10.69L13.59 10.64Z" fill="white"/>
<path id="Vector_63" d="M13.75 10.75L13.72 10.65L13.67 10.67L13.75 10.75Z" fill="white"/>
<path id="Vector_64" d="M13.75 10.75L13.67 10.69L13.7 10.65L13.75 10.75Z" fill="white"/>
<path id="Vector_65" d="M13.63 10.75L13.71 10.69L13.68 10.65L13.63 10.75Z" fill="white"/>
<path id="Vector_66" d="M13.63 10.75L13.66 10.65L13.71 10.67L13.63 10.75Z" fill="white"/>
<path id="Vector_67" d="M14.2301 11.28L14.1801 11.44L14.2501 11.47L14.2301 11.28Z" fill="white"/>
<path id="Vector_68" d="M14.2301 11.28L14.2801 11.44L14.2001 11.47L14.2301 11.28Z" fill="white"/>
<path id="Vector_69" d="M14.39 11.4H14.22V11.48L14.39 11.4Z" fill="white"/>
<path id="Vector_70" d="M14.3901 11.4L14.2501 11.5L14.2001 11.43L14.3901 11.4Z" fill="white"/>
<path id="Vector_71" d="M14.0601 11.4L14.2001 11.5L14.2501 11.43L14.0601 11.4Z" fill="white"/>
<path id="Vector_72" d="M14.0601 11.4H14.2401V11.48L14.0601 11.4Z" fill="white"/>
<path id="Vector_73" d="M14.33 11.59L14.2801 11.43L14.1901 11.46L14.33 11.59Z" fill="white"/>
<path id="Vector_74" d="M14.33 11.59L14.1901 11.49L14.2401 11.42L14.33 11.59Z" fill="white"/>
<path id="Vector_75" d="M14.13 11.59L14.27 11.49L14.22 11.42L14.13 11.59Z" fill="white"/>
<path id="Vector_76" d="M14.13 11.59L14.18 11.43L14.26 11.46L14.13 11.59Z" fill="white"/>
<path id="Vector_77" d="M14.08 11.76L14.03 11.93L14.11 11.96L14.08 11.76Z" fill="white"/>
<path id="Vector_78" d="M14.08 11.76L14.1401 11.93L14.05 11.96L14.08 11.76Z" fill="white"/>
<path id="Vector_79" d="M14.2501 11.89H14.0701V11.97L14.2501 11.89Z" fill="white"/>
<path id="Vector_80" d="M14.2501 11.89L14.11 11.99L14.0601 11.92L14.2501 11.89Z" fill="white"/>
<path id="Vector_81" d="M13.92 11.89L14.06 11.99L14.11 11.92L13.92 11.89Z" fill="white"/>
<path id="Vector_82" d="M13.92 11.89H14.09V11.97L13.92 11.89Z" fill="white"/>
<path id="Vector_83" d="M14.1901 12.08L14.1301 11.91L14.05 11.94L14.1901 12.08Z" fill="white"/>
<path id="Vector_84" d="M14.19 12.08L14.04 11.98L14.1 11.91L14.19 12.08Z" fill="white"/>
<path id="Vector_85" d="M13.98 12.08L14.12 11.98L14.07 11.91L13.98 12.08Z" fill="white"/>
<path id="Vector_86" d="M13.98 12.08L14.03 11.91L14.12 11.94L13.98 12.08Z" fill="white"/>
<path id="Vector_87" d="M18.29 8.06003L18.23 8.26003L18.33 8.29003L18.29 8.06003Z" fill="white"/>
<path id="Vector_88" d="M18.29 8.06003L18.36 8.26003L18.25 8.29003L18.29 8.06003Z" fill="white"/>
<path id="Vector_89" d="M18.49 8.20001H18.28V8.31001L18.49 8.20001Z" fill="white"/>
<path id="Vector_90" d="M18.49 8.20001L18.32 8.33001L18.26 8.24001L18.49 8.20001Z" fill="white"/>
<path id="Vector_91" d="M18.09 8.20001L18.26 8.33001L18.32 8.24001L18.09 8.20001Z" fill="white"/>
<path id="Vector_92" d="M18.09 8.20001H18.3V8.31001L18.09 8.20001Z" fill="white"/>
<path id="Vector_93" d="M18.42 8.44002L18.35 8.24002L18.25 8.27002L18.42 8.44002Z" fill="white"/>
<path id="Vector_94" d="M18.42 8.44001L18.24 8.32001L18.31 8.23001L18.42 8.44001Z" fill="white"/>
<path id="Vector_95" d="M18.17 8.44001L18.34 8.32001L18.28 8.23001L18.17 8.44001Z" fill="white"/>
<path id="Vector_96" d="M18.17 8.44002L18.23 8.24002L18.33 8.27002L18.17 8.44002Z" fill="white"/>
<path id="Vector_97" d="M20.2 11.3L20.14 11.5L20.24 11.53L20.2 11.3Z" fill="white"/>
<path id="Vector_98" d="M20.2 11.3L20.27 11.5L20.17 11.53L20.2 11.3Z" fill="white"/>
<path id="Vector_99" d="M20.4001 11.44H20.1901V11.54L20.4001 11.44Z" fill="white"/>
<path id="Vector_100" d="M20.4 11.44L20.23 11.56L20.17 11.48L20.4 11.44Z" fill="white"/>
<path id="Vector_101" d="M20 11.44L20.17 11.56L20.23 11.48L20 11.44Z" fill="white"/>
<path id="Vector_102" d="M20 11.44H20.21V11.54L20 11.44Z" fill="white"/>
<path id="Vector_103" d="M20.33 11.68L20.26 11.48L20.16 11.51L20.33 11.68Z" fill="white"/>
<path id="Vector_104" d="M20.33 11.68L20.16 11.55L20.22 11.47L20.33 11.68Z" fill="white"/>
<path id="Vector_105" d="M20.08 11.68L20.25 11.55L20.19 11.47L20.08 11.68Z" fill="white"/>
<path id="Vector_106" d="M20.08 11.68L20.14 11.48L20.25 11.51L20.08 11.68Z" fill="white"/>
<path id="Vector_107" d="M20.88 11.41L20.84 11.54L20.91 11.57L20.88 11.41Z" fill="white"/>
<path id="Vector_108" d="M20.88 11.41L20.93 11.54L20.86 11.57L20.88 11.41Z" fill="white"/>
<path id="Vector_109" d="M21.01 11.51H20.88V11.58L21.01 11.51Z" fill="white"/>
<path id="Vector_110" d="M21.01 11.51L20.9 11.59L20.86 11.53L21.01 11.51Z" fill="white"/>
<path id="Vector_111" d="M20.75 11.51L20.86 11.59L20.9 11.53L20.75 11.51Z" fill="white"/>
<path id="Vector_112" d="M20.75 11.51H20.89V11.58L20.75 11.51Z" fill="white"/>
<path id="Vector_113" d="M20.96 11.66L20.92 11.53L20.86 11.55L20.96 11.66Z" fill="white"/>
<path id="Vector_114" d="M20.96 11.66L20.85 11.58L20.89 11.53L20.96 11.66Z" fill="white"/>
<path id="Vector_115" d="M20.8 11.66L20.9101 11.58L20.8701 11.53L20.8 11.66Z" fill="white"/>
<path id="Vector_116" d="M20.8 11.66L20.8401 11.53L20.9101 11.55L20.8 11.66Z" fill="white"/>
<path id="Vector_117" d="M20.4 11.76L20.35 11.93L20.43 11.96L20.4 11.76Z" fill="white"/>
<path id="Vector_118" d="M20.4 11.76L20.45 11.93L20.38 11.96L20.4 11.76Z" fill="white"/>
<path id="Vector_119" d="M20.57 11.89H20.39V11.97L20.57 11.89Z" fill="white"/>
<path id="Vector_120" d="M20.57 11.89L20.43 11.99L20.38 11.92L20.57 11.89Z" fill="white"/>
<path id="Vector_121" d="M20.24 11.89L20.38 11.99L20.43 11.92L20.24 11.89Z" fill="white"/>
<path id="Vector_122" d="M20.24 11.89H20.41V11.97L20.24 11.89Z" fill="white"/>
<path id="Vector_123" d="M20.5 12.08L20.45 11.91L20.37 11.94L20.5 12.08Z" fill="white"/>
<path id="Vector_124" d="M20.5 12.08L20.36 11.98L20.42 11.91L20.5 12.08Z" fill="white"/>
<path id="Vector_125" d="M20.3 12.08L20.4401 11.98L20.3901 11.91L20.3 12.08Z" fill="white"/>
<path id="Vector_126" d="M20.3 12.08L20.3501 11.91L20.4401 11.94L20.3 12.08Z" fill="white"/>
<path id="Vector_127" d="M19.22 12.79L19.17 12.95L19.25 12.98L19.22 12.79Z" fill="white"/>
<path id="Vector_128" d="M19.2201 12.79L19.2801 12.95L19.1901 12.98L19.2201 12.79Z" fill="white"/>
<path id="Vector_129" d="M19.39 12.91H19.22V13L19.39 12.91Z" fill="white"/>
<path id="Vector_130" d="M19.3901 12.91L19.2501 13.01L19.2001 12.94L19.3901 12.91Z" fill="white"/>
<path id="Vector_131" d="M19.0601 12.91L19.2001 13.01L19.2501 12.94L19.0601 12.91Z" fill="white"/>
<path id="Vector_132" d="M19.0601 12.91H19.2301V13L19.0601 12.91Z" fill="white"/>
<path id="Vector_133" d="M19.3201 13.11L19.2701 12.94L19.1901 12.97L19.3201 13.11Z" fill="white"/>
<path id="Vector_134" d="M19.3201 13.11L19.1801 13L19.2301 12.93L19.3201 13.11Z" fill="white"/>
<path id="Vector_135" d="M19.12 13.11L19.26 13L19.21 12.93L19.12 13.11Z" fill="white"/>
<path id="Vector_136" d="M19.12 13.11L19.18 12.94L19.26 12.97L19.12 13.11Z" fill="white"/>
<path id="Vector_137" d="M19.2201 13.32L19.1801 13.45L19.2401 13.47L19.2201 13.32Z" fill="white"/>
<path id="Vector_138" d="M19.2201 13.32L19.2601 13.45L19.1901 13.47L19.2201 13.32Z" fill="white"/>
<path id="Vector_139" d="M19.35 13.41H19.21V13.48L19.35 13.41Z" fill="white"/>
<path id="Vector_140" d="M19.3501 13.41L19.2301 13.49L19.1901 13.44L19.3501 13.41Z" fill="white"/>
<path id="Vector_141" d="M19.08 13.41L19.2 13.49L19.24 13.44L19.08 13.41Z" fill="white"/>
<path id="Vector_142" d="M19.08 13.41H19.22V13.48L19.08 13.41Z" fill="white"/>
<path id="Vector_143" d="M19.3 13.57L19.2501 13.44L19.1901 13.46L19.3 13.57Z" fill="white"/>
<path id="Vector_144" d="M19.3 13.57L19.1801 13.49L19.2301 13.43L19.3 13.57Z" fill="white"/>
<path id="Vector_145" d="M19.14 13.57L19.25 13.49L19.2 13.43L19.14 13.57Z" fill="white"/>
<path id="Vector_146" d="M19.14 13.57L19.18 13.44L19.24 13.46L19.14 13.57Z" fill="white"/>
<path id="Vector_147" d="M19.71 12.44L19.67 12.57L19.73 12.59L19.71 12.44Z" fill="white"/>
<path id="Vector_148" d="M19.7101 12.44L19.7501 12.57L19.6901 12.59L19.7101 12.44Z" fill="white"/>
<path id="Vector_149" d="M19.8401 12.53H19.7001V12.61L19.8401 12.53Z" fill="white"/>
<path id="Vector_150" d="M19.8401 12.53L19.7301 12.62L19.6901 12.56L19.8401 12.53Z" fill="white"/>
<path id="Vector_151" d="M19.58 12.53L19.69 12.62L19.73 12.56L19.58 12.53Z" fill="white"/>
<path id="Vector_152" d="M19.58 12.53H19.72V12.61L19.58 12.53Z" fill="white"/>
<path id="Vector_153" d="M19.7901 12.69L19.7501 12.56L19.6801 12.58L19.7901 12.69Z" fill="white"/>
<path id="Vector_154" d="M19.7901 12.69L19.6801 12.61L19.7201 12.55L19.7901 12.69Z" fill="white"/>
<path id="Vector_155" d="M19.63 12.69L19.74 12.61L19.7 12.55L19.63 12.69Z" fill="white"/>
<path id="Vector_156" d="M19.63 12.69L19.67 12.56L19.74 12.58L19.63 12.69Z" fill="white"/>
<path id="Vector_157" d="M20.1001 12.16L20.05 12.32L20.1301 12.35L20.1001 12.16Z" fill="white"/>
<path id="Vector_158" d="M20.1001 12.16L20.1601 12.32L20.0701 12.35L20.1001 12.16Z" fill="white"/>
<path id="Vector_159" d="M20.27 12.28H20.09V12.36L20.27 12.28Z" fill="white"/>
<path id="Vector_160" d="M20.27 12.28L20.13 12.38L20.08 12.31L20.27 12.28Z" fill="white"/>
<path id="Vector_161" d="M19.9401 12.28L20.08 12.38L20.1301 12.31L19.9401 12.28Z" fill="white"/>
<path id="Vector_162" d="M19.9401 12.28H20.11V12.36L19.9401 12.28Z" fill="white"/>
<path id="Vector_163" d="M20.2001 12.47L20.1501 12.31L20.0701 12.33L20.2001 12.47Z" fill="white"/>
<path id="Vector_164" d="M20.2001 12.47L20.0601 12.37L20.11 12.3L20.2001 12.47Z" fill="white"/>
<path id="Vector_165" d="M20 12.47L20.14 12.37L20.09 12.3L20 12.47Z" fill="white"/>
<path id="Vector_166" d="M20 12.47L20.06 12.31L20.14 12.33L20 12.47Z" fill="white"/>
<path id="Vector_167" d="M19.2 12.35L19.16 12.48L19.23 12.5L19.2 12.35Z" fill="white"/>
<path id="Vector_168" d="M19.2001 12.35L19.2501 12.48L19.1801 12.5L19.2001 12.35Z" fill="white"/>
<path id="Vector_169" d="M19.3401 12.44H19.2001V12.51L19.3401 12.44Z" fill="white"/>
<path id="Vector_170" d="M19.3401 12.44L19.2201 12.52L19.1801 12.47L19.3401 12.44Z" fill="white"/>
<path id="Vector_171" d="M19.0701 12.44L19.1801 12.52L19.2201 12.47L19.0701 12.44Z" fill="white"/>
<path id="Vector_172" d="M19.0701 12.44H19.2101V12.51L19.0701 12.44Z" fill="white"/>
<path id="Vector_173" d="M19.2901 12.6L19.2401 12.46L19.1801 12.48L19.2901 12.6Z" fill="white"/>
<path id="Vector_174" d="M19.29 12.6L19.17 12.52L19.21 12.46L19.29 12.6Z" fill="white"/>
<path id="Vector_175" d="M19.12 12.6L19.23 12.52L19.19 12.46L19.12 12.6Z" fill="white"/>
<path id="Vector_176" d="M19.12 12.6L19.17 12.46L19.23 12.48L19.12 12.6Z" fill="white"/>
<path id="Vector_177" d="M14.91 9.81003L14.86 9.98003L14.94 10.01L14.91 9.81003Z" fill="white"/>
<path id="Vector_178" d="M14.91 9.81003L14.96 9.98003L14.88 10.01L14.91 9.81003Z" fill="white"/>
<path id="Vector_179" d="M15.07 9.93002H14.9V10.02L15.07 9.93002Z" fill="white"/>
<path id="Vector_180" d="M15.07 9.93002L14.94 10.04L14.88 9.97002L15.07 9.93002Z" fill="white"/>
<path id="Vector_181" d="M14.74 9.93002L14.88 10.04L14.94 9.97002L14.74 9.93002Z" fill="white"/>
<path id="Vector_182" d="M14.74 9.93002H14.92V10.02L14.74 9.93002Z" fill="white"/>
<path id="Vector_183" d="M15.01 10.13L14.96 9.96002L14.88 9.99002L15.01 10.13Z" fill="white"/>
<path id="Vector_184" d="M15.01 10.13L14.87 10.03L14.92 9.96002L15.01 10.13Z" fill="white"/>
<path id="Vector_185" d="M14.8 10.13L14.9501 10.03L14.9001 9.96002L14.8 10.13Z" fill="white"/>
<path id="Vector_186" d="M14.8 10.13L14.86 9.96002L14.9401 9.99002L14.8 10.13Z" fill="white"/>
<path id="Vector_187" d="M18.1001 9.40002L18.0601 9.53002L18.1301 9.55002L18.1001 9.40002Z" fill="white"/>
<path id="Vector_188" d="M18.1 9.40002L18.15 9.53002L18.08 9.55002L18.1 9.40002Z" fill="white"/>
<path id="Vector_189" d="M18.24 9.5H18.1V9.57L18.24 9.5Z" fill="white"/>
<path id="Vector_190" d="M18.24 9.5L18.12 9.58L18.08 9.52L18.24 9.5Z" fill="white"/>
<path id="Vector_191" d="M17.97 9.5L18.08 9.58L18.12 9.52L17.97 9.5Z" fill="white"/>
<path id="Vector_192" d="M17.97 9.5H18.11V9.57L17.97 9.5Z" fill="white"/>
<path id="Vector_193" d="M18.19 9.65002L18.14 9.52002L18.08 9.54002L18.19 9.65002Z" fill="white"/>
<path id="Vector_194" d="M18.1901 9.65002L18.0701 9.57002L18.11 9.52002L18.1901 9.65002Z" fill="white"/>
<path id="Vector_195" d="M18.02 9.65002L18.14 9.57002L18.1 9.52002L18.02 9.65002Z" fill="white"/>
<path id="Vector_196" d="M18.02 9.65002L18.07 9.52002L18.13 9.54002L18.02 9.65002Z" fill="white"/>
<path id="Vector_197" d="M16.77 11.78L16.71 11.97L16.81 12.01L16.77 11.78Z" fill="white"/>
<path id="Vector_198" d="M16.77 11.78L16.84 11.97L16.74 12.01L16.77 11.78Z" fill="white"/>
<path id="Vector_199" d="M16.97 11.92H16.76V12.03L16.97 11.92Z" fill="white"/>
<path id="Vector_200" d="M16.97 11.92L16.8 12.04L16.74 11.96L16.97 11.92Z" fill="white"/>
<path id="Vector_201" d="M16.5701 11.92L16.7501 12.04L16.8 11.96L16.5701 11.92Z" fill="white"/>
<path id="Vector_202" d="M16.5701 11.92H16.7801V12.03L16.5701 11.92Z" fill="white"/>
<path id="Vector_203" d="M16.9 12.15L16.83 11.96L16.73 11.99L16.9 12.15Z" fill="white"/>
<path id="Vector_204" d="M16.9 12.15L16.73 12.03L16.79 11.95L16.9 12.15Z" fill="white"/>
<path id="Vector_205" d="M16.65 12.15L16.82 12.03L16.76 11.95L16.65 12.15Z" fill="white"/>
<path id="Vector_206" d="M16.65 12.15L16.71 11.96L16.82 11.99L16.65 12.15Z" fill="white"/>
<path id="Vector_207" d="M17.34 10.84L17.29 11.01L17.37 11.03L17.34 10.84Z" fill="white"/>
<path id="Vector_208" d="M17.3401 10.84L17.4001 11.01L17.3101 11.03L17.3401 10.84Z" fill="white"/>
<path id="Vector_209" d="M17.5 10.96H17.33V11.04L17.5 10.96Z" fill="white"/>
<path id="Vector_210" d="M17.5001 10.96L17.36 11.06L17.3101 10.99L17.5001 10.96Z" fill="white"/>
<path id="Vector_211" d="M17.1801 10.96L17.3201 11.06L17.3701 10.99L17.1801 10.96Z" fill="white"/>
<path id="Vector_212" d="M17.1801 10.96H17.3501V11.04L17.1801 10.96Z" fill="white"/>
<path id="Vector_213" d="M17.4401 11.15L17.3901 10.99L17.3101 11.02L17.4401 11.15Z" fill="white"/>
<path id="Vector_214" d="M17.4401 11.15L17.3 11.05L17.3501 10.98L17.4401 11.15Z" fill="white"/>
<path id="Vector_215" d="M17.24 11.15L17.38 11.05L17.33 10.98L17.24 11.15Z" fill="white"/>
<path id="Vector_216" d="M17.24 11.15L17.29 10.99L17.37 11.02L17.24 11.15Z" fill="white"/>
<path id="Vector_217" d="M16.77 10.4L16.72 10.56L16.8 10.59L16.77 10.4Z" fill="white"/>
<path id="Vector_218" d="M16.77 10.4L16.82 10.56L16.75 10.59L16.77 10.4Z" fill="white"/>
<path id="Vector_219" d="M16.94 10.52H16.76V10.61L16.94 10.52Z" fill="white"/>
<path id="Vector_220" d="M16.94 10.52L16.8 10.62L16.75 10.55L16.94 10.52Z" fill="white"/>
<path id="Vector_221" d="M16.61 10.52L16.75 10.62L16.8 10.55L16.61 10.52Z" fill="white"/>
<path id="Vector_222" d="M16.61 10.52H16.78V10.61L16.61 10.52Z" fill="white"/>
<path id="Vector_223" d="M16.88 10.71L16.82 10.55L16.74 10.57L16.88 10.71Z" fill="white"/>
<path id="Vector_224" d="M16.88 10.71L16.74 10.61L16.79 10.54L16.88 10.71Z" fill="white"/>
<path id="Vector_225" d="M16.67 10.71L16.81 10.61L16.76 10.54L16.67 10.71Z" fill="white"/>
<path id="Vector_226" d="M16.67 10.71L16.72 10.55L16.81 10.57L16.67 10.71Z" fill="white"/>
<path id="Vector_227" d="M16.28 10.87L16.24 11.01L16.3 11.03L16.28 10.87Z" fill="white"/>
<path id="Vector_228" d="M16.28 10.87L16.32 11.01L16.26 11.03L16.28 10.87Z" fill="white"/>
<path id="Vector_229" d="M16.41 10.97H16.27V11.04L16.41 10.97Z" fill="white"/>
<path id="Vector_230" d="M16.41 10.97L16.3 11.05L16.26 10.99L16.41 10.97Z" fill="white"/>
<path id="Vector_231" d="M16.15 10.97L16.26 11.05L16.3 10.99L16.15 10.97Z" fill="white"/>
<path id="Vector_232" d="M16.15 10.97H16.29V11.04L16.15 10.97Z" fill="white"/>
<path id="Vector_233" d="M16.36 11.13L16.32 10.99L16.25 11.02L16.36 11.13Z" fill="white"/>
<path id="Vector_234" d="M16.36 11.13L16.25 11.04L16.29 10.99L16.36 11.13Z" fill="white"/>
<path id="Vector_235" d="M16.2001 11.13L16.3101 11.04L16.2701 10.99L16.2001 11.13Z" fill="white"/>
<path id="Vector_236" d="M16.2001 11.13L16.2401 10.99L16.3101 11.02L16.2001 11.13Z" fill="white"/>
<path id="Vector_237" d="M16.53 11.25L16.5 11.35L16.54 11.36L16.53 11.25Z" fill="white"/>
<path id="Vector_238" d="M16.53 11.25L16.56 11.35L16.51 11.36L16.53 11.25Z" fill="white"/>
<path id="Vector_239" d="M16.62 11.32H16.52V11.37L16.62 11.32Z" fill="white"/>
<path id="Vector_240" d="M16.62 11.32L16.54 11.38L16.51 11.34L16.62 11.32Z" fill="white"/>
<path id="Vector_241" d="M16.4301 11.32L16.5101 11.38L16.5401 11.34L16.4301 11.32Z" fill="white"/>
<path id="Vector_242" d="M16.4301 11.32H16.5301V11.37L16.4301 11.32Z" fill="white"/>
<path id="Vector_243" d="M16.58 11.44L16.55 11.34L16.51 11.35L16.58 11.44Z" fill="white"/>
<path id="Vector_244" d="M16.58 11.44L16.5 11.38L16.54 11.33L16.58 11.44Z" fill="white"/>
<path id="Vector_245" d="M16.47 11.44L16.55 11.38L16.52 11.33L16.47 11.44Z" fill="white"/>
<path id="Vector_246" d="M16.47 11.44L16.5 11.34L16.55 11.35L16.47 11.44Z" fill="white"/>
<path id="Vector_247" d="M18.2401 12.91L18.1901 13.07L18.2701 13.1L18.2401 12.91Z" fill="white"/>
<path id="Vector_248" d="M18.24 12.91L18.29 13.07L18.21 13.1L18.24 12.91Z" fill="white"/>
<path id="Vector_249" d="M18.4 13.03H18.23V13.12L18.4 13.03Z" fill="white"/>
<path id="Vector_250" d="M18.4 13.03L18.26 13.13L18.21 13.06L18.4 13.03Z" fill="white"/>
<path id="Vector_251" d="M18.0701 13.03L18.2101 13.13L18.2701 13.06L18.0701 13.03Z" fill="white"/>
<path id="Vector_252" d="M18.0701 13.03H18.2501V13.12L18.0701 13.03Z" fill="white"/>
<path id="Vector_253" d="M18.3401 13.23L18.2901 13.06L18.2001 13.09L18.3401 13.23Z" fill="white"/>
<path id="Vector_254" d="M18.3401 13.23L18.2001 13.12L18.2501 13.05L18.3401 13.23Z" fill="white"/>
<path id="Vector_255" d="M18.14 13.23L18.28 13.12L18.23 13.05L18.14 13.23Z" fill="white"/>
<path id="Vector_256" d="M18.14 13.23L18.19 13.06L18.27 13.09L18.14 13.23Z" fill="white"/>
<path id="Vector_257" d="M18.66 12.51L18.61 12.64L18.68 12.67L18.66 12.51Z" fill="white"/>
<path id="Vector_258" d="M18.66 12.51L18.7 12.64L18.63 12.67L18.66 12.51Z" fill="white"/>
<path id="Vector_259" d="M18.79 12.61H18.65V12.68L18.79 12.61Z" fill="white"/>
<path id="Vector_260" d="M18.79 12.61L18.68 12.69L18.64 12.63L18.79 12.61Z" fill="white"/>
<path id="Vector_261" d="M18.52 12.61L18.64 12.69L18.68 12.63L18.52 12.61Z" fill="white"/>
<path id="Vector_262" d="M18.52 12.61H18.67V12.68L18.52 12.61Z" fill="white"/>
<path id="Vector_263" d="M18.74 12.76L18.7 12.63L18.63 12.65L18.74 12.76Z" fill="white"/>
<path id="Vector_264" d="M18.74 12.76L18.63 12.68L18.67 12.63L18.74 12.76Z" fill="white"/>
<path id="Vector_265" d="M18.58 12.76L18.69 12.68L18.65 12.63L18.58 12.76Z" fill="white"/>
<path id="Vector_266" d="M18.58 12.76L18.62 12.63L18.69 12.65L18.58 12.76Z" fill="white"/>
<path id="Vector_267" d="M17.8501 12.39L17.8101 12.52L17.8701 12.55L17.8501 12.39Z" fill="white"/>
<path id="Vector_268" d="M17.85 12.39L17.9 12.52L17.83 12.55L17.85 12.39Z" fill="white"/>
<path id="Vector_269" d="M17.98 12.49H17.85V12.56L17.98 12.49Z" fill="white"/>
<path id="Vector_270" d="M17.98 12.49L17.87 12.57L17.83 12.51L17.98 12.49Z" fill="white"/>
<path id="Vector_271" d="M17.72 12.49L17.83 12.57L17.87 12.51L17.72 12.49Z" fill="white"/>
<path id="Vector_272" d="M17.72 12.49H17.86V12.56L17.72 12.49Z" fill="white"/>
<path id="Vector_273" d="M17.9401 12.64L17.8901 12.51L17.8201 12.53L17.9401 12.64Z" fill="white"/>
<path id="Vector_274" d="M17.9401 12.64L17.8201 12.56L17.86 12.51L17.9401 12.64Z" fill="white"/>
<path id="Vector_275" d="M17.77 12.64L17.88 12.56L17.84 12.51L17.77 12.64Z" fill="white"/>
<path id="Vector_276" d="M17.77 12.64L17.81 12.51L17.88 12.53L17.77 12.64Z" fill="white"/>
<path id="Vector_277" d="M14.81 12.18L14.75 12.37L14.84 12.41L14.81 12.18Z" fill="white"/>
<path id="Vector_278" d="M14.81 12.18L14.87 12.37L14.77 12.41L14.81 12.18Z" fill="white"/>
<path id="Vector_279" d="M15.0101 12.32H14.8V12.43L15.0101 12.32Z" fill="white"/>
<path id="Vector_280" d="M15.01 12.32L14.84 12.44L14.78 12.36L15.01 12.32Z" fill="white"/>
<path id="Vector_281" d="M14.61 12.32L14.78 12.44L14.84 12.36L14.61 12.32Z" fill="white"/>
<path id="Vector_282" d="M14.61 12.32H14.82V12.43L14.61 12.32Z" fill="white"/>
<path id="Vector_283" d="M14.93 12.55L14.87 12.36L14.77 12.39L14.93 12.55Z" fill="white"/>
<path id="Vector_284" d="M14.93 12.55L14.76 12.43L14.82 12.35L14.93 12.55Z" fill="white"/>
<path id="Vector_285" d="M14.6901 12.55L14.86 12.43L14.7901 12.35L14.6901 12.55Z" fill="white"/>
<path id="Vector_286" d="M14.6901 12.55L14.7501 12.36L14.8501 12.39L14.6901 12.55Z" fill="white"/>
<path id="Vector_287" d="M16.77 13.55L16.75 13.61L16.78 13.62L16.77 13.55Z" fill="white"/>
<path id="Vector_288" d="M16.77 13.55L16.79 13.61L16.76 13.62L16.77 13.55Z" fill="white"/>
<path id="Vector_289" d="M16.84 13.6H16.77V13.63L16.84 13.6Z" fill="white"/>
<path id="Vector_290" d="M16.84 13.6L16.78 13.64L16.76 13.61L16.84 13.6Z" fill="white"/>
<path id="Vector_291" d="M16.71 13.6L16.76 13.64L16.78 13.61L16.71 13.6Z" fill="white"/>
<path id="Vector_292" d="M16.71 13.6H16.77V13.63L16.71 13.6Z" fill="white"/>
<path id="Vector_293" d="M16.81 13.67L16.79 13.61L16.76 13.62L16.81 13.67Z" fill="white"/>
<path id="Vector_294" d="M16.81 13.67L16.76 13.63L16.77 13.61L16.81 13.67Z" fill="white"/>
<path id="Vector_295" d="M16.73 13.67L16.79 13.63L16.77 13.61L16.73 13.67Z" fill="white"/>
<path id="Vector_296" d="M16.73 13.67L16.75 13.61L16.79 13.62L16.73 13.67Z" fill="white"/>
</g>
</g>
</g>
</g>
</g>
</g>
</g>
</svg>
