<svg width="25" height="16" viewBox="0 0 25 16" fill="none" xmlns="http://www.w3.org/2000/svg">
<g id="Clip path group">
<mask id="mask0_535_3063" style="mask-type:luminance" maskUnits="userSpaceOnUse" x="0" y="0" width="25" height="16">
<g id="ed3a5ef7-8a5b-4094-98cb-90f67d5a9ed0">
<path id="Vector" d="M25 0.707092H0V15.2929H25V0.707092Z" fill="white"/>
</g>
</mask>
<g mask="url(#mask0_535_3063)">
<g id="Group">
<path id="Vector_2" d="M24.9922 14.1755H-0.0078125V15.3004H24.9922V14.1755Z" fill="#CB001C"/>
<path id="Vector_3" d="M24.9922 13.0507H-0.0078125V14.1755H24.9922V13.0507Z" fill="white"/>
<path id="Vector_4" d="M24.9922 11.9333H-0.0078125V13.0507H24.9922V11.9333Z" fill="#CB001C"/>
<path id="Vector_5" d="M24.9922 10.8084H-0.0078125V11.9333H24.9922V10.8084Z" fill="white"/>
<path id="Vector_6" d="M24.9922 9.691H-0.0078125V10.8159H24.9922V9.691Z" fill="#CB001C"/>
<path id="Vector_7" d="M24.9922 8.56615H-0.0078125V9.68355H24.9922V8.56615Z" fill="white"/>
<path id="Vector_8" d="M24.9922 7.4413H-0.0078125V8.56615H24.9922V7.4413Z" fill="#CB001C"/>
<path id="Vector_9" d="M24.9922 6.3239H-0.0078125V7.4413H24.9922V6.3239Z" fill="white"/>
<path id="Vector_10" d="M24.9922 5.19905H-0.0078125V6.3239H24.9922V5.19905Z" fill="#CB001C"/>
<path id="Vector_11" d="M24.9922 4.08164H-0.0078125V5.20649H24.9922V4.08164Z" fill="white"/>
<path id="Vector_12" d="M24.9922 2.95679H-0.0078125V4.08164H24.9922V2.95679Z" fill="#CB001C"/>
<path id="Vector_13" d="M24.9922 1.83194H-0.0078125V2.95679H24.9922V1.83194Z" fill="white"/>
<path id="Vector_14" d="M24.9922 0.714539H-0.0078125V1.83939H24.9922V0.714539Z" fill="#CB001C"/>
<path id="Vector_15" d="M11.412 0.714539H-0.0078125V8.56615H11.412V0.714539Z" fill="#2A3560"/>
<path id="Vector_16" d="M1.02787 1.57867L1.12471 1.87664H1.43757L1.18432 2.06288L1.28117 2.3534L1.02787 2.17461L0.774617 2.3534L0.871462 2.06288L0.618164 1.87664H0.931024L1.02787 1.57867Z" fill="white"/>
<path id="Vector_17" d="M1.02787 2.88975L1.12471 3.18772H1.43757L1.18432 3.36651L1.28117 3.66448L1.02787 3.48569L0.774617 3.66448L0.871462 3.36651L0.618164 3.18772H0.931024L1.02787 2.88975Z" fill="white"/>
<path id="Vector_18" d="M1.02787 4.20084L1.12471 4.49881H1.43757L1.18432 4.67759L1.28117 4.97557L1.02787 4.79678L0.774617 4.97557L0.871462 4.67759L0.618164 4.49881H0.931024L1.02787 4.20084Z" fill="white"/>
<path id="Vector_19" d="M1.02787 5.51192L1.12471 5.80989H1.43757L1.18432 5.99612L1.28117 6.28665L1.02787 6.10786L0.774617 6.28665L0.871462 5.99612L0.618164 5.80989H0.931024L1.02787 5.51192Z" fill="white"/>
<path id="Vector_20" d="M1.02787 6.823L1.12471 7.12097H1.43757L1.18432 7.29976L1.28117 7.59773L1.02787 7.41895L0.774617 7.59773L0.871462 7.29976L0.618164 7.12097H0.931024L1.02787 6.823Z" fill="white"/>
<path id="Vector_21" d="M1.94388 2.27145L2.03332 2.56942H2.34618L2.09288 2.7482L2.18973 3.04618L1.94388 2.85995L1.69063 3.04618L1.78002 2.7482L1.53418 2.56942H1.84708L1.94388 2.27145Z" fill="white"/>
<path id="Vector_22" d="M1.94388 3.58254L2.03332 3.87307H2.34618L2.09288 4.0593L2.18973 4.35727L1.94388 4.17104L1.69063 4.35727L1.78002 4.0593L1.53418 3.87307H1.84708L1.94388 3.58254Z" fill="white"/>
<path id="Vector_23" d="M1.94388 4.89362L2.03332 5.1916H2.34618L2.09288 5.37038L2.18973 5.66836L1.94388 5.48212L1.69063 5.66836L1.78002 5.37038L1.53418 5.1916H1.84708L1.94388 4.89362Z" fill="white"/>
<path id="Vector_24" d="M1.94388 6.2047L2.03332 6.50268H2.34618L2.09288 6.68146L2.18973 6.97944L1.94388 6.7932L1.69063 6.97944L1.78002 6.68146L1.53418 6.50268H1.84708L1.94388 6.2047Z" fill="white"/>
<path id="Vector_25" d="M2.8603 1.57867L2.9646 1.87664H3.27001L3.01671 2.06288L3.12101 2.3534L2.8603 2.17461L2.61446 2.3534L2.71131 2.06288L2.45801 1.87664H2.77091L2.8603 1.57867Z" fill="white"/>
<path id="Vector_26" d="M2.8603 2.88975L2.9646 3.18772H3.27001L3.01671 3.36651L3.12101 3.66448L2.8603 3.48569L2.61446 3.66448L2.71131 3.36651L2.45801 3.18772H2.77091L2.8603 2.88975Z" fill="white"/>
<path id="Vector_27" d="M2.8603 4.20084L2.9646 4.49881H3.27001L3.01671 4.67759L3.12101 4.97557L2.8603 4.79678L2.61446 4.97557L2.71131 4.67759L2.45801 4.49881H2.77091L2.8603 4.20084Z" fill="white"/>
<path id="Vector_28" d="M2.8603 5.51192L2.9646 5.80989H3.27001L3.01671 5.99612L3.12101 6.28665L2.8603 6.10786L2.61446 6.28665L2.71131 5.99612L2.45801 5.80989H2.77091L2.8603 5.51192Z" fill="white"/>
<path id="Vector_29" d="M2.8603 6.823L2.9646 7.12097H3.27001L3.01671 7.29976L3.12101 7.59773L2.8603 7.41895L2.61446 7.59773L2.71131 7.29976L2.45801 7.12097H2.77091L2.8603 6.823Z" fill="white"/>
<path id="Vector_30" d="M3.77689 2.27145L3.87374 2.56942H4.1866L3.93335 2.7482L4.03019 3.04618L3.77689 2.85995L3.52364 3.04618L3.62044 2.7482L3.36719 2.56942H3.68005L3.77689 2.27145Z" fill="white"/>
<path id="Vector_31" d="M3.77689 3.58254L3.87374 3.87307H4.1866L3.93335 4.0593L4.03019 4.35727L3.77689 4.17104L3.52364 4.35727L3.62044 4.0593L3.36719 3.87307H3.68005L3.77689 3.58254Z" fill="white"/>
<path id="Vector_32" d="M3.77689 4.89362L3.87374 5.1916H4.1866L3.93335 5.37038L4.03019 5.66836L3.77689 5.48212L3.52364 5.66836L3.62044 5.37038L3.36719 5.1916H3.68005L3.77689 4.89362Z" fill="white"/>
<path id="Vector_33" d="M3.77689 6.2047L3.87374 6.50268H4.1866L3.93335 6.68146L4.03019 6.97944L3.77689 6.7932L3.52364 6.97944L3.62044 6.68146L3.36719 6.50268H3.68005L3.77689 6.2047Z" fill="white"/>
<path id="Vector_34" d="M4.7001 1.57867L4.79694 1.87664H5.1098L4.85655 2.06288L4.9534 2.3534L4.7001 2.17461L4.44685 2.3534L4.54369 2.06288L4.29785 1.87664H4.60325L4.7001 1.57867Z" fill="white"/>
<path id="Vector_35" d="M4.7001 2.88975L4.79694 3.18772H5.1098L4.85655 3.36651L4.9534 3.66448L4.7001 3.48569L4.44685 3.66448L4.54369 3.36651L4.29785 3.18772H4.60325L4.7001 2.88975Z" fill="white"/>
<path id="Vector_36" d="M4.7001 4.20084L4.79694 4.49881H5.1098L4.85655 4.67759L4.9534 4.97557L4.7001 4.79678L4.44685 4.97557L4.54369 4.67759L4.29785 4.49881H4.60325L4.7001 4.20084Z" fill="white"/>
<path id="Vector_37" d="M4.7001 5.51192L4.79694 5.80989H5.1098L4.85655 5.99612L4.9534 6.28665L4.7001 6.10786L4.44685 6.28665L4.54369 5.99612L4.29785 5.80989H4.60325L4.7001 5.51192Z" fill="white"/>
<path id="Vector_38" d="M4.7001 6.823L4.79694 7.12097H5.1098L4.85655 7.29976L4.9534 7.59773L4.7001 7.41895L4.44685 7.59773L4.54369 7.29976L4.29785 7.12097H4.60325L4.7001 6.823Z" fill="white"/>
<path id="Vector_39" d="M5.61678 2.27145L5.71363 2.56942H6.02649L5.77319 2.7482L5.87003 3.04618L5.61678 2.85995L5.36348 3.04618L5.46033 2.7482L5.20703 2.56942H5.51994L5.61678 2.27145Z" fill="white"/>
<path id="Vector_40" d="M5.61678 3.58254L5.71363 3.87307H6.02649L5.77319 4.0593L5.87003 4.35727L5.61678 4.17104L5.36348 4.35727L5.46033 4.0593L5.20703 3.87307H5.51994L5.61678 3.58254Z" fill="white"/>
<path id="Vector_41" d="M5.61678 4.89362L5.71363 5.1916H6.02649L5.77319 5.37038L5.87003 5.66836L5.61678 5.48212L5.36348 5.66836L5.46033 5.37038L5.20703 5.1916H5.51994L5.61678 4.89362Z" fill="white"/>
<path id="Vector_42" d="M5.61678 6.2047L5.71363 6.50268H6.02649L5.77319 6.68146L5.87003 6.97944L5.61678 6.7932L5.36348 6.97944L5.46033 6.68146L5.20703 6.50268H5.51994L5.61678 6.2047Z" fill="white"/>
<path id="Vector_43" d="M6.54056 1.57867L6.63741 1.87664H6.95027L6.69697 2.06288L6.79382 2.3534L6.54056 2.17461L6.28727 2.3534L6.38411 2.06288L6.13086 1.87664H6.44372L6.54056 1.57867Z" fill="white"/>
<path id="Vector_44" d="M6.54056 2.88975L6.63741 3.18772H6.95027L6.69697 3.36651L6.79382 3.66448L6.54056 3.48569L6.28727 3.66448L6.38411 3.36651L6.13086 3.18772H6.44372L6.54056 2.88975Z" fill="white"/>
<path id="Vector_45" d="M6.54056 4.20084L6.63741 4.49881H6.95027L6.69697 4.67759L6.79382 4.97557L6.54056 4.79678L6.28727 4.97557L6.38411 4.67759L6.13086 4.49881H6.44372L6.54056 4.20084Z" fill="white"/>
<path id="Vector_46" d="M6.54056 5.51192L6.63741 5.80989H6.95027L6.69697 5.99612L6.79382 6.28665L6.54056 6.10786L6.28727 6.28665L6.38411 5.99612L6.13086 5.80989H6.44372L6.54056 5.51192Z" fill="white"/>
<path id="Vector_47" d="M6.54056 6.823L6.63741 7.12097H6.95027L6.69697 7.29976L6.79382 7.59773L6.54056 7.41895L6.28727 7.59773L6.38411 7.29976L6.13086 7.12097H6.44372L6.54056 6.823Z" fill="white"/>
<path id="Vector_48" d="M7.44912 2.27145L7.54597 2.56942H7.85883L7.61303 2.7482L7.70242 3.04618L7.44912 2.85995L7.20333 3.04618L7.30013 2.7482L7.04688 2.56942H7.35973L7.44912 2.27145Z" fill="white"/>
<path id="Vector_49" d="M7.44912 3.58254L7.54597 3.87307H7.85883L7.61303 4.0593L7.70242 4.35727L7.44912 4.17104L7.20333 4.35727L7.30013 4.0593L7.04688 3.87307H7.35973L7.44912 3.58254Z" fill="white"/>
<path id="Vector_50" d="M7.44912 4.89362L7.54597 5.1916H7.85883L7.61303 5.37038L7.70242 5.66836L7.44912 5.48212L7.20333 5.66836L7.30013 5.37038L7.04688 5.1916H7.35973L7.44912 4.89362Z" fill="white"/>
<path id="Vector_51" d="M7.44912 6.2047L7.54597 6.50268H7.85883L7.61303 6.68146L7.70242 6.97944L7.44912 6.7932L7.20333 6.97944L7.30013 6.68146L7.04688 6.50268H7.35973L7.44912 6.2047Z" fill="white"/>
<path id="Vector_52" d="M8.38041 1.57867L8.47725 1.87664H8.7827L8.53686 2.06288L8.62625 2.3534L8.38041 2.17461L8.12716 2.3534L8.224 2.06288L7.9707 1.87664H8.28356L8.38041 1.57867Z" fill="white"/>
<path id="Vector_53" d="M8.38041 2.88975L8.47725 3.18772H8.7827L8.53686 3.36651L8.62625 3.66448L8.38041 3.48569L8.12716 3.66448L8.224 3.36651L7.9707 3.18772H8.28356L8.38041 2.88975Z" fill="white"/>
<path id="Vector_54" d="M8.38041 4.20084L8.47725 4.49881H8.7827L8.53686 4.67759L8.62625 4.97557L8.38041 4.79678L8.12716 4.97557L8.224 4.67759L7.9707 4.49881H8.28356L8.38041 4.20084Z" fill="white"/>
<path id="Vector_55" d="M8.38041 5.51192L8.47725 5.80989H8.7827L8.53686 5.99612L8.62625 6.28665L8.38041 6.10786L8.12716 6.28665L8.224 5.99612L7.9707 5.80989H8.28356L8.38041 5.51192Z" fill="white"/>
<path id="Vector_56" d="M8.38041 6.823L8.47725 7.12097H8.7827L8.53686 7.29976L8.62625 7.59773L8.38041 7.41895L8.12716 7.59773L8.224 7.29976L7.9707 7.12097H8.28356L8.38041 6.823Z" fill="white"/>
<path id="Vector_57" d="M9.28901 2.27145L9.38586 2.56942H9.69872L9.44542 2.7482L9.54226 3.04618L9.28901 2.85995L9.03571 3.04618L9.13256 2.7482L8.88672 2.56942H9.19217L9.28901 2.27145Z" fill="white"/>
<path id="Vector_58" d="M9.28901 3.58254L9.38586 3.87307H9.69872L9.44542 4.0593L9.54226 4.35727L9.28901 4.17104L9.03571 4.35727L9.13256 4.0593L8.88672 3.87307H9.19217L9.28901 3.58254Z" fill="white"/>
<path id="Vector_59" d="M9.28901 4.89362L9.38586 5.1916H9.69872L9.44542 5.37038L9.54226 5.66836L9.28901 5.48212L9.03571 5.66836L9.13256 5.37038L8.88672 5.1916H9.19217L9.28901 4.89362Z" fill="white"/>
<path id="Vector_60" d="M9.28901 6.2047L9.38586 6.50268H9.69872L9.44542 6.68146L9.54226 6.97944L9.28901 6.7932L9.03571 6.97944L9.13256 6.68146L8.88672 6.50268H9.19217L9.28901 6.2047Z" fill="white"/>
<path id="Vector_61" d="M10.2124 1.57867L10.3093 1.87664H10.6221L10.3689 2.06288L10.4657 2.3534L10.2124 2.17461L9.9666 2.3534L10.056 2.06288L9.80273 1.87664H10.1156L10.2124 1.57867Z" fill="white"/>
<path id="Vector_62" d="M10.2124 2.88975L10.3093 3.18772H10.6221L10.3689 3.36651L10.4657 3.66448L10.2124 3.48569L9.9666 3.66448L10.056 3.36651L9.80273 3.18772H10.1156L10.2124 2.88975Z" fill="white"/>
<path id="Vector_63" d="M10.2124 4.20084L10.3093 4.49881H10.6221L10.3689 4.67759L10.4657 4.97557L10.2124 4.79678L9.9666 4.97557L10.056 4.67759L9.80273 4.49881H10.1156L10.2124 4.20084Z" fill="white"/>
<path id="Vector_64" d="M10.2124 5.51192L10.3093 5.80989H10.6221L10.3689 5.99612L10.4657 6.28665L10.2124 6.10786L9.9666 6.28665L10.056 5.99612L9.80273 5.80989H10.1156L10.2124 5.51192Z" fill="white"/>
<path id="Vector_65" d="M10.2124 6.823L10.3093 7.12097H10.6221L10.3689 7.29976L10.4657 7.59773L10.2124 7.41895L9.9666 7.59773L10.056 7.29976L9.80273 7.12097H10.1156L10.2124 6.823Z" fill="white"/>
</g>
</g>
</g>
</svg>
