<svg width="34" height="20" viewBox="0 0 34 20" fill="none" xmlns="http://www.w3.org/2000/svg">
<g id="VANUATU">
<g id="Clip path group">
<mask id="mask0_233_13987" style="mask-type:luminance" maskUnits="userSpaceOnUse" x="0" y="0" width="34" height="20">
<g id="ee534398-49e2-4c09-ab13-88a97dc61f29">
<path id="Vector" d="M33.93 0H0.369995V19.58H33.93V0Z" fill="white"/>
</g>
</mask>
<g mask="url(#mask0_233_13987)">
<g id="Group">
<path id="Vector_2" d="M33.92 0H0.359985V9.79H33.92V0Z" fill="#C0003B"/>
<path id="Vector_3" d="M33.92 9.79001H0.359985V19.58H33.92V9.79001Z" fill="#3D9546"/>
<path id="Vector_4" d="M0.359985 0V19.58L19.35 9.79L0.359985 0Z" fill="black"/>
<path id="Vector_5" d="M33.92 8.04001H0.359985V11.54H33.92V8.04001Z" fill="black"/>
<path id="Vector_6" d="M0.359985 18.19L16.65 9.79001L0.359985 1.39001V18.19Z" fill="#F5CD28"/>
<path id="Vector_7" d="M33.92 9.26999H0.359985V10.3H33.92V9.26999Z" fill="#F5CD28"/>
<path id="Vector_8" d="M0.359985 17.03L14.4 9.78999L0.359985 2.54999V17.03Z" fill="black"/>
<g id="Clip path group_2">
<mask id="mask1_233_13987" style="mask-type:luminance" maskUnits="userSpaceOnUse" x="0" y="0" width="34" height="20">
<g id="ee534398-49e2-4c09-ab13-88a97dc61f29_2">
<path id="Vector_9" d="M33.93 0H0.369995V19.58H33.93V0Z" fill="white"/>
</g>
</mask>
<g mask="url(#mask1_233_13987)">
<g id="Group_2">
<path id="Vector_10" d="M4.33997 11.66V12.77C4.73405 12.7533 5.12102 12.659 5.47864 12.4926C5.83626 12.3262 6.1575 12.0909 6.42407 11.8002C6.69065 11.5095 6.89731 11.169 7.03217 10.7984C7.16702 10.4277 7.22741 10.0341 7.20996 9.64002C7.23163 9.27819 7.17968 8.91573 7.05725 8.57456C6.93482 8.23339 6.74447 7.92059 6.49768 7.65511C6.25089 7.38962 5.9528 7.17696 5.62146 7.02999C5.29012 6.88301 4.93245 6.80478 4.57001 6.80002C4.24957 6.79339 3.93096 6.84995 3.63239 6.96648C3.33381 7.08301 3.06107 7.25722 2.82983 7.47916C2.5986 7.70111 2.41339 7.96645 2.28473 8.26C2.15607 8.55355 2.08652 8.86958 2.08002 9.19002C2.07976 9.47616 2.13739 9.75939 2.24951 10.0226C2.36164 10.2859 2.52593 10.5237 2.73242 10.7218C2.93892 10.9199 3.18336 11.0741 3.45105 11.1752C3.71874 11.2763 4.0041 11.3222 4.28998 11.31C4.51455 11.3074 4.7361 11.2575 4.94013 11.1637C5.14415 11.0698 5.32609 10.934 5.47418 10.7652C5.62228 10.5963 5.73315 10.3982 5.79962 10.1837C5.86609 9.96913 5.88667 9.74302 5.85999 9.52002C5.81814 9.87707 5.64605 10.2061 5.37665 10.4442C5.10725 10.6822 4.75945 10.8125 4.39996 10.81C4.19818 10.8208 3.99631 10.7915 3.80591 10.7238C3.61551 10.6561 3.4404 10.5513 3.29071 10.4156C3.14102 10.2798 3.01972 10.1158 2.93378 9.93288C2.84784 9.74999 2.79894 9.55189 2.78998 9.35001C2.79474 8.91183 2.96753 8.4922 3.27271 8.17772C3.57788 7.86325 3.99215 7.67794 4.42999 7.66002C4.91458 7.67305 5.37494 7.87476 5.71301 8.22217C6.05109 8.56959 6.24017 9.03526 6.23999 9.52002C6.24741 10.0474 6.05607 10.5583 5.70404 10.9511C5.35201 11.3439 4.86503 11.5898 4.33997 11.64V11.66Z" fill="#F3CD2D"/>
<path id="Vector_11" d="M3.48999 10.21H3.54999C3.9365 9.46496 4.52586 8.84442 5.25 8.42001C4.50742 8.84027 3.89763 9.46043 3.48999 10.21Z" fill="#F3CD2D"/>
<path id="Vector_12" d="M3.54999 10.31L3.47998 10.26C3.88494 9.52366 4.48305 8.9117 5.20996 8.49002C4.48883 8.91504 3.90293 9.53568 3.52002 10.28L3.54999 10.31ZM3.92999 9.64003C3.77021 9.83479 3.62641 10.0421 3.5 10.26C3.61211 10.0404 3.74609 9.8327 3.89996 9.64003H3.92999Z" fill="#F3CD2D"/>
<path id="Vector_13" d="M3.59998 10.02C3.59998 10.02 3.45998 9.73001 3.59998 9.60001C3.73998 9.47001 3.65997 9.95001 3.65997 9.95001L3.71997 9.87001C3.71997 9.87001 3.62997 9.51002 3.71997 9.44002C3.80997 9.37002 3.71997 9.78002 3.71997 9.78002L3.77997 9.71001C3.77997 9.71001 3.70997 9.36001 3.77997 9.29001C3.84997 9.22001 3.77997 9.62001 3.77997 9.62001L3.83997 9.54001C3.83997 9.54001 3.83997 9.21002 3.90997 9.13002C3.97997 9.05002 3.90997 9.45001 3.90997 9.45001L3.98999 9.37001C3.98999 9.37001 3.98999 9.06001 4.04999 8.99001C4.10999 8.92001 4.04999 9.28002 4.04999 9.28002L4.12 9.21001C4.12 9.21001 4.12 8.93002 4.19 8.86002C4.26 8.79002 4.19 9.13002 4.19 9.13002L4.26001 9.06001C4.26001 9.06001 4.25999 8.78001 4.35999 8.73001C4.45999 8.68001 4.35999 8.99001 4.35999 8.99001L4.44 8.92001C4.44 8.92001 4.44 8.59001 4.56 8.56001C4.68 8.53001 4.51001 8.85001 4.51001 8.85001H4.58002C4.58002 8.85001 4.57998 8.56002 4.72998 8.53002C4.87998 8.50002 4.65997 8.79001 4.65997 8.79001L4.72998 8.74001C4.72998 8.74001 4.81998 8.45001 4.91998 8.42001C5.01998 8.39001 4.81 8.69002 4.81 8.69002L4.88 8.64002C4.88 8.64002 4.99002 8.39001 5.08002 8.37001C5.17002 8.35001 4.97998 8.58002 4.97998 8.58002L5.07001 8.53002C5.07001 8.53002 5.21001 8.26001 5.26001 8.34001C5.31001 8.42001 5.06 8.54001 5.06 8.54001H4.96997C4.96997 8.54001 5.28001 8.40002 5.32001 8.47002C5.36001 8.54002 4.89001 8.59001 4.89001 8.59001L4.82001 8.64002C4.82001 8.64002 5.12997 8.56002 5.08997 8.64002C5.04997 8.72002 4.75 8.70001 4.75 8.70001L4.67999 8.75002C4.67999 8.75002 4.99 8.67002 4.94 8.75002C4.89 8.83002 4.59998 8.81001 4.59998 8.81001L4.52997 8.87001C4.52997 8.87001 4.82998 8.79001 4.78998 8.87001C4.74998 8.95001 4.39996 8.95001 4.39996 8.95001L4.31 9.03002C4.31 9.03002 4.62999 8.92002 4.60999 9.03002C4.58999 9.14002 4.21997 9.16002 4.21997 9.16002L4.13 9.24001C4.13 9.24001 4.48 9.12001 4.38 9.24001C4.2754 9.31068 4.15535 9.35527 4.02997 9.37001L3.92999 9.49001C3.92999 9.49001 4.26997 9.29001 4.21997 9.40001C4.16997 9.51001 3.83002 9.60001 3.83002 9.60001L3.77002 9.68001C3.77002 9.68001 4.07999 9.50001 4.04999 9.60001C4.01999 9.70001 3.69 9.80002 3.69 9.80002L3.63 9.88002C3.63 9.88002 3.98996 9.67002 3.95996 9.77002C3.92996 9.87002 3.58997 9.96001 3.58997 9.96001V10.03C3.58997 10.03 3.91998 9.84001 3.91998 9.93001C3.91998 10.02 3.52997 10.11 3.52997 10.11L3.59998 10.02Z" fill="#F3CD2D"/>
<path id="Vector_14" d="M5.48999 10.21H5.42999C5.04937 9.46405 4.46286 8.84285 3.73999 8.42001C4.47856 8.84217 5.08463 9.46209 5.48999 10.21Z" fill="#F3CD2D"/>
<path id="Vector_15" d="M5.38 10.31C4.9971 9.56566 4.41114 8.94504 3.69 8.52002C4.41175 8.94284 5.01131 9.54586 5.42999 10.27L5.34998 10.34L5.38 10.31ZM4.89001 9.50002C5.08841 9.73099 5.25644 9.98639 5.39001 10.26H5.44C5.26956 10.0072 5.08598 9.76357 4.89001 9.53001V9.50002Z" fill="#F3CD2D"/>
<path id="Vector_16" d="M5.31998 10.02C5.31998 10.02 5.46998 9.73001 5.31998 9.60001C5.16998 9.47001 5.24997 9.95001 5.24997 9.95001V9.87001C5.24997 9.87001 5.32997 9.51002 5.24997 9.44002C5.16997 9.37002 5.19999 9.78002 5.19999 9.78002L5.13999 9.71001C5.13999 9.71001 5.19999 9.36001 5.13999 9.29001C5.07999 9.22001 5.13999 9.62001 5.13999 9.62001L5.06998 9.54001C5.06998 9.54001 5.06998 9.21002 5.00998 9.13002C4.94998 9.05002 5.00998 9.45001 5.00998 9.45001L4.93998 9.37001C4.93998 9.37001 4.93998 9.06001 4.87998 8.99001C4.81998 8.92001 4.87998 9.28002 4.87998 9.28002L4.80997 9.21001C4.80997 9.21001 4.80995 8.93002 4.72995 8.86002C4.64995 8.79002 4.72995 9.13002 4.72995 9.13002L4.65995 9.06001C4.65995 9.06001 4.65997 8.78001 4.55997 8.73001C4.45997 8.68001 4.55997 8.99001 4.55997 8.99001L4.47995 8.92001C4.47995 8.92001 4.47996 8.59001 4.35996 8.56001C4.23996 8.53001 4.35996 8.85001 4.35996 8.85001H4.28995C4.28995 8.85001 4.28994 8.56002 4.14994 8.53002C4.00994 8.50002 4.20994 8.79001 4.20994 8.79001L4.13999 8.74001C4.13999 8.74001 4.06994 8.45001 3.95994 8.42001C3.84994 8.39001 4.06998 8.69002 4.06998 8.69002L3.99997 8.64002C3.99997 8.64002 3.88996 8.39001 3.79996 8.37001C3.70996 8.35001 3.89994 8.58002 3.89994 8.58002L3.80997 8.53002C3.80997 8.53002 3.66996 8.26001 3.60996 8.34001C3.54996 8.42001 3.81998 8.54001 3.81998 8.54001H3.90995C3.90995 8.54001 3.59997 8.40002 3.55997 8.47002C3.51997 8.54002 3.98996 8.59001 3.98996 8.59001L4.05997 8.64002C4.05997 8.64002 3.74995 8.56002 3.78995 8.64002C3.82995 8.72002 4.12998 8.70001 4.12998 8.70001L4.19999 8.75002C4.19999 8.75002 3.88997 8.67002 3.92997 8.75002C3.96997 8.83002 4.26999 8.81001 4.26999 8.81001L4.34995 8.87001C4.34995 8.87001 4.04994 8.79001 4.08994 8.87001C4.12994 8.95001 4.47995 8.95001 4.47995 8.95001L4.56998 9.03002C4.56998 9.03002 4.23999 8.92002 4.26999 9.03002C4.29999 9.14002 4.65995 9.16002 4.65995 9.16002L4.73996 9.24001C4.73996 9.24001 4.39997 9.12001 4.49997 9.24001C4.60382 9.31215 4.72419 9.35688 4.84995 9.37001L4.94999 9.49001C4.94999 9.49001 4.60995 9.29001 4.65995 9.40001C4.70995 9.51001 5.03995 9.60001 5.03995 9.60001L5.10996 9.68001C5.10996 9.68001 4.79999 9.50001 4.82999 9.60001C4.85999 9.70001 5.18998 9.80002 5.18998 9.80002V9.88002C5.18998 9.88002 4.82996 9.67002 4.85996 9.77002C4.88996 9.87002 5.23996 9.96001 5.23996 9.96001V10.03C5.23996 10.03 4.90995 9.84001 4.90995 9.93001C4.90995 10.02 5.28995 10.11 5.28995 10.11L5.31998 10.02Z" fill="#F3CD2D"/>
</g>
</g>
</g>
</g>
</g>
</g>
</g>
</svg>
