<svg width="34" height="20" fill="none" xmlns="http://www.w3.org/2000/svg"><mask id="a" style="mask-type:luminance" maskUnits="userSpaceOnUse" x="0" y="0" width="34" height="20"><path d="M33.8 0H.24v19.58H33.8V0z" fill="#fff"/></mask><g mask="url(#a)"><path d="M33.8 6.53H.24v6.53H33.8V6.53z" fill="#fff"/><path d="M33.8 0H.24v6.53H33.8V0zm0 13.05H.24v6.52H33.8v-6.52z" fill="#80A7D8"/><mask id="b" style="mask-type:luminance" maskUnits="userSpaceOnUse" x="0" y="0" width="34" height="20"><path d="M33.8 0H.24v19.58H33.8V0z" fill="#fff"/></mask><g mask="url(#b)"><path d="M16.89 9.78l.1 2.67.1-2.67h-.2z" fill="#F1BD51"/><path d="M17.03 12.51v-.06l.1-2.67-.08 2.67v.06h-.02zm-.08-2.72l.07 1.83.07-1.83h-.14z" fill="#7A361D"/><path d="M16.77 10.65c-.15.33 0 .61-.17.9a1.12 1.12 0 00-.07.67c0 .13-.12.17-.09.2s.14 0 .18-.21c.04-.21-.06-.28.12-.64s0-.52.23-.84l-.2-.08z" fill="#F1BD51"/><path d="M16.49 12.44v-.06a.209.209 0 00.07-.15.614.614 0 000-.13.92.92 0 01.08-.54 1 1 0 00.09-.44 1.06 1.06 0 01.09-.47 1.17 1.17 0 00-.09.46 1 1 0 01-.08.44.85.85 0 00-.08.54v.13a.27.27 0 01-.08.16.25.25 0 00.18-.21 1.005 1.005 0 000-.17.77.77 0 01.11-.47 1 1 0 00.11-.43.94.94 0 01.11-.42.89.89 0 00-.09.42 1 1 0 01-.11.43.9.9 0 00-.12.47.37.37 0 010 .18.28.28 0 01-.16.22l-.03.04z" fill="#7A361D"/><path d="M16.82 10.73c-.12.34 0 .56-.16.84.18-.2.06-.46.21-.81l-.05-.03z" fill="#7A361D"/><path d="M17.16 9.78l-.1-2.67-.1 2.67h.2z" fill="#F1BD51"/><path d="M17.15 9.78l-.1-2.66v-.05l-.1 2.67.08-2.67v-.05.05l.1 2.67.02.04z" fill="#7A361D"/><path d="M17.09 9.79l-.07-1.83-.07 1.83h.14z" fill="#7A361D"/><path d="M17.28 8.92c.15-.33 0-.61.17-.9a1.13 1.13 0 00.04-.71c0-.13.12-.17.09-.2s-.14 0-.19.2c-.05.2.07.29-.12.65-.19.36 0 .52-.22.84l.23.12z" fill="#F1BD51"/><path d="M17.28 8.92a1.18 1.18 0 00.09-.47.87.87 0 01.09-.44 1 1 0 00.07-.53v-.13a.27.27 0 01.08-.16s-.14.07-.18.21a.91.91 0 000 .16.79.79 0 01-.11.48 1 1 0 00-.11.43.871.871 0 01-.11.41.85.85 0 00.09-.41 1 1 0 01.11-.44.7.7 0 00.11-.47.516.516 0 010-.17.27.27 0 01.16-.22v.06a.23.23 0 00-.07.15v.13a.84.84 0 01-.07.54 1 1 0 00-.09.43 1 1 0 01-.09.47l.03-.03z" fill="#7A361D"/><path d="M17.23 8.84c.13-.34 0-.56.16-.84-.18.2-.06.46-.22.81l.06.03z" fill="#7A361D"/><path d="M17.03 9.65l-2.67.1 2.67.1v-.2z" fill="#F1BD51"/><path d="M17.03 9.91l-2.67-.09h-.06.06l2.67.1v-.01zm-.01-.19l-1.83.07 1.83.06v-.13z" fill="#7A361D"/><path d="M16.16 9.53c-.33-.15-.61 0-.9-.17a1.13 1.13 0 00-.67-.07c-.14 0-.17-.12-.21-.09-.04.03 0 .14.22.18.22.04.28-.06.64.13s.52 0 .84.22l.08-.2z" fill="#F1BD51"/><path d="M16.09 9.72a1.67 1.67 0 00-.42-.1.81.81 0 01-.44-.11.83.83 0 00-.46-.11.33.33 0 01-.17 0 .29.29 0 01-.23-.16h.06a.21.21 0 00.15.07h.13a1 1 0 01.55.08.92.92 0 00.43.08c.16.004.32.034.47.09a1.17 1.17 0 00-.46-.09.83.83 0 01-.44-.09.84.84 0 00-.54-.07h-.13a.27.27 0 01-.16-.08c0 .07.07.14.21.18h.17a.79.79 0 01.47.11 1 1 0 00.43.11.94.94 0 01.42.11l-.04-.02z" fill="#7A361D"/><path d="M16.08 9.57c-.34-.11-.56 0-.84-.15.2.18.46.06.81.22l.03-.07z" fill="#7A361D"/><path d="M17.03 9.92l2.67-.1-2.67-.1v.2z" fill="#F1BD51"/><path d="M17.03 9.93l2.67-.1-2.67-.1 2.67.08-2.67.11v.01z" fill="#7A361D"/><path d="M17.02 9.85l1.83-.06-1.83-.07v.13z" fill="#7A361D"/><path d="M17.89 10.04c.33.15.61 0 .9.17.21.092.445.116.67.07.13 0 .17.12.2.09s0-.14-.21-.19c-.21-.05-.28.07-.64-.12s-.52 0-.84-.22l-.08.2z" fill="#F1BD51"/><path d="M19.65 10.38a.19.19 0 00-.16-.07.3.3 0 00-.13 0 .92.92 0 01-.54-.08 1.002 1.002 0 00-.44-.09 1 1 0 01-.47-.09c.147.057.303.087.46.09a1 1 0 01.45.08.89.89 0 00.53.08h.14a.27.27 0 01.16.08c0-.07-.07-.14-.21-.18h-.16a.79.79 0 01-.48-.11 1 1 0 00-.43-.11.87.87 0 01-.41-.11c.13.055.269.086.41.09.154.006.304.047.44.12a.73.73 0 00.47.1.563.563 0 01.17 0 .27.27 0 01.22.16l-.02.04z" fill="#7A361D"/><path d="M17.97 9.99c.34.12.56 0 .84.16-.2-.18-.46-.06-.81-.22l-.03.06z" fill="#7A361D"/><path d="M16.93 9.69l-1.82 2a.05.05 0 000 .06h.06l2-1.81-.24-.25z" fill="#F1BD51"/><path d="M15.12 11.72v-.08l1.81-2-1.82 2 2-1.82-1.94 1.83-.05.07z" fill="#7A361D"/><path d="M16.97 9.74l-1.24 1.34 1.34-1.25-.1-.09z" fill="#7A361D"/><path d="M16.24 10.22c-.35.12-.45.41-.76.51-.31.1-.42.34-.53.43-.11.09-.2 0-.21.07-.01.07.13.08.29 0 .16-.08.15-.25.53-.37s.4-.34.76-.44l-.08-.2z" fill="#F1BD51"/><path d="M14.83 11.31h-.07a.32.32 0 00.16-.06.437.437 0 00.08-.1.94.94 0 01.44-.33.998.998 0 00.37-.24c.11-.117.242-.209.39-.27a1.28 1.28 0 00-.39.27.998.998 0 01-.37.25.93.93 0 00-.44.32.437.437 0 01-.08.1.27.27 0 01-.17.06c.06.05.15.05.27 0a.69.69 0 00.13-.11.86.86 0 01.41-.26.999.999 0 00.38-.22.81.81 0 01.38-.22 1.242 1.242 0 00-.37.23 1 1 0 01-.38.23.79.79 0 00-.41.25.69.69 0 01-.13.11.369.369 0 01-.2.07v-.08z" fill="#7A361D"/><path d="M16.2 10.31c-.32.15-.38.39-.69.48.26 0 .36-.29.72-.42l-.03-.06z" fill="#7A361D"/><path d="M17.12 9.88l1.82-2-.05-.05-2 1.82.23.23z" fill="#F1BD51"/><path d="M17.12 9.88l1.82-2v-.05c0-.05-.05 0-.05 0l-2 1.81 1.95-1.82h.07c.02 0 0 .06 0 .08l-1.82 1.95.03.03z" fill="#7A361D"/><path d="M17.07 9.83l1.25-1.34-1.35 1.25.1.09z" fill="#7A361D"/><path d="M17.81 9.31c.35-.13.45-.41.77-.51.211-.09.392-.24.52-.43.1-.09.2 0 .2-.08s-.11-.08-.27 0c-.16.08-.16.24-.54.37s-.4.34-.76.44l.08.21z" fill="#F1BD51"/><path d="M17.81 9.36a1.28 1.28 0 00.39-.27.94.94 0 01.38-.25.86.86 0 00.42-.32l.09-.11a.25.25 0 01.17-.05h-.27a.43.43 0 00-.12.11 1 1 0 01-.42.26 1.08 1.08 0 00-.39.22.8.8 0 01-.37.21.93.93 0 00.36-.22 1.05 1.05 0 01.4-.23.75.75 0 00.4-.25.74.74 0 01.13-.12.28.28 0 01.27 0h-.05a.21.21 0 00-.15.06.3.3 0 00-.09.1.87.87 0 01-.44.32 1 1 0 00-.37.25 1.08 1.08 0 01-.4.27l.06.02z" fill="#7A361D"/><path d="M17.84 9.31c.33-.15.39-.4.71-.48-.27 0-.38.28-.73.42l.02.06z" fill="#7A361D"/><path d="M17.12 9.69l-2-1.82h-.06a.05.05 0 000 .06l1.82 2 .24-.24z" fill="#F1BD51"/><path d="M16.94 9.88l-1.83-1.95v-.07c0-.02 0 0 .07 0l1.82 2-.06.02z" fill="#7A361D"/><path d="M17.07 9.74l-1.34-1.25 1.24 1.34.1-.09z" fill="#7A361D"/><path d="M16.59 9c-.12-.35-.41-.45-.51-.77a1.19 1.19 0 00-.43-.52c-.08-.1 0-.2-.08-.21-.08-.01-.07.13 0 .28.07.15.24.16.37.54s.34.4.44.76l.21-.08z" fill="#F1BD51"/><path d="M16.4 9.07a1.11 1.11 0 00-.22-.36 1 1 0 01-.23-.38.75.75 0 00-.25-.41.491.491 0 01-.12-.13.32.32 0 010-.27v.06a.32.32 0 00.06.16l.1.08a.94.94 0 01.33.44 1 1 0 00.24.37.94.94 0 01-.25-.38.86.86 0 00-.32-.42l-.1-.09a.29.29 0 01-.06-.17v.27a.43.43 0 00.11.12.91.91 0 01.26.42.85.85 0 00.22.38.92.92 0 01.21.37l.02-.06z" fill="#7A361D"/><path d="M16.49 8.97c-.16-.33-.41-.39-.49-.71 0 .27.29.38.42.73l.07-.02z" fill="#7A361D"/><path d="M16.93 9.88l2 1.81h.06a.05.05 0 000-.06l-1.82-2-.24.25z" fill="#F1BD51"/><path d="M18.93 11.71h-.05l-2-1.81 2 1.82h.05l-1.82-2 1.83 2v.07l-.01-.08z" fill="#7A361D"/><path d="M16.97 9.83l1.35 1.25-1.25-1.34-.1.09z" fill="#7A361D"/><path d="M17.49 10.57c.14.35.42.45.52.77.1.32.34.41.42.51.08.1 0 .21.08.22.08.01.08-.13 0-.29-.08-.16-.24-.15-.37-.53s-.34-.4-.44-.76l-.21.08z" fill="#F1BD51"/><path d="M18.49 12.07a.32.32 0 00-.06-.16.442.442 0 00-.1-.08.88.88 0 01-.33-.44.85.85 0 00-.24-.37 1.129 1.129 0 01-.27-.39c.065.146.157.278.27.39a1 1 0 01.25.37.85.85 0 00.32.43c.035.028.069.058.1.09a.25.25 0 01.06.17c0-.06.06-.15 0-.27a.69.69 0 00-.11-.13.79.79 0 01-.25-.41 1.08 1.08 0 00-.23-.39.8.8 0 01-.21-.37.82.82 0 00.22.36c.103.112.182.245.23.39.043.158.13.3.25.41a.5.5 0 01.12.13.28.28 0 010 .27h-.02z" fill="#7A361D"/><path d="M17.55 10.6c.15.32.4.39.48.7 0-.27-.28-.37-.42-.72l-.06.02z" fill="#7A361D"/><path d="M16.9 9.73l-.93 2.51v.06l1.12-2.42-.19-.15z" fill="#F1BD51"/><path d="M16.01 12.31c-.06 0 0-.05 0-.07l.92-2.5-.93 2.5 1.11-2.43-1.1 2.44v.06z" fill="#7A361D"/><path d="M16.96 9.76l-.64 1.72.76-1.67-.12-.05z" fill="#7A361D"/><path d="M16.49 10.48c-.27.26-.25.56-.51.77a1.28 1.28 0 00-.32.59c-.06.12-.17.12-.16.16.01.04.15 0 .26-.13.11-.13 0-.28.36-.54s.23-.47.52-.69l-.15-.16z" fill="#F1BD51"/><path d="M15.49 12.02v-.05a.24.24 0 00.12-.11.423.423 0 000-.12.82.82 0 01.28-.47 1.27 1.27 0 00.25-.37 1.16 1.16 0 01.25-.4 1.16 1.16 0 00-.26.39.93.93 0 01-.25.38.87.87 0 00-.27.46c0 .05 0 .09-.05.13a.25.25 0 01-.13.12s.15 0 .24-.12a.51.51 0 00.07-.15.82.82 0 01.29-.4 1.1 1.1 0 00.27-.35.72.72 0 01.26-.34 1 1 0 00-.25.34 1.15 1.15 0 01-.27.37.82.82 0 00-.28.38.48.48 0 01-.08.16.3.3 0 01-.21.14l.02.01z" fill="#7A361D"/><path d="M16.49 10.58c-.24.26-.21.52-.46.72.24-.12.23-.41.5-.67l-.04-.05z" fill="#7A361D"/><path d="M17.15 9.84l.93-2.51v-.06l-1.12 2.42.19.15z" fill="#F1BD51"/><path d="M17.16 9.84l.93-2.5v-.05l-1.12 2.43 1.1-2.44h.05a.07.07 0 010 .05l-.93 2.51h-.03z" fill="#7A361D"/><path d="M17.08 9.81l.64-1.71-.76 1.66.12.05z" fill="#7A361D"/><path d="M17.59 9.08c.27-.25.25-.55.51-.76a1.21 1.21 0 00.31-.6c.07-.12.18-.11.17-.15-.01-.04-.14 0-.25.12-.11.12-.05.29-.36.55-.31.26-.24.47-.53.69l.15.15z" fill="#F1BD51"/><path d="M17.59 9.09c.116-.112.205-.249.26-.4a1 1 0 01.25-.37.83.83 0 00.28-.46.4.4 0 010-.13.29.29 0 01.13-.12.26.26 0 00-.24.13.511.511 0 00-.07.15 1 1 0 01-.29.4 1 1 0 00-.27.35.83.83 0 01-.25.34c.101-.1.182-.22.24-.35.065-.137.157-.26.27-.36a.79.79 0 00.28-.39.549.549 0 01.08-.15c.08-.11.17-.16.23-.14v.05a.19.19 0 00-.13.11.34.34 0 000 .12.85.85 0 01-.28.47c-.108.105-.193.23-.25.37a1.14 1.14 0 01-.26.4l.02-.02z" fill="#7A361D"/><path d="M17.58 8.99c.24-.26.21-.52.47-.72-.25.12-.24.41-.52.67l.05.05z" fill="#7A361D"/><path d="M17.07 9.66l-2.5-.93h-.06l2.42 1.12.14-.19z" fill="#F1BD51"/><path d="M16.98 9.9l-2.44-1.1v-.06c0-.06.06 0 .07 0l2.51.93-2.5-.93h-.05L17 9.85l-.02.05z" fill="#7A361D"/><path d="M17.04 9.73l-1.71-.65 1.66.77.05-.12z" fill="#7A361D"/><path d="M16.32 9.22c-.25-.27-.55-.25-.76-.51a1.07 1.07 0 00-.6-.31c-.11-.07-.11-.18-.15-.17-.04.01 0 .14.13.25.13.11.28.06.54.36s.47.24.7.53l.14-.15z" fill="#F1BD51"/><path d="M16.18 9.37a1 1 0 00-.35-.25 1.12 1.12 0 01-.36-.27.73.73 0 00-.39-.28.55.55 0 01-.15-.08.328.328 0 01-.15-.23.21.21 0 00.11.13h.12a.85.85 0 01.47.28 1 1 0 00.37.24c.152.059.289.151.4.27a1.11 1.11 0 00-.39-.26 1 1 0 01-.38-.25.85.85 0 00-.47-.28.34.34 0 01-.12 0 .29.29 0 01-.12-.13s0 .16.13.24l.15.07a.86.86 0 01.4.29.86.86 0 00.35.26.83.83 0 01.34.27l.04-.02z" fill="#7A361D"/><path d="M16.23 9.23c-.26-.24-.52-.21-.72-.46.12.24.41.23.67.5l.05-.04z" fill="#7A361D"/><path d="M16.97 9.91l2.51.93h.06l-2.43-1.11-.14.18z" fill="#F1BD51"/><path d="M19.49 10.85l-2.5-.92 2.5.93-2.43-1.11 2.44 1.1s.05 0 0 .06l-.01-.06z" fill="#7A361D"/><path d="M16.99 9.85l1.72.64-1.67-.76-.05.12z" fill="#7A361D"/><path d="M17.72 10.31c.26.27.56.25.77.5.159.165.365.277.59.32.13.06.12.18.16.17.04-.01 0-.15-.13-.26-.13-.11-.28-.05-.54-.35s-.47-.24-.69-.53l-.16.15z" fill="#F1BD51"/><path d="M19.23 11.31a.24.24 0 00-.11-.12H19a.85.85 0 01-.47-.28.87.87 0 00.46.27l.13.05a.27.27 0 01.12.12.27.27 0 00-.13-.24.34.34 0 00-.15-.07 1 1 0 01-.4-.29.941.941 0 00-.36-.27.75.75 0 01-.33-.26.998.998 0 00.35.25 1 1 0 01.36.27.79.79 0 00.39.28.553.553 0 01.15.08.271.271 0 01.14.23l-.03-.02z" fill="#7A361D"/><path d="M17.82 10.31c.26.24.52.21.72.47-.12-.25-.41-.24-.67-.51l-.05.04z" fill="#7A361D"/><path d="M16.97 9.66l-2.42 1.11h.06l2.5-.93-.14-.18z" fill="#F1BD51"/><path d="M14.54 10.85v-.06l2.43-1.12-2.43 1.11h.05l2.5-.93-2.5.94-.05.06z" fill="#7A361D"/><path d="M16.99 9.73l-1.66.76 1.71-.64-.05-.12z" fill="#7A361D"/><path d="M16.13 9.88c-.37 0-.57.21-.9.18a1.22 1.22 0 00-.64.2h-.23c-.02 0 .09.12.27.09.18-.03.24-.16.64-.13s.49-.17.86-.12v-.22z" fill="#F1BD51"/><path d="M14.56 10.36a.25.25 0 01-.2-.07h.07a.2.2 0 00.16 0l.12-.06a.94.94 0 01.53-.13 1 1 0 00.43-.09 1.3 1.3 0 01.47-.1 1.3 1.3 0 00-.46.09.81.81 0 01-.44.09.83.83 0 00-.52.14l-.12.06a.33.33 0 01-.18 0 .22.22 0 00.26.08.329.329 0 00.15-.05.82.82 0 01.49-.08 1 1 0 00.44-.06.79.79 0 01.42-.05 1.212 1.212 0 00-.42.06c-.14.054-.29.078-.44.07a.79.79 0 00-.48.08h-.16l-.12.02z" fill="#7A361D"/><path d="M16.07 9.95c-.36 0-.51.22-.84.18.26.09.46-.12.84-.11v-.07z" fill="#7A361D"/><path d="M17.07 9.91l2.43-1.12h-.06l-2.51.93.14.19z" fill="#F1BD51"/><path d="M17.08 9.92l2.43-1.11-2.5.93 2.49-1h.07c.01 0 0 0 0 .06l-2.43 1.12h-.06z" fill="#7A361D"/><path d="M17.04 9.85l1.67-.77-1.72.65.05.12z" fill="#7A361D"/><path d="M17.92 9.69c.36 0 .57-.22.9-.19a1.15 1.15 0 00.67-.19h.23c.02 0-.08-.12-.27-.1-.19.02-.23.17-.64.14-.41-.03-.5.16-.86.11l-.03.23z" fill="#F1BD51"/><path d="M17.95 9.69a1.3 1.3 0 00.46-.1.93.93 0 01.44-.08.83.83 0 00.52-.14l.12-.06a.33.33 0 01.18 0 .26.26 0 00-.26-.08.34.34 0 00-.15.06.86.86 0 01-.49.07 1.1 1.1 0 00-.44.07.79.79 0 01-.42 0 1 1 0 00.42-.07.91.91 0 01.44-.06.79.79 0 00.48-.08.43.43 0 01.16-.05.26.26 0 01.27.06h-.07a.17.17 0 00-.16 0l-.12.05a.86.86 0 01-.53.14 1 1 0 00-.43.09 1.19 1.19 0 01-.44.09l.02.09z" fill="#7A361D"/><path d="M17.98 9.61c.36 0 .51-.21.83-.18-.25-.08-.45.13-.83.12v.06z" fill="#7A361D"/><path d="M17.15 9.73l-1.12-2.42v.06l.93 2.51.19-.15z" fill="#F1BD51"/><path d="M16.91 9.83l-.94-2.5a.05.05 0 010-.05l1.11 2.43-1.07-2.4.93 2.5-.03.02z" fill="#7A361D"/><path d="M17.08 9.76l-.76-1.66.64 1.71.12-.05z" fill="#7A361D"/><path d="M16.93 8.89c0-.37-.21-.57-.19-.9 0-.23-.067-.456-.19-.65 0-.12.05-.2 0-.22-.05-.02-.12.08-.09.27s.16.23.13.64c-.03.41.16.49.12.86h.22z" fill="#F1BD51"/><path d="M16.94 8.89a1.11 1.11 0 00-.1-.46 1 1 0 01-.09-.44.77.77 0 00-.13-.52.663.663 0 01-.06-.12.33.33 0 010-.18c-.07 0-.11.12-.09.25.012.056.032.11.06.16a.94.94 0 01.08.49 1 1 0 00.06.44.77.77 0 01.05.42 1 1 0 00-.07-.42.999.999 0 01-.06-.45.77.77 0 00-.08-.47.75.75 0 010-.16.31.31 0 01.06-.27v.07a.17.17 0 000 .16 1 1 0 000 .12.86.86 0 01.14.53.9.9 0 00.09.43c.061.15.095.309.1.47l.04-.05z" fill="#7A361D"/><path d="M16.86 8.83c0-.36-.22-.51-.18-.84-.09.26.12.46.11.84h.07z" fill="#7A361D"/><path d="M16.9 9.84l1.12 2.42v-.06l-.93-2.51-.19.15z" fill="#F1BD51"/><path d="M18.07 12.31h-.06l-.93-2.5 1 2.49v.07l-.01-.06z" fill="#7A361D"/><path d="M16.96 9.81l.76 1.67-.64-1.72-.12.05z" fill="#7A361D"/><path d="M17.12 10.68c0 .37.22.57.19.9 0 .227.066.45.19.64v.23c0 .02.12-.09.1-.27-.02-.18-.17-.24-.14-.64s-.16-.49-.11-.86h-.23z" fill="#F1BD51"/><path d="M17.49 12.46v-.07a.17.17 0 000-.16.339.339 0 00-.06-.12 1 1 0 01-.14-.53.85.85 0 00-.08-.43 1.159 1.159 0 01-.1-.47c0 .159.034.316.1.46.063.138.09.289.08.44a.83.83 0 00.14.52c0 .05 0 .09.06.12a.33.33 0 010 .18.26.26 0 00.08-.26.439.439 0 00-.06-.16.81.81 0 01-.07-.48 1.06 1.06 0 00-.07-.44.79.79 0 010-.42 1 1 0 00.07.42c.05.14.07.29.06.44a.9.9 0 00.07.48c.03.049.05.103.06.16a.32.32 0 01-.06.27l-.08.05z" fill="#7A361D"/><path d="M17.19 10.74c0 .35.22.51.18.83.09-.25-.12-.45-.11-.83h-.07z" fill="#7A361D"/><path d="M17.03 8.7a1.09 1.09 0 11-1.09 1.08 1.08 1.08 0 011.09-1.08z" fill="#F1BD51"/><path d="M17.03 10.88a1.1 1.1 0 11-.02-2.2 1.1 1.1 0 01.02 2.2zm0-2.18a1.08 1.08 0 100 2.16 1.08 1.08 0 000-2.16z" fill="#7A361D"/><path d="M17.71 9.55a.44.44 0 00-.57-.07.35.35 0 000 .45.56.56 0 010-.47.4.4 0 01.62.08l-.05.01z" fill="#7A361D"/><path d="M17.41 9.5a.19.19 0 00-.18.07h-.09a.41.41 0 00.1-.06.18.18 0 01.15 0c.15 0 .23.13.25.12.02-.01-.08-.14-.25-.14l.02.01z" fill="#7A361D"/><path d="M17.6 9.64a.25.25 0 00-.39 0c.09-.13.29-.08.3 0h.09z" fill="#7A361D"/><path d="M17.39 9.56a.08.08 0 01.08.07.09.09 0 01-.08.08.08.08 0 01-.07-.08.07.07 0 01.07-.07z" fill="#7A361D"/><path d="M17.21 9.65a.35.35 0 00.39 0h-.06a.22.22 0 01-.3 0h-.03z" fill="#7A361D"/><path d="M17.61 9.68a.33.33 0 01-.37 0c-.08 0-.08-.06-.06-.06h.1a.41.41 0 00.33 0v.06zm-.41.26V10c0 .06 0 0-.06 0a.07.07 0 010-.05.12.12 0 01-.1.07.13.13 0 00.09 0 .08.08 0 00.11 0 .08.08 0 000-.11l-.04.03zm.1.37c-.07-.05-.11-.12-.19-.12h-.08.14c.06 0 .09.07.13.08v.04zm-.02 0a.4.4 0 00-.25 0 .52.52 0 01.25 0z" fill="#7A361D"/><path d="M17.3 10.31c-.18 0-.12.1-.27.1.18 0 .09-.1.27-.12v.02z" fill="#7A361D"/><path d="M17.18 10.55a.15.15 0 00-.15-.15.16.16 0 00-.16.15.16.16 0 01.264-.07.17.17 0 01.046.07zm-.84-1a.44.44 0 01.57-.07.36.36 0 010 .45.56.56 0 000-.47.4.4 0 00-.62.08l.05.01z" fill="#7A361D"/><path d="M16.64 9.5a.19.19 0 01.18.07h.09l-.1-.06a.18.18 0 00-.15 0c-.15 0-.23.13-.25.12-.02-.01.08-.14.25-.14l-.02.01z" fill="#7A361D"/><path d="M16.49 9.64a.25.25 0 01.39 0c-.09-.13-.29-.08-.3 0h-.09z" fill="#7A361D"/><path d="M16.66 9.56a.07.07 0 00-.08.07.08.08 0 00.08.08.08.08 0 00.07-.08.07.07 0 00-.07-.07z" fill="#7A361D"/><path d="M16.84 9.65a.35.35 0 01-.39 0h.04a.22.22 0 00.3 0h.05z" fill="#7A361D"/><path d="M16.49 9.68a.33.33 0 00.37 0c.08 0 .08-.06.06-.06h-.1a.41.41 0 01-.33 0v.06zm.36.26V10c0 .06 0 0 .06 0s0 0 0-.05a.11.11 0 00.11.07.18.18 0 01-.11 0 .07.07 0 01-.05.021.07.07 0 01-.05-.021v-.11h.05l-.01.03zm-.1.37c.07-.05.11-.12.19-.12h-.06c-.06 0-.09.07-.13.08v.04zm.02 0a.451.451 0 01.26 0c-.07 0-.11-.05-.26 0z" fill="#7A361D"/><path d="M16.75 10.31c.18 0 .12.1.28.1-.19 0-.11-.1-.28-.12v.02z" fill="#7A361D"/><path d="M16.87 10.55a.16.16 0 01.16-.15.15.15 0 01.15.15.16.16 0 00-.264-.07.17.17 0 00-.046.07z" fill="#7A361D"/></g></g></svg>