<svg width="20" height="21" fill="none" xmlns="http://www.w3.org/2000/svg"><path d="M10 .174a10 10 0 1010 10 10.009 10.009 0 00-10-10zm0 18.701a8.658 8.658 0 118.658-8.658A8.71 8.71 0 0110 18.875z" fill="#231F20"/><path d="M12.096 10.174a2.095 2.095 0 11-4.19 0 2.095 2.095 0 014.19 0z" fill="#231F20"/><path d="M14.39 10.174a1.926 1.926 0 000-.32l1.238-.277-.13-.77-1.256.164a3.918 3.918 0 00-.225-.606l1.065-.676-.39-.675-1.134.563a2.738 2.738 0 00-.415-.485l.77-1.005-.597-.51-.866.935a3.714 3.714 0 00-.545-.312l.38-1.212-.735-.26-.477 1.16a4.008 4.008 0 00-.632-.104l-.06-1.272h-.77l-.053 1.333a3.853 3.853 0 00-.632.104l-.485-1.16-.727.26.381 1.212c-.192.09-.377.194-.554.311l-.866-.926-.597.502.77 1.004c-.149.15-.285.312-.407.485l-1.125-.58-.39.667L6 8.408a3.834 3.834 0 00-.225.597l-1.256-.164-.138.77 1.247.277a1.93 1.93 0 000 .32 1.877 1.877 0 000 .312l-1.247.277.138.762 1.256-.164c.057.208.132.411.225.606l-1.074.684.39.666 1.125-.58c.124.175.26.34.407.494l-.77.996.597.502.866-.927c.177.118.362.222.554.312l-.38 1.212.726.269.485-1.17c.182.046.368.078.554.096l.269-1.212h-.346a3.124 3.124 0 01-.927-.338l-.086-.052a2.86 2.86 0 01-.762-.65.147.147 0 01-.061-.068 2.824 2.824 0 01-.51-.866.425.425 0 010-.095 3.316 3.316 0 01-.174-.979v-.12c.01-.337.068-.67.173-.988a.658.658 0 010-.095c.114-.317.284-.61.502-.866a.138.138 0 01.061-.078c.22-.257.48-.477.77-.65a.286.286 0 01.087-.051c.29-.16.602-.277.926-.347h.096c.17-.008.34-.008.51 0 .165-.008.33-.008.494 0h.104c.328.07.643.19.935.355h.078c.29.17.548.39.762.65l.07.07c.212.257.38.55.493.865a1.008 1.008 0 000 .095c.122.334.192.684.207 1.04v.094c-.005.333-.06.663-.164.979a.46.46 0 010 .095 2.798 2.798 0 01-.563.935c-.112.13-.234.251-.364.364l1.013.614.087.052.06-.06c.14-.143.267-.297.382-.46l1.117.58.39-.675-1.066-.675c.093-.195.168-.398.225-.606l1.256.165.13-.762-1.239-.277a1.884 1.884 0 00-.025-.364z" fill="#231F20"/><path d="M11.005 15.24h-.027l.018-.027.009.026z" fill="#fff"/><path d="M11.844 15.68l-.069-.155-.139-.33-.138-.302-.07-.148-.285-.658h-.658l-.33.745-.423.978-.113.269h.684l.13-.347h.753l.139.347h.692l-.173-.399zm-1.23-.441l.157-.381.138.355-.294.026zm3.265-.805a.454.454 0 00-.087-.095.667.667 0 00-.234-.165 1.135 1.135 0 00-.476-.095h-.96v1.991h.674v-.493h.286a1.14 1.14 0 00.476-.087.736.736 0 00.32-.26.7.7 0 00.096-.233.963.963 0 000-.165.745.745 0 00-.095-.398zm-.606.528a.372.372 0 01-.208.06h-.243v-.467h.243a.311.311 0 01.208.06.226.226 0 01.06.174.208.208 0 01-.06.173zm1.602-.883h-.667v1.991h.667v-1.991z" fill="#231F20"/></svg>