<svg width="34" height="20" fill="none" xmlns="http://www.w3.org/2000/svg"><mask id="a" style="mask-type:luminance" maskUnits="userSpaceOnUse" x="0" y="0" width="34" height="20"><path d="M33.93 0H.37v19.58h33.56V0z" fill="#fff"/></mask><g mask="url(#a)"><path d="M33.92 0H.36v9.79h33.56V0z" fill="#C0003B"/><path d="M33.92 9.79H.36v9.79h33.56V9.79z" fill="#3D9546"/><path d="M.36 0v19.58l18.99-9.79L.36 0z" fill="#000"/><path d="M33.92 8.04H.36v3.5h33.56v-3.5z" fill="#000"/><path d="M.36 18.19l16.29-8.4L.36 1.39v16.8z" fill="#F5CD28"/><path d="M33.92 9.27H.36v1.03h33.56V9.27z" fill="#F5CD28"/><path d="M.36 17.03L14.4 9.79.36 2.55v14.48z" fill="#000"/><mask id="b" style="mask-type:luminance" maskUnits="userSpaceOnUse" x="0" y="0" width="34" height="20"><path d="M33.93 0H.37v19.58h33.56V0z" fill="#fff"/></mask><g fill="#F3CD2D" mask="url(#b)"><path d="M4.34 11.66v1.11a3 3 0 002.87-3.13A2.68 2.68 0 004.57 6.8a2.44 2.44 0 00-2.49 2.39 2.12 2.12 0 002.21 2.12 1.601 1.601 0 001.57-1.79 1.46 1.46 0 01-1.46 1.29 1.53 1.53 0 01-1.61-1.46 1.71 1.71 0 011.64-1.69 1.86 1.86 0 011.81 1.86 2.1 2.1 0 01-1.9 2.12v.02z"/><path d="M3.49 10.21h.06a4.45 4.45 0 011.7-1.79 4.56 4.56 0 00-1.76 1.79z"/><path d="M3.55 10.31l-.07-.05a4.62 4.62 0 011.73-1.77 4.43 4.43 0 00-1.69 1.79l.03.03zm.38-.67a4.68 4.68 0 00-.43.62 3.66 3.66 0 01.4-.62h.03z"/><path d="M3.6 10.02s-.14-.29 0-.42.06.35.06.35l.06-.08s-.09-.36 0-.43 0 .34 0 .34l.06-.07s-.07-.35 0-.42 0 .33 0 .33l.06-.08s0-.33.07-.41c.07-.08 0 .32 0 .32l.08-.08s0-.31.06-.38 0 .29 0 .29l.07-.07s0-.28.07-.35c.07-.07 0 .27 0 .27l.07-.07s0-.28.1-.33c.1-.05 0 .26 0 .26l.08-.07s0-.33.12-.36c.12-.03-.05.29-.05.29h.07s0-.29.15-.32c.15-.03-.07.26-.07.26l.07-.05s.09-.29.19-.32c.1-.03-.11.27-.11.27l.07-.05s.11-.25.2-.27c.09-.02-.1.21-.1.21l.09-.05s.14-.27.19-.19c.05.08-.2.2-.2.2h-.09s.31-.14.35-.07c.04.07-.43.12-.43.12l-.07.05s.31-.08.27 0c-.04.08-.34.06-.34.06l-.07.05s.31-.08.26 0c-.05.08-.34.06-.34.06l-.07.06s.3-.08.26 0c-.04.08-.39.08-.39.08l-.09.08s.32-.11.3 0c-.02.11-.39.13-.39.13l-.09.08s.35-.12.25 0a.79.79 0 01-.35.13l-.1.12s.34-.2.29-.09c-.05.11-.39.2-.39.2l-.06.08s.31-.18.28-.08c-.03.1-.36.2-.36.2l-.06.08s.36-.21.33-.11c-.03.1-.37.19-.37.19v.07s.33-.19.33-.1-.39.18-.39.18l.07-.09z"/><path d="M5.49 10.21h-.06a4.38 4.38 0 00-1.69-1.79 4.57 4.57 0 011.75 1.79z"/><path d="M5.38 10.31a4.43 4.43 0 00-1.69-1.79 4.83 4.83 0 011.74 1.75l-.08.07.03-.03zm-.49-.81c.198.231.366.486.5.76h.05a8.716 8.716 0 00-.55-.73V9.5z"/><path d="M5.32 10.02s.15-.29 0-.42-.07.35-.07.35v-.08s.08-.36 0-.43-.05.34-.05.34l-.06-.07s.06-.35 0-.42 0 .33 0 .33l-.07-.08s0-.33-.06-.41c-.06-.08 0 .32 0 .32l-.07-.08s0-.31-.06-.38 0 .29 0 .29l-.07-.07s0-.28-.08-.35c-.08-.07 0 .27 0 .27l-.07-.07s0-.28-.1-.33c-.1-.05 0 .26 0 .26l-.08-.07s0-.33-.12-.36c-.12-.03 0 .29 0 .29h-.07s0-.29-.14-.32c-.14-.03.06.26.06.26l-.07-.05s-.07-.29-.18-.32c-.11-.03.11.27.11.27L4 8.64s-.11-.25-.2-.27c-.09-.02.1.21.1.21l-.09-.05s-.14-.27-.2-.19c-.06.08.21.2.21.2h.09s-.31-.14-.35-.07c-.04.07.43.12.43.12l.07.05s-.31-.08-.27 0c.04.08.34.06.34.06l.07.05s-.31-.08-.27 0c.04.08.34.06.34.06l.08.06s-.3-.08-.26 0c.04.08.39.08.39.08l.09.08s-.33-.11-.3 0c.03.11.39.13.39.13l.08.08s-.34-.12-.24 0a.75.75 0 00.35.13l.1.12s-.34-.2-.29-.09c.05.11.38.2.38.2l.07.08s-.31-.18-.28-.08c.03.1.36.2.36.2v.08s-.36-.21-.33-.11c.03.1.38.19.38.19v.07s-.33-.19-.33-.1.38.18.38.18l.03-.09z"/></g></g></svg>