<svg width="82" height="45" fill="none" xmlns="http://www.w3.org/2000/svg"><path d="M15.323 34.96h2.573l-5.926 9.11-5.927-9.11h2.924" fill="#4D4AFD"/><path d="M11.97 44.968l-6.824-10.49h3.822v.975H6.94l5.03 7.734L17 35.453h-1.677v-.975h3.47l-6.823 10.49z" fill="#231F20"/><path d="M15.324 35.453V20.141H8.97v15.312" fill="#4D4AFD"/><path d="M15.805 35.453h-.975V20.635H9.45v14.818h-.975V19.66h7.33v15.793z" fill="#231F20"/><path d="M20.289 5.804h55.953a5.264 5.264 0 015.264 5.264v5.342a5.266 5.266 0 01-5.264 5.265H20.29a1.508 1.508 0 01-1.508-1.508V7.312a1.508 1.508 0 011.508-1.508z" fill="#4D4AFD"/><path d="M76.256 22.156H20.289a1.988 1.988 0 01-1.988-1.989V7.3a1.989 1.989 0 011.988-1.99h55.967A5.745 5.745 0 0182 11.056v5.343a5.746 5.746 0 01-5.745 5.758zM20.289 6.298a1.014 1.014 0 00-1.013 1.014v12.855a1.014 1.014 0 001.013 1.014h55.967a4.782 4.782 0 004.77-4.77v-5.343a4.784 4.784 0 00-4.77-4.77H20.289z" fill="#231F20"/><path d="M12.205 24.886c6.467 0 11.71-5.244 11.71-11.712S18.672 1.462 12.205 1.462C5.737 1.462.495 6.706.495 13.174s5.242 11.712 11.71 11.712z" fill="#FD6A4A"/><path d="M12.204 25.38A12.23 12.23 0 010 13.174 12.22 12.22 0 0112.204.968 12.216 12.216 0 0124.41 13.174 12.219 12.219 0 0112.205 25.38zm0-23.398a11.242 11.242 0 00-11.23 11.23 11.257 11.257 0 0011.23 11.232 11.242 11.242 0 0011.23-11.231 11.23 11.23 0 00-11.23-11.27v.04z" fill="#231F20"/><path d="M12.205 20.544a7.37 7.37 0 100-14.74 7.37 7.37 0 000 14.74z" fill="#fff"/><path d="M12.205 21.025a7.798 7.798 0 110-15.596 7.798 7.798 0 010 15.596zm0-14.727a6.889 6.889 0 00-6.876 6.876 6.89 6.89 0 006.876 6.876 6.875 6.875 0 000-13.752z" fill="#231F20"/><path d="M32.207 16.137a2.417 2.417 0 01-.988-.922 2.598 2.598 0 01-.364-1.3 2.6 2.6 0 01.364-1.3 2.42 2.42 0 01.988-.923 3.002 3.002 0 011.417-.338c.447-.007.89.081 1.3.26.374.156.697.413.935.741l-1.053.936a1.3 1.3 0 00-1.078-.572 1.106 1.106 0 00-.845.325 1.3 1.3 0 00-.325.91 1.3 1.3 0 00.325.91 1.117 1.117 0 00.845.338 1.299 1.299 0 001.078-.585l1.053.936a2.209 2.209 0 01-.935.74 3.12 3.12 0 01-1.3.26 3.002 3.002 0 01-1.417-.416zm9.203-4.744v5.005h-1.678v-1.833h-1.546v1.833h-1.69v-4.966h1.677v1.755h1.546v-1.755l1.69-.039zm5.108 3.705v1.3h-4.133v-4.966h4.042v1.3h-2.392v.585h2.106v1.209h-2.106v.65l2.483-.078zm4.197.39H48.83l-.325.87h-1.702l2.17-4.965h1.638l2.17 4.965h-1.728l-.338-.87zm-.455-1.196l-.481-1.3-.48 1.3h.96zm6.564-2.665c.32.13.593.358.78.65.184.296.28.639.272.988a1.745 1.745 0 01-1.053 1.651 3.135 3.135 0 01-1.208.22H54.9v1.223h-1.664v-4.966h2.379c.415-.009.827.07 1.209.234zm-.806 2.067a.546.546 0 00.182-.43.549.549 0 00-.182-.428.701.701 0 00-.507-.156H54.9v1.17h.61a.701.701 0 00.482-.156h.026zm6.72 1.404v1.3h-4.146v-4.966h4.042v1.3h-2.392v.585h2.093v1.209h-2.093v.65l2.496-.078zm2.95 0h-.455v1.3h-1.676v-4.966h2.391c.411-.01.819.07 1.196.234.32.13.593.358.78.65a1.7 1.7 0 01.286.988c.008.329-.078.653-.247.936a1.689 1.689 0 01-.689.624l1.04 1.534H66.52l-.832-1.3zm.663-2.275a.74.74 0 00-.507-.156h-.61v1.17h.61a.74.74 0 00.507-.156.546.546 0 00.17-.43.548.548 0 00-.13-.415l-.04-.013z" fill="#fff"/><path d="M9.28 13.109a1.625 1.625 0 01-.44-1.209c-.008-.31.059-.618.195-.897.131-.238.33-.433.572-.559.247-.133.524-.2.805-.195.281-.003.558.064.806.195.24.124.435.32.559.56.14.277.212.585.208.896a1.678 1.678 0 01-.442 1.209 1.574 1.574 0 01-1.13.429 1.534 1.534 0 01-1.131-.43zm4.602-2.782h1.43l-4.043 5.915h-1.43l4.043-5.915zm-3.21 2.132a1.04 1.04 0 00.103-.559 1.091 1.091 0 00-.104-.572.312.312 0 00-.26-.169.339.339 0 00-.273.17 1.3 1.3 0 00-.104.571c-.01.192.025.384.104.559a.312.312 0 00.273.169.287.287 0 00.26-.13v-.039zm2.937 3.432a1.636 1.636 0 01-.442-1.21c-.01-.307.061-.612.208-.883.126-.241.32-.44.559-.572.249-.127.526-.19.805-.182.28-.01.558.053.806.182a1.3 1.3 0 01.56.572c.145.27.217.576.207.884a1.587 1.587 0 01-.442 1.209 1.495 1.495 0 01-1.13.441 1.533 1.533 0 01-1.131-.441zm1.403-.65c.081-.175.117-.367.104-.56a1.184 1.184 0 00-.104-.558.326.326 0 00-.273-.17.287.287 0 00-.26.17 1.04 1.04 0 00-.104.559 1.02 1.02 0 00.104.559.3.3 0 00.26.182.34.34 0 00.273-.182z" fill="#231F20"/></svg>