<svg width="91" height="45" fill="none" xmlns="http://www.w3.org/2000/svg"><path d="M19.234 22.264v21.41l-6.877-8.26-6.877 8.26v-21.41" fill="#4D4AFD"/><path d="M19.698 44.968l-7.342-8.825-7.354 8.825V22.264h.943v20.102l6.411-7.694 6.399 7.694V22.264h.943v22.704z" fill="#231F20"/><path d="M20.15 6.186h64.49a5.092 5.092 0 015.092 5.091v5.167a5.091 5.091 0 01-5.091 5.091H20.15a1.458 1.458 0 01-1.459-1.458V7.644a1.458 1.458 0 011.459-1.458z" fill="#4D4AFD"/><path d="M84.667 22.013H20.164a1.936 1.936 0 01-1.924-1.924V7.645a1.936 1.936 0 011.924-1.924h64.503a5.557 5.557 0 015.57 5.57v5.154a5.57 5.57 0 01-5.57 5.569zM20.164 6.663a.98.98 0 00-.98.98V20.09a.98.98 0 00.98.98h64.503a4.626 4.626 0 004.614-4.626V11.29a4.626 4.626 0 00-4.614-4.627H20.164z" fill="#231F20"/><path d="M13.726 24.351a1.572 1.572 0 00-2.753 0 1.583 1.583 0 01-2.954-.792 1.571 1.571 0 00-2.376-1.383 1.571 1.571 0 01-2.15-2.15 1.571 1.571 0 00-1.382-2.325 1.571 1.571 0 01-.792-2.942 1.57 1.57 0 000-2.753 1.571 1.571 0 01.792-2.954 1.559 1.559 0 001.382-2.439 1.571 1.571 0 012.163-2.162 1.571 1.571 0 002.376-1.383 1.572 1.572 0 012.954-.78 1.584 1.584 0 002.753 0 1.57 1.57 0 012.942.78 1.584 1.584 0 002.388 1.383 1.571 1.571 0 012.15 2.162 1.571 1.571 0 001.383 2.376 1.571 1.571 0 01.792 2.954 1.572 1.572 0 000 2.753 1.572 1.572 0 01-.792 2.942 1.584 1.584 0 00-1.383 2.389 1.572 1.572 0 01-2.15 2.15 1.585 1.585 0 00-2.388 1.382 1.571 1.571 0 01-2.955.792z" fill="#FD6A4A"/><path d="M15.085 25.634a2.011 2.011 0 01-1.773-1.056 1.13 1.13 0 00-1.923 0 2.024 2.024 0 01-2.326.98 2.011 2.011 0 01-1.508-2.011 1.094 1.094 0 00-.553-.968 1.119 1.119 0 00-1.12 0 2.025 2.025 0 01-2.513-.302 2.037 2.037 0 01-.302-2.514 1.107 1.107 0 000-1.12 1.005 1.005 0 00-.98-.54 2.025 2.025 0 01-2.012-1.52 2.037 2.037 0 01.98-2.314 1.094 1.094 0 00.579-.968 1.094 1.094 0 00-.579-.968 2.012 2.012 0 01-.98-2.313 1.999 1.999 0 012.011-1.51 1.056 1.056 0 00.98-.553 1.119 1.119 0 000-1.119 2.037 2.037 0 01.303-2.514 2.036 2.036 0 012.514-.302 1.081 1.081 0 001.119 0 1.094 1.094 0 00.553-.968 2.011 2.011 0 011.508-2.011 2.024 2.024 0 012.326.98 1.13 1.13 0 001.923 0 2.012 2.012 0 012.314-.98 2.024 2.024 0 011.52 2.011 1.08 1.08 0 00.541.968 1.081 1.081 0 001.12 0 2.037 2.037 0 012.513.302 2.024 2.024 0 01.315 2.514 1.08 1.08 0 000 1.12 1.043 1.043 0 00.968.552 1.999 1.999 0 012.011 1.509 2 2 0 01-.98 2.313 1.106 1.106 0 00-.566.968 1.106 1.106 0 00.566.968 2.011 2.011 0 01.98 2.313 2.024 2.024 0 01-2.011 1.521.993.993 0 00-.968.54 1.08 1.08 0 000 1.12 2.024 2.024 0 01-.315 2.514 2.012 2.012 0 01-2.514.302 1.119 1.119 0 00-1.119 0 1.081 1.081 0 00-.54.968 2.024 2.024 0 01-1.521 2.011 2 2 0 01-.541.076zm-.955-1.522a1.068 1.068 0 001.257.528 1.044 1.044 0 00.817-1.08 2 2 0 011.018-1.798 2.012 2.012 0 012.074 0 1.068 1.068 0 001.346-.164 1.055 1.055 0 00.163-1.345 2.012 2.012 0 010-2.074 2.01 2.01 0 011.773-1.019 1.082 1.082 0 001.068-.817 1.08 1.08 0 00-.54-1.257 2.011 2.011 0 01-1.044-1.785 2.013 2.013 0 011.043-1.785 1.069 1.069 0 00.541-1.257 1.07 1.07 0 00-1.069-.817 2.024 2.024 0 01-1.772-1.031 2.012 2.012 0 010-2.075 1.055 1.055 0 00-.163-1.345 1.069 1.069 0 00-1.346-.163 2.011 2.011 0 01-2.074 0 1.999 1.999 0 01-1.018-1.798 1.043 1.043 0 00-.817-1.081 1.068 1.068 0 00-1.257.528 2.011 2.011 0 01-1.786 1.043 2.011 2.011 0 01-1.785-1.043 1.043 1.043 0 00-1.257-.528 1.043 1.043 0 00-.817 1.081 2.024 2.024 0 01-1.018 1.798 2.036 2.036 0 01-2.087 0 1.069 1.069 0 00-1.345.163 1.069 1.069 0 00-.164 1.345 2.05 2.05 0 010 2.075A2.037 2.037 0 012.1 9.44a1.056 1.056 0 00-1.056.818 1.056 1.056 0 00.528 1.257A2.024 2.024 0 012.627 13.3a2.024 2.024 0 01-1.056 1.785 1.069 1.069 0 00-.528 1.257 1.069 1.069 0 001.056.817A2.024 2.024 0 013.87 18.18a2.05 2.05 0 010 2.074 1.068 1.068 0 00.164 1.345 1.08 1.08 0 001.357.164 2.012 2.012 0 012.075 0 2.024 2.024 0 011.018 1.797 1.043 1.043 0 00.817 1.081 1.044 1.044 0 001.257-.528 2.011 2.011 0 011.785-1.043 2.013 2.013 0 011.786 1.043z" fill="#231F20"/><path d="M12.357 20.442a7.128 7.128 0 100-14.256 7.128 7.128 0 000 14.256z" fill="#fff"/><path d="M12.295 20.907a7.543 7.543 0 110-15.086 7.543 7.543 0 010 15.086zm0-14.244a6.65 6.65 0 100 13.302 6.65 6.65 0 000-13.302z" fill="#231F20"/><path d="M14.82 16.821l-2.464-1.295-2.464 1.295.465-2.74-1.986-1.95 2.753-.401 1.232-2.49 1.232 2.49 2.753.402-1.999 1.948.478 2.741z" fill="#231F20"/><path d="M34.921 14.206c.152.217.231.477.226.742a1.093 1.093 0 01-.502.968 2.514 2.514 0 01-1.471.352h-2.59v-4.853h2.514c.493-.027.982.09 1.408.34a1.069 1.069 0 01.478.917 1.17 1.17 0 01-.641 1.044c.235.106.435.276.578.49zm-2.992-1.76v.93h.93c.465 0 .692-.163.692-.477 0-.315-.227-.453-.692-.453h-.93zm1.848 2.351c0-.327-.239-.49-.704-.49H31.93v.98h1.144c.402 0 .591-.1.591-.49h.113zm6.049.39v1.056h-3.86v-4.828h3.772v1.044h-2.426v.817h2.137v1.005h-2.137v.88l2.514.026zm1.483 1.031a2.802 2.802 0 01-.893-.39l.44-.993c.234.147.488.262.754.34.269.084.549.126.83.125.528 0 .78-.126.78-.39a.315.315 0 00-.214-.302 4.74 4.74 0 00-.717-.213 5.035 5.035 0 01-.905-.252 1.446 1.446 0 01-.629-.427 1.12 1.12 0 01-.264-.792c.003-.282.086-.556.24-.792a1.53 1.53 0 01.716-.553 2.991 2.991 0 011.169-.214c.318 0 .634.038.943.113.28.062.552.164.804.302l-.414 1.018a2.79 2.79 0 00-1.333-.377 1.03 1.03 0 00-.59.126.34.34 0 00-.19.314c0 .126.076.214.227.29.227.086.463.15.704.188.306.067.608.151.905.251.24.092.455.238.629.428.183.221.277.504.264.791 0 .278-.084.55-.24.78a1.61 1.61 0 01-.728.566 2.891 2.891 0 01-1.157.2 4.221 4.221 0 01-1.131-.137zm5.004-3.671h-1.471v-1.132h4.3v1.081H47.67v3.772h-1.357v-3.721zm6.712 3.494a2.3 2.3 0 01-.942-.892 2.514 2.514 0 01-.352-1.257c.004-.443.125-.877.352-1.257.226-.375.553-.68.942-.88a2.817 2.817 0 011.358-.327c.407-.007.81.074 1.182.239.343.148.645.376.88.666l-.868.78a1.458 1.458 0 00-1.131-.554 1.37 1.37 0 00-.692.164 1.12 1.12 0 00-.477.49 1.44 1.44 0 00-.164.717c-.005.248.051.494.164.716.108.203.275.37.477.478.212.118.45.179.692.176a1.433 1.433 0 001.131-.566l.868.78a2.337 2.337 0 01-.88.678 3.006 3.006 0 01-1.182.227 2.815 2.815 0 01-1.358-.378zm8.762-4.626v4.803h-1.358v-1.874h-1.86v1.874H57.21v-4.803h1.358v1.798h1.86v-1.798h1.358zm2.176 4.627a2.389 2.389 0 01-.943-.893 2.338 2.338 0 01-.352-1.257c-.004-.444.118-.88.352-1.257.226-.38.552-.688.943-.893.423-.218.894-.33 1.37-.327.477-.006.948.106 1.37.327.392.208.722.516.956.893.225.38.342.815.34 1.257.002.442-.115.877-.34 1.257a2.514 2.514 0 01-.955.893 2.867 2.867 0 01-1.37.314 2.93 2.93 0 01-1.371-.314zm2.036-.981c.196-.114.356-.28.466-.478a1.51 1.51 0 00.163-.716 1.434 1.434 0 00-.163-.717 1.257 1.257 0 00-.466-.49 1.344 1.344 0 00-.666-.164 1.256 1.256 0 00-.653.164 1.17 1.17 0 00-.466.49c-.12.22-.18.467-.175.717-.002.25.058.496.175.716.11.198.27.364.466.478.197.117.423.178.653.176.234 0 .463-.061.666-.176zm2.866-3.646h1.358v4.803h-1.358v-4.803zm3.558 4.627a2.3 2.3 0 01-.943-.893 2.438 2.438 0 01-.34-1.257c.001-.442.118-.875.34-1.257.227-.375.553-.68.943-.88.418-.22.885-.332 1.358-.327.406-.009.81.073 1.181.239.343.148.645.376.88.666l-.867.78a1.458 1.458 0 00-1.132-.554 1.37 1.37 0 00-.69.164 1.257 1.257 0 00-.479.49c-.116.22-.172.468-.163.717-.005.248.05.494.163.716.113.2.278.365.478.478.211.118.45.179.691.176a1.432 1.432 0 001.132-.566l.867.78a2.338 2.338 0 01-.88.678 2.954 2.954 0 01-1.181.227 2.842 2.842 0 01-1.358-.377zm8.045-.855v1.056H76.62v-4.828h3.772v1.044h-2.427v.817h2.137v1.005h-2.137v.88l2.502.026z" fill="#fff"/></svg>