<svg width="19" height="20" fill="none" xmlns="http://www.w3.org/2000/svg"><path d="M9.42 3.254a6.486 6.486 0 00-4.983 10.635 5.3 5.3 0 013.882-3.45 5.262 5.262 0 012.186 0 5.26 5.26 0 013.898 3.458 6.417 6.417 0 001.509-4.151A6.493 6.493 0 009.42 3.254zm-.008 6.55a2.673 2.673 0 01-2.667-2.668A2.673 2.673 0 019.412 4.47a2.673 2.673 0 012.667 2.667 2.673 2.673 0 01-2.667 2.667z" fill="#231F20"/><path d="M13.988 15.594v.408a7.274 7.274 0 01-.522.35 6.563 6.563 0 01-.522.294v-1.052a3.523 3.523 0 00-3.523-3.515 3.515 3.515 0 00-3.491 3.123c-.017.13-.025.261-.025.392v1.052a7.26 7.26 0 01-1.052-.644v-.408a4.568 4.568 0 019.135 0z" fill="#231F20"/><path d="M9.42.326C4.225.326 0 4.551 0 9.746a9.4 9.4 0 004.151 7.797c.229.155.457.302.702.432.171.098.342.188.522.278.171.081.35.155.53.228.13.057.269.106.408.155.97.343 2.014.53 3.107.53a9.313 9.313 0 003.107-.53 10.022 10.022 0 00.938-.383c.18-.09.351-.18.522-.278.245-.13.473-.277.702-.432a9.4 9.4 0 004.151-7.797c0-5.195-4.225-9.42-9.42-9.42zm5.269 15.692a11.32 11.32 0 01-.702.53c-.171.114-.342.22-.522.318a6.055 6.055 0 01-.522.277 10.62 10.62 0 01-.701.302 8.277 8.277 0 01-2.822.498c-.995 0-1.941-.18-2.822-.498-.236-.09-.465-.187-.693-.293a6.59 6.59 0 01-.53-.286 6.826 6.826 0 01-.522-.318 11.288 11.288 0 01-.702-.53 8.186 8.186 0 01-2.928-6.272c0-4.526 3.679-8.197 8.197-8.197 4.518 0 8.197 3.67 8.197 8.197a8.186 8.186 0 01-2.928 6.272z" fill="#231F20"/></svg>