<svg width="24" height="24" viewBox="0 0 24 24" fill="none" xmlns="http://www.w3.org/2000/svg">
<g id="attach">
<path id="Vector (Stroke)" fill-rule="evenodd" clip-rule="evenodd" d="M9.19087 3.22109C9.67136 3.02035 10.1869 2.91699 10.7076 2.91699C11.2284 2.91699 11.7439 3.02035 12.2244 3.22109C12.7049 3.42182 13.1407 3.71593 13.5067 4.08636C13.8727 4.4568 14.1615 4.8962 14.3564 5.37908C14.5507 5.86056 14.6478 6.37573 14.6421 6.89489L14.636 15.7348L14.6359 15.7404C14.625 16.4304 14.3433 17.0883 13.8515 17.5724C13.3598 18.0564 12.6975 18.3277 12.0075 18.3277C11.3175 18.3277 10.6551 18.0564 10.1634 17.5724C9.67167 17.0883 9.38995 16.4304 9.37905 15.7404L9.37896 15.7345V8.24969H10.879V15.7219C10.885 16.0163 11.0057 16.2967 11.2157 16.5033C11.4268 16.7112 11.7112 16.8277 12.0075 16.8277C12.3037 16.8277 12.5881 16.7112 12.7993 16.5033C13.0093 16.2967 13.13 16.0161 13.136 15.7217L13.1421 6.88551L13.1421 6.88122C13.146 6.55903 13.086 6.23927 12.9654 5.94047C12.8448 5.64167 12.6661 5.36979 12.4396 5.14057C12.2132 4.91135 11.9435 4.72937 11.6462 4.60516C11.3489 4.48095 11.0298 4.41699 10.7076 4.41699C10.3854 4.41699 10.0664 4.48095 9.7691 4.60516C9.47179 4.72937 9.20209 4.91135 8.97564 5.14057C8.74919 5.36979 8.57048 5.64167 8.44989 5.94047C8.3293 6.23927 8.26922 6.55903 8.27313 6.88122L8.27318 6.88577V15.7825C8.28868 16.7596 8.68736 17.6916 9.38347 18.3778C10.0808 19.0651 11.0206 19.4504 11.9997 19.4504C12.9789 19.4504 13.9187 19.0651 14.616 18.3778C15.3121 17.6916 15.7108 16.7596 15.7263 15.7825V6.72344H17.2263V15.7936L17.2262 15.799C17.2063 17.172 16.647 18.4821 15.669 19.4461C14.691 20.41 13.3729 20.9504 11.9997 20.9504C10.6265 20.9504 9.30851 20.41 8.33051 19.4461C7.35252 18.4821 6.79313 17.172 6.77326 15.799L6.77318 15.7936V6.89462C6.76752 6.37556 6.86462 5.86048 7.05891 5.37908C7.2538 4.8962 7.5426 4.4568 7.90856 4.08636C8.27453 3.71593 8.71039 3.42182 9.19087 3.22109Z" fill="#242424"/>
</g>
</svg>
