<svg width="19" height="20" fill="none" xmlns="http://www.w3.org/2000/svg"><path d="M10.66 11.202a1.2 1.2 0 00-.432-.293 5.265 5.265 0 00-.62-.155 2.163 2.163 0 01-.4-.098c-.081-.033-.122-.082-.122-.147 0-.13.13-.204.408-.204.312.007.617.091.889.245l.326-.816a2.357 2.357 0 00-.922-.163v-.49h-.644v.49a1.387 1.387 0 00-.816.367.905.905 0 00-.285.685.816.816 0 00.18.546c.115.131.26.232.424.294.202.068.41.123.62.163.138.026.274.062.407.106.082 0 .13.09.13.155a.147.147 0 01-.097.13.962.962 0 01-.318.042 1.85 1.85 0 01-.547-.082 1.882 1.882 0 01-.505-.212l-.351.816c.163.096.339.17.522.22.213.058.432.09.652.098v.49h.645v-.556a1.46 1.46 0 00.815-.375.962.962 0 00.278-.669.816.816 0 00-.237-.587zm0 0a1.2 1.2 0 00-.432-.293 5.265 5.265 0 00-.62-.155 2.163 2.163 0 01-.4-.098c-.081-.033-.122-.082-.122-.147 0-.13.13-.204.408-.204.312.007.617.091.889.245l.326-.816a2.357 2.357 0 00-.922-.163v-.49h-.644v.49a1.387 1.387 0 00-.816.367.905.905 0 00-.285.685.816.816 0 00.18.546c.115.131.26.232.424.294.202.068.41.123.62.163.138.026.274.062.407.106.082 0 .13.09.13.155a.147.147 0 01-.097.13.962.962 0 01-.318.042 1.85 1.85 0 01-.547-.082 1.882 1.882 0 01-.505-.212l-.351.816c.163.096.339.17.522.22.213.058.432.09.652.098v.49h.645v-.556a1.46 1.46 0 00.815-.375.962.962 0 00.278-.669.816.816 0 00-.237-.587zm0 0a1.2 1.2 0 00-.432-.293 5.265 5.265 0 00-.62-.155 2.163 2.163 0 01-.4-.098c-.081-.033-.122-.082-.122-.147 0-.13.13-.204.408-.204.312.007.617.091.889.245l.326-.816a2.357 2.357 0 00-.922-.163v-.49h-.644v.49a1.387 1.387 0 00-.816.367.905.905 0 00-.285.685.816.816 0 00.18.546c.115.131.26.232.424.294.202.068.41.123.62.163.138.026.274.062.407.106.082 0 .13.09.13.155a.147.147 0 01-.097.13.962.962 0 01-.318.042 1.85 1.85 0 01-.547-.082 1.882 1.882 0 01-.505-.212l-.351.816c.163.096.339.17.522.22.213.058.432.09.652.098v.49h.645v-.556a1.46 1.46 0 00.815-.375.962.962 0 00.278-.669.816.816 0 00-.237-.587z" fill="#fff"/><path d="M10.66 11.202a1.2 1.2 0 00-.432-.293 5.265 5.265 0 00-.62-.155 2.163 2.163 0 01-.4-.098c-.081-.033-.122-.082-.122-.147 0-.13.13-.204.408-.204.312.007.617.091.889.245l.326-.816a2.357 2.357 0 00-.922-.163v-.49h-.644v.49a1.387 1.387 0 00-.816.367.905.905 0 00-.285.685.816.816 0 00.18.546c.115.131.26.232.424.294.202.068.41.123.62.163.138.026.274.062.407.106.082 0 .13.09.13.155a.147.147 0 01-.097.13.962.962 0 01-.318.042 1.85 1.85 0 01-.547-.082 1.882 1.882 0 01-.505-.212l-.351.816c.163.096.339.17.522.22.213.058.432.09.652.098v.49h.645v-.556a1.46 1.46 0 00.815-.375.962.962 0 00.278-.669.816.816 0 00-.237-.587z" fill="#231F20"/><path d="M9.42.509a9.42 9.42 0 109.421 9.42A9.429 9.429 0 009.421.51zm0 17.618a8.198 8.198 0 118.157-8.197 8.205 8.205 0 01-8.156 8.197z" fill="#231F20"/><path d="M14.242 10.827a7.945 7.945 0 00-2.374-3.45c.155-.392.302-.816.448-1.183a1.02 1.02 0 00-.081-.954 1.036 1.036 0 00-.865-.424 5.367 5.367 0 00-.742 0 1.631 1.631 0 00-2.235-.14.587.587 0 01-.473.123h-.448a.97.97 0 00-.947 1.387c.147.391.286.816.44 1.174a8.752 8.752 0 00-1.418 1.575 6.224 6.224 0 00-1.24 3.662 2.847 2.847 0 002.92 2.928h4.404a2.846 2.846 0 002.888-2.512 5.155 5.155 0 00-.277-2.186zm-4.152 3.475H7.25a1.631 1.631 0 01-1.704-1.713 5 5 0 011.02-2.953 7.251 7.251 0 011.361-1.468.816.816 0 00.261-1.02c-.146-.367-.277-.726-.424-1.109h.09a1.786 1.786 0 001.33-.4c.187-.163.456-.049.627.106.223.202.516.31.816.302h.44c-.138.375-.277.75-.424 1.126a.816.816 0 00.253.987 6.91 6.91 0 012.178 3.042c.184.523.254 1.08.204 1.631a1.631 1.631 0 01-1.631 1.428l-1.558.04z" fill="#231F20"/></svg>