<svg width="19" height="20" fill="none" xmlns="http://www.w3.org/2000/svg"><path d="M4.123 9.539a2.116 2.116 0 00-2.116 2.132v.613c.265.864.68 1.674 1.225 2.394V11.67a.89.89 0 01.89-.89h.41V9.555l-.41-.016z" fill="#231F20"/><path d="M10.046 16.042v1.087a.173.173 0 01-.111.16.17.17 0 01-.068.011H7.105a.17.17 0 01-.166-.104.172.172 0 01-.014-.067v-1.087a.18.18 0 01.18-.18h2.762a.18.18 0 01.18.18z" fill="#fff"/><path d="M10.046 16.042v1.087a.173.173 0 01-.111.16.17.17 0 01-.068.011H7.105a.17.17 0 01-.166-.104.172.172 0 01-.014-.067v-1.087a.18.18 0 01.18-.18h2.762a.18.18 0 01.18.18z" fill="#231F20"/><path d="M9.433.552a9.428 9.428 0 00-7.418 15.253A9.544 9.544 0 004.53 18.06c.066.043.134.082.204.115a5.5 5.5 0 00.613.326c.196.098.4.188.613.27l.204.082a9.502 9.502 0 004.608.474 7.805 7.805 0 001.226-.27 8.987 8.987 0 002.974-1.462c.07-.045.14-.094.204-.147.213-.163.418-.338.613-.523.218-.19.423-.395.612-.613l.205-.237A9.428 9.428 0 009.409.552h.024zm6.994 13.726a6.936 6.936 0 01-.613.866 6.86 6.86 0 01-.817.866 8.17 8.17 0 01-2.974 1.772 8.99 8.99 0 01-2.59.425 8.114 8.114 0 01-3.268-.67l-.204-.09a5.468 5.468 0 01-.613-.326 5.917 5.917 0 01-.613-.384l-.204-.164a8.513 8.513 0 01-2.54-3.08 8.21 8.21 0 1115.612-3.505 8.113 8.113 0 01-1.013 3.938 1.27 1.27 0 01-.171.352h.008z" fill="#231F20"/><path d="M14.074 13.477H7.097c-.1 0-.18.08-.18.18v1.078c0 .1.08.18.18.18h6.977c.1 0 .18-.08.18-.18v-1.078c0-.1-.08-.18-.18-.18zm.18-1.977v.514a.458.458 0 01-.466.458h-2.566a.45.45 0 01-.433-.302.334.334 0 010-.156V11.5a.138.138 0 010-.057.465.465 0 01.458-.393h2.565a.466.466 0 01.442.45zm0-2.329v.507a.458.458 0 01-.466.465h-2.565a.466.466 0 01-.466-.424V9.17a.466.466 0 01.466-.465h2.565a.457.457 0 01.466.465zm-4.2.245v2.255a.817.817 0 01-.817.817h-1.47a.817.817 0 01-.817-.817V9.416a.817.817 0 01.817-.817h1.47a.817.817 0 01.817.817z" fill="#231F20"/><path d="M16.419 8.869v4.477a7.794 7.794 0 01-.613 1.046 6.83 6.83 0 01-.613.768V8.869a.882.882 0 00-.858-.882H6.868a.882.882 0 00-.89.882v8.064a5.55 5.55 0 01-.63-.36 8.048 8.048 0 01-.613-.416V8.804a2.116 2.116 0 012.133-2.035h7.467a2.116 2.116 0 012.084 2.1z" fill="#231F20"/></svg>