<svg width="49" height="86" viewBox="0 0 49 86" fill="none" xmlns="http://www.w3.org/2000/svg">
<path d="M36.5711 78.8408V85.4372H34.9528V80.3937H34.5254V78.8408H36.5711Z" fill="black"/>
<path d="M42.8354 80.3875L42.832 80.3925V80.3838L42.8354 80.3875Z" fill="black"/>
<path d="M43.7365 78.8408V80.3937L40.0816 83.9062H43.7365V85.4576H37.8418V83.9062H37.847L42.0087 80.3937H37.8418V78.8408H43.7365Z" fill="black"/>
<path d="M33.4521 80.8983C33.2986 80.5082 33.0771 80.1562 32.8006 79.863C32.5327 79.5851 32.2184 79.3691 31.8758 79.2275C31.5332 79.0859 31.1689 79.0215 30.8039 79.0379C30.439 79.0543 30.0805 79.1512 29.7491 79.3231C29.4177 79.4949 29.1199 79.7384 28.8728 80.0394V76.6416H27.2517H26.7891V78.1932H27.2465V85.4424H28.865V84.2597C29.365 84.8659 30.0596 85.2251 30.7962 85.2582C31.5328 85.2913 32.251 84.9956 32.7927 84.4361C33.0687 84.1424 33.2902 83.7905 33.4443 83.4008C33.5965 83.0058 33.6749 82.5803 33.6749 82.1503C33.6749 81.7202 33.5965 81.2947 33.4443 80.8998L33.4521 80.8983ZM31.7776 83.2958C31.6439 83.471 31.4803 83.6148 31.2965 83.7187C31.1127 83.8226 30.9122 83.8846 30.7068 83.901C30.5014 83.9175 30.2951 83.888 30.0999 83.8144C29.9048 83.7408 29.7246 83.6244 29.57 83.4722C29.4028 83.3062 29.2689 83.1025 29.1772 82.8744C29.0856 82.6462 29.0382 82.3989 29.0382 82.1488C29.0382 81.8987 29.0856 81.6514 29.1772 81.4233C29.2689 81.1952 29.4028 80.9914 29.57 80.8254C29.8682 80.5296 30.2561 80.3723 30.6544 80.3857C31.0527 80.399 31.4315 80.5821 31.7132 80.8974C31.995 81.2128 32.1586 81.6366 32.1706 82.0823C32.1825 82.528 32.042 82.9621 31.7776 83.2958Z" fill="black"/>
<path d="M35.5808 78.1127C36.1551 78.1127 36.6206 77.5918 36.6206 76.9492C36.6206 76.3066 36.1551 75.7856 35.5808 75.7856C35.0065 75.7856 34.541 76.3066 34.541 76.9492C34.541 77.5918 35.0065 78.1127 35.5808 78.1127Z" fill="black"/>
<path d="M25.015 85.4855C25.5259 85.4855 25.9401 85.022 25.9401 84.4503C25.9401 83.8785 25.5259 83.415 25.015 83.415C24.504 83.415 24.0898 83.8785 24.0898 84.4503C24.0898 85.022 24.504 85.4855 25.015 85.4855Z" fill="black"/>
<path d="M24.0907 78.8232L22.3301 85.4555H20.5265L19.4514 81.4044L18.3763 85.4555H16.5727L15.2161 80.3413H14.4785V78.8232H16.2586L17.5344 83.6225L18.8089 78.8232H20.2124L21.4882 83.6225L22.7614 78.8232H24.0907Z" fill="black"/>
<path d="M13.9578 78.8232L12.196 85.4555H10.3937L9.31858 81.4044L8.24347 85.4555H6.43989L5.08329 80.3413H4.3457V78.8232H6.12583L7.40163 83.6225L8.67612 78.8232H10.0783L11.3554 83.6225L12.6286 78.8232H13.9578Z" fill="black"/>
<path d="M48.0816 72.9127H0L0 17.9121H4.01114V68.4241H44.0704V17.9121H48.0816V72.9127Z" fill="black"/>
<path d="M28.4474 34.0044H25.4319V30.6372H28.4474V34.0044ZM13.3711 30.6372H16.3866V34.0117H13.3711V30.6372ZM13.3711 40.7606V37.3789H16.3866V40.7533L13.3711 40.7606ZM34.4824 57.63H19.4021V54.2497H34.4772L34.4824 57.63Z" fill="black"/>
<path d="M40.5087 64.3717H7.3418V30.6313H10.3573V60.9972H13.3715V44.1263H16.3871V60.9972H37.4931V30.6313H40.5087V64.3717Z" fill="black"/>
<path d="M28.4468 23.8823H25.4316V27.2563H28.4468V23.8823Z" fill="black"/>
<path d="M40.5087 23.8823V27.2568H34.4776V50.8752H19.4026V27.2568H7.3418V23.8823H22.4168V47.5007H25.4323V37.3787H28.4479V47.5007H31.4634V23.8823H40.5087Z" fill="black"/>
<path d="M40.5093 11.9404H37.4941V15.3144H40.5093V11.9404Z" fill="black"/>
<path d="M40.5093 0L37.4941 0V3.37401H40.5093V0Z" fill="black"/>
<path d="M34.478 17.9121H31.4629V21.2861H34.478V17.9121Z" fill="black"/>
<path d="M28.4468 11.9404H25.4316V15.3144H28.4468V11.9404Z" fill="black"/>
<path d="M22.4175 17.9121H19.4023V21.2861H22.4175V17.9121Z" fill="black"/>
<path d="M22.4175 11.9404H19.4023V15.3144H22.4175V11.9404Z" fill="black"/>
<path d="M22.4175 5.97021H19.4023V9.34422H22.4175V5.97021Z" fill="black"/>
<path d="M22.4175 0L19.4023 0V3.37401H22.4175V0Z" fill="black"/>
<path d="M34.478 5.97021H31.4629V9.34422H34.478V5.97021Z" fill="black"/>
<path d="M34.478 0L31.4629 0V3.37401H34.478V0Z" fill="black"/>
<path d="M16.3862 5.97021H13.3711V9.34422H16.3862V5.97021Z" fill="black"/>
<path d="M10.3569 17.9121H7.3418V21.2861H10.3569V17.9121Z" fill="black"/>
<path d="M10.3569 11.9404H7.3418V15.3144H10.3569V11.9404Z" fill="black"/>
<path d="M10.3569 0L7.3418 0V3.37401H10.3569V0Z" fill="black"/>
</svg>
