<svg width="82" height="45" viewBox="0 0 82 45" fill="none" xmlns="http://www.w3.org/2000/svg">
<path d="M15.323 34.9594H17.8965L11.9697 44.0714L6.04297 34.9594H8.96736" fill="#4D4AFD"/>
<path d="M11.9701 44.9683L5.14648 34.4785H8.96769V35.4533H6.94011L11.9701 43.1875L17 35.4533H15.3234V34.4785H18.7937L11.9701 44.9683Z" fill="#231F20"/>
<path d="M15.3244 35.4534V20.1411H8.96875V35.4534" fill="#4D4AFD"/>
<path d="M15.8051 35.4534H14.8303V20.635H9.44941V35.4534H8.47461V19.6602H15.8051V35.4534Z" fill="#231F20"/>
<path d="M20.2889 5.80371H76.2423C77.6384 5.80371 78.9773 6.35835 79.9645 7.34562C80.9517 8.33289 81.5062 9.67191 81.5062 11.0681V16.4105C81.5062 17.1018 81.3701 17.7864 81.1056 18.4251C80.841 19.0638 80.4533 19.6442 79.9645 20.133C79.4757 20.6218 78.8954 21.0096 78.2567 21.2742C77.6181 21.5387 76.9336 21.6749 76.2423 21.6749H20.2889C19.8891 21.6749 19.5056 21.516 19.2228 21.2333C18.9401 20.9505 18.7812 20.567 18.7812 20.1671V7.31154C18.7812 6.91164 18.9401 6.52812 19.2228 6.24534C19.5056 5.96257 19.8891 5.80371 20.2889 5.80371Z" fill="#4D4AFD"/>
<path d="M76.2557 22.1558H20.2894C19.762 22.1558 19.2561 21.9463 18.8832 21.5733C18.5103 21.2004 18.3008 20.6945 18.3008 20.1671V7.29853C18.3008 6.77107 18.5103 6.26521 18.8832 5.89224C19.2561 5.51928 19.762 5.30975 20.2894 5.30975H76.2557C77.7793 5.30975 79.2407 5.91506 80.318 6.99252C81.3954 8.06999 82.0006 9.53134 82.0006 11.0551V16.3975C82.0023 17.1531 81.8549 17.9016 81.567 18.6001C81.279 19.2987 80.8562 19.9336 80.3226 20.4685C79.789 21.0034 79.1551 21.4277 78.4573 21.7173C77.7594 22.0068 77.0112 22.1558 76.2557 22.1558ZM20.2894 6.29763C20.0205 6.29763 19.7627 6.40445 19.5726 6.59459C19.3825 6.78473 19.2756 7.04262 19.2756 7.31152V20.1671C19.2756 20.436 19.3825 20.6938 19.5726 20.884C19.7627 21.0741 20.0205 21.1809 20.2894 21.1809H76.2557C77.5198 21.1775 78.731 20.6738 79.6248 19.7799C80.5186 18.886 81.0224 17.6746 81.0258 16.4105V11.0681C81.0224 9.80394 80.5186 8.59255 79.6248 7.69866C78.731 6.80477 77.5198 6.30106 76.2557 6.29763H20.2894Z" fill="#231F20"/>
<path d="M12.2047 24.8856C18.6723 24.8856 23.9153 19.6421 23.9153 13.1739C23.9153 6.70571 18.6723 1.46222 12.2047 1.46222C5.73714 1.46222 0.494141 6.70571 0.494141 13.1739C0.494141 19.6421 5.73714 24.8856 12.2047 24.8856Z" fill="#FD6A4A"/>
<path d="M12.2045 25.3795C8.96977 25.3726 5.86949 24.0845 3.58219 21.797C1.2949 19.5094 0.00686779 16.4089 0 13.1739C0.00344048 9.9378 1.29035 6.83525 3.57838 4.547C5.86642 2.25875 8.96872 0.971703 12.2045 0.968262C15.4403 0.971703 18.5424 2.25875 20.8304 4.547C23.1185 6.83525 24.4054 9.9378 24.4088 13.1739C24.4054 16.4099 23.1185 19.5125 20.8304 21.8007C18.5424 24.089 15.4403 25.376 12.2045 25.3795ZM12.2045 1.98214C9.22725 1.98559 6.37282 3.16993 4.2676 5.27535C2.16237 7.38077 0.978238 10.2354 0.974798 13.2129C0.981663 16.1893 2.16692 19.0419 4.2714 21.1466C6.37589 23.2513 9.2283 24.4367 12.2045 24.4436C15.1817 24.4401 18.036 23.2558 20.1412 21.1504C22.2464 19.045 23.4306 16.1904 23.434 13.2129C23.4392 11.7347 23.1525 10.2702 22.5904 8.90308C22.0284 7.536 21.2021 6.29332 20.1588 5.24631C19.1156 4.19931 17.8758 3.36859 16.5108 2.80175C15.1458 2.23492 13.6825 1.94314 12.2045 1.94315V1.98214Z" fill="#231F20"/>
<path d="M12.2054 20.544C16.2755 20.544 19.5749 17.2443 19.5749 13.1739C19.5749 9.10345 16.2755 5.80371 12.2054 5.80371C8.13536 5.80371 4.83594 9.10345 4.83594 13.1739C4.83594 17.2443 8.13536 20.544 12.2054 20.544Z" fill="white"/>
<path d="M12.2046 21.025C10.1364 21.025 8.15278 20.2033 6.6903 18.7407C5.22782 17.2781 4.40625 15.2943 4.40625 13.2259C4.40625 11.1574 5.22782 9.17368 6.6903 7.71106C8.15278 6.24844 10.1364 5.42676 12.2046 5.42676C14.2729 5.42676 16.2563 6.24844 17.7188 7.71106C19.1813 9.17368 20.003 11.1574 20.003 13.2259C20.003 15.2943 19.1813 17.2781 17.7188 18.7407C16.2563 20.2033 14.2729 21.025 12.2046 21.025ZM12.2046 6.29766C10.3822 6.30109 8.63519 7.02665 7.34651 8.31545C6.05783 9.60424 5.33244 11.3513 5.32901 13.1739C5.33244 14.9965 6.05783 16.7435 7.34651 18.0323C8.63519 19.3211 10.3822 20.0467 12.2046 20.0501C14.0281 20.0501 15.7768 19.3256 17.0662 18.0361C18.3557 16.7466 19.0801 14.9976 19.0801 13.1739C19.0801 11.3502 18.3557 9.6012 17.0662 8.31166C15.7768 7.02212 14.0281 6.29766 12.2046 6.29766Z" fill="#231F20"/>
<path d="M32.2071 16.1375C31.7968 15.9301 31.4541 15.6099 31.2193 15.2146C30.9856 14.821 30.8602 14.3726 30.8555 13.9148C30.8602 13.457 30.9856 13.0086 31.2193 12.6149C31.4541 12.2196 31.7968 11.8995 32.2071 11.692C32.6444 11.4648 33.1311 11.3487 33.6239 11.3541C34.0708 11.3466 34.514 11.4353 34.9236 11.6141C35.2976 11.7705 35.6213 12.0268 35.8594 12.355L34.8065 13.2909C34.6873 13.1145 34.5266 12.97 34.3385 12.8703C34.1504 12.7706 33.9407 12.7186 33.7278 12.7189C33.572 12.7104 33.4162 12.7349 33.2706 12.7909C33.125 12.8469 32.9929 12.9331 32.883 13.0439C32.6618 13.2942 32.5454 13.62 32.558 13.9538C32.5454 14.2876 32.6618 14.6134 32.883 14.8637C32.9922 14.9761 33.1239 15.0643 33.2695 15.1225C33.415 15.1807 33.5712 15.2077 33.7278 15.2016C33.9419 15.2005 34.1524 15.1466 34.3406 15.0445C34.5288 14.9425 34.6888 14.7955 34.8065 14.6167L35.8594 15.5526C35.6213 15.8808 35.2976 16.1371 34.9236 16.2935C34.514 16.4723 34.0708 16.5609 33.6239 16.5535C33.1244 16.5349 32.6373 16.392 32.2071 16.1375Z" fill="white"/>
<path d="M41.4091 11.3931V16.3975H39.7324V14.5647H38.1858V16.3975H36.4961V11.4321H38.1728V13.1869H39.7194V11.4321L41.4091 11.3931Z" fill="white"/>
<path d="M46.5178 15.0977V16.3975H42.3848V11.4321H46.4269V12.7319H44.0354V13.3169H46.141V14.5257H44.0354V15.1756L46.5178 15.0977Z" fill="white"/>
<path d="M50.7148 15.4876H48.8302L48.5053 16.3585H46.8027L48.9732 11.3931H50.6109L52.7815 16.3585H51.0527L50.7148 15.4876ZM50.2599 14.2918L49.779 12.9919L49.2981 14.2918H50.2599Z" fill="white"/>
<path d="M56.8236 11.6271C57.1444 11.7579 57.4169 11.985 57.6034 12.277C57.7885 12.5727 57.8833 12.916 57.8763 13.2649C57.8856 13.614 57.7907 13.958 57.6034 14.2528C57.4139 14.5453 57.1428 14.7758 56.8236 14.9157C56.4392 15.0684 56.0283 15.1435 55.6148 15.1367H54.9V16.3585H53.2363V11.3931H55.6148C56.0298 11.384 56.442 11.4638 56.8236 11.6271ZM56.0178 13.6938C56.0779 13.6402 56.1253 13.5739 56.1568 13.4998C56.1882 13.4256 56.2029 13.3454 56.1998 13.2649C56.2029 13.1844 56.1882 13.1042 56.1568 13.03C56.1253 12.9559 56.0779 12.8896 56.0178 12.8359C55.8757 12.7196 55.6937 12.6636 55.5109 12.68H54.9V13.8498H55.5109C55.685 13.8594 55.8564 13.8038 55.9918 13.6938H56.0178Z" fill="white"/>
<path d="M62.7379 15.0977V16.3975H58.5918V11.4321H62.6339V12.7319H60.2425V13.3169H62.335V14.5257H60.2425V15.1756L62.7379 15.0977Z" fill="white"/>
<path d="M65.6882 15.0976H65.2333V16.3975H63.5566V11.4321H65.9483C66.3591 11.4228 66.7669 11.5026 67.1439 11.666C67.4648 11.7969 67.7373 12.0239 67.9239 12.316C68.1187 12.6079 68.2186 12.9529 68.2098 13.3038C68.2175 13.6329 68.1318 13.9574 67.9627 14.2397C67.796 14.508 67.5574 14.7242 67.274 14.8637L68.3137 16.3975H66.5201L65.6882 15.0976ZM66.3511 12.8229C66.2072 12.7101 66.0266 12.6546 65.8442 12.6669H65.2333V13.8368H65.8442C66.0266 13.8491 66.2072 13.7936 66.3511 13.6808C66.4088 13.626 66.4539 13.5592 66.4831 13.4851C66.5123 13.4109 66.5249 13.3314 66.5201 13.2519C66.5281 13.1773 66.5208 13.1019 66.4985 13.0304C66.4761 12.9588 66.4392 12.8926 66.3901 12.8359L66.3511 12.8229Z" fill="white"/>
<path d="M9.28058 13.1089C9.12847 12.9481 9.01069 12.758 8.9347 12.5501C8.85871 12.3422 8.826 12.121 8.83855 11.9C8.83074 11.5898 8.89764 11.2822 9.03354 11.0032C9.16535 10.7649 9.36428 10.5705 9.60551 10.4442C9.85295 10.3112 10.1304 10.244 10.4113 10.2492C10.692 10.2457 10.9691 10.3128 11.2172 10.4442C11.457 10.568 11.6522 10.7633 11.776 11.0032C11.9164 11.2811 11.9877 11.5887 11.984 11.9C11.9935 12.1207 11.9594 12.3411 11.8835 12.5486C11.8077 12.756 11.6917 12.9465 11.5421 13.1089C11.3912 13.2515 11.2135 13.3628 11.0195 13.4364C10.8254 13.5101 10.6188 13.5445 10.4113 13.5379C10.2036 13.5468 9.99616 13.5133 9.80177 13.4396C9.60738 13.3658 9.43015 13.2533 9.28058 13.1089ZM13.8815 10.3272H15.3112L11.269 16.2416H9.83937L13.8815 10.3272ZM10.6712 12.459C10.7571 12.286 10.7931 12.0924 10.7751 11.9C10.7928 11.7035 10.7569 11.5059 10.6712 11.3281C10.6464 11.2797 10.6092 11.2387 10.5636 11.209C10.518 11.1794 10.4656 11.1622 10.4113 11.1591C10.3554 11.1625 10.3011 11.1796 10.2535 11.2091C10.2058 11.2386 10.1662 11.2795 10.1383 11.3281C10.0609 11.5085 10.0254 11.704 10.0344 11.9C10.0231 12.092 10.0587 12.2839 10.1383 12.459C10.1642 12.5093 10.2033 12.5515 10.2514 12.5813C10.2995 12.6111 10.3548 12.6272 10.4113 12.628C10.4623 12.6315 10.5133 12.6213 10.559 12.5985C10.6048 12.5756 10.6435 12.5409 10.6712 12.498V12.459ZM13.6086 15.8906C13.4571 15.7294 13.3398 15.5392 13.2639 15.3314C13.1879 15.1236 13.155 14.9026 13.1668 14.6817C13.1567 14.3739 13.2284 14.0689 13.3746 13.7978C13.5009 13.5566 13.6953 13.3577 13.9336 13.2259C14.1828 13.099 14.4598 13.0364 14.7394 13.0439C15.0191 13.0347 15.2966 13.0974 15.5452 13.2259C15.787 13.3531 15.9826 13.5532 16.1042 13.7978C16.2504 14.0689 16.322 14.3739 16.312 14.6817C16.3269 14.9029 16.2953 15.1248 16.2192 15.333C16.1431 15.5412 16.0242 15.7312 15.8701 15.8906C15.7231 16.0393 15.5464 16.1554 15.3516 16.2316C15.1569 16.3077 14.9483 16.3421 14.7394 16.3325C14.5307 16.3397 14.3228 16.3042 14.1284 16.2282C13.934 16.1522 13.7571 16.0374 13.6086 15.8906ZM15.0123 15.2407C15.0934 15.0661 15.1293 14.8738 15.1164 14.6817C15.1276 14.4897 15.0919 14.2979 15.0123 14.1228C14.9853 14.0734 14.946 14.0319 14.8982 14.0022C14.8504 13.9726 14.7956 13.9559 14.7394 13.9538C14.6844 13.954 14.6306 13.9701 14.5845 14C14.5384 14.03 14.502 14.0726 14.4795 14.1228C14.3936 14.2958 14.3575 14.4894 14.3754 14.6817C14.3561 14.8741 14.3922 15.0681 14.4795 15.2407C14.5014 15.2923 14.5373 15.3368 14.5833 15.369C14.6292 15.4012 14.6833 15.4198 14.7394 15.4227C14.7966 15.418 14.8517 15.3988 14.8995 15.367C14.9472 15.3352 14.986 15.2917 15.0123 15.2407Z" fill="#231F20"/>
</svg>
