<svg width="91" height="45" viewBox="0 0 91 45" fill="none" xmlns="http://www.w3.org/2000/svg">
<g id="Best Choice">
<path id="Vector" d="M19.2336 22.2643V43.6734L12.357 35.414L5.48047 43.6734V22.2643" fill="#4D4AFD"/>
<path id="Vector_2" d="M19.6979 44.9683L12.3562 36.1431L5.00195 44.9683V22.2643H5.94481V42.366L12.3562 34.6723L18.755 42.366V22.2643H19.6979V44.9683Z" fill="#231F20"/>
<path id="Vector_3" d="M20.1497 6.18561H84.6409C85.9912 6.18561 87.2862 6.72202 88.2411 7.67685C89.1959 8.63167 89.7323 9.92669 89.7323 11.277V16.4439C89.7323 17.7942 89.1959 19.0892 88.2411 20.044C87.2862 20.9989 85.9912 21.5353 84.6409 21.5353H20.1497C19.7629 21.5353 19.392 21.3816 19.1185 21.1081C18.845 20.8347 18.6914 20.4637 18.6914 20.077V7.64389C18.6914 7.25713 18.845 6.88621 19.1185 6.61273C19.392 6.33925 19.7629 6.18561 20.1497 6.18561Z" fill="#4D4AFD"/>
<path id="Vector_4" d="M84.6674 22.0129H20.1637C19.6546 22.0096 19.1673 21.8059 18.8073 21.4459C18.4473 21.0859 18.2435 20.5986 18.2402 20.0895V7.64383C18.2435 7.13473 18.4473 6.64741 18.8073 6.28741C19.1673 5.92741 19.6546 5.72371 20.1637 5.72041H84.6674C85.3992 5.71875 86.1242 5.86167 86.8006 6.14096C87.477 6.42025 88.0917 6.83041 88.6091 7.34788C89.1266 7.86535 89.5368 8.47994 89.8161 9.15637C90.0954 9.83279 90.2382 10.5577 90.2366 11.2895V16.4438C90.2366 17.9208 89.6499 19.3374 88.6055 20.3818C87.561 21.4262 86.1444 22.0129 84.6674 22.0129ZM20.1637 6.66327C19.9036 6.66327 19.6542 6.76657 19.4703 6.95046C19.2864 7.13436 19.1831 7.38377 19.1831 7.64383V20.0895C19.1831 20.3496 19.2864 20.599 19.4703 20.7829C19.6542 20.9668 19.9036 21.0701 20.1637 21.0701H84.6674C85.8922 21.0667 87.0657 20.5779 87.9305 19.7106C88.7954 18.8434 89.2811 17.6686 89.2811 16.4438V11.2895C89.2811 10.0647 88.7954 8.88994 87.9305 8.0227C87.0657 7.15547 85.8922 6.66659 84.6674 6.66327H20.1637Z" fill="#231F20"/>
<path id="Vector_5" d="M13.7265 24.3512C13.5908 24.1048 13.3915 23.8994 13.1494 23.7563C12.9073 23.6132 12.6311 23.5377 12.3499 23.5377C12.0686 23.5377 11.7926 23.6132 11.5504 23.7563C11.3083 23.8994 11.109 24.1048 10.9733 24.3512C10.7987 24.6524 10.5296 24.8877 10.2077 25.0206C9.88589 25.1536 9.52925 25.1767 9.19291 25.0866C8.85657 24.9964 8.5593 24.7979 8.34712 24.5218C8.13493 24.2457 8.01959 23.9074 8.01902 23.5592C8.02495 23.2787 7.95572 23.0018 7.81845 22.7571C7.68118 22.5124 7.48092 22.3089 7.23845 22.1678C6.99598 22.0267 6.72016 21.9531 6.43962 21.9546C6.15907 21.9561 5.88404 22.0326 5.64309 22.1763C5.34319 22.3517 4.9936 22.4227 4.64906 22.3783C4.30451 22.3339 3.98445 22.1766 3.73881 21.9309C3.49317 21.6853 3.33581 21.3652 3.2914 21.0206C3.247 20.6761 3.31802 20.3265 3.49335 20.0266C3.62447 19.787 3.69083 19.5173 3.68595 19.2442C3.68106 18.9711 3.6051 18.704 3.4655 18.4692C3.3259 18.2345 3.12749 18.0401 2.88988 17.9054C2.65226 17.7706 2.38368 17.7002 2.11053 17.7009C1.76102 17.7061 1.41975 17.5945 1.14075 17.3839C0.861745 17.1733 0.660906 16.8757 0.570031 16.5382C0.479156 16.2007 0.503452 15.8425 0.639011 15.5203C0.77457 15.1981 1.01368 14.9303 1.31853 14.7592C1.56491 14.6236 1.77032 14.4243 1.91341 14.1821C2.05651 13.94 2.13202 13.6639 2.13202 13.3827C2.13202 13.1014 2.05651 12.8253 1.91341 12.5832C1.77032 12.341 1.56491 12.1417 1.31853 12.0061C1.00691 11.8383 0.761073 11.5702 0.620826 11.2452C0.48058 10.9203 0.454138 10.5575 0.545785 10.2156C0.637431 9.87378 0.841796 9.57287 1.12578 9.36165C1.40977 9.15042 1.75676 9.04126 2.11053 9.05182C2.40234 9.07025 2.69341 9.00625 2.95057 8.86711C3.20773 8.72797 3.42057 8.5193 3.56479 8.26495C3.70901 8.0106 3.77876 7.72083 3.76613 7.42871C3.75349 7.1366 3.65899 6.85392 3.49335 6.61297C3.30777 6.3119 3.22919 5.95702 3.2703 5.60574C3.31141 5.25446 3.46977 4.92731 3.71986 4.67723C3.96995 4.42714 4.29708 4.26873 4.64837 4.22762C4.99965 4.18651 5.35452 4.26511 5.6556 4.45069C5.89655 4.5944 6.17158 4.67097 6.45213 4.67247C6.73267 4.67397 7.00856 4.60034 7.25103 4.45922C7.49351 4.3181 7.69376 4.11464 7.83103 3.86996C7.96831 3.62529 8.03754 3.34833 8.03161 3.06784C8.02404 2.71519 8.1354 2.37024 8.34765 2.08852C8.55991 1.8068 8.86074 1.60468 9.20181 1.5147C9.54287 1.42472 9.9043 1.4521 10.2279 1.59245C10.5515 1.73279 10.8185 1.97792 10.9859 2.28841C11.1243 2.53147 11.3245 2.73356 11.5663 2.87414C11.8081 3.01471 12.0828 3.08876 12.3625 3.08876C12.6421 3.08876 12.9168 3.01471 13.1586 2.87414C13.4004 2.73356 13.6007 2.53147 13.7391 2.28841C13.9096 1.98457 14.1762 1.74603 14.4972 1.61029C14.8181 1.47456 15.175 1.44933 15.5118 1.53857C15.8486 1.62781 16.1462 1.82646 16.3578 2.10328C16.5694 2.38011 16.683 2.71942 16.6807 3.06784C16.6774 3.34868 16.749 3.62534 16.8878 3.86947C17.0267 4.1136 17.2279 4.31643 17.471 4.45715C17.714 4.59787 17.9902 4.67143 18.271 4.67029C18.5519 4.66916 18.8274 4.59337 19.0693 4.45069C19.3704 4.27124 19.7227 4.19758 20.0704 4.2414C20.4181 4.28523 20.7412 4.44403 20.9883 4.69257C21.2354 4.94111 21.3923 5.26511 21.4341 5.61307C21.4759 5.96103 21.4002 6.31299 21.219 6.61297C21.0753 6.85392 20.9987 7.12895 20.9972 7.40949C20.9957 7.69004 21.0693 7.96587 21.2105 8.20834C21.3516 8.45082 21.5551 8.65109 21.7997 8.78836C22.0444 8.92563 22.3214 8.99489 22.6019 8.98896C22.9556 8.9784 23.3026 9.08756 23.5866 9.29879C23.8706 9.51001 24.075 9.81092 24.1666 10.1528C24.2583 10.4946 24.2318 10.8574 24.0916 11.1824C23.9513 11.5073 23.7055 11.7754 23.3939 11.9432C23.1475 12.0789 22.942 12.2782 22.7989 12.5203C22.6558 12.7625 22.5803 13.0385 22.5803 13.3198C22.5803 13.6011 22.6558 13.8772 22.7989 14.1193C22.942 14.3614 23.1475 14.5607 23.3939 14.6964C23.6987 14.8674 23.9378 15.1352 24.0734 15.4574C24.209 15.7796 24.2332 16.1378 24.1423 16.4753C24.0514 16.8129 23.8507 17.1105 23.5717 17.3211C23.2927 17.5317 22.9514 17.6432 22.6019 17.6381C22.321 17.6348 22.0443 17.7063 21.8002 17.8451C21.5561 17.984 21.3533 18.1853 21.2125 18.4283C21.0718 18.6714 20.9982 18.9475 20.9994 19.2283C21.0005 19.5092 21.0763 19.7847 21.219 20.0266C21.3943 20.3265 21.4653 20.6761 21.4209 21.0206C21.3765 21.3652 21.2192 21.6853 20.9736 21.9309C20.728 22.1766 20.4078 22.3339 20.0633 22.3783C19.7187 22.4227 19.3692 22.3517 19.0693 22.1763C18.8274 22.0337 18.5519 21.9579 18.271 21.9567C17.9902 21.9556 17.714 22.0292 17.471 22.1699C17.2279 22.3106 17.0267 22.5134 16.8878 22.7576C16.749 23.0017 16.6774 23.2784 16.6807 23.5592C16.6913 23.913 16.5821 24.2599 16.3709 24.5439C16.1597 24.8279 15.8587 25.0323 15.5169 25.1239C15.175 25.2156 14.8123 25.1891 14.4873 25.0489C14.1624 24.9086 13.8943 24.6628 13.7265 24.3512Z" fill="#FD6A4A"/>
<path id="Vector_6" d="M15.085 25.6335C14.7217 25.634 14.3651 25.536 14.053 25.3501C13.7409 25.1642 13.485 24.8972 13.3124 24.5775C13.211 24.4138 13.0694 24.2787 12.9011 24.185C12.7328 24.0913 12.5433 24.0421 12.3507 24.0421C12.1581 24.0421 11.9687 24.0913 11.8004 24.185C11.6321 24.2787 11.4905 24.4138 11.3891 24.5775C11.1698 24.9802 10.8202 25.2966 10.3977 25.4747C9.97519 25.6529 9.50471 25.6823 9.0633 25.5581C8.62075 25.4441 8.23022 25.1827 7.95602 24.8171C7.68181 24.4515 7.54027 24.0034 7.55472 23.5467C7.5578 23.3505 7.50809 23.1572 7.41078 22.9869C7.31346 22.8166 7.17211 22.6756 7.00158 22.5787C6.83149 22.4805 6.63854 22.4288 6.44214 22.4288C6.24574 22.4288 6.05287 22.4805 5.88278 22.5787C5.49186 22.8218 5.02972 22.9244 4.57262 22.8696C4.11553 22.8147 3.6908 22.6057 3.36851 22.277C3.04178 21.9535 2.83408 21.5289 2.7793 21.0724C2.72452 20.6159 2.82582 20.1543 3.06673 19.7627C3.16618 19.593 3.21865 19.3999 3.21865 19.2032C3.21865 19.0066 3.16618 18.8135 3.06673 18.6438C2.97527 18.4667 2.83327 18.3207 2.65868 18.2245C2.48409 18.1282 2.28482 18.086 2.0862 18.1033C1.62827 18.1147 1.18 17.9705 0.814637 17.6942C0.449277 17.4179 0.188473 17.0259 0.0748098 16.5821C-0.0439216 16.1424 -0.0118642 15.6756 0.165888 15.2563C0.34364 14.837 0.656788 14.4894 1.05534 14.269C1.23055 14.1754 1.37693 14.0358 1.47881 13.8653C1.58069 13.6947 1.63426 13.4996 1.63365 13.301C1.63426 13.1023 1.58069 12.9073 1.47881 12.7367C1.37693 12.5662 1.23055 12.4266 1.05534 12.333C0.65362 12.116 0.337724 11.7687 0.159519 11.3484C-0.0186851 10.928 -0.0485527 10.4595 0.0748098 10.0199C0.186746 9.57615 0.447475 9.18428 0.813563 8.90971C1.17965 8.63514 1.6289 8.49451 2.0862 8.51129C2.28518 8.52097 2.48279 8.47416 2.6563 8.37629C2.82981 8.27841 2.9721 8.13345 3.06673 7.95815C3.16493 7.78806 3.21666 7.59512 3.21666 7.39872C3.21666 7.20232 3.16493 7.00938 3.06673 6.83929C2.82582 6.44768 2.72452 5.98606 2.7793 5.52956C2.83408 5.07305 3.04178 4.64852 3.36851 4.32502C3.69201 3.9983 4.1165 3.79065 4.57301 3.73587C5.02952 3.68109 5.49117 3.7824 5.88278 4.02331C6.05154 4.12535 6.24493 4.17929 6.44214 4.17929C6.63935 4.17929 6.83282 4.12535 7.00158 4.02331C7.17211 3.92638 7.31346 3.78538 7.41078 3.61508C7.50809 3.44477 7.5578 3.25143 7.55472 3.05531C7.54027 2.59853 7.68181 2.15045 7.95602 1.78484C8.23022 1.41924 8.62075 1.15791 9.0633 1.04389C9.50471 0.919714 9.97519 0.949109 10.3977 1.12725C10.8202 1.3054 11.1698 1.62173 11.3891 2.02445C11.4905 2.18818 11.6321 2.3233 11.8004 2.41699C11.9687 2.51069 12.1581 2.55986 12.3507 2.55986C12.5433 2.55986 12.7328 2.51069 12.9011 2.41699C13.0694 2.3233 13.211 2.18818 13.3124 2.02445C13.5295 1.62273 13.8767 1.30681 14.2971 1.12861C14.7175 0.950401 15.186 0.920523 15.6256 1.04389C16.0694 1.15755 16.4614 1.41837 16.7377 1.78373C17.014 2.14909 17.1582 2.59738 17.1467 3.05531C17.141 3.25043 17.1883 3.44345 17.2835 3.61388C17.3787 3.78431 17.5182 3.92579 17.6873 4.02331C17.856 4.12535 18.0495 4.17929 18.2467 4.17929C18.4439 4.17929 18.6374 4.12535 18.8061 4.02331C19.1977 3.7824 19.6594 3.68109 20.1159 3.73587C20.5724 3.79065 20.9969 3.9983 21.3204 4.32502C21.6511 4.64576 21.8625 5.06974 21.9197 5.52689C21.9768 5.98404 21.8763 6.44701 21.6347 6.83929C21.5326 7.00805 21.4787 7.20151 21.4787 7.39872C21.4787 7.59593 21.5326 7.78939 21.6347 7.95815C21.7272 8.13245 21.8673 8.27693 22.0386 8.37484C22.2099 8.47274 22.4056 8.52006 22.6027 8.51129C23.06 8.49451 23.5092 8.63514 23.8753 8.90971C24.2414 9.18428 24.5022 9.57615 24.6141 10.0199C24.7398 10.4594 24.7111 10.9288 24.5327 11.3497C24.3542 11.7707 24.0369 12.1177 23.6336 12.333C23.4616 12.4293 23.3185 12.5698 23.219 12.74C23.1195 12.9102 23.0673 13.1039 23.0678 13.301C23.0673 13.4981 23.1195 13.6918 23.219 13.862C23.3185 14.0321 23.4616 14.1727 23.6336 14.269C24.0353 14.486 24.3512 14.8332 24.5294 15.2536C24.7076 15.674 24.7375 16.1425 24.6141 16.5821C24.5004 17.0259 24.2396 17.4179 23.8743 17.6942C23.5089 17.9705 23.0606 18.1147 22.6027 18.1033C22.4059 18.0869 22.2086 18.1296 22.0362 18.2259C21.8638 18.3222 21.724 18.4677 21.6347 18.6438C21.5326 18.8126 21.4787 19.006 21.4787 19.2032C21.4787 19.4005 21.5326 19.5939 21.6347 19.7627C21.8763 20.155 21.9768 20.6179 21.9197 21.0751C21.8625 21.5322 21.6511 21.9562 21.3204 22.277C20.9993 22.6077 20.5744 22.8182 20.1167 22.8731C19.659 22.9281 19.1963 22.8241 18.8061 22.5787C18.636 22.4805 18.4431 22.4288 18.2467 22.4288C18.0503 22.4288 17.8573 22.4805 17.6873 22.5787C17.5182 22.6762 17.3787 22.8177 17.2835 22.9881C17.1883 23.1585 17.141 23.3515 17.1467 23.5467C17.1582 24.0046 17.014 24.4529 16.7377 24.8182C16.4614 25.1836 16.0694 25.4444 15.6256 25.5581C15.4497 25.6078 15.2678 25.6332 15.085 25.6335ZM14.1296 24.1124C14.2448 24.333 14.4334 24.5065 14.663 24.6029C14.8925 24.6993 15.1485 24.7126 15.3867 24.6404C15.6294 24.5869 15.8449 24.4487 15.9947 24.2505C16.1445 24.0523 16.2186 23.8072 16.2038 23.5592C16.1937 23.1953 16.2833 22.8354 16.4627 22.5186C16.6422 22.2018 16.9047 21.94 17.2221 21.7615C17.5352 21.5731 17.8938 21.4735 18.2593 21.4735C18.6247 21.4735 18.9833 21.5731 19.2964 21.7615C19.505 21.894 19.753 21.9501 19.9982 21.9203C20.2434 21.8905 20.4708 21.7766 20.6416 21.5981C20.8223 21.4287 20.9376 21.2011 20.9674 20.9552C20.9973 20.7093 20.9399 20.4607 20.805 20.253C20.6166 19.9398 20.517 19.5813 20.517 19.2158C20.517 18.8504 20.6166 18.4918 20.805 18.1787C20.9825 17.866 21.2405 17.6067 21.5523 17.4276C21.864 17.2485 22.218 17.1562 22.5775 17.1604C22.8218 17.1649 23.0603 17.0866 23.2544 16.9383C23.4484 16.7899 23.5865 16.5801 23.6462 16.3433C23.7149 16.1035 23.6986 15.8474 23.6 15.6183C23.5015 15.3892 23.3268 15.2012 23.1055 15.0861C22.7863 14.9109 22.5207 14.6523 22.3369 14.3379C22.1532 14.0235 22.0582 13.6651 22.0621 13.301C22.0582 12.9368 22.1532 12.5785 22.3369 12.2641C22.5207 11.9497 22.7863 11.6911 23.1055 11.5159C23.3285 11.4027 23.5047 11.2149 23.6035 10.9852C23.7023 10.7555 23.7174 10.4984 23.6462 10.2587C23.5886 10.0207 23.451 9.80964 23.2565 9.66089C23.062 9.51214 22.8223 9.43472 22.5775 9.44157C22.2171 9.44317 21.8627 9.34845 21.5511 9.16722C21.2394 8.98599 20.9819 8.72483 20.805 8.41072C20.6166 8.09759 20.517 7.73904 20.517 7.37358C20.517 7.00812 20.6166 6.64957 20.805 6.33644C20.9399 6.12866 20.9973 5.88009 20.9674 5.6342C20.9376 5.38831 20.8223 5.16074 20.6416 4.9913C20.4708 4.81276 20.2434 4.69891 19.9982 4.66911C19.753 4.63932 19.505 4.69542 19.2964 4.82788C18.9833 5.01631 18.6247 5.11588 18.2593 5.11588C17.8938 5.11588 17.5352 5.01631 17.2221 4.82788C16.9047 4.64939 16.6422 4.3876 16.4627 4.07078C16.2833 3.75396 16.1937 3.39414 16.2038 3.03017C16.2186 2.78219 16.1445 2.53706 15.9947 2.33888C15.8449 2.1407 15.6294 2.00246 15.3867 1.94903C15.1485 1.87682 14.8925 1.89005 14.663 1.98645C14.4334 2.08285 14.2448 2.25636 14.1296 2.47702C13.9544 2.79625 13.6957 3.06192 13.3813 3.24568C13.0669 3.42945 12.7086 3.52441 12.3444 3.52045C11.9803 3.52441 11.622 3.42945 11.3076 3.24568C10.9932 3.06192 10.7345 2.79625 10.5593 2.47702C10.4479 2.25286 10.2597 2.0762 10.0289 1.97928C9.79817 1.88235 9.5402 1.87162 9.30216 1.94903C9.05956 2.00246 8.84395 2.1407 8.69416 2.33888C8.54437 2.53706 8.4702 2.78219 8.48499 3.03017C8.49236 3.39365 8.40176 3.7524 8.22258 4.06873C8.0434 4.38506 7.78225 4.6473 7.46671 4.82788C7.15121 5.0161 6.79073 5.11548 6.42334 5.11548C6.05596 5.11548 5.6954 5.0161 5.3799 4.82788C5.17135 4.69542 4.92338 4.63932 4.67813 4.66911C4.43288 4.69891 4.20551 4.81276 4.03475 4.9913C3.85621 5.16206 3.74236 5.3894 3.71256 5.63465C3.68277 5.8799 3.73886 6.12789 3.87132 6.33644C4.05587 6.65092 4.15314 7.00895 4.15314 7.37358C4.15314 7.73821 4.05587 8.09624 3.87132 8.41072C3.69343 8.72396 3.43567 8.98441 3.12428 9.16551C2.81288 9.3466 2.45901 9.44186 2.09878 9.44157C1.85558 9.43528 1.61766 9.51316 1.42525 9.66205C1.23284 9.81094 1.0977 10.0217 1.04275 10.2587C0.967992 10.4969 0.980013 10.7538 1.07667 10.9839C1.17332 11.2141 1.34834 11.4025 1.57073 11.5159C1.8914 11.6905 2.15887 11.9486 2.34478 12.2629C2.53069 12.5771 2.62814 12.9358 2.62676 13.301C2.62814 13.6661 2.53069 14.0248 2.34478 14.3391C2.15887 14.6534 1.8914 14.9115 1.57073 15.0861C1.35007 15.2014 1.1766 15.39 1.0802 15.6195C0.983801 15.8491 0.970548 16.105 1.04275 16.3433C1.09982 16.5791 1.23547 16.7886 1.4274 16.9371C1.61933 17.0856 1.85614 17.1644 2.09878 17.1604C2.45803 17.1575 2.81154 17.2504 3.12305 17.4293C3.43456 17.6083 3.69282 17.8669 3.87132 18.1787C4.05587 18.4932 4.15314 18.8512 4.15314 19.2158C4.15314 19.5805 4.05587 19.9385 3.87132 20.253C3.73886 20.4615 3.68277 20.7095 3.71256 20.9547C3.74236 21.2 3.85621 21.4273 4.03475 21.5981C4.20756 21.7776 4.43709 21.892 4.6845 21.9217C4.9319 21.9515 5.182 21.8949 5.39248 21.7615C5.70561 21.5731 6.06418 21.4735 6.42964 21.4735C6.79509 21.4735 7.15358 21.5731 7.46671 21.7615C7.78225 21.9421 8.0434 22.2043 8.22258 22.5207C8.40176 22.837 8.49236 23.1958 8.48499 23.5592C8.4702 23.8072 8.54437 24.0523 8.69416 24.2505C8.84395 24.4487 9.05956 24.5869 9.30216 24.6404C9.5402 24.7178 9.79817 24.707 10.0289 24.6101C10.2597 24.5132 10.4479 24.3365 10.5593 24.1124C10.7345 23.7931 10.9932 23.5275 11.3076 23.3437C11.622 23.16 11.9803 23.065 12.3444 23.0689C12.7086 23.065 13.0669 23.16 13.3813 23.3437C13.6957 23.5275 13.9544 23.7931 14.1296 24.1124Z" fill="#231F20"/>
<path id="Vector_7" d="M12.3565 20.4416C16.2932 20.4416 19.4845 17.2503 19.4845 13.3136C19.4845 9.37691 16.2932 6.18561 12.3565 6.18561C8.41982 6.18561 5.22852 9.37691 5.22852 13.3136C5.22852 17.2503 8.41982 20.4416 12.3565 20.4416Z" fill="white"/>
<path id="Vector_8" d="M12.2948 20.9067C10.2943 20.9067 8.37578 20.112 6.96123 18.6975C5.54667 17.2829 4.75195 15.3644 4.75195 13.3639C4.75195 11.3634 5.54667 9.44484 6.96123 8.03028C8.37578 6.61573 10.2943 5.82104 12.2948 5.82104C14.2953 5.82104 16.2138 6.61573 17.6283 8.03028C19.0429 9.44484 19.8376 11.3634 19.8376 13.3639C19.8376 15.3644 19.0429 17.2829 17.6283 18.6975C16.2138 20.112 14.2953 20.9067 12.2948 20.9067ZM12.2948 6.66333C11.4215 6.66333 10.5567 6.83534 9.74981 7.16955C8.94297 7.50376 8.20986 7.9936 7.59233 8.61114C6.9748 9.22867 6.48494 9.96179 6.15073 10.7686C5.81653 11.5755 5.64455 12.4403 5.64455 13.3136C5.64455 15.0773 6.34516 16.7689 7.59233 18.016C8.8395 19.2632 10.531 19.9639 12.2948 19.9639C14.0585 19.9639 15.7501 19.2632 16.9972 18.016C18.2444 16.7689 18.945 15.0773 18.945 13.3136C18.945 11.5498 18.2444 9.8583 16.9972 8.61114C15.7501 7.36397 14.0585 6.66333 12.2948 6.66333Z" fill="#231F20"/>
<path id="Vector_9" d="M14.8202 16.821L12.3562 15.5261L9.89223 16.821L10.3574 14.0804L8.37109 12.1318L11.1242 11.7296L12.3562 9.24042L13.5882 11.7296L16.3414 12.1318L14.3425 14.0804L14.8202 16.821Z" fill="#231F20"/>
<path id="Vector_10" d="M34.9211 14.2061C35.0728 14.4233 35.152 14.6829 35.1474 14.9478C35.1556 15.1391 35.1135 15.3291 35.0252 15.499C34.937 15.6689 34.8058 15.8126 34.6446 15.9158C34.2021 16.1813 33.6885 16.3042 33.1737 16.2678H30.584V11.4153H33.0983C33.5907 11.3879 34.0804 11.5059 34.5062 11.7547C34.6571 11.8547 34.78 11.9914 34.8636 12.1519C34.9471 12.3124 34.9886 12.4915 34.984 12.6724C34.9838 12.8901 34.9228 13.1035 34.808 13.2884C34.6946 13.4704 34.5338 13.6182 34.3428 13.7158C34.5779 13.8216 34.7783 13.9915 34.9211 14.2061ZM31.9291 12.4461V13.3764H32.8594C33.3245 13.3764 33.5508 13.213 33.5508 12.8987C33.5508 12.5844 33.3245 12.4461 32.8594 12.4461H31.9291ZM33.7772 14.797C33.7772 14.4701 33.5383 14.3067 33.0732 14.3067H31.9291V15.2873H33.0732C33.4755 15.2873 33.664 15.1867 33.664 14.797H33.7772Z" fill="white"/>
<path id="Vector_11" d="M39.8262 15.1866V16.2426H35.9668V11.4152H39.7382V12.4586H37.3119V13.2758H39.449V14.2815H37.3119V15.1615L39.8262 15.1866Z" fill="white"/>
<path id="Vector_12" d="M41.3086 16.2175C40.9906 16.1407 40.6885 16.0088 40.416 15.8278L40.856 14.8347C41.0904 14.9824 41.3443 15.0966 41.6103 15.1741C41.8787 15.2588 42.1586 15.3012 42.44 15.2998C42.968 15.2998 43.2194 15.1741 43.2194 14.9101C43.2202 14.8437 43.2 14.7787 43.1616 14.7245C43.1232 14.6703 43.0687 14.6297 43.0057 14.6084C42.7729 14.5184 42.5333 14.447 42.2891 14.3947C41.9802 14.3393 41.6772 14.2551 41.384 14.1433C41.1401 14.0594 40.9231 13.9118 40.7555 13.7158C40.5686 13.4958 40.474 13.212 40.4914 12.9238C40.4937 12.6424 40.5766 12.3676 40.7303 12.1318C40.9081 11.8796 41.1578 11.6868 41.4469 11.5787C41.8184 11.43 42.2159 11.3573 42.616 11.365C42.9337 11.3653 43.2501 11.4033 43.5589 11.4781C43.8399 11.5403 44.1108 11.6419 44.3634 11.7798L43.9486 12.7981C43.5431 12.5624 43.0848 12.4327 42.616 12.421C42.4109 12.403 42.2052 12.4467 42.0252 12.5467C41.967 12.5755 41.9182 12.6205 41.8848 12.6762C41.8513 12.7319 41.8346 12.796 41.8366 12.861C41.8366 12.9867 41.912 13.0747 42.0629 13.1501C42.2903 13.2373 42.5263 13.3005 42.7669 13.3387C43.0729 13.4061 43.3751 13.49 43.672 13.5901C43.912 13.6816 44.1273 13.828 44.3006 14.0176C44.4841 14.2395 44.5782 14.5219 44.5646 14.8095C44.5643 15.0873 44.4811 15.3587 44.3257 15.589C44.1431 15.8447 43.8897 16.0413 43.5966 16.1547C43.2289 16.3001 42.8352 16.3686 42.44 16.3558C42.0583 16.3611 41.6778 16.3145 41.3086 16.2175Z" fill="white"/>
<path id="Vector_13" d="M46.3126 12.5466H44.8418V11.4152H49.1412V12.4964H47.6704V16.2678H46.3126V12.5466Z" fill="white"/>
<path id="Vector_14" d="M53.0254 16.0415C52.6319 15.8407 52.3046 15.5309 52.0825 15.149C51.8565 14.7682 51.7351 14.3346 51.7305 13.8918C51.7351 13.4491 51.8565 13.0154 52.0825 12.6347C52.3091 12.2596 52.6356 11.9549 53.0254 11.7547C53.4433 11.5335 53.9102 11.4211 54.383 11.4278C54.7896 11.4208 55.1928 11.5023 55.5647 11.6667C55.9075 11.8145 56.2095 12.0431 56.4447 12.333L55.5773 13.1124C55.442 12.9415 55.2702 12.8031 55.0744 12.7074C54.8786 12.6117 54.6639 12.5611 54.4459 12.5593C54.2051 12.552 53.9665 12.6084 53.7544 12.7227C53.5479 12.8322 53.3808 13.0037 53.2767 13.213C53.1609 13.4336 53.1046 13.6805 53.1133 13.9296C53.1079 14.1782 53.164 14.4244 53.2767 14.6461C53.3855 14.8489 53.5517 15.0151 53.7544 15.1238C53.9656 15.242 54.204 15.3026 54.4459 15.2998C54.6652 15.2984 54.8813 15.2466 55.0774 15.1486C55.2736 15.0505 55.4446 14.9087 55.5773 14.7341L56.4447 15.5135C56.2102 15.8073 55.9084 16.0401 55.5647 16.1924C55.1901 16.3467 54.7881 16.4237 54.383 16.4187C53.9058 16.4101 53.4387 16.2803 53.0254 16.0415Z" fill="white"/>
<path id="Vector_15" d="M61.7869 11.4152V16.2175H60.4293V14.3444H58.5687V16.2175H57.2109V11.4152H58.5687V13.2129H60.4293V11.4152H61.7869Z" fill="white"/>
<path id="Vector_16" d="M63.963 16.0416C63.5723 15.8368 63.246 15.5279 63.0201 15.149C62.7858 14.7719 62.6637 14.3359 62.6681 13.8919C62.6637 13.4479 62.7858 13.0119 63.0201 12.6348C63.246 12.2559 63.5723 11.9469 63.963 11.7422C64.3865 11.5239 64.8567 11.4117 65.3332 11.4153C65.81 11.4086 66.2811 11.5209 66.7036 11.7422C67.0952 11.9502 67.4249 12.2582 67.659 12.6348C67.884 13.0153 68.0014 13.4498 67.9985 13.8919C68.0014 14.334 67.884 14.7685 67.659 15.149C67.4249 15.5256 67.0952 15.8335 66.7036 16.0416C66.28 16.2585 65.809 16.3665 65.3332 16.3559C64.8577 16.3639 64.3874 16.256 63.963 16.0416ZM65.9995 15.061C66.1947 14.9466 66.3554 14.7815 66.4647 14.5833C66.5774 14.3616 66.6335 14.1154 66.6281 13.8667C66.6368 13.6177 66.5805 13.3708 66.4647 13.1502C66.3573 12.9474 66.1964 12.7778 65.9995 12.6599C65.7953 12.5487 65.5657 12.4924 65.3332 12.4965C65.1045 12.4904 64.8786 12.5469 64.6796 12.6599C64.4797 12.774 64.3179 12.9445 64.2145 13.1502C64.0948 13.3698 64.0342 13.6167 64.0385 13.8667C64.0369 14.1165 64.0974 14.3627 64.2145 14.5833C64.3237 14.7815 64.4844 14.9466 64.6796 15.061C64.8773 15.1784 65.1033 15.2392 65.3332 15.237C65.5667 15.2366 65.7963 15.176 65.9995 15.061Z" fill="white"/>
<path id="Vector_17" d="M68.8652 11.4152H70.2229V16.2175H68.8652V11.4152Z" fill="white"/>
<path id="Vector_18" d="M72.4228 16.0416C72.0294 15.8407 71.702 15.5309 71.48 15.149C71.255 14.7685 71.1378 14.3339 71.1407 13.8919C71.1415 13.4503 71.2584 13.0167 71.48 12.6347C71.7066 12.2597 72.033 11.955 72.4228 11.7547C72.8413 11.535 73.308 11.4227 73.7806 11.4279C74.1873 11.4192 74.5909 11.5008 74.9623 11.6667C75.3051 11.8145 75.6071 12.0432 75.8424 12.333L74.9749 13.1124C74.8396 12.9415 74.6678 12.8031 74.472 12.7074C74.2762 12.6117 74.0613 12.5611 73.8434 12.5593C73.6026 12.552 73.3642 12.6084 73.1521 12.7227C72.9505 12.8388 72.7852 13.0085 72.6743 13.213C72.5585 13.4336 72.5022 13.6806 72.5109 13.9296C72.5055 14.1783 72.5616 14.4244 72.6743 14.6461C72.787 14.846 72.9522 15.0112 73.1521 15.1239C73.3632 15.242 73.6015 15.3027 73.8434 15.2998C74.0627 15.2984 74.2787 15.2467 74.4749 15.1486C74.671 15.0505 74.8421 14.9087 74.9749 14.7341L75.8424 15.5136C75.6079 15.8073 75.3059 16.0402 74.9623 16.1924C74.5881 16.3481 74.1859 16.4251 73.7806 16.4187C73.3036 16.409 72.8365 16.2793 72.4228 16.0416Z" fill="white"/>
<path id="Vector_19" d="M80.4679 15.1866V16.2426H76.6211V11.4152H80.3925V12.4586H77.9662V13.2758H80.1032V14.2815H77.9662V15.1615L80.4679 15.1866Z" fill="white"/>
</g>
</svg>
