<svg width="19" height="20" viewBox="0 0 19 20" fill="none" xmlns="http://www.w3.org/2000/svg">
<path d="M9.41993 3.25391C5.83952 3.25391 2.93604 6.15739 2.93604 9.74597C2.93604 11.32 3.49879 12.7636 4.43671 13.8891C5.03209 12.1601 6.50014 10.8307 8.31889 10.4392C8.66959 10.3658 9.04476 10.325 9.41993 10.325C9.7951 10.325 10.154 10.3658 10.5047 10.4392C12.3316 10.8225 13.8159 12.1519 14.4032 13.8973C15.3492 12.7718 15.912 11.3282 15.912 9.74597C15.912 6.15739 13.0003 3.25391 9.41993 3.25391ZM9.41178 9.80306C7.94372 9.80306 6.74481 8.60415 6.74481 7.1361C6.74481 5.66804 7.94372 4.46913 9.41178 4.46913C10.8798 4.46913 12.0787 5.66804 12.0787 7.1361C12.0787 8.60415 10.8798 9.80306 9.41178 9.80306Z" fill="#231F20"/>
<path d="M13.9876 15.5939V16.0017C13.8163 16.1241 13.645 16.2464 13.4656 16.3524C13.2943 16.4584 13.1231 16.5563 12.9436 16.646V15.5939C12.9436 15.4634 12.9355 15.3329 12.9192 15.2024C12.7234 13.4489 11.2309 12.0788 9.4203 12.0788C7.6097 12.0788 6.12534 13.4489 5.9296 15.2024C5.91329 15.3329 5.90513 15.4634 5.90513 15.5939V16.646C5.7257 16.5563 5.54627 16.4584 5.375 16.3524C5.19557 16.2464 5.0243 16.1241 4.85303 16.0017V15.5939C4.85303 15.2106 4.90196 14.8354 4.99168 14.4766C5.48918 12.4947 7.28347 11.0267 9.4203 11.0267C11.5571 11.0267 13.3596 12.5029 13.8489 14.4847C13.9386 14.8354 13.9876 15.2106 13.9876 15.5939Z" fill="#231F20"/>
<path d="M9.42 0.326096C4.22473 0.326096 0 4.55082 0 9.7461C0 12.984 1.64748 15.8548 4.15132 17.5431C4.37969 17.698 4.60805 17.8448 4.85273 17.9753C5.024 18.0732 5.19527 18.1629 5.3747 18.2526C5.54597 18.3342 5.7254 18.4076 5.90483 18.481C6.03532 18.5381 6.17397 18.587 6.31262 18.636C7.28317 18.9785 8.32712 19.1661 9.42 19.1661C10.5129 19.1661 11.5568 18.9785 12.5274 18.636C12.6742 18.587 12.8047 18.5381 12.9433 18.481C13.1228 18.4076 13.294 18.3342 13.4653 18.2526C13.6447 18.1629 13.816 18.0732 13.9873 17.9753C14.2319 17.8448 14.4603 17.698 14.6887 17.5431C17.1925 15.8548 18.84 12.984 18.84 9.7461C18.84 4.55082 14.6153 0.326096 9.42 0.326096ZM14.6887 16.0179C14.4603 16.2055 14.2319 16.3768 13.9873 16.5481C13.816 16.6623 13.6447 16.7683 13.4653 16.8661C13.294 16.964 13.1228 17.0619 12.9433 17.1434C12.715 17.2495 12.4784 17.3555 12.2419 17.4452C11.3611 17.7633 10.415 17.9427 9.42 17.9427C8.42499 17.9427 7.47891 17.7633 6.59808 17.4452C6.36156 17.3555 6.13319 17.2576 5.90483 17.1516C5.7254 17.0619 5.54597 16.9722 5.3747 16.8661C5.19527 16.7683 5.024 16.6623 4.85273 16.5481C4.60805 16.3768 4.37969 16.2055 4.15132 16.0179C2.36519 14.5173 1.22338 12.2581 1.22338 9.7461C1.22338 5.2196 4.90166 1.54947 9.42 1.54947C13.9383 1.54947 17.6166 5.2196 17.6166 9.7461C17.6166 12.2581 16.4748 14.5173 14.6887 16.0179Z" fill="#231F20"/>
</svg>
