<svg width="12" height="13" viewBox="0 0 12 13" fill="none" xmlns="http://www.w3.org/2000/svg">
<g id="icons / add-circle">
<path id="Vector" d="M6 1.62506C3.31195 1.62506 1.125 3.81201 1.125 6.50006C1.125 9.18811 3.31195 11.3751 6 11.3751C8.68805 11.3751 10.875 9.18811 10.875 6.50006C10.875 3.81201 8.68805 1.62506 6 1.62506ZM7.875 6.87506H6.375V8.37506C6.375 8.47452 6.33549 8.5699 6.26517 8.64023C6.19484 8.71055 6.09946 8.75006 6 8.75006C5.90054 8.75006 5.80516 8.71055 5.73484 8.64023C5.66451 8.5699 5.625 8.47452 5.625 8.37506V6.87506H4.125C4.02554 6.87506 3.93016 6.83555 3.85984 6.76523C3.78951 6.6949 3.75 6.59952 3.75 6.50006C3.75 6.4006 3.78951 6.30522 3.85984 6.2349C3.93016 6.16457 4.02554 6.12506 4.125 6.12506H5.625V4.62506C5.625 4.5256 5.66451 4.43022 5.73484 4.3599C5.80516 4.28957 5.90054 4.25006 6 4.25006C6.09946 4.25006 6.19484 4.28957 6.26517 4.3599C6.33549 4.43022 6.375 4.5256 6.375 4.62506V6.12506H7.875C7.97446 6.12506 8.06984 6.16457 8.14017 6.2349C8.21049 6.30522 8.25 6.4006 8.25 6.50006C8.25 6.59952 8.21049 6.6949 8.14017 6.76523C8.06984 6.83555 7.97446 6.87506 7.875 6.87506Z" fill="#242424"/>
</g>
</svg>
