<svg width="20" height="21" viewBox="0 0 20 21" fill="none" xmlns="http://www.w3.org/2000/svg">
<path d="M10 0.173828C8.02219 0.173828 6.08879 0.760317 4.4443 1.85913C2.79981 2.95794 1.51809 4.51974 0.761211 6.347C0.00433498 8.17426 -0.193701 10.1849 0.192151 12.1247C0.578003 14.0645 1.53041 15.8464 2.92894 17.2449C4.32746 18.6434 6.10929 19.5958 8.0491 19.9817C9.98891 20.3675 11.9996 20.1695 13.8268 19.4126C15.6541 18.6557 17.2159 17.374 18.3147 15.7295C19.4135 14.085 20 12.1516 20 10.1738C19.9977 7.52237 18.9434 4.98016 17.0685 3.10529C15.1937 1.23043 12.6515 0.176121 10 0.173828ZM10 18.8751C8.28761 18.8751 6.61367 18.3673 5.18987 17.416C3.76607 16.4646 2.65635 15.1124 2.00105 13.5304C1.34574 11.9483 1.17429 10.2075 1.50836 8.52802C1.84243 6.84854 2.66702 5.30583 3.87787 4.09499C5.08871 2.88414 6.63142 2.05955 8.31091 1.72547C9.99039 1.3914 11.7312 1.56286 13.3133 2.21816C14.8953 2.87347 16.2475 3.98319 17.1989 5.40699C18.1502 6.83079 18.658 8.50473 18.658 10.2171C18.6444 12.5092 17.7278 14.7034 16.1071 16.3242C14.4863 17.9449 12.292 18.8615 10 18.8751Z" fill="#231F20"/>
<path d="M12.0957 10.1738C12.0957 10.5882 11.9729 10.9933 11.7426 11.3379C11.5124 11.6825 11.1852 11.951 10.8023 12.1096C10.4195 12.2682 9.99818 12.3097 9.59175 12.2288C9.18531 12.148 8.81198 11.9484 8.51895 11.6554C8.22593 11.3624 8.02638 10.989 7.94553 10.5826C7.86469 10.1762 7.90618 9.75489 8.06476 9.37204C8.22335 8.98918 8.4919 8.66195 8.83646 8.43173C9.18102 8.2015 9.58611 8.07861 10.0005 8.07861C10.5562 8.07861 11.0891 8.29936 11.4821 8.69229C11.875 9.08523 12.0957 9.61816 12.0957 10.1738Z" fill="#231F20"/>
<path d="M14.3895 10.1741C14.3984 10.0675 14.3984 9.9603 14.3895 9.85371L15.6276 9.57665L15.4977 8.80609L14.2423 8.97059C14.1841 8.76273 14.1088 8.56003 14.0172 8.36454L15.0822 7.68921L14.6925 7.01388L13.5583 7.57665C13.4392 7.39937 13.2997 7.23665 13.1428 7.09181L13.9133 6.08748L13.3159 5.57666L12.4501 6.51172C12.2774 6.3926 12.095 6.28834 11.9047 6.20003L12.2856 4.98791L11.5497 4.72817L11.0735 5.88835C10.8659 5.83691 10.6546 5.80216 10.4415 5.78445L10.3809 4.51172H9.6103L9.55834 5.84505C9.34515 5.86208 9.13374 5.89684 8.92631 5.94895L8.44146 4.78877L7.71419 5.04852L8.09514 6.26064C7.90305 6.35081 7.71785 6.45498 7.54103 6.57232L6.67523 5.64592L6.07783 6.14808L6.84839 7.15241C6.69898 7.30195 6.56282 7.46418 6.44146 7.63726L5.31592 7.05717L4.92631 7.72384L5.9999 8.40782C5.90839 8.60035 5.8331 8.80018 5.7748 9.00523L4.51938 8.84072L4.38086 9.61128L5.62761 9.88834C5.61873 9.99494 5.61873 10.1021 5.62761 10.2087C5.61897 10.3124 5.61897 10.4167 5.62761 10.5204L4.38086 10.7974L4.51938 11.5593L5.7748 11.3948C5.83165 11.6032 5.90698 11.806 5.9999 12.0009L4.92631 12.6849L5.31592 13.3515L6.44146 12.7715C6.56495 12.9456 6.70095 13.1106 6.84839 13.265L6.07783 14.2606L6.67523 14.7628L7.54103 13.8364C7.71785 13.9537 7.90305 14.0579 8.09514 14.1481L7.71419 15.3602L8.44146 15.6286L8.92631 14.4598C9.10848 14.5048 9.29367 14.5366 9.48042 14.555L9.74882 13.3429H9.49774H9.4025C9.07778 13.2801 8.76508 13.1661 8.47609 13.0052L8.38951 12.9533C8.09973 12.7828 7.8419 12.563 7.62761 12.3039C7.60052 12.2879 7.57928 12.2636 7.56701 12.2347C7.3463 11.9789 7.17327 11.6857 7.05618 11.3689C7.05261 11.3372 7.05261 11.3053 7.05618 11.2736C6.94965 10.958 6.89128 10.6282 6.88302 10.2953V10.1741C6.89259 9.8384 6.95091 9.50591 7.05618 9.18704C7.05388 9.15534 7.05388 9.12351 7.05618 9.0918C7.16997 8.77527 7.3401 8.48195 7.55835 8.226C7.56829 8.19347 7.58987 8.16574 7.61895 8.14809C7.83833 7.89072 8.09868 7.67132 8.38951 7.49873C8.41506 7.47642 8.44438 7.45882 8.47609 7.44678C8.76638 7.28684 9.07848 7.17017 9.4025 7.10046H9.49774C9.66789 7.09156 9.8384 7.09156 10.0086 7.10046C10.173 7.09187 10.3377 7.09187 10.5021 7.10046H10.606C10.9338 7.1707 11.2491 7.2904 11.541 7.45544H11.619C11.9087 7.62595 12.1666 7.84569 12.3809 8.10479L12.4501 8.17406C12.6632 8.43212 12.8301 8.72502 12.9436 9.03986C12.9421 9.07159 12.9421 9.10337 12.9436 9.1351C13.0658 9.46871 13.1359 9.81913 13.1514 10.1741V10.2693C13.1461 10.6018 13.0906 10.9317 12.9869 11.2476C12.9902 11.2793 12.9902 11.3112 12.9869 11.3429C12.873 11.6593 12.7028 11.9526 12.4848 12.2087C12.4671 12.2339 12.4468 12.2571 12.4241 12.278C12.3118 12.4077 12.1902 12.5292 12.0605 12.6416L13.0735 13.2563L13.1601 13.3083L13.2207 13.2477C13.3594 13.1048 13.4868 12.9514 13.6016 12.7888L14.7185 13.3689L15.1081 12.6935L14.0432 12.0182C14.1361 11.8233 14.2115 11.6205 14.2683 11.4122L15.5237 11.5767L15.6536 10.8147L14.4155 10.5377C14.4186 10.4159 14.4099 10.2941 14.3895 10.1741Z" fill="#231F20"/>
<path d="M11.0047 15.2391H10.9785L10.996 15.2129L11.0047 15.2391Z" fill="white"/>
<path d="M11.8442 15.6805L11.775 15.5246L11.6365 15.1956L11.4979 14.8926L11.4287 14.7454L11.143 14.0874H10.4849L10.1559 14.832L9.7317 15.8104L9.61914 16.0787H10.3031L10.433 15.7324H11.1862L11.3248 16.0787H12.0174L11.8442 15.6805ZM10.6148 15.2389L10.7707 14.858L10.9092 15.2129L10.6148 15.2389Z" fill="#231F20"/>
<path d="M13.8787 14.4338C13.8545 14.3981 13.8254 14.366 13.7921 14.3385C13.727 14.2674 13.6472 14.2113 13.5583 14.174C13.4083 14.1083 13.2459 14.0758 13.0821 14.0788H12.1211V16.0701H12.7964V15.5766H13.0821C13.2452 15.5821 13.4076 15.5526 13.5583 15.4901C13.6877 15.4358 13.7988 15.3457 13.8787 15.2303C13.9243 15.1588 13.9566 15.0796 13.9739 14.9966C13.9786 14.9418 13.9786 14.8868 13.9739 14.832C13.98 14.693 13.947 14.555 13.8787 14.4338ZM13.2726 14.9619C13.2109 15.0023 13.1386 15.0233 13.0648 15.0225H12.8224V14.555H13.0648C13.1391 14.5497 13.2128 14.5712 13.2726 14.6156C13.2943 14.6386 13.3109 14.6659 13.3214 14.6957C13.3318 14.7256 13.3358 14.7573 13.3332 14.7888C13.337 14.8203 13.3336 14.8524 13.3231 14.8824C13.3125 14.9124 13.2953 14.9396 13.2726 14.9619Z" fill="#231F20"/>
<path d="M14.8747 14.0786H14.208V16.07H14.8747V14.0786Z" fill="#231F20"/>
</svg>
