<svg width="19" height="20" viewBox="0 0 19 20" fill="none" xmlns="http://www.w3.org/2000/svg">
<path d="M10.6602 11.2021C10.5394 11.0737 10.3918 10.9734 10.2279 10.9085C10.0246 10.8443 9.81758 10.7926 9.608 10.7535C9.47197 10.7337 9.33814 10.7009 9.20833 10.6557C9.12677 10.623 9.08598 10.5741 9.08598 10.5088C9.08598 10.3783 9.21649 10.3049 9.49381 10.3049C9.80575 10.3123 10.1111 10.3963 10.3829 10.5496L10.7091 9.73397C10.4159 9.61853 10.1025 9.56306 9.78744 9.57084V9.08145H9.14308V9.57084C8.83812 9.59974 8.55131 9.7288 8.32744 9.93788C8.23414 10.0254 8.16047 10.1318 8.11126 10.2499C8.06205 10.368 8.03843 10.4951 8.04196 10.623C8.03342 10.8209 8.09721 11.0152 8.2214 11.1695C8.33689 11.3003 8.48245 11.4011 8.64554 11.4632C8.84826 11.5314 9.05536 11.5859 9.26543 11.6263C9.40365 11.6522 9.53992 11.6876 9.67325 11.7323C9.75481 11.7323 9.80376 11.822 9.80376 11.8873C9.80218 11.9163 9.79203 11.9442 9.77461 11.9674C9.75719 11.9906 9.73327 12.0082 9.70588 12.0178C9.60287 12.0491 9.49534 12.0629 9.38777 12.0586C9.20256 12.0589 9.01835 12.0314 8.84129 11.977C8.66329 11.9314 8.49291 11.8599 8.33559 11.7649L7.98486 12.5806C8.14805 12.6774 8.32367 12.7515 8.50687 12.8008C8.71976 12.8591 8.93879 12.8919 9.15939 12.8987V13.3881H9.80376V12.8334C10.1081 12.7966 10.3934 12.6654 10.6194 12.4582C10.7954 12.2799 10.8949 12.0399 10.8967 11.7894C10.8984 11.6807 10.8784 11.5727 10.8378 11.4719C10.7971 11.371 10.7368 11.2793 10.6602 11.2021ZM10.6602 11.2021C10.5394 11.0737 10.3918 10.9734 10.2279 10.9085C10.0246 10.8443 9.81758 10.7926 9.608 10.7535C9.47197 10.7337 9.33814 10.7009 9.20833 10.6557C9.12677 10.623 9.08598 10.5741 9.08598 10.5088C9.08598 10.3783 9.21649 10.3049 9.49381 10.3049C9.80575 10.3123 10.1111 10.3963 10.3829 10.5496L10.7091 9.73397C10.4159 9.61853 10.1025 9.56306 9.78744 9.57084V9.08145H9.14308V9.57084C8.83812 9.59974 8.55131 9.7288 8.32744 9.93788C8.23414 10.0254 8.16047 10.1318 8.11126 10.2499C8.06205 10.368 8.03843 10.4951 8.04196 10.623C8.03342 10.8209 8.09721 11.0152 8.2214 11.1695C8.33689 11.3003 8.48245 11.4011 8.64554 11.4632C8.84826 11.5314 9.05536 11.5859 9.26543 11.6263C9.40365 11.6522 9.53992 11.6876 9.67325 11.7323C9.75481 11.7323 9.80376 11.822 9.80376 11.8873C9.80218 11.9163 9.79203 11.9442 9.77461 11.9674C9.75719 11.9906 9.73327 12.0082 9.70588 12.0178C9.60287 12.0491 9.49534 12.0629 9.38777 12.0586C9.20256 12.0589 9.01835 12.0314 8.84129 11.977C8.66329 11.9314 8.49291 11.8599 8.33559 11.7649L7.98486 12.5806C8.14805 12.6774 8.32367 12.7515 8.50687 12.8008C8.71976 12.8591 8.93879 12.8919 9.15939 12.8987V13.3881H9.80376V12.8334C10.1081 12.7966 10.3934 12.6654 10.6194 12.4582C10.7954 12.2799 10.8949 12.0399 10.8967 11.7894C10.8984 11.6807 10.8784 11.5727 10.8378 11.4719C10.7971 11.371 10.7368 11.2793 10.6602 11.2021ZM10.6602 11.2021C10.5394 11.0737 10.3918 10.9734 10.2279 10.9085C10.0246 10.8443 9.81758 10.7926 9.608 10.7535C9.47197 10.7337 9.33814 10.7009 9.20833 10.6557C9.12677 10.623 9.08598 10.5741 9.08598 10.5088C9.08598 10.3783 9.21649 10.3049 9.49381 10.3049C9.80575 10.3123 10.1111 10.3963 10.3829 10.5496L10.7091 9.73397C10.4159 9.61853 10.1025 9.56306 9.78744 9.57084V9.08145H9.14308V9.57084C8.83812 9.59974 8.55131 9.7288 8.32744 9.93788C8.23414 10.0254 8.16047 10.1318 8.11126 10.2499C8.06205 10.368 8.03843 10.4951 8.04196 10.623C8.03342 10.8209 8.09721 11.0152 8.2214 11.1695C8.33689 11.3003 8.48245 11.4011 8.64554 11.4632C8.84826 11.5314 9.05536 11.5859 9.26543 11.6263C9.40365 11.6522 9.53992 11.6876 9.67325 11.7323C9.75481 11.7323 9.80376 11.822 9.80376 11.8873C9.80218 11.9163 9.79203 11.9442 9.77461 11.9674C9.75719 11.9906 9.73327 12.0082 9.70588 12.0178C9.60287 12.0491 9.49534 12.0629 9.38777 12.0586C9.20256 12.0589 9.01835 12.0314 8.84129 11.977C8.66329 11.9314 8.49291 11.8599 8.33559 11.7649L7.98486 12.5806C8.14805 12.6774 8.32367 12.7515 8.50687 12.8008C8.71976 12.8591 8.93879 12.8919 9.15939 12.8987V13.3881H9.80376V12.8334C10.1081 12.7966 10.3934 12.6654 10.6194 12.4582C10.7954 12.2799 10.8949 12.0399 10.8967 11.7894C10.8984 11.6807 10.8784 11.5727 10.8378 11.4719C10.7971 11.371 10.7368 11.2793 10.6602 11.2021Z" fill="white"/>
<path d="M10.6602 11.2021C10.5394 11.0737 10.3918 10.9734 10.2279 10.9085C10.0246 10.8443 9.81758 10.7926 9.608 10.7535C9.47197 10.7337 9.33814 10.7009 9.20833 10.6557C9.12677 10.623 9.08598 10.5741 9.08598 10.5088C9.08598 10.3783 9.21649 10.3049 9.49381 10.3049C9.80575 10.3123 10.1111 10.3963 10.3829 10.5496L10.7091 9.73397C10.4159 9.61853 10.1025 9.56306 9.78744 9.57084V9.08145H9.14308V9.57084C8.83812 9.59974 8.55131 9.7288 8.32744 9.93788C8.23414 10.0254 8.16047 10.1318 8.11126 10.2499C8.06205 10.368 8.03843 10.4951 8.04196 10.623C8.03342 10.8209 8.09721 11.0152 8.2214 11.1695C8.33689 11.3003 8.48245 11.4011 8.64554 11.4632C8.84826 11.5314 9.05536 11.5859 9.26543 11.6263C9.40365 11.6522 9.53992 11.6876 9.67325 11.7323C9.75481 11.7323 9.80376 11.822 9.80376 11.8873C9.80218 11.9163 9.79203 11.9442 9.77461 11.9674C9.75719 11.9906 9.73327 12.0082 9.70588 12.0178C9.60287 12.0491 9.49534 12.0629 9.38777 12.0586C9.20256 12.0589 9.01835 12.0314 8.84129 11.977C8.66329 11.9314 8.49291 11.8599 8.33559 11.7649L7.98486 12.5806C8.14805 12.6774 8.32367 12.7515 8.50687 12.8008C8.71976 12.8591 8.93879 12.8919 9.15939 12.8987V13.3881H9.80376V12.8334C10.1081 12.7966 10.3934 12.6654 10.6194 12.4582C10.7954 12.2799 10.8949 12.0399 10.8967 11.7894C10.8984 11.6807 10.8784 11.5727 10.8378 11.4719C10.7971 11.371 10.7368 11.2793 10.6602 11.2021Z" fill="#231F20"/>
<path d="M9.42073 0.508972C7.55749 0.508972 5.73609 1.06149 4.18686 2.09665C2.63763 3.13181 1.43015 4.60313 0.717116 6.32454C0.00408387 8.04596 -0.182481 9.94016 0.18102 11.7676C0.544521 13.595 1.44176 15.2737 2.75927 16.5912C4.07678 17.9087 5.7554 18.8059 7.58284 19.1694C9.41028 19.5329 11.3045 19.3464 13.0259 18.6333C14.7473 17.9203 16.2186 16.7128 17.2538 15.1636C18.2889 13.6144 18.8415 11.7929 18.8415 9.9297C18.8393 7.43183 17.8461 5.03689 16.0798 3.27062C14.3135 1.50436 11.9186 0.511132 9.42073 0.508972ZM9.42073 18.127C7.79776 18.135 6.20891 17.6611 4.85552 16.7653C3.50214 15.8695 2.44513 14.5921 1.81844 13.095C1.19175 11.5979 1.02359 9.94843 1.33526 8.35565C1.64693 6.76286 2.42441 5.29843 3.56918 4.14794C4.71394 2.99745 6.17447 2.21267 7.76569 1.89306C9.3569 1.57345 11.0072 1.73338 12.5074 2.3526C14.0076 2.97181 15.2903 4.02244 16.1928 5.37134C17.0954 6.72024 17.5772 8.30671 17.5772 9.9297C17.5751 12.096 16.7164 14.1737 15.1883 15.7093C13.6603 17.245 11.587 18.114 9.42073 18.127Z" fill="#231F20"/>
<path d="M14.2415 10.8269C13.7731 9.48526 12.9534 8.29381 11.8679 7.37673C12.0229 6.98521 12.1697 6.56108 12.3165 6.19404C12.3821 6.04046 12.409 5.87311 12.3948 5.70671C12.3806 5.54031 12.3257 5.37995 12.235 5.23973C12.136 5.10432 12.0055 4.99496 11.8549 4.92108C11.7043 4.8472 11.5381 4.811 11.3704 4.81559C11.1233 4.79846 10.8752 4.79846 10.6281 4.81559C10.3436 4.51169 9.95373 4.32804 9.53824 4.30227C9.12276 4.27649 8.71313 4.41053 8.39325 4.67693C8.3278 4.73009 8.25168 4.76854 8.17004 4.78965C8.08841 4.81076 8.00319 4.81405 7.92018 4.79928H7.47157C7.30207 4.78695 7.13229 4.81935 6.97924 4.89323C6.82618 4.96711 6.69521 5.07988 6.59941 5.22027C6.50362 5.36065 6.44637 5.52373 6.43339 5.69319C6.4204 5.86265 6.45214 6.03254 6.52542 6.18588C6.67224 6.57739 6.8109 7.00153 6.96587 7.36041C6.43077 7.82572 5.9542 8.35432 5.54665 8.93461C4.75504 9.99278 4.32081 11.2755 4.30686 12.5969C4.29564 12.9838 4.36343 13.3689 4.5061 13.7287C4.64877 14.0885 4.86331 14.4154 5.13661 14.6895C5.40992 14.9635 5.73624 15.179 6.09564 15.3227C6.45504 15.4663 6.83996 15.5352 7.22688 15.525H11.6314C12.3388 15.5401 13.0265 15.2911 13.5603 14.8266C14.0941 14.3622 14.4358 13.7156 14.5188 13.0129C14.585 12.2727 14.4904 11.5271 14.2415 10.8269ZM10.0898 14.3016H7.25135C7.02399 14.3121 6.79694 14.275 6.5848 14.1925C6.37266 14.11 6.18012 13.9841 6.01956 13.8228C5.859 13.6614 5.73398 13.4683 5.65254 13.2558C5.57109 13.0432 5.53502 12.816 5.54665 12.5887C5.56244 11.5209 5.91974 10.4861 6.56621 9.63607C6.95015 9.08604 7.40857 8.59193 7.92833 8.1679C8.08523 8.05614 8.19751 7.89246 8.24528 7.70585C8.29305 7.51924 8.27323 7.32175 8.18934 7.14834C8.04253 6.7813 7.91202 6.42242 7.76521 6.03906H7.85493C8.09199 6.06455 8.33176 6.04231 8.5601 5.97367C8.78843 5.90503 9.00072 5.79138 9.18443 5.6394C9.37203 5.47627 9.6412 5.59046 9.81248 5.74543C10.0353 5.94742 10.3275 6.05554 10.6281 6.04722H11.0686C10.9299 6.42242 10.7913 6.79762 10.6444 7.17281C10.5683 7.34159 10.5519 7.53125 10.5978 7.71061C10.6438 7.88998 10.7494 8.04837 10.8973 8.15975C11.8892 8.95426 12.6428 10.007 13.0751 11.2021C13.2595 11.7249 13.329 12.2813 13.279 12.8334C13.2291 13.2298 13.0354 13.5941 12.7347 13.8572C12.434 14.1203 12.0472 14.2639 11.6477 14.2608L10.0898 14.3016Z" fill="#231F20"/>
</svg>
