<svg width="15" height="12" viewBox="0 0 15 12" fill="none" xmlns="http://www.w3.org/2000/svg">
<g id="Calendar">
<path id="Vector" d="M11.7091 6.49536H11.5091C11.2692 6.49606 11.0305 6.52972 10.7998 6.59539C10.2635 6.75071 9.79188 7.07568 9.45581 7.5216C9.11974 7.96751 8.93725 8.51034 8.93569 9.06871C8.92183 9.21083 8.92183 9.35396 8.93569 9.49609C8.98736 9.81966 9.10498 10.1292 9.28123 10.4054C9.51009 10.7826 9.83211 11.0947 10.2164 11.3116C10.6006 11.5285 11.0341 11.643 11.4754 11.644C11.9166 11.645 12.3507 11.5326 12.7359 11.3175C13.1212 11.1024 13.4447 10.7918 13.6753 10.4156C13.9059 10.0395 14.0359 9.61032 14.0528 9.16941C14.0698 8.7285 13.973 8.29065 13.7719 7.8979C13.5709 7.50515 13.2722 7.1707 12.9045 6.92668C12.5369 6.68266 12.1127 6.53726 11.6727 6.50445L11.7091 6.49536ZM11.5091 10.9146C11.0874 10.9244 10.6754 10.7874 10.3437 10.527C10.0119 10.2666 9.781 9.89891 9.69043 9.48698C9.65391 9.34747 9.63554 9.20382 9.63585 9.05961C9.63585 8.57728 9.82748 8.1147 10.1685 7.77365C10.5096 7.43259 10.9721 7.24099 11.4545 7.24099H11.6545C12.1441 7.26752 12.6031 7.48744 12.9305 7.85237C13.2579 8.21731 13.4269 8.69735 13.4004 9.18691C13.3739 9.67647 13.1539 10.1355 12.789 10.4629C12.4241 10.7903 11.944 10.9593 11.4545 10.9328L11.5091 10.9146Z" fill="#231F20"/>
<path id="Vector_2" d="M12.8098 8.76696V9.27617H11.7732V10.3128H11.2549V9.27617H10.2183V8.76696H11.2549V7.73035H11.7732V8.76696H12.8098Z" fill="#231F20"/>
<path id="Vector_3" d="M10.1991 1.26527H9.3898V0.355957H8.88059V1.26527H7.5348V0.355957H7.01652V1.26527H5.67983V0.355957H5.16152V1.26527H3.82483V0.355957H3.30652V1.26527H2.49725C2.09765 1.26765 1.7151 1.42745 1.43254 1.71001C1.14998 1.99258 0.990179 2.37513 0.987793 2.77472V8.89437C0.990195 9.29313 1.15028 9.67474 1.4331 9.95585C1.71591 10.237 2.09849 10.3947 2.49725 10.3947H8.4896C8.36252 10.1051 8.27681 9.79896 8.23499 9.48542H2.49725C2.33964 9.48544 2.18835 9.42346 2.07606 9.31287C1.96377 9.20228 1.89949 9.05196 1.8971 8.89437V4.79339H10.7992V5.83001C11.0327 5.78259 11.2703 5.75822 11.5085 5.75726H11.7086V2.77472C11.7086 2.37439 11.5495 1.99046 11.2664 1.70738C10.9834 1.4243 10.5994 1.26527 10.1991 1.26527ZM10.7992 3.88408H1.8971V2.77472C1.89945 2.61629 1.96343 2.465 2.07548 2.35295C2.18752 2.24091 2.33881 2.17692 2.49725 2.17458H3.30652V2.73834H2.98826V3.24756H4.1431V2.73834H3.82483V2.17458H5.16152V2.73834H4.84326V3.24756H5.99807V2.73834H5.67983V2.17458H7.01652V2.73834H6.69825V3.24756H7.85307V2.73834H7.5348V2.17458H8.88059V2.73834H8.56233V3.24756H9.70807V2.73834H9.3898V2.17458H10.1991C10.3575 2.17692 10.5088 2.24091 10.6209 2.35295C10.7329 2.465 10.7969 2.61629 10.7992 2.77472V3.88408Z" fill="#231F20"/>
<path id="Vector_4" d="M4.63424 6.63732C4.55147 6.51081 4.43492 6.41 4.2978 6.34633C4.14315 6.27829 3.97573 6.24418 3.80679 6.24631H2.97021V7.92854H3.80679C3.97573 7.93067 4.14315 7.89656 4.2978 7.82851C4.43492 7.76485 4.55147 7.66404 4.63424 7.53753C4.71674 7.40058 4.7578 7.24266 4.75245 7.08287C4.75656 6.92609 4.71552 6.77145 4.63424 6.63732ZM4.07047 7.38295C4.03126 7.41843 3.98526 7.44559 3.93525 7.46278C3.88523 7.47998 3.83226 7.48684 3.77951 7.48297H3.54308V6.69188H3.77951C3.83226 6.688 3.88523 6.69487 3.93525 6.71206C3.98526 6.72926 4.03126 6.75642 4.07047 6.7919C4.10715 6.83067 4.1357 6.87639 4.15444 6.92636C4.17318 6.97634 4.18172 7.02955 4.17958 7.08287C4.18244 7.13765 4.17427 7.19244 4.15552 7.24399C4.13678 7.29554 4.10784 7.3428 4.07047 7.38295Z" fill="#231F20"/>
<path id="Vector_5" d="M6.05277 6.24622H5.48898L4.75244 7.92844H5.33441L5.44353 7.63746H6.08913L6.19824 7.92844H6.78931L6.05277 6.24622ZM5.59812 7.22827L5.76179 6.8009L5.92546 7.22827H5.59812Z" fill="#231F20"/>
<path id="Vector_6" d="M7.86252 6.24622L7.50788 6.82817L7.17144 6.24622H6.57129L7.19871 7.31011V7.92844H7.77158V7.31921L8.40811 6.24622H7.86252Z" fill="#231F20"/>
</g>
</svg>
