<svg width="13" height="16" viewBox="0 0 13 16" fill="none" xmlns="http://www.w3.org/2000/svg">
<g id="Group 43">
<path id="Vector" d="M10.492 3.82914L9.92768 8.52877H9.62162C8.44213 8.52877 7.31095 8.97758 6.47693 9.77647C5.6429 10.5754 5.17435 11.6589 5.17435 12.7887C5.17472 13.1407 5.21968 13.4914 5.30825 13.833H2.19994C1.9634 13.8543 1.72656 13.7954 1.53078 13.6664C1.335 13.5375 1.19271 13.3468 1.12876 13.1276L0.00976562 3.82914C0.00976562 3.66424 0.172352 3.51766 0.411453 3.51766H10.0711C10.3294 3.49934 10.5111 3.64591 10.492 3.82914Z" fill="#231F20"/>
<path id="Vector_2" d="M10.0709 1.67648H7.92858V0.861145C7.92858 0.632756 7.83386 0.41372 7.66526 0.252225C7.49667 0.0907294 7.268 0 7.02957 0H3.45262C3.21418 0 2.98551 0.0907294 2.81691 0.252225C2.64831 0.41372 2.55359 0.632756 2.55359 0.861145V1.67648H0.411246C0.301305 1.67888 0.196719 1.7224 0.119857 1.79773C0.0429951 1.87307 -2.83909e-05 1.97423 1.40562e-08 2.07956V2.62924C-2.83909e-05 2.73457 0.0429951 2.83573 0.119857 2.91107C0.196719 2.9864 0.301305 3.02992 0.411246 3.03232H10.0709C10.1809 3.02992 10.2855 2.9864 10.3623 2.91107C10.4392 2.83573 10.4822 2.73457 10.4822 2.62924V2.07956C10.4822 1.97423 10.4392 1.87307 10.3623 1.79773C10.2855 1.7224 10.1809 1.67888 10.0709 1.67648ZM6.71395 1.67648H3.77779V1.17262H6.71395V1.67648Z" fill="#231F20"/>
<path id="Vector_3" d="M9.80294 9.53662H9.62122C8.72748 9.53662 7.8702 9.87607 7.23733 10.4806C6.60447 11.085 6.24765 11.9052 6.24512 12.7613C6.24641 13.1166 6.30778 13.4692 6.42684 13.8057C6.62397 14.3618 6.97549 14.856 7.44366 15.2352C7.91182 15.6144 8.47896 15.8644 9.08421 15.9582C9.68945 16.0521 10.31 15.9863 10.8791 15.7679C11.4483 15.5495 11.9446 15.1867 12.3148 14.7186C12.685 14.2505 12.9152 13.6946 12.9805 13.1106C13.0459 12.5267 12.944 11.9367 12.6858 11.404C12.4276 10.8714 12.0228 10.4161 11.5149 10.0871C11.007 9.75811 10.4152 9.56781 9.80294 9.53662ZM9.62122 14.96C9.20585 14.9613 8.79788 14.8547 8.44081 14.6514C8.08373 14.4481 7.79095 14.1558 7.59365 13.8057C7.40947 13.486 7.31396 13.1264 7.31628 12.7613C7.31628 12.4718 7.37597 12.1852 7.49192 11.9178C7.60787 11.6505 7.77781 11.4077 7.99197 11.2034C8.20612 10.9991 8.46029 10.8373 8.73989 10.7274C9.01948 10.6174 9.31898 10.5615 9.62122 10.5627H9.6786C10.2874 10.5699 10.8682 10.8086 11.2933 11.2261C11.7184 11.6436 11.9529 12.2057 11.9453 12.7888C11.9377 13.3719 11.6885 13.9283 11.2527 14.3354C10.8168 14.7426 10.23 14.9673 9.62122 14.96Z" fill="#231F20"/>
<path id="Vector_4" d="M10.5683 13.4944L10.0709 12.8257L10.6257 12.0928L10.9317 11.6805H10.0709L9.66926 12.276L9.4971 12.0745L9.21019 11.6714H8.25379L8.57896 12.1111L9.11455 12.844L8.6459 13.4761L8.41638 13.7876L8.2251 14.0441H9.1815L9.28669 13.8792L9.59275 13.412L9.90836 13.8792L10.0136 14.0441H10.97L10.5683 13.4944Z" fill="#231F20"/>
</g>
</svg>
