<svg width="19" height="20" viewBox="0 0 19 20" fill="none" xmlns="http://www.w3.org/2000/svg">
<path d="M4.12294 9.53894C3.84368 9.53893 3.56718 9.5942 3.30937 9.70157C3.05157 9.80893 2.81758 9.96625 2.62087 10.1645C2.42416 10.3627 2.26864 10.5979 2.16326 10.8565C2.05788 11.1152 2.00474 11.3921 2.0069 11.6713V12.2841C2.27237 13.1475 2.68715 13.9577 3.23241 14.6779V11.6713C3.23241 11.4351 3.32623 11.2086 3.49324 11.0416C3.66024 10.8746 3.88676 10.7808 4.12294 10.7808H4.53144V9.55528L4.12294 9.53894Z" fill="#231F20"/>
<path d="M10.0463 16.0423V17.1289C10.0463 17.1521 10.0416 17.1751 10.0325 17.1965C10.0233 17.2179 10.01 17.2372 9.99314 17.2532C9.97634 17.2693 9.95645 17.2817 9.93468 17.2898C9.91291 17.298 9.88972 17.3016 9.86651 17.3005H7.10504C7.08183 17.3016 7.05863 17.298 7.03686 17.2898C7.01509 17.2817 6.99521 17.2693 6.9784 17.2532C6.96159 17.2372 6.94822 17.2179 6.93909 17.1965C6.92996 17.1751 6.92527 17.1521 6.92529 17.1289V16.0423C6.92529 15.9946 6.94423 15.9489 6.97794 15.9152C7.01165 15.8815 7.05736 15.8625 7.10504 15.8625H9.86651C9.91418 15.8625 9.9599 15.8815 9.99361 15.9152C10.0273 15.9489 10.0463 15.9946 10.0463 16.0423Z" fill="white"/>
<path d="M10.0463 16.0423V17.1289C10.0463 17.1521 10.0416 17.1751 10.0325 17.1965C10.0233 17.2179 10.01 17.2372 9.99314 17.2532C9.97634 17.2693 9.95645 17.2817 9.93468 17.2898C9.91291 17.298 9.88972 17.3016 9.86651 17.3005H7.10504C7.08183 17.3016 7.05863 17.298 7.03686 17.2898C7.01509 17.2817 6.99521 17.2693 6.9784 17.2532C6.96159 17.2372 6.94822 17.2179 6.93909 17.1965C6.92996 17.1751 6.92527 17.1521 6.92529 17.1289V16.0423C6.92529 15.9946 6.94423 15.9489 6.97794 15.9152C7.01165 15.8815 7.05736 15.8625 7.10504 15.8625H9.86651C9.91418 15.8625 9.9599 15.8815 9.99361 15.9152C10.0273 15.9489 10.0463 15.9946 10.0463 16.0423Z" fill="#231F20"/>
<path d="M9.43327 0.551881C7.66388 0.550938 5.92993 1.04792 4.42968 1.986C2.92942 2.92408 1.72342 4.26539 0.949558 5.85658C0.175696 7.44777 -0.134792 9.22461 0.0535965 10.9839C0.241985 12.7433 0.921644 14.4141 2.01486 15.8054C2.71285 16.7007 3.565 17.4643 4.53124 18.0603C4.5965 18.1033 4.66476 18.1415 4.73549 18.1747C4.93264 18.2964 5.1373 18.4056 5.34825 18.5015C5.54433 18.5995 5.74858 18.6894 5.961 18.7711L6.16525 18.8528C7.63861 19.3885 9.22162 19.5513 10.7732 19.3267C11.1882 19.2698 11.5981 19.1797 11.9987 19.057C13.0721 18.7581 14.0805 18.2622 14.9726 17.5946C15.0439 17.5503 15.1121 17.5011 15.1768 17.4475C15.3904 17.2845 15.595 17.11 15.7896 16.9247C16.0079 16.735 16.2126 16.5302 16.4023 16.3119L16.6066 16.075C17.7695 14.7025 18.5155 13.0259 18.7565 11.2432C18.9975 9.46048 18.7234 7.64603 17.9667 6.01401C17.2099 4.38199 16.0021 3.00053 14.4857 2.03269C12.9693 1.06485 11.2077 0.551031 9.40876 0.551881H9.43327ZM16.4268 14.2776C16.245 14.5815 16.0401 14.871 15.8141 15.1436C15.6251 15.383 15.4204 15.6096 15.2013 15.8217C15.1372 15.8885 15.069 15.9513 14.9971 16.0096C14.1438 16.8063 13.1297 17.4108 12.0232 17.7825C11.1853 18.0501 10.3127 18.1932 9.43327 18.2074C8.30929 18.2128 7.19642 17.9847 6.16525 17.5374L5.961 17.4475C5.75006 17.3517 5.5454 17.2425 5.34825 17.1207C5.13637 17.0053 4.93173 16.8771 4.73549 16.7367L4.53124 16.5734C3.45208 15.7626 2.58116 14.7069 1.99036 13.4932C1.45584 12.3798 1.17942 11.16 1.18168 9.92489C1.18394 8.68975 1.46482 7.47104 2.0034 6.35951C2.54199 5.24798 3.3244 4.27229 4.29237 3.50508C5.26034 2.73788 6.38892 2.19894 7.59406 1.9284C8.79921 1.65785 10.0499 1.66268 11.2529 1.94252C12.4559 2.22236 13.5803 2.77 14.5423 3.54466C15.5043 4.31932 16.2792 5.30102 16.8092 6.41668C17.3391 7.53233 17.6106 8.75318 17.6033 9.98829C17.6054 11.3657 17.2567 12.7209 16.5902 13.9263C16.5576 14.0488 16.4922 14.1632 16.4187 14.2776H16.4268Z" fill="#231F20"/>
<path d="M14.074 13.4769H7.09673C6.99747 13.4769 6.91699 13.5574 6.91699 13.6566V14.7351C6.91699 14.8344 6.99747 14.9148 7.09673 14.9148H14.074C14.1732 14.9148 14.2537 14.8344 14.2537 14.7351V13.6566C14.2537 13.5574 14.1732 13.4769 14.074 13.4769Z" fill="#231F20"/>
<path d="M14.2535 11.4997V12.0144C14.2535 12.0752 14.2414 12.1354 14.2179 12.1914C14.1944 12.2475 14.16 12.2983 14.1166 12.3409C14.0733 12.3835 14.0218 12.417 13.9654 12.4395C13.9089 12.462 13.8486 12.473 13.7878 12.4719H11.2224C11.1276 12.4737 11.0346 12.4454 10.9568 12.3911C10.879 12.3368 10.8204 12.2593 10.7894 12.1697C10.7772 12.1186 10.7772 12.0655 10.7894 12.0144V11.4997C10.7854 11.4809 10.7854 11.4614 10.7894 11.4425C10.8068 11.3335 10.8624 11.2343 10.9462 11.1625C11.03 11.0906 11.1365 11.0509 11.2469 11.0504H13.8123C13.9287 11.0564 14.0387 11.106 14.1204 11.1892C14.202 11.2724 14.2496 11.3832 14.2535 11.4997Z" fill="#231F20"/>
<path d="M14.2541 9.17127V9.67781C14.2552 9.73927 14.2439 9.80033 14.2209 9.85733C14.1979 9.91433 14.1636 9.96611 14.1202 10.0096C14.0767 10.053 14.0249 10.0873 13.9679 10.1103C13.9109 10.1333 13.8499 10.1446 13.7884 10.1435H11.223C11.1063 10.144 10.9936 10.1005 10.9074 10.0219C10.8211 9.94317 10.7676 9.83496 10.7573 9.71866V9.17127C10.7573 9.04776 10.8064 8.92931 10.8937 8.84198C10.9811 8.75464 11.0995 8.70558 11.223 8.70558H13.7884C13.8499 8.70447 13.9109 8.71576 13.9679 8.73877C14.0249 8.76178 14.0767 8.79604 14.1202 8.83951C14.1636 8.88297 14.1979 8.93475 14.2209 8.99175C14.2439 9.04876 14.2552 9.10981 14.2541 9.17127Z" fill="#231F20"/>
<path d="M10.0543 9.41637V11.6713C10.0543 11.888 9.96825 12.0958 9.81503 12.249C9.66182 12.4022 9.45401 12.4883 9.23732 12.4883H7.76671C7.55003 12.4883 7.34222 12.4022 7.189 12.249C7.03578 12.0958 6.94971 11.888 6.94971 11.6713V9.41637C6.94971 9.19969 7.03578 8.99188 7.189 8.83866C7.34222 8.68544 7.55003 8.59937 7.76671 8.59937H9.23732C9.45401 8.59937 9.66182 8.68544 9.81503 8.83866C9.96825 8.99188 10.0543 9.19969 10.0543 9.41637Z" fill="#231F20"/>
<path d="M16.4185 8.86894V13.3461C16.2417 13.7101 16.0369 14.0597 15.8058 14.3919C15.6202 14.6623 15.4155 14.9189 15.193 15.1599V8.86894C15.1931 8.63911 15.1035 8.41832 14.9433 8.25353C14.7831 8.08874 14.5649 7.99296 14.3352 7.98658H6.86774C6.75118 7.9855 6.63556 8.00752 6.52756 8.05138C6.41956 8.09524 6.32132 8.16007 6.23852 8.24211C6.15572 8.32415 6.08999 8.42179 6.04514 8.52938C6.00029 8.63697 5.97719 8.75238 5.9772 8.86894V16.9328C5.75989 16.8268 5.54975 16.7067 5.34811 16.5733C5.13568 16.4426 4.93143 16.3037 4.73535 16.1566V8.80358C4.75657 8.25382 4.99108 7.73393 5.38916 7.35416C5.78724 6.97438 6.31758 6.76458 6.86774 6.76924H14.3352C14.8879 6.77776 15.4153 7.00223 15.8046 7.39462C16.194 7.78702 16.4143 8.31618 16.4185 8.86894Z" fill="#231F20"/>
</svg>
