<svg width="19" height="20" viewBox="0 0 19 20" fill="none" xmlns="http://www.w3.org/2000/svg">
<path d="M9.42 0.447189C7.5569 0.447189 5.73564 0.999668 4.18653 2.03475C2.63741 3.06983 1.43003 4.54103 0.717056 6.26231C0.00407894 7.98359 -0.182465 9.87763 0.181008 11.7049C0.544481 13.5322 1.44164 15.2107 2.75905 16.5281C4.07646 17.8455 5.75495 18.7427 7.58225 19.1062C9.40955 19.4697 11.3036 19.2831 13.0249 18.5701C14.7462 17.8571 16.2174 16.6498 17.2524 15.1006C18.2875 13.5515 18.84 11.7303 18.84 9.86718C18.8378 7.3695 17.8447 4.97475 16.0786 3.20862C14.3124 1.4425 11.9177 0.449349 9.42 0.447189ZM9.42 18.0638C7.79715 18.0719 6.20842 17.598 4.85514 16.7023C3.50185 15.8066 2.44494 14.5293 1.8183 13.0322C1.19166 11.5352 1.02351 9.88592 1.33515 8.29325C1.6468 6.70059 2.42422 5.23628 3.5689 4.08588C4.71358 2.93548 6.17399 2.15077 7.76509 1.83118C9.35618 1.51159 11.0063 1.6715 12.5064 2.29067C14.0066 2.90983 15.2891 3.96039 16.1916 5.30918C17.0941 6.65798 17.5758 8.2443 17.5758 9.86718C17.5737 12.0334 16.7151 14.1108 15.1872 15.6463C13.6593 17.1819 11.5861 18.0509 9.42 18.0638Z" fill="black"/>
<path d="M14.1914 14.304C14.1914 14.7036 13.5063 15.0462 12.707 15.0462C11.9077 15.0462 11.2227 14.7036 11.2227 14.304C11.2227 14.0838 11.4265 13.8799 11.7528 13.7412C12.3647 13.959 13.033 13.959 13.6449 13.7412C13.9875 13.8799 14.1914 14.0838 14.1914 14.304Z" fill="black"/>
<path d="M14.191 12.9582C14.191 13.1785 13.9871 13.3824 13.6609 13.521L13.5141 13.5781L13.3346 13.6352C13.1336 13.6783 12.9286 13.7002 12.7229 13.7004C12.5173 13.7007 12.3122 13.6788 12.1112 13.6352L11.9318 13.5781L11.785 13.521C11.4588 13.3824 11.2549 13.1785 11.2549 12.9582C11.2661 12.8607 11.3019 12.7676 11.359 12.6877C11.416 12.6078 11.4925 12.5438 11.5811 12.5015C11.8493 12.5588 12.1225 12.5888 12.3967 12.5912C12.5768 12.5898 12.7567 12.5762 12.935 12.5505C13.1834 12.536 13.4282 12.4838 13.6609 12.3955C13.9871 12.526 14.191 12.738 14.191 12.9582Z" fill="black"/>
<path d="M10.8636 14.304C10.8636 14.7036 10.1785 15.0462 9.37924 15.0462C8.57997 15.0462 7.88672 14.7036 7.88672 14.304C7.88672 14.0838 8.09062 13.8799 8.41686 13.7412C9.03159 13.9589 9.70244 13.9589 10.3172 13.7412C10.6597 13.8799 10.8636 14.0838 10.8636 14.304Z" fill="black"/>
<path d="M10.8637 12.9582C10.8637 13.1785 10.6598 13.3824 10.3336 13.521L10.1868 13.5781L10.0073 13.6352C9.80629 13.6783 9.60126 13.7002 9.39564 13.7004C9.18999 13.7007 8.98492 13.6788 8.78395 13.6352L8.60452 13.5781L8.44956 13.521C8.12332 13.3824 7.91943 13.1785 7.91943 12.9582C7.91943 12.738 8.12332 12.5341 8.44956 12.3955C9.06429 12.6132 9.73514 12.6132 10.3499 12.3955C10.6598 12.526 10.8637 12.738 10.8637 12.9582Z" fill="black"/>
<path d="M10.505 12.0852C10.4517 12.1217 10.3942 12.1519 10.3338 12.1749C10.2827 12.2023 10.2277 12.2216 10.1706 12.232L9.99938 12.2891C9.79834 12.3322 9.59331 12.3541 9.38769 12.3543C9.18205 12.3545 8.97697 12.3327 8.776 12.2891L8.59657 12.232C8.53955 12.2216 8.4845 12.2023 8.43345 12.1749C8.10721 12.0362 7.90332 11.8323 7.90332 11.6121C7.90332 11.3919 8.10721 11.188 8.43345 11.0575C8.74152 11.1705 9.06776 11.2258 9.39584 11.2206H9.48556C9.76725 11.5711 10.1133 11.8645 10.505 12.0852Z" fill="black"/>
<path d="M8.72677 9.80156C8.84179 10.2409 9.04124 10.6537 9.31399 11.0168C9.12457 11.0094 8.9362 10.9849 8.75124 10.9434L8.56366 10.8863C8.51246 10.8737 8.46313 10.8545 8.41686 10.8292C8.09062 10.6906 7.88672 10.4867 7.88672 10.2665C7.88672 10.0462 8.09062 9.84233 8.41686 9.71184C8.51713 9.75138 8.62088 9.78143 8.72677 9.80156Z" fill="black"/>
<path d="M8.58812 8.79834C8.58753 9.05837 8.61211 9.31786 8.66152 9.57316H8.57997L8.41686 9.50789C8.09062 9.3774 7.88672 9.17351 7.88672 8.9533C7.88672 8.7331 8.09062 8.5292 8.41686 8.39055L8.59629 8.45581C8.59629 8.55368 8.58812 8.676 8.58812 8.79834Z" fill="black"/>
<path d="M8.42514 7.02043C8.6004 7.09049 8.78413 7.13712 8.97158 7.15909C8.79827 7.48994 8.68504 7.84892 8.63719 8.21934H8.56379L8.42514 8.17041C8.09891 8.03176 7.89502 7.82786 7.89502 7.60765C7.89502 7.38745 8.09891 7.18355 8.42514 7.0449V7.02043Z" fill="black"/>
<path d="M9.37896 5.49611C9.68223 5.4935 9.98345 5.54601 10.2679 5.65107C9.77087 5.99117 9.35802 6.44027 9.06088 6.96415L8.76727 6.91522L8.57969 6.85812L8.42473 6.80105C8.09849 6.6624 7.8946 6.4585 7.8946 6.23829C7.88645 5.83866 8.57153 5.49611 9.37896 5.49611Z" fill="black"/>
<path d="M7.52781 14.304C7.52781 14.7036 6.85088 15.0462 6.04345 15.0462C5.23602 15.0462 4.55908 14.7036 4.55908 14.304C4.55908 14.0838 4.76299 13.8799 5.08922 13.7412C5.70114 13.959 6.36944 13.959 6.98137 13.7412C7.29129 13.8799 7.52781 14.0838 7.52781 14.304Z" fill="black"/>
<path d="M7.52789 12.9582C7.52789 13.1785 7.324 13.3824 6.99777 13.521L6.85097 13.5781L6.67154 13.6352C6.47057 13.6788 6.2655 13.7007 6.05985 13.7004C5.85423 13.7002 5.6492 13.6783 5.44816 13.6352L5.26873 13.5781L5.12192 13.521C4.79569 13.3824 4.5918 13.1785 4.5918 12.9582C4.5918 12.738 4.79569 12.5341 5.12192 12.3955C5.73385 12.6132 6.40216 12.6132 7.01408 12.3955C7.29138 12.526 7.52789 12.738 7.52789 12.9582Z" fill="black"/>
<path d="M7.52761 11.6121C7.52761 11.8405 7.32372 12.0444 6.99748 12.1749C6.94931 12.2023 6.89695 12.2216 6.84252 12.232L6.66309 12.2891C6.46212 12.3327 6.25705 12.3545 6.0514 12.3543C5.84578 12.3541 5.64075 12.3322 5.43971 12.2891L5.26845 12.232C5.21143 12.2216 5.15639 12.2023 5.10533 12.1749C4.7791 12.0362 4.5752 11.8405 4.5752 11.6121C4.5752 11.3838 4.77909 11.1962 5.09717 11.0575C5.71471 11.2752 6.38809 11.2752 7.00563 11.0575C7.29109 11.188 7.52761 11.3919 7.52761 11.6121Z" fill="black"/>
<path d="M7.52761 10.2665C7.52761 10.4867 7.32371 10.6987 7.00563 10.8292L6.86699 10.8863L6.6794 10.9434C6.47401 10.9943 6.26299 11.0189 6.0514 11.0168C5.83986 11.0179 5.62898 10.9933 5.42341 10.9434L5.24398 10.8944L5.09717 10.8292C4.77909 10.6906 4.5752 10.4867 4.5752 10.2665C4.5752 10.0462 4.77909 9.85049 5.09717 9.71184C5.71471 9.92947 6.38809 9.92947 7.00563 9.71184C7.29109 9.84233 7.52761 10.0789 7.52761 10.2665Z" fill="black"/>
<path d="M7.52776 8.92889C7.52776 9.1491 7.32386 9.35299 7.00578 9.48348C6.96093 9.51344 6.91128 9.53552 6.85898 9.54874L6.68771 9.59767C6.48231 9.64858 6.27131 9.67324 6.05971 9.67107C5.84818 9.67223 5.63728 9.64758 5.43171 9.59767L5.26043 9.54874L5.10548 9.48348C4.7874 9.34483 4.5835 9.1491 4.5835 8.92889C4.5835 8.70868 4.7874 8.50478 5.11363 8.36613C5.72556 8.58389 6.39386 8.58389 7.00578 8.36613C7.29124 8.49663 7.52776 8.70053 7.52776 8.92889Z" fill="black"/>
<path d="M7.52769 7.58319C7.52769 7.80339 7.3238 8.00729 6.99757 8.14594C6.95768 8.17062 6.91335 8.18725 6.86707 8.19487L6.67949 8.26011C6.47852 8.3037 6.27344 8.32559 6.0678 8.32537C5.86218 8.32516 5.65715 8.30328 5.45611 8.26011L5.26853 8.20304L5.13803 8.14594C4.8118 8.00729 4.60791 7.80339 4.60791 7.58319C4.60791 7.36298 4.8118 7.15908 5.13803 7.02043C5.74996 7.23819 6.41826 7.23819 7.03018 7.02043C7.29117 7.15908 7.52769 7.36298 7.52769 7.58319Z" fill="black"/>
<path d="M7.52761 6.2382C7.52761 6.45841 7.32372 6.66231 6.99748 6.80096L6.85068 6.85803L6.66309 6.91513C6.46212 6.95872 6.25705 6.98061 6.0514 6.98039C5.84578 6.98018 5.64075 6.95829 5.43971 6.91513L5.25213 6.85803L5.10533 6.80096C4.7791 6.66231 4.5752 6.45841 4.5752 6.2382C4.5752 5.83857 5.26029 5.49602 6.05956 5.49602C6.85884 5.49602 7.52761 5.83857 7.52761 6.2382Z" fill="black"/>
<path d="M12.7067 5.91975C12.1372 5.91975 11.5806 6.0886 11.1072 6.40495C10.6337 6.7213 10.2647 7.17095 10.0468 7.69702C9.82889 8.22309 9.77187 8.80198 9.88296 9.36045C9.99404 9.91892 10.2682 10.4319 10.6709 10.8345C11.0735 11.2372 11.5865 11.5114 12.145 11.6225C12.7035 11.7336 13.2823 11.6765 13.8084 11.4586C14.3345 11.2407 14.7841 10.8717 15.1005 10.3983C15.4168 9.92482 15.5857 9.36818 15.5857 8.79876C15.5857 8.0352 15.2823 7.30291 14.7424 6.76299C14.2025 6.22307 13.4702 5.91975 12.7067 5.91975ZM12.7067 10.7562C12.3195 10.7562 11.9411 10.6414 11.6192 10.4263C11.2973 10.2112 11.0464 9.90551 10.8982 9.54784C10.7501 9.19018 10.7113 8.79661 10.7869 8.41691C10.8624 8.03721 11.0488 7.68842 11.3226 7.41468C11.5963 7.14093 11.9451 6.9545 12.3248 6.87898C12.7045 6.80345 13.098 6.84221 13.4557 6.99036C13.8134 7.13851 14.1191 7.38939 14.3342 7.71129C14.5493 8.03318 14.664 8.41163 14.664 8.79876C14.664 9.3179 14.4578 9.81577 14.0907 10.1829C13.7237 10.5499 13.2258 10.7562 12.7067 10.7562Z" fill="black"/>
<path d="M13.6285 9.18184C13.6329 9.21977 13.6329 9.2581 13.6285 9.29603C13.602 9.41767 13.5395 9.52849 13.4491 9.6141C13.3097 9.75175 13.1294 9.84046 12.9352 9.86692V10.2013H12.5111V9.87509C12.3649 9.8712 12.2197 9.8493 12.0789 9.80985C11.9589 9.77951 11.8436 9.73285 11.7363 9.67119L11.8587 9.38573L11.9647 9.14921C12.0695 9.21001 12.182 9.25664 12.2991 9.28787C12.4149 9.32607 12.536 9.34535 12.6579 9.34496C12.7276 9.3616 12.8003 9.3616 12.87 9.34496C12.888 9.33988 12.904 9.32927 12.9157 9.31465C12.9274 9.30002 12.9342 9.2821 12.9352 9.2634C12.9352 9.21446 12.9352 9.18185 12.8455 9.16553C12.7591 9.13031 12.6687 9.10567 12.5764 9.09213C12.4378 9.06431 12.3015 9.02613 12.1686 8.97794C12.0612 8.94094 11.9656 8.87624 11.8913 8.79037C11.805 8.68822 11.7612 8.55684 11.769 8.42335V8.38258C11.7851 8.22977 11.851 8.0865 11.9565 7.97479C12.1116 7.83907 12.3058 7.75622 12.5111 7.73826V7.41203H12.9352V7.7301C13.1494 7.74663 13.3578 7.80775 13.5469 7.90953L13.4654 8.10526L13.3267 8.42335C13.1465 8.32475 12.9449 8.27156 12.7395 8.26839C12.5601 8.26839 12.4704 8.30917 12.4704 8.39888C12.4704 8.4886 12.4704 8.47227 12.5519 8.48859C12.6383 8.52381 12.7287 8.54848 12.8211 8.56201C12.9564 8.58503 13.09 8.61774 13.2207 8.65988C13.3333 8.69967 13.4343 8.76694 13.5143 8.85561C13.5895 8.94757 13.6299 9.06306 13.6285 9.18184Z" fill="black"/>
</svg>
