<svg width="19" height="20" viewBox="0 0 19 20" fill="none" xmlns="http://www.w3.org/2000/svg">
<path d="M9.42064 1.54884C7.80744 1.54884 6.23047 2.02721 4.88915 2.92346C3.54782 3.8197 2.50238 5.09356 1.88504 6.58396C1.26769 8.07437 1.10617 9.71436 1.42089 11.2966C1.73561 12.8788 2.51244 14.3321 3.65314 15.4728C4.79385 16.6135 6.24719 17.3903 7.82939 17.7051C9.41159 18.0198 11.0516 17.8583 12.542 17.2409C14.0324 16.6236 15.3063 15.5781 16.2025 14.2368C17.0988 12.8955 17.5771 11.3185 17.5771 9.70532C17.5643 7.54605 16.7008 5.47886 15.174 3.952C13.6471 2.42514 11.5799 1.56168 9.42064 1.54884Z" fill="white"/>
<path d="M9.42074 0.325363C7.55749 0.325363 5.73609 0.877873 4.18686 1.91304C2.63762 2.9482 1.43015 4.41952 0.717117 6.14093C0.00408387 7.86235 -0.182481 9.75655 0.18102 11.584C0.544521 13.4114 1.44176 15.09 2.75927 16.4076C4.07679 17.7251 5.7554 18.6223 7.58284 18.9858C9.41028 19.3493 11.3045 19.1627 13.0259 18.4497C14.7473 17.7367 16.2186 16.5292 17.2538 14.98C18.2889 13.4307 18.8415 11.6093 18.8415 9.7461C18.8393 7.24823 17.8461 4.85327 16.0798 3.08701C14.3135 1.32075 11.9186 0.327523 9.42074 0.325363ZM9.42074 17.9433C7.79776 17.9514 6.20891 17.4775 4.85552 16.5817C3.50214 15.6859 2.44513 14.4085 1.81844 12.9114C1.19175 11.4143 1.02359 9.76482 1.33526 8.17203C1.64693 6.57924 2.42441 5.11482 3.56918 3.96433C4.71394 2.81384 6.17447 2.02906 7.76569 1.70945C9.3569 1.38984 11.0072 1.54977 12.5074 2.16898C14.0076 2.7882 15.2903 3.83882 16.1928 5.18772C17.0954 6.53663 17.5772 8.1231 17.5772 9.7461C17.5751 11.9124 16.7164 13.99 15.1884 15.5257C13.6603 17.0614 11.587 17.9304 9.42074 17.9433Z" fill="#231F20"/>
<path d="M14.69 8.88154V11.1653C14.69 11.2464 14.6739 11.3266 14.6427 11.4014C14.6114 11.4761 14.5656 11.5439 14.508 11.6008C14.4503 11.6577 14.3819 11.7026 14.3067 11.7329C14.2316 11.7631 14.1511 11.7782 14.0701 11.7771H13.7275C13.6565 12.4008 13.3892 12.9858 12.964 13.4476C12.5388 13.9094 11.9779 14.2242 11.3622 14.3464C11.3538 14.5007 11.2865 14.646 11.1742 14.7522C11.0619 14.8585 10.9132 14.9176 10.7586 14.9173H9.94293C9.78069 14.9173 9.62509 14.8529 9.51037 14.7382C9.39565 14.6234 9.3312 14.4678 9.3312 14.3056V14.1996C9.3301 14.1189 9.34517 14.0389 9.37553 13.9642C9.40588 13.8895 9.4509 13.8216 9.50793 13.7646C9.56495 13.7075 9.63282 13.6625 9.70754 13.6322C9.78225 13.6018 9.86229 13.5867 9.94293 13.5878H10.7586C10.8757 13.5883 10.9902 13.6223 11.0885 13.686C11.1868 13.7496 11.2648 13.8401 11.3132 13.9467C11.8299 13.8363 12.2995 13.5683 12.6574 13.1797C13.0154 12.7911 13.2439 12.301 13.3116 11.7771H13.0016C12.8394 11.7771 12.6838 11.7126 12.5691 11.5979C12.4543 11.4832 12.3899 11.3276 12.3899 11.1653V8.88154C12.392 8.71996 12.4571 8.56559 12.5714 8.45132C12.6857 8.33705 12.84 8.27192 13.0016 8.26981H13.2871C13.1526 7.35127 12.6921 6.51178 11.9897 5.90476C11.2874 5.29774 10.39 4.96371 9.4617 4.96371C8.53337 4.96371 7.63603 5.29774 6.93366 5.90476C6.23129 6.51178 5.7708 7.35127 5.63631 8.26981H5.92179C6.08337 8.27192 6.23775 8.33705 6.35202 8.45132C6.46628 8.56559 6.53141 8.71996 6.53352 8.88154V11.1653C6.53352 11.3276 6.46907 11.4832 6.35435 11.5979C6.23963 11.7126 6.08403 11.7771 5.92179 11.7771H4.84513C4.68289 11.7771 4.5273 11.7126 4.41257 11.5979C4.29785 11.4832 4.2334 11.3276 4.2334 11.1653V8.88154C4.23551 8.71996 4.30064 8.56559 4.41491 8.45132C4.52918 8.33705 4.68355 8.27192 4.84513 8.26981H5.22033C5.36264 7.24609 5.8704 6.30838 6.64993 5.62972C7.42946 4.95106 8.42814 4.57724 9.4617 4.57724C10.4953 4.57724 11.4939 4.95106 12.2735 5.62972C13.053 6.30838 13.5608 7.24609 13.7031 8.26981H14.0701C14.2331 8.26979 14.3896 8.33397 14.5056 8.44847C14.6216 8.56296 14.6879 8.71856 14.69 8.88154Z" fill="#231F20"/>
<path d="M8.1647 9.86846C7.99206 9.86924 7.82098 9.83575 7.66137 9.76995C7.50176 9.70415 7.35679 9.60733 7.23486 9.4851L7.66716 9.05281C7.73235 9.11841 7.80987 9.17047 7.89526 9.20599C7.98064 9.24152 8.07222 9.25981 8.1647 9.25981C8.25718 9.25981 8.34876 9.24152 8.43415 9.20599C8.51954 9.17047 8.59705 9.11841 8.66225 9.05281L9.09454 9.4851C8.97373 9.60883 8.82898 9.70664 8.6691 9.77255C8.50923 9.83846 8.33761 9.8711 8.1647 9.86846Z" fill="#231F20"/>
<path d="M10.6608 9.86846C10.4879 9.8711 10.3163 9.83846 10.1564 9.77255C9.99652 9.70664 9.85176 9.60883 9.73096 9.4851L10.1632 9.05281C10.2284 9.11841 10.306 9.17047 10.3914 9.20599C10.4767 9.24152 10.5683 9.25981 10.6608 9.25981C10.7533 9.25981 10.8449 9.24152 10.9302 9.20599C11.0156 9.17047 11.0931 9.11841 11.1583 9.05281L11.5906 9.4851C11.4687 9.60733 11.3237 9.70415 11.1641 9.76995C11.0045 9.83575 10.8334 9.86924 10.6608 9.86846Z" fill="#231F20"/>
<path d="M9.42062 12.0054C8.84652 12.0072 8.29512 11.7814 7.88721 11.3774L8.32765 10.937C8.47035 11.082 8.64048 11.1971 8.82812 11.2757C9.01577 11.3543 9.21718 11.3948 9.42062 11.3948C9.62407 11.3948 9.82548 11.3543 10.0131 11.2757C10.2008 11.1971 10.3709 11.082 10.5136 10.937L10.9459 11.3774C10.7459 11.5779 10.5081 11.7367 10.2463 11.8445C9.98445 11.9523 9.70379 12.007 9.42062 12.0054Z" fill="#231F20"/>
</svg>
