<svg width="19" height="20" viewBox="0 0 19 20" fill="none" xmlns="http://www.w3.org/2000/svg">
<path fill-rule="evenodd" clip-rule="evenodd" d="M17.2698 10.0011C17.2698 14.3365 13.7552 17.8511 9.41982 17.8511C5.08439 17.8511 1.56982 14.3365 1.56982 10.0011C1.56982 5.66562 5.08439 2.15106 9.41982 2.15106C13.7552 2.15106 17.2698 5.66562 17.2698 10.0011ZM9.70109 7.94628C8.9376 8.26386 7.41161 8.92114 5.12318 9.91817C4.75157 10.066 4.55691 10.2106 4.53919 10.3519C4.50924 10.5908 4.80841 10.6849 5.2158 10.813C5.27122 10.8304 5.32863 10.8485 5.38749 10.8675C5.7883 10.9979 6.32746 11.1503 6.60774 11.1563C6.86199 11.1618 7.14576 11.057 7.45904 10.8419C9.59723 9.39857 10.7009 8.66907 10.7702 8.6533C10.8191 8.64223 10.8868 8.62825 10.9328 8.66907C10.9787 8.70989 10.9741 8.78714 10.9693 8.80786C10.9397 8.93425 9.7653 10.026 9.15756 10.591C8.96813 10.7671 8.83374 10.892 8.80627 10.9206C8.74472 10.9845 8.682 11.045 8.62171 11.103C8.24939 11.462 7.97009 11.7312 8.63718 12.1708C8.95777 12.382 9.21423 12.5567 9.47014 12.731C9.7496 12.9213 10.0284 13.1112 10.3891 13.3476C10.4809 13.4078 10.5687 13.4704 10.6542 13.5313C10.9794 13.7632 11.2716 13.9715 11.6326 13.9382C11.8423 13.919 12.059 13.7217 12.1691 13.1334C12.4291 11.7432 12.9403 8.73093 13.0585 7.4897C13.0688 7.38095 13.0558 7.24177 13.0453 7.18067C13.0348 7.11958 13.013 7.03252 12.9336 6.96808C12.8395 6.89176 12.6944 6.87567 12.6294 6.87676C12.3341 6.88202 11.8811 7.03953 9.70109 7.94628Z" fill="black"/>
</svg>
