<svg width="19" height="20" viewBox="0 0 19 20" fill="none" xmlns="http://www.w3.org/2000/svg">
<path d="M9.42074 0.387863C7.55749 0.387863 5.73609 0.940379 4.18686 1.97554C2.63763 3.0107 1.43015 4.48201 0.717121 6.20343C0.00408849 7.92484 -0.182482 9.81904 0.181019 11.6465C0.544519 13.4739 1.44176 15.1525 2.75928 16.47C4.07679 17.7876 5.7554 18.6848 7.58284 19.0483C9.41028 19.4118 11.3045 19.2252 13.0259 18.5122C14.7473 17.7992 16.2186 16.5917 17.2538 15.0425C18.2889 13.4932 18.8415 11.6718 18.8415 9.80859C18.8393 7.31072 17.8461 4.91578 16.0798 3.14952C14.3135 1.38325 11.9186 0.390023 9.42074 0.387863ZM9.42074 18.0058C7.79776 18.0139 6.20891 17.54 4.85552 16.6442C3.50213 15.7484 2.44514 14.471 1.81845 12.9739C1.19176 11.4768 1.02359 9.82732 1.33527 8.23453C1.64694 6.64174 2.42442 5.17732 3.56919 4.02683C4.71395 2.87634 6.17447 2.09157 7.76568 1.77195C9.3569 1.45234 11.0072 1.61227 12.5074 2.23149C14.0076 2.8507 15.2903 3.90133 16.1928 5.25023C17.0954 6.59913 17.5772 8.18559 17.5772 9.80859C17.5751 11.9749 16.7164 14.0525 15.1883 15.5882C13.6603 17.1239 11.587 17.9929 9.42074 18.0058Z" fill="#231F20"/>
<path d="M13.7435 4.75159H5.0976C4.66496 4.75159 4.25003 4.92345 3.9441 5.22938C3.63818 5.53531 3.46631 5.95024 3.46631 6.38288V13.2506C3.46631 13.6833 3.63818 14.0982 3.9441 14.4041C4.25003 14.7101 4.66496 14.8819 5.0976 14.8819H13.7435C14.1761 14.8819 14.591 14.7101 14.897 14.4041C15.2029 14.0982 15.3748 13.6833 15.3748 13.2506V6.38288C15.3748 5.95024 15.2029 5.53531 14.897 5.22938C14.591 4.92345 14.1761 4.75159 13.7435 4.75159ZM14.4775 13.2425C14.4786 13.3396 14.4604 13.4359 14.424 13.5259C14.3876 13.6159 14.3337 13.6978 14.2654 13.7668C14.1972 13.8359 14.1159 13.8907 14.0263 13.9281C13.9367 13.9655 13.8406 13.9847 13.7435 13.9847H5.0976C4.90075 13.9847 4.71196 13.9065 4.57276 13.7673C4.43357 13.6281 4.35536 13.4393 4.35536 13.2425V6.38288C4.35536 6.18603 4.43357 5.99724 4.57276 5.85804C4.71196 5.71885 4.90075 5.64064 5.0976 5.64064H13.7435C13.8406 5.64063 13.9367 5.65989 14.0263 5.69729C14.1159 5.73469 14.1972 5.7895 14.2654 5.85853C14.3337 5.92756 14.3876 6.00945 14.424 6.09945C14.4604 6.18946 14.4786 6.2858 14.4775 6.38288V13.2425Z" fill="#231F20"/>
<path d="M12.8625 6.45628H5.97033C5.74189 6.47784 5.52971 6.58384 5.37527 6.75354C5.22084 6.92324 5.13525 7.14444 5.13525 7.37389C5.13525 7.60334 5.22084 7.82454 5.37527 7.99423C5.52971 8.16393 5.74189 8.26993 5.97033 8.29149H12.8625C13.091 8.26993 13.3032 8.16393 13.4576 7.99423C13.612 7.82454 13.6976 7.60334 13.6976 7.37389C13.6976 7.14444 13.612 6.92324 13.4576 6.75354C13.3032 6.58384 13.091 6.47784 12.8625 6.45628ZM12.8625 7.67975H5.97033C5.89778 7.66787 5.83181 7.63058 5.78421 7.57455C5.73662 7.51852 5.7105 7.4474 5.7105 7.37389C5.7105 7.30037 5.73662 7.22925 5.78421 7.17322C5.83181 7.11719 5.89778 7.07991 5.97033 7.06802H12.8625C12.9351 7.07991 13.0011 7.11719 13.0486 7.17322C13.0962 7.22925 13.1224 7.30037 13.1224 7.37389C13.1224 7.4474 13.0962 7.51852 13.0486 7.57455C13.0011 7.63058 12.9351 7.66787 12.8625 7.67975Z" fill="#231F20"/>
<path d="M12.8625 11.3257H5.97033C5.74189 11.3473 5.52971 11.4533 5.37527 11.623C5.22084 11.7927 5.13525 12.0139 5.13525 12.2433C5.13525 12.4728 5.22084 12.694 5.37527 12.8637C5.52971 13.0334 5.74189 13.1394 5.97033 13.1609H12.8625C13.091 13.1394 13.3032 13.0334 13.4576 12.8637C13.612 12.694 13.6976 12.4728 13.6976 12.2433C13.6976 12.0139 13.612 11.7927 13.4576 11.623C13.3032 11.4533 13.091 11.3473 12.8625 11.3257ZM12.8625 12.5492H5.97033C5.89778 12.5373 5.83181 12.5 5.78421 12.444C5.73662 12.388 5.7105 12.3168 5.7105 12.2433C5.7105 12.1698 5.73662 12.0987 5.78421 12.0427C5.83181 11.9866 5.89778 11.9493 5.97033 11.9374H12.8625C12.9351 11.9493 13.0011 11.9866 13.0486 12.0427C13.0962 12.0987 13.1224 12.1698 13.1224 12.2433C13.1224 12.3168 13.0962 12.388 13.0486 12.444C13.0011 12.5 12.9351 12.5373 12.8625 12.5492Z" fill="#231F20"/>
<path d="M8.19704 8.93585H5.97033C5.74189 8.95741 5.52971 9.0634 5.37527 9.23309C5.22084 9.40279 5.13525 9.624 5.13525 9.85346C5.13525 10.0829 5.22084 10.3041 5.37527 10.4738C5.52971 10.6435 5.74189 10.7495 5.97033 10.7711H8.19704C8.42548 10.7495 8.63765 10.6435 8.79209 10.4738C8.94652 10.3041 9.03212 10.0829 9.03212 9.85346C9.03212 9.624 8.94652 9.40279 8.79209 9.23309C8.63765 9.0634 8.42548 8.95741 8.19704 8.93585ZM8.19704 10.1593H5.97033C5.89778 10.1474 5.83181 10.1101 5.78421 10.0541C5.73662 9.99809 5.7105 9.92697 5.7105 9.85346C5.7105 9.77994 5.73662 9.70881 5.78421 9.65278C5.83181 9.59675 5.89778 9.55947 5.97033 9.54759H8.19704C8.26959 9.55947 8.33555 9.59675 8.38314 9.65278C8.43074 9.70881 8.45687 9.77994 8.45687 9.85346C8.45687 9.92697 8.43074 9.99809 8.38314 10.0541C8.33555 10.1101 8.26959 10.1474 8.19704 10.1593Z" fill="#231F20"/>
<path d="M12.863 8.8951H10.5792C10.3508 8.91666 10.1386 9.02265 9.98416 9.19235C9.82972 9.36205 9.74414 9.58325 9.74414 9.8127C9.74414 10.0422 9.82972 10.2633 9.98416 10.433C10.1386 10.6027 10.3508 10.7087 10.5792 10.7303H12.8467C13.0752 10.7087 13.2873 10.6027 13.4418 10.433C13.5962 10.2633 13.6818 10.0422 13.6818 9.8127C13.6818 9.58325 13.5962 9.36205 13.4418 9.19235C13.2873 9.02265 13.0752 8.91666 12.8467 8.8951H12.863ZM12.863 10.1186H10.5792C10.5389 10.1186 10.499 10.1105 10.4618 10.0948C10.4247 10.0792 10.391 10.0562 10.3629 10.0273C10.3348 9.99842 10.3127 9.96418 10.298 9.92662C10.2833 9.88905 10.2763 9.84893 10.2774 9.80862C10.2763 9.76868 10.2833 9.72894 10.2981 9.69181C10.3129 9.65469 10.3351 9.62097 10.3633 9.59272C10.3916 9.56447 10.4253 9.54227 10.4624 9.5275C10.4995 9.51274 10.5393 9.50571 10.5792 9.50683H12.8467C12.8867 9.50571 12.9264 9.51274 12.9635 9.5275C13.0006 9.54227 13.0344 9.56447 13.0626 9.59272C13.0909 9.62097 13.1131 9.65469 13.1278 9.69181C13.1426 9.72894 13.1496 9.76868 13.1485 9.80862C13.1507 9.88731 13.1222 9.96376 13.0688 10.0217C13.0155 10.0796 12.9416 10.1143 12.863 10.1186Z" fill="#231F20"/>
</svg>
